<svg id="Layer_1" data-name="Layer 1" xmlns="http://www.w3.org/2000/svg" viewBox="0 0 1798 838"><defs><style>.cls-1{fill:#cdebf8;fill-opacity:0.5;stroke:#0071bc;}.cls-1,.cls-2{stroke-miterlimit:10;}.cls-2{fill:none;stroke:#29abe2;stroke-width:0.5px;}.cls-3{font-size:31.01px;fill:#0071bc;font-family:HelveticaNeue, Helvetica Neue;}.cls-4{font-size:66.06px;fill:#29abe2;font-family:Raleway-Bold, Raleway;font-weight:700;}.cls-5{letter-spacing:0em;}</style></defs><title>Artboard 2</title><path class="cls-1" d="M80.69,735.12H515.8L537,713.94,556.23,72.84l17.33,181,34.65,234.88,5.78,52,13.48,48.13,25,65.46,40.43,30.8,13.48,3.85,19.25,19.25L758.38,712h27L820,700.47l36.58,13.48,25-5.78,48.13,7.7,27-1.93,21.18-9.63,13.48-19.25,23.1,15.4h15.4l40.43,15.4,55.83,3.85,19.25-3.85,17.33-34.65,38.51,32.73,19.25-9.63,21.18-30.8,19.25,42.36,32.73,7.7s17.33-3.85,23.1-3.85,34.65-3.85,34.65-3.85l23.1,7.7,34.65-1.93,23.1,1.93h34.65l19.25-3.85,19.25-50.06,21.18,30.8,17.33,15.4,50.06,3.85,21.18-5.78,48.13,9.63h125.14V740.9H80.69Z"/><rect class="cls-2" x="81.15" y="11.01" width="1705.13" height="732.9"/><line class="cls-2" x1="324.2" y1="11.01" x2="324.2" y2="743.91"/><line class="cls-2" x1="569.95" y1="11.01" x2="569.95" y2="743.91"/><line class="cls-2" x1="810.8" y1="11.01" x2="810.8" y2="743.91"/><line class="cls-2" x1="1051.66" y1="11.01" x2="1051.66" y2="743.91"/><line class="cls-2" x1="1297.4" y1="11.01" x2="1297.4" y2="743.91"/><line class="cls-2" x1="1543.15" y1="11.01" x2="1543.15" y2="743.91"/><line class="cls-2" x1="81.15" y1="256.81" x2="1786.28" y2="256.81"/><line class="cls-2" x1="81.15" y1="491.39" x2="1786.28" y2="491.39"/><text class="cls-3" transform="translate(81.15 821.75)">SEPT 27 01:01 GMT</text><text class="cls-3" transform="translate(1506.74 815.01)">SEPT 27 02:30 GMT</text><text class="cls-4" transform="translate(838.36 829.85)">Time</text><text class="cls-4" transform="translate(51.66 521.95) rotate(-90)">Reque<tspan class="cls-5" x="206.63" y="0">s</tspan><tspan x="239.99" y="0">ts</tspan></text></svg>