<svg id="Layer_1" data-name="Layer 1" xmlns="http://www.w3.org/2000/svg" viewBox="0 0 1854.19 867.09"><defs><style>.cls-1{fill:#cdebf8;fill-opacity:0.5;stroke:#0071bc;}.cls-1,.cls-2{stroke-miterlimit:10;}.cls-2{fill:none;stroke:#29abe2;stroke-width:0.5px;}.cls-3{font-size:67.42px;fill:#29abe2;font-family:Raleway-Bold, Raleway;font-weight:700;}.cls-4{letter-spacing:0em;}.cls-5{font-size:31.01px;fill:#0071bc;font-family:HelveticaNeue, Helvetica Neue;}</style></defs><title>Artboard 5</title><polygon class="cls-1" points="85.06 368.69 197.04 538.43 318.86 578.18 445.78 549.82 506.9 151.93 617.66 448.21 690.8 457.6 740.62 534.07 802.34 510.95 869.25 497.94 919.67 460.71 987.21 462.46 1048.84 489.37 1100.24 393.97 1165.53 421.82 1223.07 447.34 1285.29 496.37 1341.54 502.03 1400.25 419.49 1469.76 447.34 1521.63 435.61 1592.72 443.39 1636.89 478.68 1698.12 500.01 1768.72 504.68 1824.37 481.8 1824.37 763.5 84.37 763.5 85.06 368.69"/><rect class="cls-2" x="84.29" y="18.06" width="1740.28" height="748.01"/><line class="cls-2" x1="332.35" y1="18.06" x2="332.35" y2="766.07"/><line class="cls-2" x1="583.17" y1="18.06" x2="583.17" y2="766.07"/><line class="cls-2" x1="828.99" y1="18.06" x2="828.99" y2="766.07"/><line class="cls-2" x1="1074.81" y1="18.06" x2="1074.81" y2="766.07"/><line class="cls-2" x1="1325.62" y1="18.06" x2="1325.62" y2="766.07"/><line class="cls-2" x1="1576.43" y1="18.06" x2="1576.43" y2="766.07"/><line class="cls-2" x1="84.29" y1="268.93" x2="1824.57" y2="268.93"/><line class="cls-2" x1="84.29" y1="508.34" x2="1824.57" y2="508.34"/><text class="cls-3" transform="translate(844.12 853.78)">Time</text><text class="cls-3" transform="translate(54.2 539.53) rotate(-90)">Reque<tspan class="cls-4" x="210.89" y="0">s</tspan><tspan x="244.93" y="0">ts</tspan></text><text class="cls-5" transform="translate(84.73 830.76)">SEPT 26 8:00PM ET</text><text class="cls-5" transform="translate(1518.77 824)">SEPT 26 11:00PM ET</text></svg>