<svg id="Layer_1" data-name="Layer 1" xmlns="http://www.w3.org/2000/svg" viewBox="0 0 1803.18 838.81"><defs><style>.cls-1{fill:#cdebf8;fill-opacity:0.5;stroke:#0071bc;}.cls-1,.cls-2{stroke-miterlimit:10;}.cls-2{fill:none;stroke:#29abe2;stroke-width:0.5px;}.cls-3{font-size:31.01px;fill:#0071bc;font-family:HelveticaNeue, Helvetica Neue;}.cls-4{font-size:66.06px;fill:#29abe2;font-family:Raleway-Bold, Raleway;font-weight:700;}.cls-5{letter-spacing:0em;}</style></defs><title>Artboard 2</title><path class="cls-1" d="M81.87,733.12H517l21.18-21.18L557.4,70.84l17.33,181,34.65,234.88,5.78,52,13.48,48.13,25,65.46,40.43,30.8,13.48,3.85,19.25,19.25L759.56,710h27l34.65-11.55,36.58,13.48,25-5.78,48.13,7.7,27-1.93L979,702.32l13.48-19.25,23.1,15.4H1031l40.43,15.4,55.83,3.85,19.25-3.85,17.33-34.65,38.51,32.73,19.25-9.63,21.18-30.8L1262,713.87l32.73,7.7s17.33-3.85,23.1-3.85,34.65-3.85,34.65-3.85l23.1,7.7,34.65-1.93,23.1,1.93H1468l19.25-3.85,19.25-50.06,21.18,30.8,17.33,15.4,50.06,3.85,21.18-5.78,48.13,9.63h125.14V738.9H81.87Z"/><rect class="cls-2" x="82.32" y="9.01" width="1705.13" height="732.9"/><line class="cls-2" x1="325.38" y1="9.01" x2="325.38" y2="741.91"/><line class="cls-2" x1="571.12" y1="9.01" x2="571.12" y2="741.91"/><line class="cls-2" x1="811.98" y1="9.01" x2="811.98" y2="741.91"/><line class="cls-2" x1="1052.83" y1="9.01" x2="1052.83" y2="741.91"/><line class="cls-2" x1="1298.58" y1="9.01" x2="1298.58" y2="741.91"/><line class="cls-2" x1="1544.32" y1="9.01" x2="1544.32" y2="741.91"/><line class="cls-2" x1="82.32" y1="254.81" x2="1787.45" y2="254.81"/><line class="cls-2" x1="82.32" y1="489.39" x2="1787.45" y2="489.39"/><text class="cls-3" transform="translate(82.32 819.75)">SEPT 27 01:01 GMT</text><text class="cls-3" transform="translate(1507.92 813.01)">SEPT 27 02:30 GMT</text><text class="cls-4" transform="translate(823.19 827.85)">Time</text><text class="cls-4" transform="translate(52.84 519.95) rotate(-90)">Reque<tspan class="cls-5" x="206.63" y="0">s</tspan><tspan x="239.99" y="0">ts</tspan></text></svg>