<svg id="Layer_1" data-name="Layer 1" xmlns="http://www.w3.org/2000/svg" viewBox="0 0 1851.19 867.09"><defs><style>.cls-1{fill:#cdebf8;fill-opacity:0.5;stroke:#0071bc;}.cls-1,.cls-2{stroke-miterlimit:10;}.cls-2{fill:none;stroke:#29abe2;stroke-width:0.5px;}.cls-3{font-size:67.42px;fill:#29abe2;font-family:Raleway-Bold, Raleway;font-weight:700;}.cls-4{letter-spacing:0em;}.cls-5{font-size:31.01px;fill:#0071bc;font-family:HelveticaNeue, Helvetica Neue;}</style></defs><title>Artboard 6</title><polygon class="cls-1" points="86.67 570.55 147.67 562.77 268.87 512.87 321.64 643.68 382.06 614 506.53 625.54 558.85 465.76 624.25 590.73 681.49 584.51 745.26 443.26 804.06 569.42 863.04 563.35 925.81 603.27 984.12 555.7 1053.55 562.17 1174.65 545.14 1228.87 598.77 1292.23 563.13 1344.58 475.93 1407.04 313.95 1462.94 519.32 1530.26 552.57 1589 505.44 1708.75 578.59 1826.17 538.58 1826.17 766.09 83.61 766.09 86.67 570.55"/><rect class="cls-2" x="86.09" y="18.06" width="1740.28" height="748.01"/><line class="cls-2" x1="334.16" y1="18.06" x2="334.16" y2="766.07"/><line class="cls-2" x1="584.97" y1="18.06" x2="584.97" y2="766.07"/><line class="cls-2" x1="830.79" y1="18.06" x2="830.79" y2="766.07"/><line class="cls-2" x1="1076.61" y1="18.06" x2="1076.61" y2="766.07"/><line class="cls-2" x1="1327.42" y1="18.06" x2="1327.42" y2="766.07"/><line class="cls-2" x1="1578.23" y1="18.06" x2="1578.23" y2="766.07"/><line class="cls-2" x1="86.09" y1="268.93" x2="1826.37" y2="268.93"/><line class="cls-2" x1="86.09" y1="508.34" x2="1826.37" y2="508.34"/><text class="cls-3" transform="translate(844.92 853.78)">Time</text><text class="cls-3" transform="translate(56 539.53) rotate(-90)">Reque<tspan class="cls-4" x="210.89" y="0">s</tspan><tspan x="244.93" y="0">ts</tspan></text><text class="cls-5" transform="translate(86.53 830.76)">OCT 09 8:00PM ET</text><text class="cls-5" transform="translate(1538.57 824)">OCT 09 11:00PM ET</text></svg>