<svg id="Layer_1" data-name="Layer 1" xmlns="http://www.w3.org/2000/svg" viewBox="0 0 1850.81 861.09"><defs><style>.cls-1{fill:#cdebf8;fill-opacity:0.5;stroke:#0071bc;}.cls-1,.cls-2{stroke-miterlimit:10;}.cls-2{fill:none;stroke:#29abe2;stroke-width:0.5px;}.cls-3{font-size:31.65px;fill:#0071bc;font-family:HelveticaNeue, Helvetica Neue;}.cls-4{font-size:67.42px;fill:#29abe2;font-family:Raleway-Bold, Raleway;font-weight:700;}.cls-5{letter-spacing:0em;}</style></defs><title>Artboard 3</title><path class="cls-1" d="M83.28,754.2H526.15l41.2-681.82,18.54,377,18.54,119.47,18.54,68,20.6,59.74,22.66,6.18,14.42,12.36,24.72,6.18,16.48-10.3h18.54l39.14,24.72,24.72-4.12,51.5,4.12,39.14,8.24,18.54-12.36L932,733.6l20.6,2.06,20.6-129.77,20.6-37.08,16.48,98.87,20.6,35,20.6,12.36h37.08l20.6,10.3h18.54l18.54-18.54,20.6,2.06,41.2,22.66,12.36-4.12,35,2.06,28.84,6.18h39.14L1381,721.24l39.14,14.42,53.56,2.06,18.54,16.48,41.2-20.6s70,10.3,80.34,8.24,30.9-10.3,30.9-10.3l55.62,12.36,33-4.12,51.5,2.06H1795l20.6-2.06,6.18-2.06v22.66H83.28Z"/><rect class="cls-2" x="85.92" y="12.18" width="1740.28" height="748.01"/><line class="cls-2" x1="333.98" y1="12.18" x2="333.98" y2="760.19"/><line class="cls-2" x1="584.8" y1="12.18" x2="584.8" y2="760.19"/><line class="cls-2" x1="830.62" y1="12.18" x2="830.62" y2="760.19"/><line class="cls-2" x1="1076.44" y1="12.18" x2="1076.44" y2="760.19"/><line class="cls-2" x1="1327.25" y1="12.18" x2="1327.25" y2="760.19"/><line class="cls-2" x1="1578.06" y1="12.18" x2="1578.06" y2="760.19"/><line class="cls-2" x1="85.92" y1="263.05" x2="1826.2" y2="263.05"/><line class="cls-2" x1="85.92" y1="502.46" x2="1826.2" y2="502.46"/><text class="cls-3" transform="translate(85.92 839.64)">OCT 10 01:01 GMT</text><text class="cls-3" transform="translate(1540.91 832.76)">OCT 10 02:30 GMT</text><text class="cls-4" transform="translate(837.51 847.91)">Time</text><text class="cls-4" transform="translate(55.83 533.65) rotate(-90)">Reque<tspan class="cls-5" x="210.89" y="0">s</tspan><tspan x="244.93" y="0">ts</tspan></text></svg>