<svg id="Layer_1" data-name="Layer 1" xmlns="http://www.w3.org/2000/svg" viewBox="0 0 1844 850.73"><defs><style>.cls-1{fill:#cdebf8;fill-opacity:0.5;stroke:#0071bc;stroke-width:0.99px;}.cls-1,.cls-2{stroke-miterlimit:10;}.cls-2{fill:none;stroke:#29abe2;stroke-width:0.49px;}.cls-3{font-size:31.65px;fill:#0071bc;font-family:HelveticaNeue, Helvetica Neue;}.cls-4{font-size:67.42px;fill:#29abe2;font-family:Raleway-Bold, Raleway;font-weight:700;}.cls-5{letter-spacing:0em;}</style></defs><title>Artboard 3</title><path class="cls-1" d="M83.28,742.13H526.15L567.35,74l18.54,369.39,18.54,117.07L623,627.08l20.6,58.54,22.66,6.06,14.42,12.11,24.72,6.06,16.48-10.09h18.54L779.52,724l24.72-4,51.5,4L894.87,732l18.54-12.11,18.54,2,20.6,2,20.6-127.17,20.6-36.33,16.48,96.89,20.6,34.32,20.6,12.11h37.08l20.6,10.09h18.54l18.54-18.17,20.6,2,41.2,22.2,12.36-4,35,2,28.84,6.06h39.14L1381,709.84,1420.14,724l53.56,2,18.54,16.15,41.2-20.19s70,10.09,80.34,8.07,30.9-10.09,30.9-10.09L1700.29,732l33-4,51.5,2H1795l20.6-2,6.18-2v22.2H83.28Z"/><rect class="cls-2" x="85.92" y="15.01" width="1740.28" height="732.99"/><line class="cls-2" x1="333.98" y1="15.01" x2="333.98" y2="748"/><line class="cls-2" x1="584.8" y1="15.01" x2="584.8" y2="748"/><line class="cls-2" x1="830.62" y1="15.01" x2="830.62" y2="748"/><line class="cls-2" x1="1076.44" y1="15.01" x2="1076.44" y2="748"/><line class="cls-2" x1="1327.25" y1="15.01" x2="1327.25" y2="748"/><line class="cls-2" x1="1578.06" y1="15.01" x2="1578.06" y2="748"/><line class="cls-2" x1="85.92" y1="260.84" x2="1826.2" y2="260.84"/><line class="cls-2" x1="85.92" y1="495.45" x2="1826.2" y2="495.45"/><text class="cls-3" transform="translate(85.92 828.47)">OCT 10 01:01 GMT</text><text class="cls-3" transform="translate(1540.91 828.58)">OCT 10 02:30 GMT</text><text class="cls-4" transform="translate(858.75 836.73)">Time</text><text class="cls-4" transform="translate(55.83 536.48) rotate(-90)">Reque<tspan class="cls-5" x="210.89" y="0">s</tspan><tspan x="244.93" y="0">ts</tspan></text></svg>