<svg id="Layer_1" data-name="Layer 1" xmlns="http://www.w3.org/2000/svg" viewBox="0 0 1821.18 847.91"><defs><style>.cls-1{fill:#cdebf8;fill-opacity:0.5;stroke:#0071bc;}.cls-1,.cls-2{stroke-miterlimit:10;}.cls-2{fill:none;stroke:#29abe2;stroke-width:0.5px;}.cls-3{font-size:31.09px;fill:#0071bc;font-family:HelveticaNeue, Helvetica Neue;}.cls-4{font-size:66.22px;fill:#29abe2;font-family:Raleway-Bold, Raleway;font-weight:700;}.cls-5{letter-spacing:0em;}.cls-6{letter-spacing:0em;}</style></defs><title>Artboard 4</title><path class="cls-1" d="M84.43,746.68l16.74-46.49L121.63,689h16.74l22.32,5.58,18.6,42.77L197.88,689l16.74,9.3,20.46-9.3,18.6-37.19L276,672.29l16.74-26,37.19,14.88,20.46-39.05L369,597.9l14.88,24.18,59.51,63.23,20.46,11.16,18.6-74.39L501,583l20.46,18.6,37.19,13L579.12,491.9l33.48,50.21,24.18,22.32s9.3,89.27,13,91.13,22.32-44.63,22.32-44.63l18.6-16.74,20.46,7.44,18.6-48.35,20.46,33.48,18.6-126.46,18.6-67,16.74,76.25,20.46,14.88,18.6,70.67L861.81,464l16.74-9.3,42.77,39.05,16.74,52.07,20.46-27.9,18.6-50.21,39.05,65.09,16.74-48.35L1053.36,265l18.6,33.48,18.6,78.11L1111,259.43l18.6,96.71,18.6-29.76,20.46,53.93,18.6,39.05,16.74-5.58L1226.32,358l14.88-68.81,18.6,50.21h22.32l18.6-48.35,16.74-232.47,39.05,241.77,22.32,80,16.74,3.72,18.6,70.67,18.6-52.07,20.46,107.87L1469.94,490l18.6,5.58L1509,547.69l16.74-89.27L1546.19,397l37.19,94.85,20.46,31.62,20.46-67L1644.76,477l16.74,7.44,16.74,29.76,20.46,67,18.6-61.37,20.46-1.86,18.6,27.9,22.32-44.63,14.88,87.41V746.68Z"/><rect class="cls-2" x="84.53" y="12.18" width="1709.26" height="734.67"/><line class="cls-2" x1="328.17" y1="12.18" x2="328.17" y2="746.86"/><line class="cls-2" x1="574.51" y1="12.18" x2="574.51" y2="746.86"/><line class="cls-2" x1="815.95" y1="12.18" x2="815.95" y2="746.86"/><line class="cls-2" x1="1057.39" y1="12.18" x2="1057.39" y2="746.86"/><line class="cls-2" x1="1303.73" y1="12.18" x2="1303.73" y2="746.86"/><line class="cls-2" x1="1550.07" y1="12.18" x2="1550.07" y2="746.86"/><line class="cls-2" x1="84.53" y1="258.58" x2="1793.79" y2="258.58"/><line class="cls-2" x1="84.53" y1="493.72" x2="1793.79" y2="493.72"/><text class="cls-3" transform="translate(84.53 824.88)">OCT 20 01:01 GMT</text><text class="cls-3" transform="translate(1513.58 818.13)">OCT 20 02:30 GMT</text><text class="cls-4" transform="translate(827.79 833.01)">Time</text><text class="cls-4" transform="translate(54.98 524.36) rotate(-90)">Reque<tspan class="cls-5" x="207.13" y="0">s</tspan><tspan class="cls-6" x="240.57" y="0">ts</tspan></text></svg>