<svg id="Layer_1" data-name="Layer 1" xmlns="http://www.w3.org/2000/svg" viewBox="0 0 1816 850.73"><defs><style>.cls-1{fill:#cdebf8;fill-opacity:0.5;stroke:#0071bc;}.cls-1,.cls-2{stroke-miterlimit:10;}.cls-2{fill:none;stroke:#29abe2;stroke-width:0.5px;}.cls-3{font-size:31.09px;fill:#0071bc;font-family:HelveticaNeue, Helvetica Neue;}.cls-4{font-size:66.22px;fill:#29abe2;font-family:Raleway-Bold, Raleway;font-weight:700;}.cls-5{letter-spacing:0em;}.cls-6{letter-spacing:0em;}</style></defs><title>Artboard 4</title><path class="cls-1" d="M83.26,749.51,100,703l20.46-11.16h16.74l22.32,5.58,18.6,42.77,18.6-48.35,16.74,9.3,20.46-9.3,18.6-37.19,22.32,20.46,16.74-26L328.74,664l20.46-39.05,18.6-24.18,14.88,24.18,59.51,63.23,20.46,11.16,18.6-74.39,18.6-39.05,20.46,18.6,37.19,13,20.46-122.74,33.48,50.21,24.18,22.32s9.3,89.27,13,91.13,22.32-44.63,22.32-44.63L689.53,597,710,604.45l18.6-48.35L749,589.57l18.6-126.46,18.6-67L803,472.41l20.46,14.88L842,558l18.6-91.13,16.74-9.3,42.77,39.05,16.74,52.07,20.46-27.9,18.6-50.21L1015,535.64l16.74-48.35,20.46-219.45,18.6,33.48,18.6,78.11,20.46-117.16,18.6,96.71,18.6-29.76,20.46,53.93,18.6,39.05,16.74-5.58,22.32-55.79L1240,292l18.6,50.21h22.32l18.6-48.35L1316.27,61.4l39.05,241.77,22.32,80,16.74,3.72,18.6,70.67,18.6-52.07L1452,513.32l16.74-20.46,18.6,5.58,20.46,52.07,16.74-89.27L1545,399.88l37.19,94.85,20.46,31.62,20.46-67,20.46,20.46,16.74,7.44L1677.06,517l20.46,67,18.6-61.37,20.46-1.86,18.6,27.9L1777.49,504l14.88,87.41V749.51Z"/><rect class="cls-2" x="83.35" y="15.01" width="1709.26" height="734.67"/><line class="cls-2" x1="327" y1="15.01" x2="327" y2="749.68"/><line class="cls-2" x1="573.34" y1="15.01" x2="573.34" y2="749.68"/><line class="cls-2" x1="814.78" y1="15.01" x2="814.78" y2="749.68"/><line class="cls-2" x1="1056.21" y1="15.01" x2="1056.21" y2="749.68"/><line class="cls-2" x1="1302.56" y1="15.01" x2="1302.56" y2="749.68"/><line class="cls-2" x1="1548.9" y1="15.01" x2="1548.9" y2="749.68"/><line class="cls-2" x1="83.35" y1="261.4" x2="1792.61" y2="261.4"/><line class="cls-2" x1="83.35" y1="496.55" x2="1792.61" y2="496.55"/><text class="cls-3" transform="translate(83.36 827.71)">OCT 20 01:01 GMT</text><text class="cls-3" transform="translate(1512.4 820.96)">OCT 20 02:30 GMT</text><text class="cls-4" transform="translate(842.4 835.84)">Time</text><text class="cls-4" transform="translate(53.8 527.19) rotate(-90)">Reque<tspan class="cls-5" x="207.13" y="0">s</tspan><tspan class="cls-6" x="240.57" y="0">ts</tspan></text></svg>