<svg id="Layer_1" data-name="Layer 1" xmlns="http://www.w3.org/2000/svg" viewBox="0 0 1851.19 867.09"><defs><style>.cls-1{fill:#cdebf8;fill-opacity:0.5;stroke:#0071bc;}.cls-1,.cls-2{stroke-miterlimit:10;}.cls-2{fill:none;stroke:#29abe2;stroke-width:0.5px;}.cls-3{font-size:67.42px;fill:#29abe2;font-family:Raleway-Bold, Raleway;font-weight:700;}.cls-4{letter-spacing:0em;}.cls-5{font-size:31.01px;fill:#0071bc;font-family:HelveticaNeue, Helvetica Neue;}</style></defs><title>Artboard 7</title><polygon class="cls-1" points="86.14 505.07 144.22 562.44 209.96 476.17 266.41 584.89 318.31 611.16 387.89 620.33 450.16 630.92 503.96 615.75 631.11 622.95 684.53 603.01 742.77 584.25 805.23 447.66 870.56 428.91 929.05 541.37 990.53 515.34 1039.52 554.78 1168.65 550.14 1219.42 498.28 1284.11 502.88 1350.15 545.93 1464.86 526.2 1525.17 281.59 1580.48 398.3 1646.86 472.66 1722.32 464.88 1763.46 473.81 1825.97 460.13 1825.97 765.27 85.65 765.27 86.14 505.07"/><rect class="cls-2" x="85.89" y="18.06" width="1740.28" height="748.01"/><line class="cls-2" x1="333.96" y1="18.06" x2="333.96" y2="766.07"/><line class="cls-2" x1="584.77" y1="18.06" x2="584.77" y2="766.07"/><line class="cls-2" x1="830.59" y1="18.06" x2="830.59" y2="766.07"/><line class="cls-2" x1="1076.41" y1="18.06" x2="1076.41" y2="766.07"/><line class="cls-2" x1="1327.22" y1="18.06" x2="1327.22" y2="766.07"/><line class="cls-2" x1="1578.04" y1="18.06" x2="1578.04" y2="766.07"/><line class="cls-2" x1="85.89" y1="268.93" x2="1826.17" y2="268.93"/><line class="cls-2" x1="85.89" y1="508.34" x2="1826.17" y2="508.34"/><text class="cls-3" transform="translate(844.72 853.78)">Time</text><text class="cls-3" transform="translate(55.8 539.53) rotate(-90)">Reque<tspan class="cls-4" x="210.89" y="0">s</tspan><tspan x="244.93" y="0">ts</tspan></text><text class="cls-5" transform="translate(85.33 830.76)">OCT 19 8:00PM ET</text><text class="cls-5" transform="translate(1538.38 824)">OCT 19 11:00PM ET</text></svg>