<svg id="Layer_1" data-name="Layer 1" xmlns="http://www.w3.org/2000/svg" viewBox="0 0 1803.82 838"><defs><style>.cls-1{fill:none;stroke:#29abe2;stroke-width:0.5px;}.cls-1,.cls-5{stroke-miterlimit:10;}.cls-2{font-size:31.01px;fill:#0071bc;font-family:HelveticaNeue, Helvetica Neue;}.cls-3{font-size:66.06px;fill:#29abe2;font-family:Raleway-Bold, Raleway;font-weight:700;}.cls-4{letter-spacing:0em;}.cls-5{fill:#cdebf8;fill-opacity:0.5;stroke:#0071bc;}</style></defs><title>Artboard 1</title><rect class="cls-1" x="84.15" y="11.01" width="1705.13" height="732.9"/><line class="cls-1" x1="327.2" y1="11.01" x2="327.2" y2="743.91"/><line class="cls-1" x1="572.95" y1="11.01" x2="572.95" y2="743.91"/><line class="cls-1" x1="813.8" y1="11.01" x2="813.8" y2="743.91"/><line class="cls-1" x1="1054.66" y1="11.01" x2="1054.66" y2="743.91"/><line class="cls-1" x1="1300.4" y1="11.01" x2="1300.4" y2="743.91"/><line class="cls-1" x1="1546.15" y1="11.01" x2="1546.15" y2="743.91"/><line class="cls-1" x1="84.15" y1="256.81" x2="1789.28" y2="256.81"/><line class="cls-1" x1="84.15" y1="491.39" x2="1789.28" y2="491.39"/><text class="cls-2" transform="translate(84.15 821.75)">SEPT 21 18:00 GMT</text><text class="cls-2" transform="translate(1509.74 815.01)">SEPT 23 17:00 GMT</text><text class="cls-3" transform="translate(841.36 829.85)">Time</text><text class="cls-3" transform="translate(54.66 521.95) rotate(-90)">Reque<tspan class="cls-4" x="206.63" y="0">s</tspan><tspan x="239.99" y="0">ts</tspan></text><path class="cls-5" d="M84.5,744.13V710.71s79.58-8,79.58-4.77,96.29,4.77,96.29,4.77l57.29-2.39L433,710.71,523,720.26H698.82L737,708.32l38.2-87.53,30.24-104.24L846.83,460l35.81-9.55,32.63,1.59,30.24,29.44,46.15,34.22,121.75,54.91h133.69l49.34,44.56,67.64,46.15,66.84,21.49,69.23,8.75,81.17-29.44,58.09-19.89L1789,652.62v90.72Z"/></svg>