<svg id="Layer_1" data-name="Layer 1" xmlns="http://www.w3.org/2000/svg" viewBox="0 0 1809.18 849.08"><defs><style>.cls-1{fill:none;stroke:#29abe2;stroke-width:0.5px;}.cls-1,.cls-5{stroke-miterlimit:10;}.cls-2{font-size:31.01px;fill:#0071bc;font-family:HelveticaNeue, Helvetica Neue;}.cls-3{font-size:66.06px;fill:#29abe2;font-family:Raleway-Bold, Raleway;font-weight:700;}.cls-4{letter-spacing:0em;}.cls-5{fill:#cdebf8;fill-opacity:0.5;stroke:#0071bc;}</style></defs><title>Artboard 1</title><rect class="cls-1" x="81.52" y="19.29" width="1705.13" height="732.9"/><line class="cls-1" x1="324.57" y1="19.29" x2="324.57" y2="752.19"/><line class="cls-1" x1="570.32" y1="19.29" x2="570.32" y2="752.19"/><line class="cls-1" x1="811.17" y1="19.29" x2="811.17" y2="752.19"/><line class="cls-1" x1="1052.03" y1="19.29" x2="1052.03" y2="752.19"/><line class="cls-1" x1="1297.77" y1="19.29" x2="1297.77" y2="752.19"/><line class="cls-1" x1="1543.52" y1="19.29" x2="1543.52" y2="752.19"/><line class="cls-1" x1="81.52" y1="265.09" x2="1786.65" y2="265.09"/><line class="cls-1" x1="81.52" y1="499.67" x2="1786.65" y2="499.67"/><text class="cls-2" transform="translate(81.52 830.03)">SEPT 22 8:00AM ET</text><text class="cls-2" transform="translate(1496.11 823.29)">SEPT 23 4:00AM ET</text><text class="cls-3" transform="translate(838.73 838.13)">Time</text><text class="cls-3" transform="translate(52.03 530.22) rotate(-90)">Reque<tspan class="cls-4" x="206.63" y="0">s</tspan><tspan x="239.99" y="0">ts</tspan></text><path class="cls-5" d="M81.87,752.41V719s79.58-8,79.58-4.77S257.73,719,257.73,719L315,716.6,430.41,719l89.92,9.55H696.19l38.2-11.94,38.2-87.53,30.24-104.24,41.38-56.5L880,458.78l32.63,1.59,30.24,29.44L989,524l121.75,54.91h133.69l49.34,44.56,67.64,46.15,66.84,21.49,69.23,8.75,81.17-29.44,58.09-19.89,149.6,10.34v90.72Z"/></svg>