<svg id="Layer_1" data-name="Layer 1" xmlns="http://www.w3.org/2000/svg" viewBox="0 0 1804.19 838.81"><defs><style>.cls-1{fill:none;stroke:#29abe2;stroke-width:0.5px;}.cls-1,.cls-5{stroke-miterlimit:10;}.cls-2{font-size:31.01px;fill:#0071bc;font-family:HelveticaNeue, Helvetica Neue;}.cls-3{font-size:66.06px;fill:#29abe2;font-family:Raleway-Bold, Raleway;font-weight:700;}.cls-4{letter-spacing:0em;}.cls-5{fill:#cdebf8;fill-opacity:0.5;stroke:#0071bc;}</style></defs><title>Artboard 1</title><rect class="cls-1" x="84.52" y="9.01" width="1705.13" height="732.9"/><line class="cls-1" x1="327.57" y1="9.01" x2="327.57" y2="741.91"/><line class="cls-1" x1="573.32" y1="9.01" x2="573.32" y2="741.91"/><line class="cls-1" x1="814.17" y1="9.01" x2="814.17" y2="741.91"/><line class="cls-1" x1="1055.03" y1="9.01" x2="1055.03" y2="741.91"/><line class="cls-1" x1="1300.78" y1="9.01" x2="1300.78" y2="741.91"/><line class="cls-1" x1="1546.52" y1="9.01" x2="1546.52" y2="741.91"/><line class="cls-1" x1="84.52" y1="254.81" x2="1789.65" y2="254.81"/><line class="cls-1" x1="84.52" y1="489.39" x2="1789.65" y2="489.39"/><text class="cls-2" transform="translate(84.52 819.75)">SEPT 21 18:00 GMT</text><text class="cls-2" transform="translate(1510.11 813.01)">SEPT 23 17:00 GMT</text><text class="cls-3" transform="translate(824.2 827.85)">Time</text><text class="cls-3" transform="translate(55.03 519.95) rotate(-90)">Reque<tspan class="cls-4" x="206.63" y="0">s</tspan><tspan x="239.99" y="0">ts</tspan></text><path class="cls-5" d="M84.87,742.13V708.71s79.58-8,79.58-4.77,96.29,4.77,96.29,4.77L318,706.32l115.38,2.39,89.92,9.55H699.19l38.2-11.94,38.2-87.53,30.24-104.24L847.2,458,883,448.5l32.63,1.59,30.24,29.44L992,513.75l121.75,54.91h133.69l49.34,44.56,67.64,46.15,66.84,21.49,69.23,8.75,81.17-29.44,58.09-19.89,149.6,10.34v90.72Z"/></svg>