<svg id="Layer_1" data-name="Layer 1" xmlns="http://www.w3.org/2000/svg" viewBox="0 0 1920 1359"><defs><style>.cls-1{fill:none;stroke:#29abe2;stroke-width:0.5px;}.cls-1,.cls-5,.cls-6{stroke-miterlimit:10;}.cls-2{fill:#29abe2;}.cls-3{fill:#0071bc;}.cls-4,.cls-6{fill:#93278f;}.cls-5{fill:#cdebf8;stroke:#0071bc;}.cls-5,.cls-6{fill-opacity:0.5;}.cls-6{stroke:#1b1464;}</style></defs><title>Artboard 7 copy 6</title><rect class="cls-1" x="114.89" y="167.57" width="1737.77" height="1073.9"/><line class="cls-1" x1="548.37" y1="167.57" x2="548.37" y2="1241.47"/><line class="cls-1" x1="983.77" y1="167.57" x2="983.77" y2="1241.47"/><line class="cls-1" x1="1417.53" y1="167.57" x2="1417.53" y2="1241.47"/><line class="cls-1" x1="1851.84" y1="166.75" x2="1851.84" y2="1242.28"/><line class="cls-1" x1="114.89" y1="437.13" x2="1851.84" y2="437.13"/><line class="cls-1" x1="114.89" y1="704.52" x2="1851.84" y2="704.52"/><line class="cls-1" x1="114.89" y1="976.25" x2="1852.66" y2="976.25"/><path class="cls-2" d="M959.48,1279.89H944.24v39.71h-9.3v-39.71h-15.3v-8.16h39.84Z"/><path class="cls-2" d="M965.48,1319.6v-47.8h9.3v47.8Z"/><path class="cls-2" d="M1023.8,1319.6v-31.69l-12.34,23.6h-5.06l-12.34-23.6v31.69h-9.3v-47.87h10L1008.9,1299l14.29-27.24h9.91v47.87Z"/><path class="cls-2" d="M1076.32,1311.44v8.16h-33.24v-47.87h32.63v8.16h-23.33v11.53h20.16V1299h-20.16v12.47Z"/><path class="cls-2" d="M80.35,846.05H32.48V824.88a13.6,13.6,0,0,1,1.38-6.1A15.82,15.82,0,0,1,37.5,814a17.2,17.2,0,0,1,5.12-3.17,15.43,15.43,0,0,1,5.76-1.15A15.92,15.92,0,0,1,56.85,812a13.35,13.35,0,0,1,5.5,6.3l18-11.26v10.52l-16,10v9.17h16Zm-24.2-9.3V825.09a4.93,4.93,0,0,0-.61-2.39,6.11,6.11,0,0,0-1.65-1.92,8.27,8.27,0,0,0-2.46-1.28,9.57,9.57,0,0,0-3-.47,8.65,8.65,0,0,0-3.1.54A8.13,8.13,0,0,0,42.83,821a6.59,6.59,0,0,0-1.62,2.09,5.44,5.44,0,0,0-.57,2.39v11.26Z"/><path class="cls-2" d="M72.19,767.38h8.16v33.24H32.48V768h8.16v23.33H52.17V771.15h7.55v20.16H72.19Z"/><path class="cls-2" d="M77.11,728a22.17,22.17,0,0,1,2.63,5.56,21.35,21.35,0,0,1,.94,6.44,20.36,20.36,0,0,1-2.09,9.24,23.65,23.65,0,0,1-5.46,7.18A24.1,24.1,0,0,1,65.38,761a25.71,25.71,0,0,1-9,1.62,25.22,25.22,0,0,1-16.92-6.51,23.14,23.14,0,0,1-5.36-7.25,20.92,20.92,0,0,1-2-9.1,20.1,20.1,0,0,1,2.12-9.24,23.22,23.22,0,0,1,5.56-7.15,25.26,25.26,0,0,1,7.82-4.58,25.52,25.52,0,0,1,8.9-1.62,25.22,25.22,0,0,1,8.73,1.52,24,24,0,0,1,7.45,4.35l7.62-6.81v8.83Zm-4.65,11.87a11.68,11.68,0,0,0-1.69-6.2l-8.16,7.21V732l3.37-3a19,19,0,0,0-9.57-2.5,19.28,19.28,0,0,0-6,.94,16.83,16.83,0,0,0-5.12,2.66,13.33,13.33,0,0,0-3.57,4.18,12.29,12.29,0,0,0,0,11.26,13.36,13.36,0,0,0,3.67,4.18,16.61,16.61,0,0,0,5.16,2.6,20,20,0,0,0,11.83,0,16.25,16.25,0,0,0,5.12-2.63,13.19,13.19,0,0,0,3.57-4.21A11.71,11.71,0,0,0,72.46,739.87Z"/><path class="cls-2" d="M72.46,689.71a10.68,10.68,0,0,0-1.35-5.56,10.88,10.88,0,0,0-3.51-3.64,14.5,14.5,0,0,0-5-2,28.65,28.65,0,0,0-5.76-.57H32.48v-9.24H56.88a34.91,34.91,0,0,1,9.24,1.18,21.19,21.19,0,0,1,7.55,3.71,17.77,17.77,0,0,1,5.12,6.51,22,22,0,0,1,1.89,9.51,21.76,21.76,0,0,1-2,9.74,18.15,18.15,0,0,1-5.26,6.51,21,21,0,0,1-7.58,3.61,35.75,35.75,0,0,1-9,1.11H32.48v-9.3H56.88a29,29,0,0,0,5.83-.57,14.47,14.47,0,0,0,5-2,10.14,10.14,0,0,0,4.79-9.07Z"/><path class="cls-2" d="M72.19,626.2h8.16v33.24H32.48V626.81h8.16v23.33H52.17V630h7.55v20.16H72.19Z"/><path class="cls-2" d="M45,590.74a11.69,11.69,0,0,0-1.28,1.72,21.11,21.11,0,0,0-1.58,3,26.3,26.3,0,0,0-1.31,3.88,16.94,16.94,0,0,0-.54,4.25q0,3.84,1.42,5.73a4.68,4.68,0,0,0,4,1.89,4.09,4.09,0,0,0,2.46-.71,6.11,6.11,0,0,0,1.72-2.06,17.28,17.28,0,0,0,1.35-3.4q.61-2.06,1.28-4.75.94-3.5,2-6.37a17.28,17.28,0,0,1,2.7-4.85A11.16,11.16,0,0,1,61.1,586a12.87,12.87,0,0,1,5.56-1.08,13.86,13.86,0,0,1,6.57,1.45,12.28,12.28,0,0,1,4.42,3.88,16.57,16.57,0,0,1,2.46,5.66,28.86,28.86,0,0,1,.78,6.74,36,36,0,0,1-1.62,10.65,32.84,32.84,0,0,1-4.58,9.44l-8-4.11a13,13,0,0,0,1.58-2.19,33.35,33.35,0,0,0,2-3.74,29,29,0,0,0,1.65-4.79,21.6,21.6,0,0,0,.67-5.39q0-7.69-4.92-7.69a4.14,4.14,0,0,0-2.7.88A7.46,7.46,0,0,0,63,598.22a24,24,0,0,0-1.48,3.91q-.67,2.29-1.42,5.12a43.54,43.54,0,0,1-2.06,6,16.21,16.21,0,0,1-2.6,4.21A9.46,9.46,0,0,1,52,620a12.39,12.39,0,0,1-4.79.84,14.87,14.87,0,0,1-6.47-1.35A13.07,13.07,0,0,1,36,615.72a17,17,0,0,1-2.87-5.56,23,23,0,0,1-1-6.81,26.43,26.43,0,0,1,1.58-9.3,34.67,34.67,0,0,1,3.74-7.42Z"/><path class="cls-2" d="M40.64,542.33v15.24H80.35v9.3H40.64v15.3H32.48V542.33Z"/><path class="cls-2" d="M45,508.21a11.69,11.69,0,0,0-1.28,1.72,21.11,21.11,0,0,0-1.58,3,26.3,26.3,0,0,0-1.31,3.88,16.94,16.94,0,0,0-.54,4.25q0,3.84,1.42,5.73a4.68,4.68,0,0,0,4,1.89,4.09,4.09,0,0,0,2.46-.71,6.11,6.11,0,0,0,1.72-2.06,17.28,17.28,0,0,0,1.35-3.4q.61-2.06,1.28-4.75.94-3.5,2-6.37a17.28,17.28,0,0,1,2.7-4.85,11.16,11.16,0,0,1,3.88-3.07,12.87,12.87,0,0,1,5.56-1.08,13.86,13.86,0,0,1,6.57,1.45,12.28,12.28,0,0,1,4.42,3.88,16.57,16.57,0,0,1,2.46,5.66,28.86,28.86,0,0,1,.78,6.74,36,36,0,0,1-1.62,10.65,32.84,32.84,0,0,1-4.58,9.44l-8-4.11a13,13,0,0,0,1.58-2.19,33.35,33.35,0,0,0,2-3.74,29,29,0,0,0,1.65-4.79,21.6,21.6,0,0,0,.67-5.39q0-7.69-4.92-7.69a4.14,4.14,0,0,0-2.7.88A7.46,7.46,0,0,0,63,515.7a24,24,0,0,0-1.48,3.91q-.67,2.29-1.42,5.12a43.54,43.54,0,0,1-2.06,6,16.21,16.21,0,0,1-2.6,4.21A9.46,9.46,0,0,1,52,537.44a12.39,12.39,0,0,1-4.79.84,14.87,14.87,0,0,1-6.47-1.35A13.07,13.07,0,0,1,36,533.19a17,17,0,0,1-2.87-5.56,23,23,0,0,1-1-6.81,26.43,26.43,0,0,1,1.58-9.3,34.67,34.67,0,0,1,3.74-7.42Z"/><path class="cls-3" d="M117.53,1304.33v-15.76h-5.71v-2.11a13.4,13.4,0,0,0,2.17-.17,5.9,5.9,0,0,0,1.91-.63,4.36,4.36,0,0,0,1.44-1.27,4.84,4.84,0,0,0,.81-2h2v22Z"/><path class="cls-3" d="M127.73,1291a17.07,17.07,0,0,1,.31-2.54,12.5,12.5,0,0,1,.71-2.36,6.24,6.24,0,0,1,1.27-2,5.77,5.77,0,0,1,2-1.33,8.9,8.9,0,0,1,5.86,0,5.78,5.78,0,0,1,2,1.33,6.24,6.24,0,0,1,1.27,2,12.57,12.57,0,0,1,.71,2.36,17.2,17.2,0,0,1,.31,2.54q.06,1.3.06,2.51t-.06,2.51a17.26,17.26,0,0,1-.31,2.54,12.14,12.14,0,0,1-.71,2.34,6.31,6.31,0,0,1-1.27,1.94,5.63,5.63,0,0,1-2,1.32,9.23,9.23,0,0,1-5.88,0,5.61,5.61,0,0,1-2-1.32,6.31,6.31,0,0,1-1.27-1.94,12.07,12.07,0,0,1-.71-2.34,17.13,17.13,0,0,1-.31-2.54q-.06-1.3-.06-2.51T127.73,1291Zm2.81,5.26a11.62,11.62,0,0,0,.5,2.88,5.44,5.44,0,0,0,1.35,2.28,4.11,4.11,0,0,0,5.21,0,5.44,5.44,0,0,0,1.35-2.28,11.66,11.66,0,0,0,.5-2.88c.05-1,.08-1.95.08-2.78q0-.81,0-1.78a15.66,15.66,0,0,0-.16-2,14.48,14.48,0,0,0-.4-1.91,5,5,0,0,0-.78-1.63,4,4,0,0,0-1.29-1.13,4.34,4.34,0,0,0-3.78,0,4,4,0,0,0-1.29,1.13,5,5,0,0,0-.78,1.63,14.48,14.48,0,0,0-.4,1.91,15.66,15.66,0,0,0-.16,2q0,1,0,1.78C130.46,1294.33,130.49,1295.26,130.54,1296.28Z"/><path class="cls-3" d="M155.74,1282.19a6.87,6.87,0,0,1,5.07,1.72,7.64,7.64,0,0,1,0,9.66,6.74,6.74,0,0,1-5.07,1.71H149v9.06H146v-22.14Zm-1,10.61a5.26,5.26,0,0,0,3.67-1,3.89,3.89,0,0,0,1.16-3,3.84,3.84,0,0,0-1.16-3,5.41,5.41,0,0,0-3.67-1H149v8.13Z"/><path class="cls-3" d="M170.22,1282.19l7,18.61,7-18.61h4v22.14h-2.79v-18.42h-.06l-6.92,18.42H176L169,1285.91H169v18.42h-2.79v-22.14Z"/><path class="cls-3" d="M217.05,1282.19v2.48H204.71v7h11.51v2.48H204.71v7.66h12.44v2.48H201.76v-22.14Z"/><path class="cls-3" d="M218.36,1284.67v-2.48h17.71v2.48h-7.38v19.66h-2.95v-19.66Z"/><path class="cls-3" d="M253.13,1304.33v-15.76h-5.71v-2.11a13.4,13.4,0,0,0,2.17-.17,5.9,5.9,0,0,0,1.91-.63,4.36,4.36,0,0,0,1.44-1.27,4.84,4.84,0,0,0,.81-2h2v22Z"/><path class="cls-3" d="M270.37,1304.33v-15.76h-5.71v-2.11a13.4,13.4,0,0,0,2.17-.17,5.9,5.9,0,0,0,1.91-.63,4.36,4.36,0,0,0,1.44-1.27,4.84,4.84,0,0,0,.81-2h2v22Z"/><path class="cls-3" d="M285.22,1300.89v3.44h-3.44v-3.44Z"/><path class="cls-3" d="M289.54,1287a6.59,6.59,0,0,1,1.35-2.46,6.35,6.35,0,0,1,2.28-1.63,7.75,7.75,0,0,1,3.1-.59,8.43,8.43,0,0,1,2.68.42,6.53,6.53,0,0,1,2.19,1.21,5.63,5.63,0,0,1,1.47,2,6.47,6.47,0,0,1,.54,2.73,6.85,6.85,0,0,1-.45,2.57,7.32,7.32,0,0,1-1.19,2,10,10,0,0,1-1.71,1.6c-.64.48-1.3.93-2,1.37l-2,1.22a16.05,16.05,0,0,0-1.88,1.29,8.51,8.51,0,0,0-1.46,1.47,4.17,4.17,0,0,0-.79,1.81h11.29v2.33H288.57a11.66,11.66,0,0,1,.7-3.33,8.88,8.88,0,0,1,1.38-2.4,10.3,10.3,0,0,1,1.89-1.8q1.05-.78,2.2-1.46,1.4-.87,2.45-1.6a10.81,10.81,0,0,0,1.75-1.47,5,5,0,0,0,1.41-3.63A3.78,3.78,0,0,0,300,1287a3.9,3.9,0,0,0-2.26-2.06,4.79,4.79,0,0,0-1.64-.28,3.84,3.84,0,0,0-2,.48,4.13,4.13,0,0,0-1.35,1.26,5.26,5.26,0,0,0-.76,1.75,7.51,7.51,0,0,0-.2,2h-2.64A8.9,8.9,0,0,1,289.54,1287Z"/><path class="cls-3" d="M306.78,1287a6.59,6.59,0,0,1,1.35-2.46,6.35,6.35,0,0,1,2.28-1.63,7.75,7.75,0,0,1,3.1-.59,8.43,8.43,0,0,1,2.68.42,6.53,6.53,0,0,1,2.19,1.21,5.63,5.63,0,0,1,1.47,2,6.47,6.47,0,0,1,.54,2.73,6.85,6.85,0,0,1-.45,2.57,7.32,7.32,0,0,1-1.19,2,10,10,0,0,1-1.71,1.6c-.64.48-1.3.93-2,1.37l-2,1.22a16.05,16.05,0,0,0-1.88,1.29,8.51,8.51,0,0,0-1.46,1.47,4.17,4.17,0,0,0-.79,1.81h11.29v2.33H305.82a11.66,11.66,0,0,1,.7-3.33,8.88,8.88,0,0,1,1.38-2.4,10.3,10.3,0,0,1,1.89-1.8q1.05-.78,2.2-1.46,1.4-.87,2.45-1.6a10.81,10.81,0,0,0,1.75-1.47,5,5,0,0,0,1.41-3.63,3.78,3.78,0,0,0-.34-1.63,3.9,3.9,0,0,0-2.26-2.06,4.79,4.79,0,0,0-1.64-.28,3.84,3.84,0,0,0-2,.48,4.13,4.13,0,0,0-1.35,1.26,5.26,5.26,0,0,0-.76,1.75,7.51,7.51,0,0,0-.2,2h-2.64A8.9,8.9,0,0,1,306.78,1287Z"/><path class="cls-3" d="M328.33,1300.89v3.44h-3.44v-3.44Z"/><path class="cls-3" d="M332.65,1287a6.59,6.59,0,0,1,1.35-2.46,6.35,6.35,0,0,1,2.28-1.63,7.75,7.75,0,0,1,3.1-.59,8.43,8.43,0,0,1,2.68.42,6.53,6.53,0,0,1,2.19,1.21,5.63,5.63,0,0,1,1.47,2,6.47,6.47,0,0,1,.54,2.73,6.85,6.85,0,0,1-.45,2.57,7.32,7.32,0,0,1-1.19,2,10,10,0,0,1-1.71,1.6c-.64.48-1.3.93-2,1.37l-2,1.22a16.05,16.05,0,0,0-1.88,1.29,8.51,8.51,0,0,0-1.46,1.47,4.17,4.17,0,0,0-.79,1.81H346v2.33H331.68a11.66,11.66,0,0,1,.7-3.33,8.88,8.88,0,0,1,1.38-2.4,10.3,10.3,0,0,1,1.89-1.8q1.05-.78,2.2-1.46,1.4-.87,2.45-1.6a10.81,10.81,0,0,0,1.75-1.47,5,5,0,0,0,1.41-3.63,3.78,3.78,0,0,0-.34-1.63,3.9,3.9,0,0,0-2.26-2.06,4.79,4.79,0,0,0-1.64-.28,3.84,3.84,0,0,0-2,.48,4.13,4.13,0,0,0-1.35,1.26,5.26,5.26,0,0,0-.76,1.75,7.51,7.51,0,0,0-.2,2H332.3A8.9,8.9,0,0,1,332.65,1287Z"/><path class="cls-3" d="M349.55,1291a17.07,17.07,0,0,1,.31-2.54,12.5,12.5,0,0,1,.71-2.36,6.24,6.24,0,0,1,1.27-2,5.77,5.77,0,0,1,2-1.33,8.9,8.9,0,0,1,5.86,0,5.78,5.78,0,0,1,2,1.33,6.24,6.24,0,0,1,1.27,2,12.57,12.57,0,0,1,.71,2.36,17.2,17.2,0,0,1,.31,2.54q.06,1.3.06,2.51t-.06,2.51a17.26,17.26,0,0,1-.31,2.54,12.14,12.14,0,0,1-.71,2.34,6.31,6.31,0,0,1-1.27,1.94,5.63,5.63,0,0,1-2,1.32,9.23,9.23,0,0,1-5.88,0,5.61,5.61,0,0,1-2-1.32,6.31,6.31,0,0,1-1.27-1.94,12.07,12.07,0,0,1-.71-2.34,17.13,17.13,0,0,1-.31-2.54q-.06-1.3-.06-2.51T349.55,1291Zm2.81,5.26a11.62,11.62,0,0,0,.5,2.88,5.44,5.44,0,0,0,1.35,2.28,4.11,4.11,0,0,0,5.21,0,5.44,5.44,0,0,0,1.35-2.28,11.66,11.66,0,0,0,.5-2.88c.05-1,.08-1.95.08-2.78q0-.81,0-1.78a15.66,15.66,0,0,0-.16-2,14.48,14.48,0,0,0-.4-1.91,5,5,0,0,0-.78-1.63,4,4,0,0,0-1.29-1.13,4.34,4.34,0,0,0-3.78,0,4,4,0,0,0-1.29,1.13,5,5,0,0,0-.78,1.63,14.48,14.48,0,0,0-.4,1.91,15.66,15.66,0,0,0-.16,2q0,1,0,1.78C352.28,1294.33,352.3,1295.26,352.36,1296.28Z"/><path class="cls-3" d="M373.83,1304.33v-15.76h-5.71v-2.11a13.4,13.4,0,0,0,2.17-.17,5.9,5.9,0,0,0,1.91-.63,4.36,4.36,0,0,0,1.44-1.27,4.84,4.84,0,0,0,.81-2h2v22Z"/><path class="cls-3" d="M394.37,1285.57a3.57,3.57,0,0,0-2.54-.9,4.19,4.19,0,0,0-2.7.82,5.63,5.63,0,0,0-1.6,2.08,10,10,0,0,0-.79,2.71,22.29,22.29,0,0,0-.25,2.73l.06.06a5.66,5.66,0,0,1,2.31-2.2,7.71,7.71,0,0,1,6-.14,5.91,5.91,0,0,1,2.11,1.5,6.85,6.85,0,0,1,1.32,2.26,8.36,8.36,0,0,1,.46,2.82,9.15,9.15,0,0,1-.37,2.51,6.77,6.77,0,0,1-1.23,2.37,6.57,6.57,0,0,1-2.26,1.77,7.84,7.84,0,0,1-3.49.7,7,7,0,0,1-3.94-1,6.78,6.78,0,0,1-2.3-2.54,10.54,10.54,0,0,1-1.07-3.41,25.64,25.64,0,0,1-.26-3.6,24.37,24.37,0,0,1,.39-4.39,11.91,11.91,0,0,1,1.32-3.77,7.41,7.41,0,0,1,2.48-2.64,7.12,7.12,0,0,1,3.91-1,6.28,6.28,0,0,1,4.34,1.44,6.09,6.09,0,0,1,1.86,4.17h-2.64A3.8,3.8,0,0,0,394.37,1285.57Zm-4.78,7.34a4.26,4.26,0,0,0-1.43,1.05,4.38,4.38,0,0,0-.88,1.58,6.31,6.31,0,0,0-.29,1.94,5.85,5.85,0,0,0,.31,1.92,4.54,4.54,0,0,0,.88,1.55,4.15,4.15,0,0,0,1.43,1,4.61,4.61,0,0,0,1.94.39,4.41,4.41,0,0,0,1.91-.39,3.92,3.92,0,0,0,1.38-1.07,4.89,4.89,0,0,0,.85-1.56,5.81,5.81,0,0,0,.29-1.85,7,7,0,0,0-.26-1.94,4.29,4.29,0,0,0-.82-1.58,4.12,4.12,0,0,0-1.4-1.07,4.45,4.45,0,0,0-2-.4A4.59,4.59,0,0,0,389.59,1292.9Z"/><path class="cls-3" d="M1569.33,1304.33v-15.76h-5.71v-2.11a13.4,13.4,0,0,0,2.17-.17,5.9,5.9,0,0,0,1.91-.63,4.36,4.36,0,0,0,1.44-1.27,4.84,4.84,0,0,0,.81-2h2v22Z"/><path class="cls-3" d="M1579.88,1287a6.59,6.59,0,0,1,1.35-2.46,6.35,6.35,0,0,1,2.28-1.63,7.75,7.75,0,0,1,3.1-.59,8.43,8.43,0,0,1,2.68.42,6.53,6.53,0,0,1,2.19,1.21,5.63,5.63,0,0,1,1.47,2,6.47,6.47,0,0,1,.54,2.73,6.85,6.85,0,0,1-.45,2.57,7.32,7.32,0,0,1-1.19,2,10,10,0,0,1-1.71,1.6c-.64.48-1.3.93-2,1.37l-2,1.22a16.05,16.05,0,0,0-1.88,1.29,8.51,8.51,0,0,0-1.46,1.47,4.17,4.17,0,0,0-.79,1.81h11.29v2.33h-14.36a11.66,11.66,0,0,1,.7-3.33,8.88,8.88,0,0,1,1.38-2.4,10.3,10.3,0,0,1,1.89-1.8q1.05-.78,2.2-1.46,1.4-.87,2.45-1.6a10.81,10.81,0,0,0,1.75-1.47,5,5,0,0,0,1.41-3.63,3.78,3.78,0,0,0-.34-1.63,3.9,3.9,0,0,0-2.26-2.06,4.79,4.79,0,0,0-1.64-.28,3.84,3.84,0,0,0-2,.48,4.13,4.13,0,0,0-1.35,1.26,5.26,5.26,0,0,0-.76,1.75,7.51,7.51,0,0,0-.2,2h-2.64A8.9,8.9,0,0,1,1579.88,1287Z"/><path class="cls-3" d="M1607.11,1282.19l8.65,22.14h-3.26l-2.42-6.67h-9.37l-2.48,6.67h-3l8.62-22.14Zm2,13-3.69-10.33h-.06l-3.75,10.33Z"/><path class="cls-3" d="M1622,1282.19l7,18.61,7-18.61h4v22.14h-2.79v-18.42h-.06l-6.92,18.42h-2.51l-6.92-18.42h-.06v18.42H1618v-22.14Z"/><path class="cls-3" d="M1668.86,1282.19v2.48h-12.34v7H1668v2.48h-11.51v7.66H1669v2.48h-15.38v-22.14Z"/><path class="cls-3" d="M1670.16,1284.67v-2.48h17.71v2.48h-7.38v19.66h-2.95v-19.66Z"/><path class="cls-3" d="M1704.93,1304.33v-15.76h-5.71v-2.11a13.4,13.4,0,0,0,2.17-.17,5.9,5.9,0,0,0,1.91-.63,4.36,4.36,0,0,0,1.44-1.27,4.84,4.84,0,0,0,.81-2h2v22Z"/><path class="cls-3" d="M1722.17,1304.33v-15.76h-5.71v-2.11a13.4,13.4,0,0,0,2.17-.17,5.9,5.9,0,0,0,1.91-.63,4.36,4.36,0,0,0,1.44-1.27,4.84,4.84,0,0,0,.81-2h2v22Z"/><path class="cls-3" d="M1737,1300.89v3.44h-3.44v-3.44Z"/><path class="cls-3" d="M1741.34,1287a6.59,6.59,0,0,1,1.35-2.46,6.35,6.35,0,0,1,2.28-1.63,7.75,7.75,0,0,1,3.1-.59,8.43,8.43,0,0,1,2.68.42,6.53,6.53,0,0,1,2.19,1.21,5.63,5.63,0,0,1,1.47,2,6.47,6.47,0,0,1,.54,2.73,6.85,6.85,0,0,1-.45,2.57,7.32,7.32,0,0,1-1.19,2,10,10,0,0,1-1.71,1.6c-.64.48-1.3.93-2,1.37l-2,1.22a16.05,16.05,0,0,0-1.88,1.29,8.51,8.51,0,0,0-1.46,1.47,4.17,4.17,0,0,0-.79,1.81h11.29v2.33h-14.36a11.66,11.66,0,0,1,.7-3.33,8.88,8.88,0,0,1,1.38-2.4,10.3,10.3,0,0,1,1.89-1.8q1.05-.78,2.2-1.46,1.4-.87,2.45-1.6a10.81,10.81,0,0,0,1.75-1.47,5,5,0,0,0,1.41-3.63,3.78,3.78,0,0,0-.34-1.63,3.9,3.9,0,0,0-2.26-2.06,4.79,4.79,0,0,0-1.64-.28,3.84,3.84,0,0,0-2,.48,4.13,4.13,0,0,0-1.35,1.26,5.26,5.26,0,0,0-.76,1.75,7.51,7.51,0,0,0-.2,2H1741A8.9,8.9,0,0,1,1741.34,1287Z"/><path class="cls-3" d="M1762.34,1301.51a4.39,4.39,0,0,0,2.73.87,3.93,3.93,0,0,0,3.63-2.09,14,14,0,0,0,1.33-6.4l-.06-.06a5.75,5.75,0,0,1-5.09,3,7.66,7.66,0,0,1-3-.54,6.11,6.11,0,0,1-2.19-1.5,6.3,6.3,0,0,1-1.33-2.33,9.46,9.46,0,0,1-.45-3,7.72,7.72,0,0,1,.53-2.9,6.53,6.53,0,0,1,1.49-2.26,6.78,6.78,0,0,1,2.29-1.47,7.86,7.86,0,0,1,2.92-.53,8.72,8.72,0,0,1,2.92.48,5.6,5.6,0,0,1,2.39,1.66,8.59,8.59,0,0,1,1.63,3.21,18.46,18.46,0,0,1,.6,5.16q0,5.71-1.81,8.76a6.25,6.25,0,0,1-5.82,3.05,7.34,7.34,0,0,1-4.59-1.4,5.66,5.66,0,0,1-2.08-4.25H1761A3.35,3.35,0,0,0,1762.34,1301.51Zm6.93-13.74a4.91,4.91,0,0,0-.87-1.6,4.14,4.14,0,0,0-1.41-1.1,4.47,4.47,0,0,0-2-.4,4.24,4.24,0,0,0-2,.43,3.73,3.73,0,0,0-1.33,1.16,4.94,4.94,0,0,0-.75,1.66,8.07,8.07,0,0,0-.23,2,4.74,4.74,0,0,0,.33,1.74,4.94,4.94,0,0,0,.9,1.49,4.34,4.34,0,0,0,1.36,1,3.93,3.93,0,0,0,1.75.39,4.39,4.39,0,0,0,1.86-.39,4.26,4.26,0,0,0,1.43-1.05,4.64,4.64,0,0,0,.9-1.55,5.56,5.56,0,0,0,.31-1.85A6.14,6.14,0,0,0,1769.27,1287.77Z"/><path class="cls-3" d="M1780.14,1300.89v3.44h-3.44v-3.44Z"/><path class="cls-3" d="M1784.45,1287a6.59,6.59,0,0,1,1.35-2.46,6.35,6.35,0,0,1,2.28-1.63,7.75,7.75,0,0,1,3.1-.59,8.43,8.43,0,0,1,2.68.42,6.53,6.53,0,0,1,2.19,1.21,5.63,5.63,0,0,1,1.47,2,6.47,6.47,0,0,1,.54,2.73,6.85,6.85,0,0,1-.45,2.57,7.32,7.32,0,0,1-1.19,2,10,10,0,0,1-1.71,1.6c-.64.48-1.3.93-2,1.37l-2,1.22a16.05,16.05,0,0,0-1.88,1.29,8.51,8.51,0,0,0-1.46,1.47,4.17,4.17,0,0,0-.79,1.81h11.29v2.33h-14.36a11.66,11.66,0,0,1,.7-3.33,8.88,8.88,0,0,1,1.38-2.4,10.3,10.3,0,0,1,1.89-1.8q1.05-.78,2.2-1.46,1.4-.87,2.45-1.6a10.81,10.81,0,0,0,1.75-1.47,5,5,0,0,0,1.41-3.63,3.78,3.78,0,0,0-.34-1.63,3.9,3.9,0,0,0-2.26-2.06,4.79,4.79,0,0,0-1.64-.28,3.84,3.84,0,0,0-2,.48,4.13,4.13,0,0,0-1.35,1.26,5.26,5.26,0,0,0-.76,1.75,7.51,7.51,0,0,0-.2,2h-2.64A8.9,8.9,0,0,1,1784.45,1287Z"/><path class="cls-3" d="M1801.35,1291a17.07,17.07,0,0,1,.31-2.54,12.5,12.5,0,0,1,.71-2.36,6.24,6.24,0,0,1,1.27-2,5.77,5.77,0,0,1,2-1.33,8.9,8.9,0,0,1,5.86,0,5.78,5.78,0,0,1,2,1.33,6.24,6.24,0,0,1,1.27,2,12.57,12.57,0,0,1,.71,2.36,17.2,17.2,0,0,1,.31,2.54q.06,1.3.06,2.51t-.06,2.51a17.26,17.26,0,0,1-.31,2.54,12.14,12.14,0,0,1-.71,2.34,6.31,6.31,0,0,1-1.27,1.94,5.63,5.63,0,0,1-2,1.32,9.23,9.23,0,0,1-5.88,0,5.61,5.61,0,0,1-2-1.32,6.31,6.31,0,0,1-1.27-1.94,12.07,12.07,0,0,1-.71-2.34,17.13,17.13,0,0,1-.31-2.54q-.06-1.3-.06-2.51T1801.35,1291Zm2.81,5.26a11.62,11.62,0,0,0,.5,2.88,5.44,5.44,0,0,0,1.35,2.28,4.11,4.11,0,0,0,5.21,0,5.44,5.44,0,0,0,1.35-2.28,11.66,11.66,0,0,0,.5-2.88c.05-1,.08-1.95.08-2.78q0-.81,0-1.78a15.66,15.66,0,0,0-.16-2,14.48,14.48,0,0,0-.4-1.91,5,5,0,0,0-.78-1.63,4,4,0,0,0-1.29-1.13,4.34,4.34,0,0,0-3.78,0,4,4,0,0,0-1.29,1.13,5,5,0,0,0-.78,1.63,14.48,14.48,0,0,0-.4,1.91,15.66,15.66,0,0,0-.16,2q0,1,0,1.78C1804.08,1294.33,1804.11,1295.26,1804.16,1296.28Z"/><path class="cls-3" d="M1825.64,1304.33v-15.76h-5.71v-2.11a13.4,13.4,0,0,0,2.17-.17,5.9,5.9,0,0,0,1.91-.63,4.36,4.36,0,0,0,1.44-1.27,4.84,4.84,0,0,0,.81-2h2v22Z"/><path class="cls-3" d="M1846.17,1285.57a3.57,3.57,0,0,0-2.54-.9,4.19,4.19,0,0,0-2.7.82,5.63,5.63,0,0,0-1.6,2.08,10,10,0,0,0-.79,2.71,22.29,22.29,0,0,0-.25,2.73l.06.06a5.66,5.66,0,0,1,2.31-2.2,7.71,7.71,0,0,1,6-.14,5.91,5.91,0,0,1,2.11,1.5,6.85,6.85,0,0,1,1.32,2.26,8.36,8.36,0,0,1,.46,2.82,9.15,9.15,0,0,1-.37,2.51,6.77,6.77,0,0,1-1.23,2.37,6.57,6.57,0,0,1-2.26,1.77,7.84,7.84,0,0,1-3.49.7,7,7,0,0,1-3.94-1,6.78,6.78,0,0,1-2.3-2.54,10.54,10.54,0,0,1-1.07-3.41,25.64,25.64,0,0,1-.26-3.6,24.37,24.37,0,0,1,.39-4.39,11.91,11.91,0,0,1,1.32-3.77,7.41,7.41,0,0,1,2.48-2.64,7.12,7.12,0,0,1,3.91-1,6.28,6.28,0,0,1,4.34,1.44A6.09,6.09,0,0,1,1850,1288h-2.64A3.8,3.8,0,0,0,1846.17,1285.57Zm-4.78,7.34A4.26,4.26,0,0,0,1840,1294a4.38,4.38,0,0,0-.88,1.58,6.31,6.31,0,0,0-.29,1.94,5.85,5.85,0,0,0,.31,1.92,4.54,4.54,0,0,0,.88,1.55,4.15,4.15,0,0,0,1.43,1,4.61,4.61,0,0,0,1.94.39,4.41,4.41,0,0,0,1.91-.39,3.92,3.92,0,0,0,1.38-1.07,4.89,4.89,0,0,0,.85-1.56,5.81,5.81,0,0,0,.29-1.85,7,7,0,0,0-.26-1.94,4.29,4.29,0,0,0-.82-1.58,4.12,4.12,0,0,0-1.4-1.07,4.45,4.45,0,0,0-2-.4A4.59,4.59,0,0,0,1841.39,1292.9Z"/><path class="cls-2" d="M893.17,113l18.88-47.87h7.55L938.41,113h-9.84l-4.38-11.93H907.4L903,113Zm22.65-37.82-6.88,19.35H922.5Z"/><path class="cls-2" d="M940.7,88.73a25.29,25.29,0,0,1,1.55-8.66,24,24,0,0,1,4.48-7.65A22.63,22.63,0,0,1,953.92,67a21.72,21.72,0,0,1,9.71-2.09,20.66,20.66,0,0,1,11.09,2.9,17.84,17.84,0,0,1,6.91,7.55l-7.15,4.92a10.92,10.92,0,0,0-2.09-3.4,10.66,10.66,0,0,0-2.8-2.19,12.7,12.7,0,0,0-3.13-1.18,14,14,0,0,0-3.1-.37,11.55,11.55,0,0,0-5.8,1.42,13,13,0,0,0-4.15,3.67,16.44,16.44,0,0,0-2.49,5.12,20.08,20.08,0,0,0-.84,5.7,19.15,19.15,0,0,0,1,6.1,16.44,16.44,0,0,0,2.76,5.16,14,14,0,0,0,4.28,3.57,11.29,11.29,0,0,0,5.46,1.35,13.07,13.07,0,0,0,3.17-.41,12.14,12.14,0,0,0,3.13-1.28,12,12,0,0,0,2.8-2.26,11.07,11.07,0,0,0,2.09-3.34l7.62,4.38a14,14,0,0,1-3.13,4.75,20,20,0,0,1-4.69,3.47,24.36,24.36,0,0,1-5.53,2.16,23.05,23.05,0,0,1-5.73.74,19.47,19.47,0,0,1-9.13-2.16,24,24,0,0,1-7.15-5.63,25.76,25.76,0,0,1-4.65-7.89A25.49,25.49,0,0,1,940.7,88.73Z"/><path class="cls-2" d="M988.71,113V65.14H998v39.71h24.41V113Z"/><path class="cls-2" d="M1046.62,105.12a10.68,10.68,0,0,0,5.56-1.35,10.89,10.89,0,0,0,3.64-3.51,14.52,14.52,0,0,0,2-5,28.72,28.72,0,0,0,.57-5.76V65.14h9.24V89.54a34.87,34.87,0,0,1-1.18,9.24,21.19,21.19,0,0,1-3.71,7.55,17.78,17.78,0,0,1-6.51,5.12,22,22,0,0,1-9.51,1.89,21.76,21.76,0,0,1-9.74-2,18.16,18.16,0,0,1-6.51-5.26,21,21,0,0,1-3.61-7.58,35.75,35.75,0,0,1-1.11-9V65.14h9.3V89.54a29,29,0,0,0,.57,5.83,14.45,14.45,0,0,0,2,5,10.14,10.14,0,0,0,9.07,4.79Z"/><path class="cls-2" d="M1559.7,206.18v12.3h15.07v-12.3h3.81v28.61h-3.81v-13.1H1559.7v13.1h-3.81V206.18Z"/><path class="cls-2" d="M1583.78,220.18a9.65,9.65,0,0,1,1.92-3.45,9.07,9.07,0,0,1,3.17-2.3,11.6,11.6,0,0,1,8.68,0,9.11,9.11,0,0,1,3.15,2.3,9.67,9.67,0,0,1,1.92,3.45,13.82,13.82,0,0,1,.64,4.27,13.63,13.63,0,0,1-.64,4.25,9.68,9.68,0,0,1-1.92,3.43,8.88,8.88,0,0,1-3.15,2.28,11.86,11.86,0,0,1-8.68,0,8.84,8.84,0,0,1-3.17-2.28,9.67,9.67,0,0,1-1.92-3.43,13.6,13.6,0,0,1-.64-4.25A13.79,13.79,0,0,1,1583.78,220.18Zm3.47,7.61a7,7,0,0,0,1.38,2.44,6,6,0,0,0,2.06,1.5,6.29,6.29,0,0,0,5,0,6,6,0,0,0,2.06-1.5,7,7,0,0,0,1.38-2.44,11.43,11.43,0,0,0,0-6.69,7.22,7.22,0,0,0-1.38-2.46,5.9,5.9,0,0,0-2.06-1.52,6.28,6.28,0,0,0-5,0,5.89,5.89,0,0,0-2.06,1.52,7.22,7.22,0,0,0-1.38,2.46,11.45,11.45,0,0,0,0,6.69Z"/><path class="cls-2" d="M1610.87,206.18v28.61h-3.41V206.18Z"/><path class="cls-2" d="M1616.36,210.34v-4.17h3.41v4.17Zm3.41,3.73v20.72h-3.41V214.07Z"/><path class="cls-2" d="M1640.17,234.79V232h-.08a5,5,0,0,1-2.65,2.48,10.1,10.1,0,0,1-4,.76,9.34,9.34,0,0,1-4.19-.88,8.61,8.61,0,0,1-3-2.36,10.29,10.29,0,0,1-1.78-3.45,14.14,14.14,0,0,1-.6-4.17,14.64,14.64,0,0,1,.58-4.17,9.79,9.79,0,0,1,1.76-3.43,8.52,8.52,0,0,1,3-2.32,9.44,9.44,0,0,1,4.15-.86,10.14,10.14,0,0,1,1.72.16,8.78,8.78,0,0,1,1.84.54,7.89,7.89,0,0,1,1.74,1,5.49,5.49,0,0,1,1.38,1.54h.08V206.18h3.41v28.61Zm-12.24-7.35a7.64,7.64,0,0,0,1.16,2.46,5.69,5.69,0,0,0,2,1.72,6.08,6.08,0,0,0,2.87.64,5.62,5.62,0,0,0,4.89-2.46,7.46,7.46,0,0,0,1.1-2.5,12.12,12.12,0,0,0,0-5.79,7.3,7.3,0,0,0-1.14-2.5,5.83,5.83,0,0,0-2-1.74,6.33,6.33,0,0,0-3-.66,5.84,5.84,0,0,0-2.92.68,5.43,5.43,0,0,0-1.92,1.8,7.86,7.86,0,0,0-1,2.56,13.63,13.63,0,0,0-.32,3A10.59,10.59,0,0,0,1627.92,227.44Z"/><path class="cls-2" d="M1667.18,234.71a4.82,4.82,0,0,1-2.44.52,2.93,2.93,0,0,1-2.1-.74,3.22,3.22,0,0,1-.78-2.42,8.15,8.15,0,0,1-3.27,2.42,11.28,11.28,0,0,1-6.69.42,6.2,6.2,0,0,1-2.18-1,4.8,4.8,0,0,1-1.46-1.78,6,6,0,0,1-.54-2.67,6.09,6.09,0,0,1,.6-2.89,5.23,5.23,0,0,1,1.58-1.82,7.25,7.25,0,0,1,2.24-1.06q1.26-.36,2.58-.6t2.67-.42a14.79,14.79,0,0,0,2.22-.4,3.71,3.71,0,0,0,1.52-.76,1.86,1.86,0,0,0,.56-1.46,3.41,3.41,0,0,0-.42-1.8,2.9,2.9,0,0,0-1.08-1,4.41,4.41,0,0,0-1.48-.48,11.14,11.14,0,0,0-1.62-.12,7.21,7.21,0,0,0-3.61.82,3.49,3.49,0,0,0-1.56,3.11h-3.41a7.35,7.35,0,0,1,.8-3.25,6.07,6.07,0,0,1,1.92-2.14A8.07,8.07,0,0,1,1654,214a14.47,14.47,0,0,1,3.31-.36,19.43,19.43,0,0,1,2.79.2,7.29,7.29,0,0,1,2.5.82,4.81,4.81,0,0,1,1.8,1.74,5.57,5.57,0,0,1,.68,2.92V229.9a7.93,7.93,0,0,0,.14,1.76q.14.56.94.56a4.12,4.12,0,0,0,1-.16Zm-5.53-10.62a4.26,4.26,0,0,1-1.68.7q-1,.22-2.18.36t-2.3.32a8.51,8.51,0,0,0-2.08.58,3.78,3.78,0,0,0-1.5,1.14,3.17,3.17,0,0,0-.58,2,2.74,2.74,0,0,0,.34,1.42,2.82,2.82,0,0,0,.88.94,3.71,3.71,0,0,0,1.26.52,7,7,0,0,0,1.52.16,8.12,8.12,0,0,0,2.88-.46,6.07,6.07,0,0,0,2-1.16,4.58,4.58,0,0,0,1.12-1.52,3.82,3.82,0,0,0,.36-1.54Z"/><path class="cls-2" d="M1678.48,237.55a21.78,21.78,0,0,1-1.18,2.56,7.07,7.07,0,0,1-1.28,1.7,4.35,4.35,0,0,1-1.56,1,6,6,0,0,1-2,.3,9.11,9.11,0,0,1-1.2-.08,5.73,5.73,0,0,1-1.16-.28V239.6a5.72,5.72,0,0,0,1,.34,4.32,4.32,0,0,0,1,.14,2.92,2.92,0,0,0,1.74-.5,3.07,3.07,0,0,0,1.06-1.42l1.4-3.49-8.21-20.6h3.85l6.05,17h.08l5.81-17h3.61Z"/><path class="cls-2" d="M1710.38,214.07v3h-4.13v12.86a3.74,3.74,0,0,0,.1,1,1,1,0,0,0,.38.56,1.68,1.68,0,0,0,.78.26,11.25,11.25,0,0,0,1.3.06h1.56v3h-2.6a12.24,12.24,0,0,1-2.26-.18,3.32,3.32,0,0,1-1.52-.66,2.81,2.81,0,0,1-.86-1.36,7.89,7.89,0,0,1-.28-2.32V217.08h-3.53v-3h3.53v-6.21h3.41v6.21Z"/><path class="cls-2" d="M1717.23,214.07v4.37h.08a9.23,9.23,0,0,1,3-3.73,7.65,7.65,0,0,1,4.57-1.12v3.61a9.64,9.64,0,0,0-3.49.56,5.5,5.5,0,0,0-2.32,1.64,6.81,6.81,0,0,0-1.28,2.63,14.19,14.19,0,0,0-.4,3.55v9.22H1714V214.07Z"/><path class="cls-2" d="M1745.84,234.71a4.83,4.83,0,0,1-2.44.52,2.93,2.93,0,0,1-2.1-.74,3.22,3.22,0,0,1-.78-2.42,8.15,8.15,0,0,1-3.27,2.42,11.27,11.27,0,0,1-6.69.42,6.18,6.18,0,0,1-2.18-1,4.79,4.79,0,0,1-1.46-1.78,6,6,0,0,1-.54-2.67,6.08,6.08,0,0,1,.6-2.89,5.24,5.24,0,0,1,1.58-1.82,7.25,7.25,0,0,1,2.24-1.06q1.26-.36,2.58-.6t2.67-.42a14.82,14.82,0,0,0,2.22-.4,3.7,3.7,0,0,0,1.52-.76,1.86,1.86,0,0,0,.56-1.46,3.4,3.4,0,0,0-.42-1.8,2.89,2.89,0,0,0-1.08-1,4.41,4.41,0,0,0-1.48-.48,11.16,11.16,0,0,0-1.62-.12,7.21,7.21,0,0,0-3.61.82,3.49,3.49,0,0,0-1.56,3.11h-3.41a7.35,7.35,0,0,1,.8-3.25,6.09,6.09,0,0,1,1.92-2.14,8.07,8.07,0,0,1,2.75-1.18,14.46,14.46,0,0,1,3.31-.36,19.44,19.44,0,0,1,2.79.2,7.3,7.3,0,0,1,2.5.82,4.8,4.8,0,0,1,1.8,1.74,5.56,5.56,0,0,1,.68,2.92V229.9a7.92,7.92,0,0,0,.14,1.76q.14.56.94.56a4.14,4.14,0,0,0,1-.16Zm-5.53-10.62a4.25,4.25,0,0,1-1.68.7q-1,.22-2.18.36t-2.3.32a8.52,8.52,0,0,0-2.08.58,3.78,3.78,0,0,0-1.5,1.14,3.16,3.16,0,0,0-.58,2,2.73,2.73,0,0,0,.34,1.42,2.83,2.83,0,0,0,.88.94,3.71,3.71,0,0,0,1.26.52,7,7,0,0,0,1.52.16,8.11,8.11,0,0,0,2.88-.46,6.07,6.07,0,0,0,2-1.16,4.57,4.57,0,0,0,1.12-1.52,3.82,3.82,0,0,0,.36-1.54Z"/><path class="cls-2" d="M1746.92,217.08v-3h3.49V211a4.86,4.86,0,0,1,1.46-3.83,6.23,6.23,0,0,1,4.27-1.3,8.76,8.76,0,0,1,1.1.08,5.93,5.93,0,0,1,1.1.24v3a4.24,4.24,0,0,0-1-.22,8.34,8.34,0,0,0-1-.06,3.3,3.3,0,0,0-1.92.48,2.12,2.12,0,0,0-.68,1.84v2.89h4v3h-4v17.71h-3.41V217.08Z"/><path class="cls-2" d="M1758.06,217.08v-3h3.49V211a4.86,4.86,0,0,1,1.46-3.83,6.23,6.23,0,0,1,4.27-1.3,8.76,8.76,0,0,1,1.1.08,5.93,5.93,0,0,1,1.1.24v3a4.24,4.24,0,0,0-1-.22,8.34,8.34,0,0,0-1-.06,3.3,3.3,0,0,0-1.92.48,2.12,2.12,0,0,0-.68,1.84v2.89h4v3h-4v17.71h-3.41V217.08Z"/><path class="cls-2" d="M1772.21,210.34v-4.17h3.41v4.17Zm3.41,3.73v20.72h-3.41V214.07Z"/><path class="cls-2" d="M1793.29,217.68a5.17,5.17,0,0,0-3.45-1.08,6.35,6.35,0,0,0-3.09.68,5.51,5.51,0,0,0-2,1.8,7.58,7.58,0,0,0-1.06,2.58,14.09,14.09,0,0,0-.32,3,11.5,11.5,0,0,0,.34,2.81,7.51,7.51,0,0,0,1.06,2.42,5.36,5.36,0,0,0,1.88,1.7,5.63,5.63,0,0,0,2.76.64,5.57,5.57,0,0,0,3.95-1.32,6,6,0,0,0,1.74-3.73h3.49a9.55,9.55,0,0,1-2.87,5.93,9,9,0,0,1-6.27,2.08,10.8,10.8,0,0,1-4.19-.76,8.11,8.11,0,0,1-3-2.16,9.35,9.35,0,0,1-1.84-3.35,13.93,13.93,0,0,1-.62-4.27,15.22,15.22,0,0,1,.6-4.35,10,10,0,0,1,1.82-3.53,8.56,8.56,0,0,1,3.06-2.36,10,10,0,0,1,4.29-.86,12.51,12.51,0,0,1,3.31.42,8.07,8.07,0,0,1,2.73,1.3,7.13,7.13,0,0,1,1.94,2.22,8.19,8.19,0,0,1,1,3.19H1795A5.2,5.2,0,0,0,1793.29,217.68Z"/><path class="cls-4" d="M1566.27,259.45l2,0q1.06,0,2.1.12a16.09,16.09,0,0,1,1.94.3,4.93,4.93,0,0,1,1.54.6,7.45,7.45,0,0,1,2.38,2.32,6.46,6.46,0,0,1,1,3.65,7,7,0,0,1-1.1,3.95,6.5,6.5,0,0,1-3.15,2.46V273a6.59,6.59,0,0,1,4,2.4,7.19,7.19,0,0,1,1.4,4.49,8.54,8.54,0,0,1-.56,3,7.65,7.65,0,0,1-1.66,2.62,8.31,8.31,0,0,1-2.73,1.84,9.37,9.37,0,0,1-3.75.7h-13.83V259.45Zm1,12.3q3.25,0,4.67-1.14a4.13,4.13,0,0,0,1.42-3.43,5,5,0,0,0-.48-2.4,3.41,3.41,0,0,0-1.32-1.36,5.2,5.2,0,0,0-1.94-.62,18.63,18.63,0,0,0-2.34-.14h-7.62v9.1Zm1.92,13.1a5.47,5.47,0,0,0,3.95-1.36,5,5,0,0,0,1.42-3.77,4.67,4.67,0,0,0-.52-2.32,4,4,0,0,0-1.38-1.46,5.81,5.81,0,0,0-2-.76,12.07,12.07,0,0,0-2.32-.22h-8.7v9.9Z"/><path class="cls-4" d="M1601.14,288a4.83,4.83,0,0,1-2.45.52,2.93,2.93,0,0,1-2.1-.74,3.22,3.22,0,0,1-.78-2.42,8.15,8.15,0,0,1-3.27,2.42,11.28,11.28,0,0,1-6.69.42,6.19,6.19,0,0,1-2.18-1,4.8,4.8,0,0,1-1.46-1.78,6,6,0,0,1-.54-2.67,6.09,6.09,0,0,1,.6-2.89,5.24,5.24,0,0,1,1.58-1.82,7.25,7.25,0,0,1,2.24-1.06q1.26-.36,2.58-.6t2.66-.42a14.79,14.79,0,0,0,2.22-.4,3.71,3.71,0,0,0,1.52-.76,1.86,1.86,0,0,0,.56-1.46,3.4,3.4,0,0,0-.42-1.8,2.89,2.89,0,0,0-1.08-1,4.4,4.4,0,0,0-1.48-.48,11.12,11.12,0,0,0-1.62-.12,7.2,7.2,0,0,0-3.61.82,3.48,3.48,0,0,0-1.56,3.11h-3.41a7.37,7.37,0,0,1,.8-3.25,6.06,6.06,0,0,1,1.92-2.14,8.06,8.06,0,0,1,2.74-1.18,14.49,14.49,0,0,1,3.31-.36,19.44,19.44,0,0,1,2.79.2,7.29,7.29,0,0,1,2.5.82,4.81,4.81,0,0,1,1.8,1.74,5.57,5.57,0,0,1,.68,2.92v10.64a7.93,7.93,0,0,0,.14,1.76q.14.56.94.56a4.12,4.12,0,0,0,1-.16Zm-5.53-10.62a4.26,4.26,0,0,1-1.68.7q-1,.22-2.18.36t-2.3.32a8.49,8.49,0,0,0-2.08.58,3.78,3.78,0,0,0-1.5,1.14,3.18,3.18,0,0,0-.58,2,2.75,2.75,0,0,0,.34,1.42,2.83,2.83,0,0,0,.88.94,3.71,3.71,0,0,0,1.26.52,7,7,0,0,0,1.52.16,8.12,8.12,0,0,0,2.89-.46,6.08,6.08,0,0,0,2-1.16,4.57,4.57,0,0,0,1.12-1.52,3.82,3.82,0,0,0,.36-1.54Z"/><path class="cls-4" d="M1606.91,283.44a3.62,3.62,0,0,0,1.26,1.24,5.64,5.64,0,0,0,1.76.66,10,10,0,0,0,2,.2,12.48,12.48,0,0,0,1.68-.12,6.14,6.14,0,0,0,1.62-.44,3,3,0,0,0,1.22-.94,2.51,2.51,0,0,0,.48-1.58,2.27,2.27,0,0,0-1-2,8.56,8.56,0,0,0-2.5-1.1q-1.5-.42-3.27-.76a16.88,16.88,0,0,1-3.27-1,6.76,6.76,0,0,1-2.5-1.74,4.53,4.53,0,0,1-1-3.13,5,5,0,0,1,.7-2.69,5.73,5.73,0,0,1,1.8-1.82,8.29,8.29,0,0,1,2.48-1,11.44,11.44,0,0,1,2.74-.34,16.37,16.37,0,0,1,3.25.3,7.53,7.53,0,0,1,2.63,1,5.4,5.4,0,0,1,1.82,2,7.62,7.62,0,0,1,.8,3.15h-3.41a3.27,3.27,0,0,0-1.64-2.73,5.11,5.11,0,0,0-1.5-.58,7.7,7.7,0,0,0-1.66-.18,10.09,10.09,0,0,0-1.54.12,5.19,5.19,0,0,0-1.42.42,2.87,2.87,0,0,0-1,.8,2,2,0,0,0-.4,1.3,1.92,1.92,0,0,0,.62,1.46,5,5,0,0,0,1.58,1,13.89,13.89,0,0,0,2.16.64l2.41.54a25.68,25.68,0,0,1,2.5.68,8.18,8.18,0,0,1,2.16,1.06,5.2,5.2,0,0,1,1.52,1.66,4.89,4.89,0,0,1,.58,2.48,5.77,5.77,0,0,1-.78,3.13,6.11,6.11,0,0,1-2,2,8.54,8.54,0,0,1-2.84,1.06,16.82,16.82,0,0,1-3.15.3,14.56,14.56,0,0,1-3.29-.36,8,8,0,0,1-2.76-1.18,6,6,0,0,1-1.92-2.16,7.5,7.5,0,0,1-.8-3.27h3.41A3.83,3.83,0,0,0,1606.91,283.44Z"/><path class="cls-4" d="M1639,286.75a9.4,9.4,0,0,1-5.85,1.76,10.64,10.64,0,0,1-4.31-.8,8.48,8.48,0,0,1-3.07-2.24,9.53,9.53,0,0,1-1.86-3.45,16.62,16.62,0,0,1-.7-4.37,12.45,12.45,0,0,1,.72-4.33,10.34,10.34,0,0,1,2-3.41,9.19,9.19,0,0,1,3.08-2.24,9.42,9.42,0,0,1,3.91-.8,8.5,8.5,0,0,1,4.59,1.14,9.07,9.07,0,0,1,2.93,2.91,11.52,11.52,0,0,1,1.52,3.85,16.49,16.49,0,0,1,.34,4h-15.51a8.21,8.21,0,0,0,.32,2.58,5.83,5.83,0,0,0,1.16,2.16,5.72,5.72,0,0,0,2,1.5,7.05,7.05,0,0,0,2.93.56,5.9,5.9,0,0,0,3.55-1,4.84,4.84,0,0,0,1.82-3H1642A8.28,8.28,0,0,1,1639,286.75Zm-.82-13.3a5.8,5.8,0,0,0-5.43-3.57,5.94,5.94,0,0,0-2.38.46,5.52,5.52,0,0,0-1.82,1.26,6.05,6.05,0,0,0-1.2,1.86,7.07,7.07,0,0,0-.52,2.26h11.9A7,7,0,0,0,1638.18,273.44Z"/><path class="cls-4" d="M1649.46,259.45v28.61h-3.41V259.45Z"/><path class="cls-4" d="M1655,263.62v-4.17h3.41v4.17Zm3.41,3.73v20.72H1655V267.35Z"/><path class="cls-4" d="M1666.86,267.35v3.29h.08a7.17,7.17,0,0,1,6.73-3.77,9,9,0,0,1,3.41.56,5.61,5.61,0,0,1,2.2,1.56,5.8,5.8,0,0,1,1.18,2.38,12.85,12.85,0,0,1,.34,3.07v13.63h-3.41V274a4.12,4.12,0,0,0-1.12-3,4.17,4.17,0,0,0-3.09-1.12,7,7,0,0,0-2.71.48,5.08,5.08,0,0,0-1.9,1.36,5.87,5.87,0,0,0-1.14,2.06,8.39,8.39,0,0,0-.38,2.58v11.7h-3.41V267.35Z"/><path class="cls-4" d="M1700.6,286.75a9.41,9.41,0,0,1-5.85,1.76,10.65,10.65,0,0,1-4.31-.8,8.48,8.48,0,0,1-3.07-2.24,9.53,9.53,0,0,1-1.86-3.45,16.58,16.58,0,0,1-.7-4.37,12.45,12.45,0,0,1,.72-4.33,10.32,10.32,0,0,1,2-3.41,9.18,9.18,0,0,1,3.09-2.24,9.41,9.41,0,0,1,3.91-.8,8.5,8.5,0,0,1,4.59,1.14,9.08,9.08,0,0,1,2.93,2.91,11.49,11.49,0,0,1,1.52,3.85,16.45,16.45,0,0,1,.34,4h-15.51a8.21,8.21,0,0,0,.32,2.58,5.85,5.85,0,0,0,1.16,2.16,5.73,5.73,0,0,0,2,1.5,7,7,0,0,0,2.93.56,5.89,5.89,0,0,0,3.55-1,4.85,4.85,0,0,0,1.82-3h3.37A8.28,8.28,0,0,1,1700.6,286.75Zm-.82-13.3a5.85,5.85,0,0,0-1.24-1.86,5.92,5.92,0,0,0-1.84-1.24,5.84,5.84,0,0,0-2.34-.46,5.94,5.94,0,0,0-2.38.46,5.52,5.52,0,0,0-1.82,1.26,6,6,0,0,0-1.2,1.86,7,7,0,0,0-.52,2.26h11.9A7,7,0,0,0,1699.78,273.44Z"/><path class="cls-4" d="M1727.45,267.35v3h-4.13v12.86a3.74,3.74,0,0,0,.1,1,1,1,0,0,0,.38.56,1.68,1.68,0,0,0,.78.26,11.24,11.24,0,0,0,1.3.06h1.56v3h-2.6a12.25,12.25,0,0,1-2.26-.18,3.33,3.33,0,0,1-1.52-.66,2.83,2.83,0,0,1-.86-1.36,7.89,7.89,0,0,1-.28-2.32V270.35h-3.53v-3h3.53v-6.21h3.41v6.21Z"/><path class="cls-4" d="M1734.3,267.35v4.37h.08a9.23,9.23,0,0,1,3-3.73,7.65,7.65,0,0,1,4.57-1.12v3.61a9.64,9.64,0,0,0-3.49.56,5.5,5.5,0,0,0-2.32,1.64,6.81,6.81,0,0,0-1.28,2.63,14.19,14.19,0,0,0-.4,3.55v9.22h-3.41V267.35Z"/><path class="cls-4" d="M1762.91,288a4.82,4.82,0,0,1-2.44.52,2.93,2.93,0,0,1-2.1-.74,3.22,3.22,0,0,1-.78-2.42,8.15,8.15,0,0,1-3.27,2.42,11.28,11.28,0,0,1-6.69.42,6.2,6.2,0,0,1-2.18-1,4.8,4.8,0,0,1-1.46-1.78,6,6,0,0,1-.54-2.67,6.09,6.09,0,0,1,.6-2.89,5.23,5.23,0,0,1,1.58-1.82,7.25,7.25,0,0,1,2.24-1.06q1.26-.36,2.58-.6t2.67-.42a14.79,14.79,0,0,0,2.22-.4,3.71,3.71,0,0,0,1.52-.76,1.86,1.86,0,0,0,.56-1.46,3.41,3.41,0,0,0-.42-1.8,2.9,2.9,0,0,0-1.08-1,4.41,4.41,0,0,0-1.48-.48,11.14,11.14,0,0,0-1.62-.12,7.21,7.21,0,0,0-3.61.82,3.49,3.49,0,0,0-1.56,3.11h-3.41a7.35,7.35,0,0,1,.8-3.25,6.07,6.07,0,0,1,1.92-2.14,8.07,8.07,0,0,1,2.75-1.18,14.47,14.47,0,0,1,3.31-.36,19.43,19.43,0,0,1,2.79.2,7.29,7.29,0,0,1,2.5.82,4.81,4.81,0,0,1,1.8,1.74,5.57,5.57,0,0,1,.68,2.92v10.64a7.93,7.93,0,0,0,.14,1.76q.14.56.94.56a4.12,4.12,0,0,0,1-.16Zm-5.53-10.62a4.26,4.26,0,0,1-1.68.7q-1,.22-2.18.36t-2.3.32a8.51,8.51,0,0,0-2.08.58,3.78,3.78,0,0,0-1.5,1.14,3.17,3.17,0,0,0-.58,2,2.74,2.74,0,0,0,.34,1.42,2.82,2.82,0,0,0,.88.94,3.71,3.71,0,0,0,1.26.52,7,7,0,0,0,1.52.16,8.12,8.12,0,0,0,2.88-.46,6.07,6.07,0,0,0,2-1.16,4.58,4.58,0,0,0,1.12-1.52,3.82,3.82,0,0,0,.36-1.54Z"/><path class="cls-4" d="M1764,270.35v-3h3.49v-3.09a4.86,4.86,0,0,1,1.46-3.83,6.23,6.23,0,0,1,4.27-1.3,8.76,8.76,0,0,1,1.1.08,5.93,5.93,0,0,1,1.1.24v3a4.24,4.24,0,0,0-1-.22,8.34,8.34,0,0,0-1-.06,3.3,3.3,0,0,0-1.92.48,2.12,2.12,0,0,0-.68,1.84v2.89h4v3h-4v17.71h-3.41V270.35Z"/><path class="cls-4" d="M1775.13,270.35v-3h3.49v-3.09a4.86,4.86,0,0,1,1.46-3.83,6.23,6.23,0,0,1,4.27-1.3,8.76,8.76,0,0,1,1.1.08,5.93,5.93,0,0,1,1.1.24v3a4.24,4.24,0,0,0-1-.22,8.34,8.34,0,0,0-1-.06,3.3,3.3,0,0,0-1.92.48,2.12,2.12,0,0,0-.68,1.84v2.89h4v3h-4v17.71h-3.41V270.35Z"/><path class="cls-4" d="M1789.28,263.62v-4.17h3.41v4.17Zm3.41,3.73v20.72h-3.41V267.35Z"/><path class="cls-4" d="M1810.36,271a5.17,5.17,0,0,0-3.45-1.08,6.35,6.35,0,0,0-3.09.68,5.5,5.5,0,0,0-2,1.8,7.54,7.54,0,0,0-1.06,2.58,14,14,0,0,0-.32,3,11.55,11.55,0,0,0,.34,2.81,7.51,7.51,0,0,0,1.06,2.42,5.36,5.36,0,0,0,1.88,1.7,5.64,5.64,0,0,0,2.77.64,5.57,5.57,0,0,0,3.95-1.32,6,6,0,0,0,1.74-3.73h3.49a9.54,9.54,0,0,1-2.87,5.93,9,9,0,0,1-6.27,2.08,10.8,10.8,0,0,1-4.19-.76,8.11,8.11,0,0,1-3-2.16,9.35,9.35,0,0,1-1.84-3.35,14,14,0,0,1-.62-4.27,15.22,15.22,0,0,1,.6-4.35,10,10,0,0,1,1.82-3.53,8.57,8.57,0,0,1,3.07-2.36,10,10,0,0,1,4.29-.86,12.51,12.51,0,0,1,3.31.42,8,8,0,0,1,2.73,1.3,7.11,7.11,0,0,1,1.94,2.22,8.21,8.21,0,0,1,1,3.19H1812A5.2,5.2,0,0,0,1810.36,271Z"/><rect class="cls-5" x="1492" y="204" width="34" height="34"/><rect class="cls-6" x="1492" y="256" width="34" height="34"/><path class="cls-5" d="M1851.84,654.56l-42.89,457.32-20.78,44.54-14.85-38.6-29.69-201.9-23.75-115.79-19.3-47.51-20.78-75.71L1669.4,528.46l-20.78,236-11.88-8.91-13.36-20.78-8.91,40.08L1602.6,792.7l-17.81,72.74L1567,1010.93l-17.81,103.92-13.36,23.75H1525.4l-11.88-11.88-22.27-103.92L1469,895.14l-19.3-92-10.39,25.24-10.39,5.94L1418.51,907l-8.91-11.88-11.88-98-13.36,1.48-8.91,120.25-10.39,38.6-34.14,69.77-46,151.42-8.91,4.45-10.39-5.94-19.3-29.69L1224,1058.44l-37.11-86.1-11.88-5.94s-10.39,3-13.36,3-17.81-14.85-17.81-14.85l-10.39,7.42s-7.42-20.78-8.91-23.75-26.72-20.78-26.72-20.78l-5.94,10.39-13.36-4.45-11.88,100.95-41.57,149.94h-16.33L991,1156.42l-25.24-83.13-17.81-83.13-10.39-17.81-11.88-49L910.8,966.4l-8.91,4.45-13.36-25.24-10.39-5.94-3-16.33L864.78,913H848.45l-10.39-35.63H826.18c-3,0-10.39-86.1-10.39-86.1l-19.3,234.56-20.78,83.13-11.88,35.63L749,1152l-17.81-22.27-29.69-92-14.85-86.1-37.11-78.68S642.1,901.08,639.13,904L630.22,913l-11.88-53.44-8.91,23.75s-8.91,38.6-10.39,44.54-13.36-37.11-13.36-37.11l-11.88-19.3-5.94-43.05-16.33-1.48-7.42,17.81s-11.88,28.21-11.88,31.18-32.66,209.32-32.66,209.32l-13.36,32.66h-8.91l-14.85-44.54L449.11,966.4,434.27,785.28l-8.91-11.88L400.12,650.19l-19.3-40.08-13.36-1.48-10.39-37.11-11.88-98L315.5,668l-16.33-22.27-7.42,50.47-11.88,7.42-53.44,414.19-8.91,3-14.85-29.69L152.2,642.77l-10.39-32.66L127,550.72l-10.39,16.33v676.56H1851.84Z"/><path class="cls-6" d="M1852,951.55l-22.27,103.92-11.88,71.26-8.91,38.6-13.36,17.81L1779.26,1195l-34.14-44.54-10.39-41.57-20.78-80.17-14.85-13.36-4.45,13.36-16.33-4.45-10.39,8.91-10.39-65.32-10.39,7.42-10.39-11.88L1621.9,927.8l-7.42,53.44L1604.08,1008l-14.85,3-8.91,13.36-20.78,86.1-8.91,60.87L1537.28,1201s-17.81,5.94-22.27,5.94-8.91-8.91-8.91-8.91l-13.36-5.94-41.57-98-11.88-13.36L1417,1100l-17.81,7.42-11.88-4.45-14.85,7.42-5.94,14.85-26.72,10.39-20.78,23.75-11.88,4.45L1295.3,1192l-20.78,20.78-20.78-5.94h-10.39l-34.14-44.54-11.88-1.48-22.27-22.27-10.39,8.91-20.78,1.48-13.36-14.85-31.18-4.45s-8.91-5.94-11.88-8.91-7.42,14.85-7.42,14.85l-11.88-3-22.27,23.75L1034,1180.17l-11.88-1.48-10.39-49-19.3,75.71-25.24-14.85-17.81-37.11-16.33-29.69-8.91-8.91-8.91,20.78-13.36-8.91-10.39-3-20.78-63.84-20.78-1.48-11.88-23.75H826.18l-8.91,5.94-14.85,1.48-8.91,28.21-20.78,92L750.47,1198l-22.27,8.91-26.72-31.18L662.88,1100,651,1104.46l-14.85-10.39-16.33,1.48L599,1052.5l-7.42,3-11.88-14.85-16.33-7.42-19.3,3s-8.91,19.3-11.88,22.27-3,14.85-3,14.85S489.19,1198,486.22,1198s-19.3,5.94-23.75,4.45-17.81-19.3-17.81-19.3l-22.27-44.54L410.51,1100l-10.39-5.94L392.7,960.46l-13.36,126.19-22.27,1.48s-16.33-26.72-17.81-29.69-14.85-47.51-14.85-47.51l-20.78-52-10.39,26.72-13.36,13.36s-17.81,46-17.81,49-23.75,92-23.75,92l-32.66,23.75-11.88-13.36-13.36-7.42-19.3-35.63L141.81,1048l-16.33-20.78-8.91,4.45v211.9H1851.84Z"/></svg>