<svg id="Layer_1" data-name="Layer 1" xmlns="http://www.w3.org/2000/svg" viewBox="0 0 1920 1359"><defs><style>.cls-1{fill:none;stroke:#29abe2;stroke-width:0.5px;}.cls-1,.cls-5,.cls-6{stroke-miterlimit:10;}.cls-2{fill:#29abe2;}.cls-3{fill:#0071bc;}.cls-4,.cls-6{fill:#93278f;}.cls-5{fill:#cdebf8;stroke:#0071bc;}.cls-5,.cls-6{fill-opacity:0.5;}.cls-6{stroke:#1b1464;}</style></defs><title>Artboard 7 copy 3</title><rect class="cls-1" x="114.89" y="167.57" width="1737.77" height="1073.9"/><line class="cls-1" x1="548.37" y1="167.57" x2="548.37" y2="1241.47"/><line class="cls-1" x1="983.77" y1="167.57" x2="983.77" y2="1241.47"/><line class="cls-1" x1="1417.53" y1="167.57" x2="1417.53" y2="1241.47"/><line class="cls-1" x1="1851.84" y1="166.75" x2="1851.84" y2="1242.28"/><line class="cls-1" x1="114.89" y1="437.13" x2="1851.84" y2="437.13"/><line class="cls-1" x1="114.89" y1="704.52" x2="1851.84" y2="704.52"/><line class="cls-1" x1="114.89" y1="976.25" x2="1852.66" y2="976.25"/><path class="cls-2" d="M959.48,1279.89H944.24v39.71h-9.3v-39.71h-15.3v-8.16h39.84Z"/><path class="cls-2" d="M965.48,1319.6v-47.8h9.3v47.8Z"/><path class="cls-2" d="M1023.8,1319.6v-31.69l-12.34,23.6h-5.06l-12.34-23.6v31.69h-9.3v-47.87h10L1008.9,1299l14.29-27.24h9.91v47.87Z"/><path class="cls-2" d="M1076.32,1311.44v8.16h-33.24v-47.87h32.63v8.16h-23.33v11.53h20.16V1299h-20.16v12.47Z"/><path class="cls-2" d="M80.35,846.05H32.48V824.88a13.6,13.6,0,0,1,1.38-6.1A15.82,15.82,0,0,1,37.5,814a17.2,17.2,0,0,1,5.12-3.17,15.43,15.43,0,0,1,5.76-1.15A15.92,15.92,0,0,1,56.85,812a13.35,13.35,0,0,1,5.5,6.3l18-11.26v10.52l-16,10v9.17h16Zm-24.2-9.3V825.09a4.93,4.93,0,0,0-.61-2.39,6.11,6.11,0,0,0-1.65-1.92,8.27,8.27,0,0,0-2.46-1.28,9.57,9.57,0,0,0-3-.47,8.65,8.65,0,0,0-3.1.54A8.13,8.13,0,0,0,42.83,821a6.59,6.59,0,0,0-1.62,2.09,5.44,5.44,0,0,0-.57,2.39v11.26Z"/><path class="cls-2" d="M72.19,767.38h8.16v33.24H32.48V768h8.16v23.33H52.17V771.15h7.55v20.16H72.19Z"/><path class="cls-2" d="M77.11,728a22.17,22.17,0,0,1,2.63,5.56,21.35,21.35,0,0,1,.94,6.44,20.36,20.36,0,0,1-2.09,9.24,23.65,23.65,0,0,1-5.46,7.18A24.1,24.1,0,0,1,65.38,761a25.71,25.71,0,0,1-9,1.62,25.22,25.22,0,0,1-16.92-6.51,23.14,23.14,0,0,1-5.36-7.25,20.92,20.92,0,0,1-2-9.1,20.1,20.1,0,0,1,2.12-9.24,23.22,23.22,0,0,1,5.56-7.15,25.26,25.26,0,0,1,7.82-4.58,25.52,25.52,0,0,1,8.9-1.62,25.22,25.22,0,0,1,8.73,1.52,24,24,0,0,1,7.45,4.35l7.62-6.81v8.83Zm-4.65,11.87a11.68,11.68,0,0,0-1.69-6.2l-8.16,7.21V732l3.37-3a19,19,0,0,0-9.57-2.5,19.28,19.28,0,0,0-6,.94,16.83,16.83,0,0,0-5.12,2.66,13.33,13.33,0,0,0-3.57,4.18,12.29,12.29,0,0,0,0,11.26,13.36,13.36,0,0,0,3.67,4.18,16.61,16.61,0,0,0,5.16,2.6,20,20,0,0,0,11.83,0,16.25,16.25,0,0,0,5.12-2.63,13.19,13.19,0,0,0,3.57-4.21A11.71,11.71,0,0,0,72.46,739.87Z"/><path class="cls-2" d="M72.46,689.71a10.68,10.68,0,0,0-1.35-5.56,10.88,10.88,0,0,0-3.51-3.64,14.5,14.5,0,0,0-5-2,28.65,28.65,0,0,0-5.76-.57H32.48v-9.24H56.88a34.91,34.91,0,0,1,9.24,1.18,21.19,21.19,0,0,1,7.55,3.71,17.77,17.77,0,0,1,5.12,6.51,22,22,0,0,1,1.89,9.51,21.76,21.76,0,0,1-2,9.74,18.15,18.15,0,0,1-5.26,6.51,21,21,0,0,1-7.58,3.61,35.75,35.75,0,0,1-9,1.11H32.48v-9.3H56.88a29,29,0,0,0,5.83-.57,14.47,14.47,0,0,0,5-2,10.14,10.14,0,0,0,4.79-9.07Z"/><path class="cls-2" d="M72.19,626.2h8.16v33.24H32.48V626.81h8.16v23.33H52.17V630h7.55v20.16H72.19Z"/><path class="cls-2" d="M45,590.74a11.69,11.69,0,0,0-1.28,1.72,21.11,21.11,0,0,0-1.58,3,26.3,26.3,0,0,0-1.31,3.88,16.94,16.94,0,0,0-.54,4.25q0,3.84,1.42,5.73a4.68,4.68,0,0,0,4,1.89,4.09,4.09,0,0,0,2.46-.71,6.11,6.11,0,0,0,1.72-2.06,17.28,17.28,0,0,0,1.35-3.4q.61-2.06,1.28-4.75.94-3.5,2-6.37a17.28,17.28,0,0,1,2.7-4.85A11.16,11.16,0,0,1,61.1,586a12.87,12.87,0,0,1,5.56-1.08,13.86,13.86,0,0,1,6.57,1.45,12.28,12.28,0,0,1,4.42,3.88,16.57,16.57,0,0,1,2.46,5.66,28.86,28.86,0,0,1,.78,6.74,36,36,0,0,1-1.62,10.65,32.84,32.84,0,0,1-4.58,9.44l-8-4.11a13,13,0,0,0,1.58-2.19,33.35,33.35,0,0,0,2-3.74,29,29,0,0,0,1.65-4.79,21.6,21.6,0,0,0,.67-5.39q0-7.69-4.92-7.69a4.14,4.14,0,0,0-2.7.88A7.46,7.46,0,0,0,63,598.22a24,24,0,0,0-1.48,3.91q-.67,2.29-1.42,5.12a43.54,43.54,0,0,1-2.06,6,16.21,16.21,0,0,1-2.6,4.21A9.46,9.46,0,0,1,52,620a12.39,12.39,0,0,1-4.79.84,14.87,14.87,0,0,1-6.47-1.35A13.07,13.07,0,0,1,36,615.72a17,17,0,0,1-2.87-5.56,23,23,0,0,1-1-6.81,26.43,26.43,0,0,1,1.58-9.3,34.67,34.67,0,0,1,3.74-7.42Z"/><path class="cls-2" d="M40.64,542.33v15.24H80.35v9.3H40.64v15.3H32.48V542.33Z"/><path class="cls-2" d="M45,508.21a11.69,11.69,0,0,0-1.28,1.72,21.11,21.11,0,0,0-1.58,3,26.3,26.3,0,0,0-1.31,3.88,16.94,16.94,0,0,0-.54,4.25q0,3.84,1.42,5.73a4.68,4.68,0,0,0,4,1.89,4.09,4.09,0,0,0,2.46-.71,6.11,6.11,0,0,0,1.72-2.06,17.28,17.28,0,0,0,1.35-3.4q.61-2.06,1.28-4.75.94-3.5,2-6.37a17.28,17.28,0,0,1,2.7-4.85,11.16,11.16,0,0,1,3.88-3.07,12.87,12.87,0,0,1,5.56-1.08,13.86,13.86,0,0,1,6.57,1.45,12.28,12.28,0,0,1,4.42,3.88,16.57,16.57,0,0,1,2.46,5.66,28.86,28.86,0,0,1,.78,6.74,36,36,0,0,1-1.62,10.65,32.84,32.84,0,0,1-4.58,9.44l-8-4.11a13,13,0,0,0,1.58-2.19,33.35,33.35,0,0,0,2-3.74,29,29,0,0,0,1.65-4.79,21.6,21.6,0,0,0,.67-5.39q0-7.69-4.92-7.69a4.14,4.14,0,0,0-2.7.88A7.46,7.46,0,0,0,63,515.7a24,24,0,0,0-1.48,3.91q-.67,2.29-1.42,5.12a43.54,43.54,0,0,1-2.06,6,16.21,16.21,0,0,1-2.6,4.21A9.46,9.46,0,0,1,52,537.44a12.39,12.39,0,0,1-4.79.84,14.87,14.87,0,0,1-6.47-1.35A13.07,13.07,0,0,1,36,533.19a17,17,0,0,1-2.87-5.56,23,23,0,0,1-1-6.81,26.43,26.43,0,0,1,1.58-9.3,34.67,34.67,0,0,1,3.74-7.42Z"/><path class="cls-3" d="M117.53,1304.33v-15.76h-5.71v-2.11a13.4,13.4,0,0,0,2.17-.17,5.9,5.9,0,0,0,1.91-.63,4.36,4.36,0,0,0,1.44-1.27,4.84,4.84,0,0,0,.81-2h2v22Z"/><path class="cls-3" d="M128.07,1287a6.59,6.59,0,0,1,1.35-2.46,6.35,6.35,0,0,1,2.28-1.63,7.75,7.75,0,0,1,3.1-.59,8.43,8.43,0,0,1,2.68.42,6.53,6.53,0,0,1,2.19,1.21,5.63,5.63,0,0,1,1.47,2,6.47,6.47,0,0,1,.54,2.73,6.85,6.85,0,0,1-.45,2.57,7.32,7.32,0,0,1-1.19,2,10,10,0,0,1-1.71,1.6c-.64.48-1.3.93-2,1.37l-2,1.22a16.05,16.05,0,0,0-1.88,1.29,8.51,8.51,0,0,0-1.46,1.47,4.17,4.17,0,0,0-.79,1.81h11.29v2.33H127.11a11.66,11.66,0,0,1,.7-3.33,8.88,8.88,0,0,1,1.38-2.4,10.3,10.3,0,0,1,1.89-1.8q1.05-.78,2.2-1.46,1.4-.87,2.45-1.6a10.81,10.81,0,0,0,1.75-1.47,5,5,0,0,0,1.41-3.63,3.78,3.78,0,0,0-.34-1.63,3.9,3.9,0,0,0-2.26-2.06,4.79,4.79,0,0,0-1.64-.28,3.84,3.84,0,0,0-2,.48,4.13,4.13,0,0,0-1.35,1.26,5.26,5.26,0,0,0-.76,1.75,7.51,7.51,0,0,0-.2,2h-2.64A8.9,8.9,0,0,1,128.07,1287Z"/><path class="cls-3" d="M155.74,1282.19a6.87,6.87,0,0,1,5.07,1.72,7.64,7.64,0,0,1,0,9.66,6.74,6.74,0,0,1-5.07,1.71H149v9.06H146v-22.14Zm-1,10.61a5.26,5.26,0,0,0,3.67-1,3.89,3.89,0,0,0,1.16-3,3.84,3.84,0,0,0-1.16-3,5.41,5.41,0,0,0-3.67-1H149v8.13Z"/><path class="cls-3" d="M170.22,1282.19l7,18.61,7-18.61h4v22.14h-2.79v-18.42h-.06l-6.92,18.42H176L169,1285.91H169v18.42h-2.79v-22.14Z"/><path class="cls-3" d="M217.05,1282.19v2.48H204.71v7h11.51v2.48H204.71v7.66h12.44v2.48H201.76v-22.14Z"/><path class="cls-3" d="M218.36,1284.67v-2.48h17.71v2.48h-7.38v19.66h-2.95v-19.66Z"/><path class="cls-3" d="M253.13,1304.33v-15.76h-5.71v-2.11a13.4,13.4,0,0,0,2.17-.17,5.9,5.9,0,0,0,1.91-.63,4.36,4.36,0,0,0,1.44-1.27,4.84,4.84,0,0,0,.81-2h2v22Z"/><path class="cls-3" d="M270.37,1304.33v-15.76h-5.71v-2.11a13.4,13.4,0,0,0,2.17-.17,5.9,5.9,0,0,0,1.91-.63,4.36,4.36,0,0,0,1.44-1.27,4.84,4.84,0,0,0,.81-2h2v22Z"/><path class="cls-3" d="M285.22,1300.89v3.44h-3.44v-3.44Z"/><path class="cls-3" d="M289.54,1287a6.59,6.59,0,0,1,1.35-2.46,6.35,6.35,0,0,1,2.28-1.63,7.75,7.75,0,0,1,3.1-.59,8.43,8.43,0,0,1,2.68.42,6.53,6.53,0,0,1,2.19,1.21,5.63,5.63,0,0,1,1.47,2,6.47,6.47,0,0,1,.54,2.73,6.85,6.85,0,0,1-.45,2.57,7.32,7.32,0,0,1-1.19,2,10,10,0,0,1-1.71,1.6c-.64.48-1.3.93-2,1.37l-2,1.22a16.05,16.05,0,0,0-1.88,1.29,8.51,8.51,0,0,0-1.46,1.47,4.17,4.17,0,0,0-.79,1.81h11.29v2.33H288.57a11.66,11.66,0,0,1,.7-3.33,8.88,8.88,0,0,1,1.38-2.4,10.3,10.3,0,0,1,1.89-1.8q1.05-.78,2.2-1.46,1.4-.87,2.45-1.6a10.81,10.81,0,0,0,1.75-1.47,5,5,0,0,0,1.41-3.63A3.78,3.78,0,0,0,300,1287a3.9,3.9,0,0,0-2.26-2.06,4.79,4.79,0,0,0-1.64-.28,3.84,3.84,0,0,0-2,.48,4.13,4.13,0,0,0-1.35,1.26,5.26,5.26,0,0,0-.76,1.75,7.51,7.51,0,0,0-.2,2h-2.64A8.9,8.9,0,0,1,289.54,1287Z"/><path class="cls-3" d="M312.11,1291.8H313a5.45,5.45,0,0,0,1.6-.23,4.08,4.08,0,0,0,1.33-.68,3.28,3.28,0,0,0,.92-1.13,3.44,3.44,0,0,0,.34-1.55,3.18,3.18,0,0,0-1.12-2.65,4.35,4.35,0,0,0-2.79-.88,4.15,4.15,0,0,0-1.84.39,3.72,3.72,0,0,0-1.3,1,4.38,4.38,0,0,0-.76,1.52,6.62,6.62,0,0,0-.25,1.83h-2.64a10,10,0,0,1,.51-2.88,6.45,6.45,0,0,1,1.29-2.23,5.76,5.76,0,0,1,2.09-1.46,7.44,7.44,0,0,1,2.9-.53,9.51,9.51,0,0,1,2.65.36,6.16,6.16,0,0,1,2.12,1.07,4.9,4.9,0,0,1,1.41,1.83,6.27,6.27,0,0,1,.51,2.64,4.25,4.25,0,0,1-.87,2.64,5.56,5.56,0,0,1-2.17,1.74v.06a4.58,4.58,0,0,1,3,1.89,6,6,0,0,1,1,3.44,6.61,6.61,0,0,1-.6,2.9,6,6,0,0,1-1.63,2.09,6.92,6.92,0,0,1-2.4,1.26,10.1,10.1,0,0,1-2.93.42,9.36,9.36,0,0,1-3-.46,6.25,6.25,0,0,1-2.33-1.38,6,6,0,0,1-1.47-2.25,8,8,0,0,1-.48-3h2.64a5.35,5.35,0,0,0,1.24,3.49,4.32,4.32,0,0,0,3.44,1.35,5.64,5.64,0,0,0,1.83-.29,4.71,4.71,0,0,0,1.52-.84,4,4,0,0,0,1.43-3.12,4.22,4.22,0,0,0-.37-1.81,3.92,3.92,0,0,0-2.47-2.14,6.22,6.22,0,0,0-1.85-.26,13.09,13.09,0,0,0-1.58.09v-2.23Z"/><path class="cls-3" d="M328.33,1300.89v3.44h-3.44v-3.44Z"/><path class="cls-3" d="M332.65,1287a6.59,6.59,0,0,1,1.35-2.46,6.35,6.35,0,0,1,2.28-1.63,7.75,7.75,0,0,1,3.1-.59,8.43,8.43,0,0,1,2.68.42,6.53,6.53,0,0,1,2.19,1.21,5.63,5.63,0,0,1,1.47,2,6.47,6.47,0,0,1,.54,2.73,6.85,6.85,0,0,1-.45,2.57,7.32,7.32,0,0,1-1.19,2,10,10,0,0,1-1.71,1.6c-.64.48-1.3.93-2,1.37l-2,1.22a16.05,16.05,0,0,0-1.88,1.29,8.51,8.51,0,0,0-1.46,1.47,4.17,4.17,0,0,0-.79,1.81H346v2.33H331.68a11.66,11.66,0,0,1,.7-3.33,8.88,8.88,0,0,1,1.38-2.4,10.3,10.3,0,0,1,1.89-1.8q1.05-.78,2.2-1.46,1.4-.87,2.45-1.6a10.81,10.81,0,0,0,1.75-1.47,5,5,0,0,0,1.41-3.63,3.78,3.78,0,0,0-.34-1.63,3.9,3.9,0,0,0-2.26-2.06,4.79,4.79,0,0,0-1.64-.28,3.84,3.84,0,0,0-2,.48,4.13,4.13,0,0,0-1.35,1.26,5.26,5.26,0,0,0-.76,1.75,7.51,7.51,0,0,0-.2,2H332.3A8.9,8.9,0,0,1,332.65,1287Z"/><path class="cls-3" d="M349.55,1291a17.07,17.07,0,0,1,.31-2.54,12.5,12.5,0,0,1,.71-2.36,6.24,6.24,0,0,1,1.27-2,5.77,5.77,0,0,1,2-1.33,8.9,8.9,0,0,1,5.86,0,5.78,5.78,0,0,1,2,1.33,6.24,6.24,0,0,1,1.27,2,12.57,12.57,0,0,1,.71,2.36,17.2,17.2,0,0,1,.31,2.54q.06,1.3.06,2.51t-.06,2.51a17.26,17.26,0,0,1-.31,2.54,12.14,12.14,0,0,1-.71,2.34,6.31,6.31,0,0,1-1.27,1.94,5.63,5.63,0,0,1-2,1.32,9.23,9.23,0,0,1-5.88,0,5.61,5.61,0,0,1-2-1.32,6.31,6.31,0,0,1-1.27-1.94,12.07,12.07,0,0,1-.71-2.34,17.13,17.13,0,0,1-.31-2.54q-.06-1.3-.06-2.51T349.55,1291Zm2.81,5.26a11.62,11.62,0,0,0,.5,2.88,5.44,5.44,0,0,0,1.35,2.28,4.11,4.11,0,0,0,5.21,0,5.44,5.44,0,0,0,1.35-2.28,11.66,11.66,0,0,0,.5-2.88c.05-1,.08-1.95.08-2.78q0-.81,0-1.78a15.66,15.66,0,0,0-.16-2,14.48,14.48,0,0,0-.4-1.91,5,5,0,0,0-.78-1.63,4,4,0,0,0-1.29-1.13,4.34,4.34,0,0,0-3.78,0,4,4,0,0,0-1.29,1.13,5,5,0,0,0-.78,1.63,14.48,14.48,0,0,0-.4,1.91,15.66,15.66,0,0,0-.16,2q0,1,0,1.78C352.28,1294.33,352.3,1295.26,352.36,1296.28Z"/><path class="cls-3" d="M373.83,1304.33v-15.76h-5.71v-2.11a13.4,13.4,0,0,0,2.17-.17,5.9,5.9,0,0,0,1.91-.63,4.36,4.36,0,0,0,1.44-1.27,4.84,4.84,0,0,0,.81-2h2v22Z"/><path class="cls-3" d="M394.37,1285.57a3.57,3.57,0,0,0-2.54-.9,4.19,4.19,0,0,0-2.7.82,5.63,5.63,0,0,0-1.6,2.08,10,10,0,0,0-.79,2.71,22.29,22.29,0,0,0-.25,2.73l.06.06a5.66,5.66,0,0,1,2.31-2.2,7.71,7.71,0,0,1,6-.14,5.91,5.91,0,0,1,2.11,1.5,6.85,6.85,0,0,1,1.32,2.26,8.36,8.36,0,0,1,.46,2.82,9.15,9.15,0,0,1-.37,2.51,6.77,6.77,0,0,1-1.23,2.37,6.57,6.57,0,0,1-2.26,1.77,7.84,7.84,0,0,1-3.49.7,7,7,0,0,1-3.94-1,6.78,6.78,0,0,1-2.3-2.54,10.54,10.54,0,0,1-1.07-3.41,25.64,25.64,0,0,1-.26-3.6,24.37,24.37,0,0,1,.39-4.39,11.91,11.91,0,0,1,1.32-3.77,7.41,7.41,0,0,1,2.48-2.64,7.12,7.12,0,0,1,3.91-1,6.28,6.28,0,0,1,4.34,1.44,6.09,6.09,0,0,1,1.86,4.17h-2.64A3.8,3.8,0,0,0,394.37,1285.57Zm-4.78,7.34a4.26,4.26,0,0,0-1.43,1.05,4.38,4.38,0,0,0-.88,1.58,6.31,6.31,0,0,0-.29,1.94,5.85,5.85,0,0,0,.31,1.92,4.54,4.54,0,0,0,.88,1.55,4.15,4.15,0,0,0,1.43,1,4.61,4.61,0,0,0,1.94.39,4.41,4.41,0,0,0,1.91-.39,3.92,3.92,0,0,0,1.38-1.07,4.89,4.89,0,0,0,.85-1.56,5.81,5.81,0,0,0,.29-1.85,7,7,0,0,0-.26-1.94,4.29,4.29,0,0,0-.82-1.58,4.12,4.12,0,0,0-1.4-1.07,4.45,4.45,0,0,0-2-.4A4.59,4.59,0,0,0,389.59,1292.9Z"/><path class="cls-3" d="M1569.33,1304.33v-15.76h-5.71v-2.11a13.4,13.4,0,0,0,2.17-.17,5.9,5.9,0,0,0,1.91-.63,4.36,4.36,0,0,0,1.44-1.27,4.84,4.84,0,0,0,.81-2h2v22Z"/><path class="cls-3" d="M1579.88,1287a6.59,6.59,0,0,1,1.35-2.46,6.35,6.35,0,0,1,2.28-1.63,7.75,7.75,0,0,1,3.1-.59,8.43,8.43,0,0,1,2.68.42,6.53,6.53,0,0,1,2.19,1.21,5.63,5.63,0,0,1,1.47,2,6.47,6.47,0,0,1,.54,2.73,6.85,6.85,0,0,1-.45,2.57,7.32,7.32,0,0,1-1.19,2,10,10,0,0,1-1.71,1.6c-.64.48-1.3.93-2,1.37l-2,1.22a16.05,16.05,0,0,0-1.88,1.29,8.51,8.51,0,0,0-1.46,1.47,4.17,4.17,0,0,0-.79,1.81h11.29v2.33h-14.36a11.66,11.66,0,0,1,.7-3.33,8.88,8.88,0,0,1,1.38-2.4,10.3,10.3,0,0,1,1.89-1.8q1.05-.78,2.2-1.46,1.4-.87,2.45-1.6a10.81,10.81,0,0,0,1.75-1.47,5,5,0,0,0,1.41-3.63,3.78,3.78,0,0,0-.34-1.63,3.9,3.9,0,0,0-2.26-2.06,4.79,4.79,0,0,0-1.64-.28,3.84,3.84,0,0,0-2,.48,4.13,4.13,0,0,0-1.35,1.26,5.26,5.26,0,0,0-.76,1.75,7.51,7.51,0,0,0-.2,2h-2.64A8.9,8.9,0,0,1,1579.88,1287Z"/><path class="cls-3" d="M1607.11,1282.19l8.65,22.14h-3.26l-2.42-6.67h-9.37l-2.48,6.67h-3l8.62-22.14Zm2,13-3.69-10.33h-.06l-3.75,10.33Z"/><path class="cls-3" d="M1622,1282.19l7,18.61,7-18.61h4v22.14h-2.79v-18.42h-.06l-6.92,18.42h-2.51l-6.92-18.42h-.06v18.42H1618v-22.14Z"/><path class="cls-3" d="M1668.86,1282.19v2.48h-12.34v7H1668v2.48h-11.51v7.66H1669v2.48h-15.38v-22.14Z"/><path class="cls-3" d="M1670.16,1284.67v-2.48h17.71v2.48h-7.38v19.66h-2.95v-19.66Z"/><path class="cls-3" d="M1704.93,1304.33v-15.76h-5.71v-2.11a13.4,13.4,0,0,0,2.17-.17,5.9,5.9,0,0,0,1.91-.63,4.36,4.36,0,0,0,1.44-1.27,4.84,4.84,0,0,0,.81-2h2v22Z"/><path class="cls-3" d="M1722.17,1304.33v-15.76h-5.71v-2.11a13.4,13.4,0,0,0,2.17-.17,5.9,5.9,0,0,0,1.91-.63,4.36,4.36,0,0,0,1.44-1.27,4.84,4.84,0,0,0,.81-2h2v22Z"/><path class="cls-3" d="M1737,1300.89v3.44h-3.44v-3.44Z"/><path class="cls-3" d="M1741.34,1287a6.59,6.59,0,0,1,1.35-2.46,6.35,6.35,0,0,1,2.28-1.63,7.75,7.75,0,0,1,3.1-.59,8.43,8.43,0,0,1,2.68.42,6.53,6.53,0,0,1,2.19,1.21,5.63,5.63,0,0,1,1.47,2,6.47,6.47,0,0,1,.54,2.73,6.85,6.85,0,0,1-.45,2.57,7.32,7.32,0,0,1-1.19,2,10,10,0,0,1-1.71,1.6c-.64.48-1.3.93-2,1.37l-2,1.22a16.05,16.05,0,0,0-1.88,1.29,8.51,8.51,0,0,0-1.46,1.47,4.17,4.17,0,0,0-.79,1.81h11.29v2.33h-14.36a11.66,11.66,0,0,1,.7-3.33,8.88,8.88,0,0,1,1.38-2.4,10.3,10.3,0,0,1,1.89-1.8q1.05-.78,2.2-1.46,1.4-.87,2.45-1.6a10.81,10.81,0,0,0,1.75-1.47,5,5,0,0,0,1.41-3.63,3.78,3.78,0,0,0-.34-1.63,3.9,3.9,0,0,0-2.26-2.06,4.79,4.79,0,0,0-1.64-.28,3.84,3.84,0,0,0-2,.48,4.13,4.13,0,0,0-1.35,1.26,5.26,5.26,0,0,0-.76,1.75,7.51,7.51,0,0,0-.2,2H1741A8.9,8.9,0,0,1,1741.34,1287Z"/><path class="cls-3" d="M1762.34,1301.51a4.39,4.39,0,0,0,2.73.87,3.93,3.93,0,0,0,3.63-2.09,14,14,0,0,0,1.33-6.4l-.06-.06a5.75,5.75,0,0,1-5.09,3,7.66,7.66,0,0,1-3-.54,6.11,6.11,0,0,1-2.19-1.5,6.3,6.3,0,0,1-1.33-2.33,9.46,9.46,0,0,1-.45-3,7.72,7.72,0,0,1,.53-2.9,6.53,6.53,0,0,1,1.49-2.26,6.78,6.78,0,0,1,2.29-1.47,7.86,7.86,0,0,1,2.92-.53,8.72,8.72,0,0,1,2.92.48,5.6,5.6,0,0,1,2.39,1.66,8.59,8.59,0,0,1,1.63,3.21,18.46,18.46,0,0,1,.6,5.16q0,5.71-1.81,8.76a6.25,6.25,0,0,1-5.82,3.05,7.34,7.34,0,0,1-4.59-1.4,5.66,5.66,0,0,1-2.08-4.25H1761A3.35,3.35,0,0,0,1762.34,1301.51Zm6.93-13.74a4.91,4.91,0,0,0-.87-1.6,4.14,4.14,0,0,0-1.41-1.1,4.47,4.47,0,0,0-2-.4,4.24,4.24,0,0,0-2,.43,3.73,3.73,0,0,0-1.33,1.16,4.94,4.94,0,0,0-.75,1.66,8.07,8.07,0,0,0-.23,2,4.74,4.74,0,0,0,.33,1.74,4.94,4.94,0,0,0,.9,1.49,4.34,4.34,0,0,0,1.36,1,3.93,3.93,0,0,0,1.75.39,4.39,4.39,0,0,0,1.86-.39,4.26,4.26,0,0,0,1.43-1.05,4.64,4.64,0,0,0,.9-1.55,5.56,5.56,0,0,0,.31-1.85A6.14,6.14,0,0,0,1769.27,1287.77Z"/><path class="cls-3" d="M1780.14,1300.89v3.44h-3.44v-3.44Z"/><path class="cls-3" d="M1784.45,1287a6.59,6.59,0,0,1,1.35-2.46,6.35,6.35,0,0,1,2.28-1.63,7.75,7.75,0,0,1,3.1-.59,8.43,8.43,0,0,1,2.68.42,6.53,6.53,0,0,1,2.19,1.21,5.63,5.63,0,0,1,1.47,2,6.47,6.47,0,0,1,.54,2.73,6.85,6.85,0,0,1-.45,2.57,7.32,7.32,0,0,1-1.19,2,10,10,0,0,1-1.71,1.6c-.64.48-1.3.93-2,1.37l-2,1.22a16.05,16.05,0,0,0-1.88,1.29,8.51,8.51,0,0,0-1.46,1.47,4.17,4.17,0,0,0-.79,1.81h11.29v2.33h-14.36a11.66,11.66,0,0,1,.7-3.33,8.88,8.88,0,0,1,1.38-2.4,10.3,10.3,0,0,1,1.89-1.8q1.05-.78,2.2-1.46,1.4-.87,2.45-1.6a10.81,10.81,0,0,0,1.75-1.47,5,5,0,0,0,1.41-3.63,3.78,3.78,0,0,0-.34-1.63,3.9,3.9,0,0,0-2.26-2.06,4.79,4.79,0,0,0-1.64-.28,3.84,3.84,0,0,0-2,.48,4.13,4.13,0,0,0-1.35,1.26,5.26,5.26,0,0,0-.76,1.75,7.51,7.51,0,0,0-.2,2h-2.64A8.9,8.9,0,0,1,1784.45,1287Z"/><path class="cls-3" d="M1801.35,1291a17.07,17.07,0,0,1,.31-2.54,12.5,12.5,0,0,1,.71-2.36,6.24,6.24,0,0,1,1.27-2,5.77,5.77,0,0,1,2-1.33,8.9,8.9,0,0,1,5.86,0,5.78,5.78,0,0,1,2,1.33,6.24,6.24,0,0,1,1.27,2,12.57,12.57,0,0,1,.71,2.36,17.2,17.2,0,0,1,.31,2.54q.06,1.3.06,2.51t-.06,2.51a17.26,17.26,0,0,1-.31,2.54,12.14,12.14,0,0,1-.71,2.34,6.31,6.31,0,0,1-1.27,1.94,5.63,5.63,0,0,1-2,1.32,9.23,9.23,0,0,1-5.88,0,5.61,5.61,0,0,1-2-1.32,6.31,6.31,0,0,1-1.27-1.94,12.07,12.07,0,0,1-.71-2.34,17.13,17.13,0,0,1-.31-2.54q-.06-1.3-.06-2.51T1801.35,1291Zm2.81,5.26a11.62,11.62,0,0,0,.5,2.88,5.44,5.44,0,0,0,1.35,2.28,4.11,4.11,0,0,0,5.21,0,5.44,5.44,0,0,0,1.35-2.28,11.66,11.66,0,0,0,.5-2.88c.05-1,.08-1.95.08-2.78q0-.81,0-1.78a15.67,15.67,0,0,0-.16-2,14.48,14.48,0,0,0-.4-1.91,5,5,0,0,0-.78-1.63,4,4,0,0,0-1.29-1.13,4.34,4.34,0,0,0-3.78,0,4,4,0,0,0-1.29,1.13,5,5,0,0,0-.78,1.63,14.48,14.48,0,0,0-.4,1.91,15.66,15.66,0,0,0-.16,2q0,1,0,1.78C1804.08,1294.33,1804.11,1295.26,1804.16,1296.28Z"/><path class="cls-3" d="M1825.64,1304.33v-15.76h-5.71v-2.11a13.4,13.4,0,0,0,2.17-.17,5.9,5.9,0,0,0,1.91-.63,4.36,4.36,0,0,0,1.44-1.27,4.84,4.84,0,0,0,.81-2h2v22Z"/><path class="cls-3" d="M1846.17,1285.57a3.57,3.57,0,0,0-2.54-.9,4.19,4.19,0,0,0-2.7.82,5.63,5.63,0,0,0-1.6,2.08,10,10,0,0,0-.79,2.71,22.29,22.29,0,0,0-.25,2.73l.06.06a5.66,5.66,0,0,1,2.31-2.2,7.71,7.71,0,0,1,6-.14,5.91,5.91,0,0,1,2.11,1.5,6.85,6.85,0,0,1,1.32,2.26,8.36,8.36,0,0,1,.46,2.82,9.15,9.15,0,0,1-.37,2.51,6.77,6.77,0,0,1-1.23,2.37,6.57,6.57,0,0,1-2.26,1.77,7.84,7.84,0,0,1-3.49.7,7,7,0,0,1-3.94-1,6.78,6.78,0,0,1-2.3-2.54,10.54,10.54,0,0,1-1.07-3.41,25.64,25.64,0,0,1-.26-3.6,24.37,24.37,0,0,1,.39-4.39,11.91,11.91,0,0,1,1.32-3.77,7.41,7.41,0,0,1,2.48-2.64,7.12,7.12,0,0,1,3.91-1,6.28,6.28,0,0,1,4.34,1.44A6.09,6.09,0,0,1,1850,1288h-2.64A3.8,3.8,0,0,0,1846.17,1285.57Zm-4.78,7.34A4.26,4.26,0,0,0,1840,1294a4.38,4.38,0,0,0-.88,1.58,6.31,6.31,0,0,0-.29,1.94,5.85,5.85,0,0,0,.31,1.92,4.54,4.54,0,0,0,.88,1.55,4.15,4.15,0,0,0,1.43,1,4.61,4.61,0,0,0,1.94.39,4.41,4.41,0,0,0,1.91-.39,3.92,3.92,0,0,0,1.38-1.07,4.89,4.89,0,0,0,.85-1.56,5.81,5.81,0,0,0,.29-1.85,7,7,0,0,0-.26-1.94,4.29,4.29,0,0,0-.82-1.58,4.12,4.12,0,0,0-1.4-1.07,4.45,4.45,0,0,0-2-.4A4.59,4.59,0,0,0,1841.39,1292.9Z"/><path class="cls-2" d="M822.27,104.85V113H789V65.14h32.63v8.16H798.33V84.82h20.16v7.55H798.33v12.47Z"/><path class="cls-2" d="M826.65,95.34a19.22,19.22,0,0,1,1.28-7,17.08,17.08,0,0,1,3.71-5.8,18.07,18.07,0,0,1,5.87-4,19.42,19.42,0,0,1,7.75-1.48,18.6,18.6,0,0,1,9.88,2.49,15.94,15.94,0,0,1,6.1,6.54l-8.83,2.7a8,8,0,0,0-3-3,8.49,8.49,0,0,0-4.18-1,8.6,8.6,0,0,0-3.64.78,9,9,0,0,0-2.93,2.16,10,10,0,0,0-2,3.34,12.6,12.6,0,0,0-.71,4.31,12.05,12.05,0,0,0,.74,4.31,10.84,10.84,0,0,0,2,3.37,8.71,8.71,0,0,0,2.93,2.19,8.43,8.43,0,0,0,3.57.78,8.66,8.66,0,0,0,4.48-1.21,6.83,6.83,0,0,0,2.87-3l8.83,2.7a14.85,14.85,0,0,1-6,6.61,18.85,18.85,0,0,1-10,2.56,19.42,19.42,0,0,1-7.75-1.48,17.57,17.57,0,0,1-9.61-9.88A18.88,18.88,0,0,1,826.65,95.34Z"/><path class="cls-2" d="M882.81,113.68a19.42,19.42,0,0,1-7.75-1.48,17.41,17.41,0,0,1-5.83-4,17.69,17.69,0,0,1-3.67-5.83,19.64,19.64,0,0,1,0-14,17.71,17.71,0,0,1,3.67-5.83,17.42,17.42,0,0,1,5.83-4,19.42,19.42,0,0,1,7.75-1.48,19.18,19.18,0,0,1,7.72,1.48,17.52,17.52,0,0,1,5.8,4A17.74,17.74,0,0,1,900,88.4a19.64,19.64,0,0,1,0,14,18,18,0,0,1-3.64,5.83,17,17,0,0,1-5.8,4A19.42,19.42,0,0,1,882.81,113.68Zm-9.24-18.27a12.31,12.31,0,0,0,.71,4.28,10.45,10.45,0,0,0,2,3.34,8.71,8.71,0,0,0,2.93,2.19,8.93,8.93,0,0,0,7.28,0,8.73,8.73,0,0,0,2.93-2.19,10.37,10.37,0,0,0,2-3.37,12.59,12.59,0,0,0,.71-4.31,12.4,12.4,0,0,0-.71-4.25,10.38,10.38,0,0,0-2-3.37,8.75,8.75,0,0,0-2.93-2.19,8.61,8.61,0,0,0-3.64-.78,8.3,8.3,0,0,0-3.64.81,9.15,9.15,0,0,0-2.93,2.23,10.38,10.38,0,0,0-2,3.37A12.4,12.4,0,0,0,873.57,95.41Z"/><path class="cls-2" d="M962.09,113h-9V93.18q0-4.25-1.48-6.2a4.81,4.81,0,0,0-4-2,7.5,7.5,0,0,0-5,2.06,11.33,11.33,0,0,0-3.37,5.36V113h-9V93.18q0-4.25-1.45-6.2a4.72,4.72,0,0,0-4-2,7.69,7.69,0,0,0-5,2,11,11,0,0,0-3.41,5.33V113h-9V77.68h8.16v6.54a13.49,13.49,0,0,1,5.36-5.29,16,16,0,0,1,7.79-1.85q4.45,0,6.84,2.16a10.12,10.12,0,0,1,3.13,5.33A15.26,15.26,0,0,1,944,79a14.75,14.75,0,0,1,7.55-1.92,10.5,10.5,0,0,1,5.33,1.21,8.78,8.78,0,0,1,3.24,3.17,13.29,13.29,0,0,1,1.58,4.45,29.28,29.28,0,0,1,.44,5.06Z"/><path class="cls-2" d="M1024.73,113h-9V93.18q0-4.25-1.48-6.2a4.81,4.81,0,0,0-4-2,7.5,7.5,0,0,0-5,2.06,11.33,11.33,0,0,0-3.37,5.36V113h-9V93.18q0-4.25-1.45-6.2a4.72,4.72,0,0,0-4-2,7.69,7.69,0,0,0-5,2,11,11,0,0,0-3.41,5.33V113h-9V77.68H978v6.54a13.49,13.49,0,0,1,5.36-5.29,16,16,0,0,1,7.79-1.85q4.45,0,6.84,2.16a10.12,10.12,0,0,1,3.13,5.33,15.26,15.26,0,0,1,5.46-5.56,14.75,14.75,0,0,1,7.55-1.92,10.5,10.5,0,0,1,5.33,1.21,8.78,8.78,0,0,1,3.24,3.17,13.29,13.29,0,0,1,1.58,4.45,29.28,29.28,0,0,1,.44,5.06Z"/><path class="cls-2" d="M1048.93,113.68a19.62,19.62,0,0,1-7.69-1.45,17.34,17.34,0,0,1-9.61-9.74,18.61,18.61,0,0,1-1.31-6.94,19.66,19.66,0,0,1,1.28-7.11,17.35,17.35,0,0,1,3.71-5.87,17.7,17.7,0,0,1,5.9-4,19.66,19.66,0,0,1,7.79-1.48,19.18,19.18,0,0,1,7.72,1.48,17.79,17.79,0,0,1,5.8,4,16.94,16.94,0,0,1,3.64,5.8,19.32,19.32,0,0,1,1.25,6.88q0,.88,0,1.69a6.93,6.93,0,0,1-.17,1.35h-27.31a10.51,10.51,0,0,0,1,3.71,9.08,9.08,0,0,0,5,4.52,9.5,9.5,0,0,0,3.37.61,10.41,10.41,0,0,0,5.09-1.32,7,7,0,0,0,3.27-3.47l7.75,2.16a15.76,15.76,0,0,1-6.24,6.64A19.32,19.32,0,0,1,1048.93,113.68Zm9.17-21.3a9.4,9.4,0,0,0-2.93-6.37,9.2,9.2,0,0,0-12.51,0,9.28,9.28,0,0,0-2,2.76,9.75,9.75,0,0,0-.91,3.57Z"/><path class="cls-2" d="M1094,85.5a17.82,17.82,0,0,0-7.35,1.58,9.28,9.28,0,0,0-4.65,4.55V113h-9V77.68h8.29v7.55a16.45,16.45,0,0,1,4.75-5.87,10.05,10.05,0,0,1,6.17-2.22c.49,0,.87,0,1.11,0a7,7,0,0,1,.71.1Z"/><path class="cls-2" d="M1096.86,95.34a19.22,19.22,0,0,1,1.28-7,17.08,17.08,0,0,1,3.71-5.8,18.07,18.07,0,0,1,5.87-4,19.42,19.42,0,0,1,7.75-1.48,18.6,18.6,0,0,1,9.88,2.49,15.94,15.94,0,0,1,6.1,6.54l-8.83,2.7a8,8,0,0,0-3-3,8.49,8.49,0,0,0-4.18-1,8.6,8.6,0,0,0-3.64.78,9,9,0,0,0-2.93,2.16,10,10,0,0,0-2,3.34,12.6,12.6,0,0,0-.71,4.31,12.05,12.05,0,0,0,.74,4.31,10.84,10.84,0,0,0,2,3.37,8.71,8.71,0,0,0,2.93,2.19,8.43,8.43,0,0,0,3.57.78,8.66,8.66,0,0,0,4.48-1.21,6.83,6.83,0,0,0,2.87-3l8.83,2.7a14.85,14.85,0,0,1-6,6.61,18.85,18.85,0,0,1-10,2.56,19.42,19.42,0,0,1-7.75-1.48,17.57,17.57,0,0,1-9.61-9.88A18.88,18.88,0,0,1,1096.86,95.34Z"/><path class="cls-2" d="M1153.5,113.68a19.62,19.62,0,0,1-7.69-1.45,17.34,17.34,0,0,1-9.61-9.74,18.61,18.61,0,0,1-1.31-6.94,19.66,19.66,0,0,1,1.28-7.11,17.35,17.35,0,0,1,3.71-5.87,17.7,17.7,0,0,1,5.9-4,19.66,19.66,0,0,1,7.79-1.48,19.18,19.18,0,0,1,7.72,1.48,17.79,17.79,0,0,1,5.8,4,16.94,16.94,0,0,1,3.64,5.8,19.32,19.32,0,0,1,1.25,6.88q0,.88,0,1.69a6.93,6.93,0,0,1-.17,1.35h-27.31a10.51,10.51,0,0,0,1,3.71,9.08,9.08,0,0,0,5,4.52,9.5,9.5,0,0,0,3.37.61,10.41,10.41,0,0,0,5.09-1.32,7,7,0,0,0,3.27-3.47l7.75,2.16a15.76,15.76,0,0,1-6.24,6.64A19.32,19.32,0,0,1,1153.5,113.68Zm9.17-21.3a9.4,9.4,0,0,0-2.93-6.37,9.2,9.2,0,0,0-12.51,0,9.28,9.28,0,0,0-2,2.76,9.75,9.75,0,0,0-.91,3.57Z"/><path class="cls-2" d="M1525.15,206.68v3.21H1509.2V219h14.87v3.21H1509.2v9.9h16.07v3.21h-19.88V206.68Z"/><path class="cls-2" d="M1541.7,218.18a5.17,5.17,0,0,0-3.45-1.08,6.35,6.35,0,0,0-3.09.68,5.5,5.5,0,0,0-2,1.8,7.57,7.57,0,0,0-1.06,2.58,14.06,14.06,0,0,0-.32,3,11.5,11.5,0,0,0,.34,2.81,7.5,7.5,0,0,0,1.06,2.42,5.36,5.36,0,0,0,1.88,1.7,5.64,5.64,0,0,0,2.77.64,5.57,5.57,0,0,0,3.95-1.32,6,6,0,0,0,1.74-3.73H1547a9.54,9.54,0,0,1-2.87,5.93,9,9,0,0,1-6.27,2.08,10.8,10.8,0,0,1-4.19-.76,8.11,8.11,0,0,1-3-2.16,9.34,9.34,0,0,1-1.84-3.35,14,14,0,0,1-.62-4.27,15.2,15.2,0,0,1,.6-4.35,10,10,0,0,1,1.82-3.53,8.56,8.56,0,0,1,3.07-2.36,10,10,0,0,1,4.29-.86,12.51,12.51,0,0,1,3.31.42,8.06,8.06,0,0,1,2.73,1.3,7.12,7.12,0,0,1,1.94,2.22,8.2,8.2,0,0,1,1,3.19h-3.53A5.2,5.2,0,0,0,1541.7,218.18Z"/><path class="cls-2" d="M1550.36,220.68a9.65,9.65,0,0,1,1.92-3.45,9.06,9.06,0,0,1,3.17-2.3,11.6,11.6,0,0,1,8.68,0,9.11,9.11,0,0,1,3.15,2.3,9.67,9.67,0,0,1,1.92,3.45,13.82,13.82,0,0,1,.64,4.27,13.63,13.63,0,0,1-.64,4.25,9.69,9.69,0,0,1-1.92,3.43,8.88,8.88,0,0,1-3.15,2.28,11.86,11.86,0,0,1-8.68,0,8.83,8.83,0,0,1-3.17-2.28,9.67,9.67,0,0,1-1.92-3.43,13.6,13.6,0,0,1-.64-4.25A13.79,13.79,0,0,1,1550.36,220.68Zm3.47,7.61a7,7,0,0,0,1.38,2.44,6,6,0,0,0,2.06,1.5,6.29,6.29,0,0,0,5,0,6,6,0,0,0,2.06-1.5,7,7,0,0,0,1.38-2.44,11.43,11.43,0,0,0,0-6.69,7.23,7.23,0,0,0-1.38-2.46,5.9,5.9,0,0,0-2.06-1.52,6.28,6.28,0,0,0-5,0,5.9,5.9,0,0,0-2.06,1.52,7.22,7.22,0,0,0-1.38,2.46,11.43,11.43,0,0,0,0,6.69Z"/><path class="cls-2" d="M1577,214.57v3h.08a8.07,8.07,0,0,1,10.18-2.73,4.49,4.49,0,0,1,2.2,2.73,7.23,7.23,0,0,1,2.75-2.6,7.75,7.75,0,0,1,3.75-.92,10.85,10.85,0,0,1,2.83.34,5.86,5.86,0,0,1,2.16,1.06,4.82,4.82,0,0,1,1.4,1.86,6.82,6.82,0,0,1,.5,2.75v15.19h-3.41V221.7a9.67,9.67,0,0,0-.16-1.8,3.68,3.68,0,0,0-.6-1.46,3,3,0,0,0-1.22-1,4.86,4.86,0,0,0-2-.36,5.36,5.36,0,0,0-4,1.44,5.2,5.2,0,0,0-1.44,3.85v12.9h-3.41V221.7a8.78,8.78,0,0,0-.18-1.84,3.91,3.91,0,0,0-.62-1.46,2.91,2.91,0,0,0-1.18-1,4.59,4.59,0,0,0-1.9-.34,5.09,5.09,0,0,0-2.54.6,5.77,5.77,0,0,0-2.69,3.19,5,5,0,0,0-.3,1.5v12.9h-3.41V214.57Z"/><path class="cls-2" d="M1611.23,214.57v3h.08a8.07,8.07,0,0,1,10.18-2.73,4.49,4.49,0,0,1,2.2,2.73,7.23,7.23,0,0,1,2.75-2.6,7.75,7.75,0,0,1,3.75-.92,10.85,10.85,0,0,1,2.83.34,5.86,5.86,0,0,1,2.16,1.06,4.82,4.82,0,0,1,1.4,1.86,6.82,6.82,0,0,1,.5,2.75v15.19h-3.41V221.7a9.67,9.67,0,0,0-.16-1.8,3.68,3.68,0,0,0-.6-1.46,3,3,0,0,0-1.22-1,4.86,4.86,0,0,0-2-.36,5.36,5.36,0,0,0-4,1.44,5.2,5.2,0,0,0-1.44,3.85v12.9h-3.41V221.7a8.78,8.78,0,0,0-.18-1.84,3.91,3.91,0,0,0-.62-1.46,2.91,2.91,0,0,0-1.18-1,4.59,4.59,0,0,0-1.9-.34,5.09,5.09,0,0,0-2.54.6,5.77,5.77,0,0,0-2.69,3.19,5,5,0,0,0-.3,1.5v12.9H1608V214.57Z"/><path class="cls-2" d="M1656.87,234a9.4,9.4,0,0,1-5.85,1.76,10.64,10.64,0,0,1-4.31-.8,8.48,8.48,0,0,1-3.07-2.24,9.53,9.53,0,0,1-1.86-3.45,16.58,16.58,0,0,1-.7-4.37,12.47,12.47,0,0,1,.72-4.33,10.34,10.34,0,0,1,2-3.41,9.19,9.19,0,0,1,3.09-2.24,9.42,9.42,0,0,1,3.91-.8,8.5,8.5,0,0,1,4.59,1.14,9.08,9.08,0,0,1,2.93,2.91,11.49,11.49,0,0,1,1.52,3.85,16.5,16.5,0,0,1,.34,4h-15.51a8.21,8.21,0,0,0,.32,2.58,5.84,5.84,0,0,0,1.16,2.16,5.72,5.72,0,0,0,2,1.5,7,7,0,0,0,2.93.56,5.9,5.9,0,0,0,3.55-1,4.84,4.84,0,0,0,1.82-3h3.37A8.28,8.28,0,0,1,1656.87,234Zm-.82-13.3a5.83,5.83,0,0,0-1.24-1.86,5.91,5.91,0,0,0-1.84-1.24,5.84,5.84,0,0,0-2.34-.46,5.94,5.94,0,0,0-2.38.46,5.52,5.52,0,0,0-1.82,1.26,6,6,0,0,0-1.2,1.86,7.07,7.07,0,0,0-.52,2.26h11.9A7,7,0,0,0,1656.05,220.66Z"/><path class="cls-2" d="M1666.81,214.57v4.37h.08a9.23,9.23,0,0,1,3-3.73,7.65,7.65,0,0,1,4.57-1.12v3.61a9.64,9.64,0,0,0-3.49.56,5.5,5.5,0,0,0-2.32,1.64,6.79,6.79,0,0,0-1.28,2.63,14.17,14.17,0,0,0-.4,3.55v9.22h-3.41V214.57Z"/><path class="cls-2" d="M1688.73,218.18a5.17,5.17,0,0,0-3.45-1.08,6.35,6.35,0,0,0-3.09.68,5.5,5.5,0,0,0-2,1.8,7.57,7.57,0,0,0-1.06,2.58,14.06,14.06,0,0,0-.32,3,11.5,11.5,0,0,0,.34,2.81,7.5,7.5,0,0,0,1.06,2.42,5.36,5.36,0,0,0,1.88,1.7,5.64,5.64,0,0,0,2.77.64,5.57,5.57,0,0,0,3.95-1.32,6,6,0,0,0,1.74-3.73h3.49a9.54,9.54,0,0,1-2.87,5.93,9,9,0,0,1-6.27,2.08,10.8,10.8,0,0,1-4.19-.76,8.11,8.11,0,0,1-3-2.16,9.34,9.34,0,0,1-1.84-3.35,14,14,0,0,1-.62-4.27,15.2,15.2,0,0,1,.6-4.35,10,10,0,0,1,1.82-3.53,8.56,8.56,0,0,1,3.07-2.36,10,10,0,0,1,4.29-.86,12.51,12.51,0,0,1,3.31.42,8.06,8.06,0,0,1,2.73,1.3A7.12,7.12,0,0,1,1693,218a8.2,8.2,0,0,1,1,3.19h-3.53A5.2,5.2,0,0,0,1688.73,218.18Z"/><path class="cls-2" d="M1712.53,234a9.4,9.4,0,0,1-5.85,1.76,10.64,10.64,0,0,1-4.31-.8,8.48,8.48,0,0,1-3.07-2.24,9.53,9.53,0,0,1-1.86-3.45,16.58,16.58,0,0,1-.7-4.37,12.47,12.47,0,0,1,.72-4.33,10.34,10.34,0,0,1,2-3.41,9.19,9.19,0,0,1,3.09-2.24,9.42,9.42,0,0,1,3.91-.8,8.5,8.5,0,0,1,4.59,1.14,9.08,9.08,0,0,1,2.93,2.91,11.49,11.49,0,0,1,1.52,3.85,16.5,16.5,0,0,1,.34,4h-15.51a8.21,8.21,0,0,0,.32,2.58,5.84,5.84,0,0,0,1.16,2.16,5.72,5.72,0,0,0,2,1.5,7,7,0,0,0,2.93.56,5.9,5.9,0,0,0,3.55-1,4.84,4.84,0,0,0,1.82-3h3.37A8.28,8.28,0,0,1,1712.53,234Zm-.82-13.3a5.83,5.83,0,0,0-1.24-1.86,5.91,5.91,0,0,0-1.84-1.24,5.84,5.84,0,0,0-2.34-.46,5.94,5.94,0,0,0-2.38.46,5.52,5.52,0,0,0-1.82,1.26,6,6,0,0,0-1.2,1.86,7.07,7.07,0,0,0-.52,2.26h11.9A7,7,0,0,0,1711.71,220.66Z"/><path class="cls-2" d="M1739.38,214.57v3h-4.13v12.86a3.71,3.71,0,0,0,.1,1,1,1,0,0,0,.38.56,1.68,1.68,0,0,0,.78.26,11.25,11.25,0,0,0,1.3.06h1.56v3h-2.6a12.24,12.24,0,0,1-2.26-.18,3.33,3.33,0,0,1-1.52-.66,2.82,2.82,0,0,1-.86-1.36,7.87,7.87,0,0,1-.28-2.32V217.58h-3.53v-3h3.53v-6.21h3.41v6.21Z"/><path class="cls-2" d="M1746.24,214.57v4.37h.08a9.23,9.23,0,0,1,3-3.73,7.65,7.65,0,0,1,4.57-1.12v3.61a9.64,9.64,0,0,0-3.49.56,5.5,5.5,0,0,0-2.32,1.64,6.79,6.79,0,0,0-1.28,2.63,14.17,14.17,0,0,0-.4,3.55v9.22H1743V214.57Z"/><path class="cls-2" d="M1774.85,235.21a4.83,4.83,0,0,1-2.44.52,2.93,2.93,0,0,1-2.1-.74,3.22,3.22,0,0,1-.78-2.42,8.15,8.15,0,0,1-3.27,2.42,11.28,11.28,0,0,1-6.69.42,6.18,6.18,0,0,1-2.18-1,4.79,4.79,0,0,1-1.46-1.78,6,6,0,0,1-.54-2.67,6.09,6.09,0,0,1,.6-2.89,5.24,5.24,0,0,1,1.58-1.82,7.25,7.25,0,0,1,2.24-1.06q1.26-.36,2.58-.6t2.67-.42a14.8,14.8,0,0,0,2.22-.4,3.71,3.71,0,0,0,1.52-.76,1.86,1.86,0,0,0,.56-1.46,3.4,3.4,0,0,0-.42-1.8,2.89,2.89,0,0,0-1.08-1,4.41,4.41,0,0,0-1.48-.48,11.14,11.14,0,0,0-1.62-.12,7.21,7.21,0,0,0-3.61.82,3.49,3.49,0,0,0-1.56,3.11h-3.41a7.36,7.36,0,0,1,.8-3.25,6.08,6.08,0,0,1,1.92-2.14,8.07,8.07,0,0,1,2.75-1.18,14.48,14.48,0,0,1,3.31-.36,19.44,19.44,0,0,1,2.79.2,7.29,7.29,0,0,1,2.5.82,4.81,4.81,0,0,1,1.8,1.74,5.56,5.56,0,0,1,.68,2.92V230.4a7.92,7.92,0,0,0,.14,1.76q.14.56.94.56a4.13,4.13,0,0,0,1-.16Zm-5.53-10.62a4.25,4.25,0,0,1-1.68.7q-1,.22-2.18.36t-2.3.32a8.51,8.51,0,0,0-2.08.58,3.78,3.78,0,0,0-1.5,1.14,3.17,3.17,0,0,0-.58,2,2.74,2.74,0,0,0,.34,1.42,2.83,2.83,0,0,0,.88.94,3.71,3.71,0,0,0,1.26.52,7,7,0,0,0,1.52.16,8.12,8.12,0,0,0,2.89-.46,6.07,6.07,0,0,0,2-1.16,4.57,4.57,0,0,0,1.12-1.52,3.82,3.82,0,0,0,.36-1.54Z"/><path class="cls-2" d="M1775.93,217.58v-3h3.49v-3.09a4.86,4.86,0,0,1,1.46-3.83,6.23,6.23,0,0,1,4.27-1.3,8.76,8.76,0,0,1,1.1.08,5.93,5.93,0,0,1,1.1.24v3a4.25,4.25,0,0,0-1-.22,8.35,8.35,0,0,0-1-.06,3.3,3.3,0,0,0-1.92.48,2.12,2.12,0,0,0-.68,1.84v2.89h4v3h-4v17.71h-3.41V217.58Z"/><path class="cls-2" d="M1787.07,217.58v-3h3.49v-3.09a4.86,4.86,0,0,1,1.46-3.83,6.23,6.23,0,0,1,4.27-1.3,8.76,8.76,0,0,1,1.1.08,5.93,5.93,0,0,1,1.1.24v3a4.25,4.25,0,0,0-1-.22,8.35,8.35,0,0,0-1-.06,3.3,3.3,0,0,0-1.92.48,2.12,2.12,0,0,0-.68,1.84v2.89h4v3h-4v17.71h-3.41V217.58Z"/><path class="cls-2" d="M1801.22,210.84v-4.17h3.41v4.17Zm3.41,3.73v20.72h-3.41V214.57Z"/><path class="cls-2" d="M1822.29,218.18a5.17,5.17,0,0,0-3.45-1.08,6.35,6.35,0,0,0-3.09.68,5.5,5.5,0,0,0-2,1.8,7.57,7.57,0,0,0-1.06,2.58,14.06,14.06,0,0,0-.32,3,11.5,11.5,0,0,0,.34,2.81,7.5,7.5,0,0,0,1.06,2.42,5.36,5.36,0,0,0,1.88,1.7,5.64,5.64,0,0,0,2.77.64,5.57,5.57,0,0,0,3.95-1.32,6,6,0,0,0,1.74-3.73h3.49a9.54,9.54,0,0,1-2.87,5.93,9,9,0,0,1-6.27,2.08,10.8,10.8,0,0,1-4.19-.76,8.11,8.11,0,0,1-3-2.16,9.34,9.34,0,0,1-1.84-3.35,14,14,0,0,1-.62-4.27,15.2,15.2,0,0,1,.6-4.35,10,10,0,0,1,1.82-3.53,8.56,8.56,0,0,1,3.07-2.36,10,10,0,0,1,4.29-.86,12.51,12.51,0,0,1,3.31.42,8.06,8.06,0,0,1,2.73,1.3,7.12,7.12,0,0,1,1.94,2.22,8.2,8.2,0,0,1,1,3.19H1824A5.2,5.2,0,0,0,1822.29,218.18Z"/><path class="cls-4" d="M1515.77,260l2,0q1.06,0,2.1.12a16.14,16.14,0,0,1,1.94.3,4.93,4.93,0,0,1,1.54.6,7.47,7.47,0,0,1,2.38,2.32,6.46,6.46,0,0,1,1,3.65,7,7,0,0,1-1.1,3.95,6.5,6.5,0,0,1-3.15,2.46v.08a6.59,6.59,0,0,1,4,2.4,7.2,7.2,0,0,1,1.4,4.49,8.54,8.54,0,0,1-.56,3,7.64,7.64,0,0,1-1.66,2.62,8.31,8.31,0,0,1-2.73,1.84,9.37,9.37,0,0,1-3.75.7h-13.83V260Zm1,12.3q3.25,0,4.67-1.14a4.13,4.13,0,0,0,1.42-3.43,5,5,0,0,0-.48-2.4,3.42,3.42,0,0,0-1.32-1.36,5.2,5.2,0,0,0-1.94-.62,18.64,18.64,0,0,0-2.34-.14h-7.61v9.1Zm1.92,13.1a5.47,5.47,0,0,0,3.95-1.36,5,5,0,0,0,1.42-3.77,4.68,4.68,0,0,0-.52-2.32,4,4,0,0,0-1.38-1.46,5.81,5.81,0,0,0-2-.76,12.07,12.07,0,0,0-2.32-.22h-8.7v9.9Z"/><path class="cls-4" d="M1550.64,288.49a4.83,4.83,0,0,1-2.44.52,2.93,2.93,0,0,1-2.1-.74,3.22,3.22,0,0,1-.78-2.42,8.15,8.15,0,0,1-3.27,2.42,11.28,11.28,0,0,1-6.69.42,6.18,6.18,0,0,1-2.18-1,4.79,4.79,0,0,1-1.46-1.78,6,6,0,0,1-.54-2.67,6.09,6.09,0,0,1,.6-2.89,5.24,5.24,0,0,1,1.58-1.82,7.25,7.25,0,0,1,2.24-1.06q1.26-.36,2.58-.6t2.67-.42a14.8,14.8,0,0,0,2.22-.4,3.71,3.71,0,0,0,1.52-.76,1.86,1.86,0,0,0,.56-1.46,3.4,3.4,0,0,0-.42-1.8,2.89,2.89,0,0,0-1.08-1,4.41,4.41,0,0,0-1.48-.48,11.14,11.14,0,0,0-1.62-.12,7.21,7.21,0,0,0-3.61.82,3.49,3.49,0,0,0-1.56,3.11H1532a7.36,7.36,0,0,1,.8-3.25,6.08,6.08,0,0,1,1.92-2.14,8.07,8.07,0,0,1,2.75-1.18,14.48,14.48,0,0,1,3.31-.36,19.44,19.44,0,0,1,2.79.2,7.29,7.29,0,0,1,2.5.82,4.81,4.81,0,0,1,1.8,1.74,5.56,5.56,0,0,1,.68,2.92v10.64a7.92,7.92,0,0,0,.14,1.76q.14.56.94.56a4.13,4.13,0,0,0,1-.16Zm-5.53-10.62a4.25,4.25,0,0,1-1.68.7q-1,.22-2.18.36t-2.3.32a8.51,8.51,0,0,0-2.08.58,3.78,3.78,0,0,0-1.5,1.14,3.17,3.17,0,0,0-.58,2,2.74,2.74,0,0,0,.34,1.42,2.83,2.83,0,0,0,.88.94,3.71,3.71,0,0,0,1.26.52,7,7,0,0,0,1.52.16,8.12,8.12,0,0,0,2.89-.46,6.07,6.07,0,0,0,2-1.16,4.57,4.57,0,0,0,1.12-1.52,3.82,3.82,0,0,0,.36-1.54Z"/><path class="cls-4" d="M1556.41,283.94a3.62,3.62,0,0,0,1.26,1.24,5.65,5.65,0,0,0,1.76.66,10,10,0,0,0,2,.2,12.49,12.49,0,0,0,1.68-.12,6.15,6.15,0,0,0,1.62-.44,3,3,0,0,0,1.22-.94,2.51,2.51,0,0,0,.48-1.58,2.27,2.27,0,0,0-1-2,8.55,8.55,0,0,0-2.5-1.1q-1.5-.42-3.27-.76a16.87,16.87,0,0,1-3.27-1,6.75,6.75,0,0,1-2.5-1.74,4.53,4.53,0,0,1-1-3.13,5,5,0,0,1,.7-2.69,5.73,5.73,0,0,1,1.8-1.82,8.29,8.29,0,0,1,2.48-1,11.44,11.44,0,0,1,2.75-.34,16.38,16.38,0,0,1,3.25.3,7.53,7.53,0,0,1,2.62,1,5.4,5.4,0,0,1,1.82,2,7.62,7.62,0,0,1,.8,3.15h-3.41a3.45,3.45,0,0,0-.52-1.66,3.42,3.42,0,0,0-1.12-1.06,5.11,5.11,0,0,0-1.5-.58,7.71,7.71,0,0,0-1.66-.18,10.08,10.08,0,0,0-1.54.12,5.2,5.2,0,0,0-1.42.42,2.87,2.87,0,0,0-1,.8,2,2,0,0,0-.4,1.3,1.92,1.92,0,0,0,.62,1.46,5,5,0,0,0,1.58,1,13.85,13.85,0,0,0,2.16.64l2.4.54a25.63,25.63,0,0,1,2.5.68,8.16,8.16,0,0,1,2.16,1.06,5.2,5.2,0,0,1,1.52,1.66,4.89,4.89,0,0,1,.58,2.48,5.77,5.77,0,0,1-.78,3.13,6.1,6.1,0,0,1-2,2,8.54,8.54,0,0,1-2.85,1.06,16.81,16.81,0,0,1-3.15.3,14.56,14.56,0,0,1-3.29-.36,8.06,8.06,0,0,1-2.77-1.18,6,6,0,0,1-1.92-2.16,7.49,7.49,0,0,1-.8-3.27h3.41A3.83,3.83,0,0,0,1556.41,283.94Z"/><path class="cls-4" d="M1588.51,287.25a9.4,9.4,0,0,1-5.85,1.76,10.64,10.64,0,0,1-4.31-.8,8.48,8.48,0,0,1-3.07-2.24,9.53,9.53,0,0,1-1.86-3.45,16.58,16.58,0,0,1-.7-4.37,12.47,12.47,0,0,1,.72-4.33,10.34,10.34,0,0,1,2-3.41,9.19,9.19,0,0,1,3.09-2.24,9.42,9.42,0,0,1,3.91-.8,8.5,8.5,0,0,1,4.59,1.14,9.08,9.08,0,0,1,2.93,2.91,11.49,11.49,0,0,1,1.52,3.85,16.5,16.5,0,0,1,.34,4h-15.51a8.21,8.21,0,0,0,.32,2.58,5.84,5.84,0,0,0,1.16,2.16,5.72,5.72,0,0,0,2,1.5,7,7,0,0,0,2.93.56,5.9,5.9,0,0,0,3.55-1,4.84,4.84,0,0,0,1.82-3h3.37A8.28,8.28,0,0,1,1588.51,287.25Zm-.82-13.3a5.83,5.83,0,0,0-1.24-1.86,5.91,5.91,0,0,0-1.84-1.24,5.84,5.84,0,0,0-2.34-.46,5.94,5.94,0,0,0-2.38.46,5.52,5.52,0,0,0-1.82,1.26,6,6,0,0,0-1.2,1.86,7.07,7.07,0,0,0-.52,2.26h11.9A7,7,0,0,0,1587.68,273.94Z"/><path class="cls-4" d="M1599,260v28.61h-3.41V260Z"/><path class="cls-4" d="M1604.45,264.12V260h3.41v4.17Zm3.41,3.73v20.72h-3.41V267.85Z"/><path class="cls-4" d="M1616.36,267.85v3.29h.08a7.17,7.17,0,0,1,6.73-3.77,9,9,0,0,1,3.41.56,5.61,5.61,0,0,1,2.2,1.56,5.81,5.81,0,0,1,1.18,2.38,12.85,12.85,0,0,1,.34,3.07v13.63h-3.41v-14a4.12,4.12,0,0,0-1.12-3,4.17,4.17,0,0,0-3.09-1.12,7,7,0,0,0-2.71.48,5.08,5.08,0,0,0-1.9,1.36,5.87,5.87,0,0,0-1.14,2.06,8.39,8.39,0,0,0-.38,2.58v11.7h-3.41V267.85Z"/><path class="cls-4" d="M1650.1,287.25a9.4,9.4,0,0,1-5.85,1.76,10.64,10.64,0,0,1-4.31-.8,8.48,8.48,0,0,1-3.07-2.24,9.53,9.53,0,0,1-1.86-3.45,16.58,16.58,0,0,1-.7-4.37,12.47,12.47,0,0,1,.72-4.33,10.34,10.34,0,0,1,2-3.41,9.19,9.19,0,0,1,3.09-2.24,9.42,9.42,0,0,1,3.91-.8,8.5,8.5,0,0,1,4.59,1.14,9.08,9.08,0,0,1,2.93,2.91,11.49,11.49,0,0,1,1.52,3.85,16.5,16.5,0,0,1,.34,4h-15.51a8.21,8.21,0,0,0,.32,2.58,5.84,5.84,0,0,0,1.16,2.16,5.72,5.72,0,0,0,2,1.5,7,7,0,0,0,2.93.56,5.9,5.9,0,0,0,3.55-1,4.84,4.84,0,0,0,1.82-3h3.37A8.28,8.28,0,0,1,1650.1,287.25Zm-.82-13.3a5.83,5.83,0,0,0-1.24-1.86,5.91,5.91,0,0,0-1.84-1.24,5.84,5.84,0,0,0-2.34-.46,5.94,5.94,0,0,0-2.38.46,5.52,5.52,0,0,0-1.82,1.26,6,6,0,0,0-1.2,1.86,7.07,7.07,0,0,0-.52,2.26h11.9A7,7,0,0,0,1649.28,273.94Z"/><path class="cls-4" d="M1676.95,267.85v3h-4.13v12.86a3.71,3.71,0,0,0,.1,1,1,1,0,0,0,.38.56,1.68,1.68,0,0,0,.78.26,11.25,11.25,0,0,0,1.3.06h1.56v3h-2.6a12.24,12.24,0,0,1-2.26-.18,3.33,3.33,0,0,1-1.52-.66,2.82,2.82,0,0,1-.86-1.36,7.87,7.87,0,0,1-.28-2.32V270.85h-3.53v-3h3.53v-6.21h3.41v6.21Z"/><path class="cls-4" d="M1683.8,267.85v4.37h.08a9.23,9.23,0,0,1,3-3.73,7.65,7.65,0,0,1,4.57-1.12V271a9.64,9.64,0,0,0-3.49.56,5.5,5.5,0,0,0-2.32,1.64,6.79,6.79,0,0,0-1.28,2.63,14.17,14.17,0,0,0-.4,3.55v9.22h-3.41V267.85Z"/><path class="cls-4" d="M1712.41,288.49a4.83,4.83,0,0,1-2.44.52,2.93,2.93,0,0,1-2.1-.74,3.22,3.22,0,0,1-.78-2.42,8.15,8.15,0,0,1-3.27,2.42,11.28,11.28,0,0,1-6.69.42,6.18,6.18,0,0,1-2.18-1,4.79,4.79,0,0,1-1.46-1.78,6,6,0,0,1-.54-2.67,6.09,6.09,0,0,1,.6-2.89,5.24,5.24,0,0,1,1.58-1.82,7.25,7.25,0,0,1,2.24-1.06q1.26-.36,2.58-.6t2.67-.42a14.8,14.8,0,0,0,2.22-.4,3.71,3.71,0,0,0,1.52-.76,1.86,1.86,0,0,0,.56-1.46,3.4,3.4,0,0,0-.42-1.8,2.89,2.89,0,0,0-1.08-1,4.41,4.41,0,0,0-1.48-.48,11.14,11.14,0,0,0-1.62-.12,7.21,7.21,0,0,0-3.61.82,3.49,3.49,0,0,0-1.56,3.11h-3.41a7.36,7.36,0,0,1,.8-3.25,6.08,6.08,0,0,1,1.92-2.14,8.07,8.07,0,0,1,2.75-1.18,14.48,14.48,0,0,1,3.31-.36,19.44,19.44,0,0,1,2.79.2,7.29,7.29,0,0,1,2.5.82,4.81,4.81,0,0,1,1.8,1.74,5.56,5.56,0,0,1,.68,2.92v10.64a7.92,7.92,0,0,0,.14,1.76q.14.56.94.56a4.13,4.13,0,0,0,1-.16Zm-5.53-10.62a4.25,4.25,0,0,1-1.68.7q-1,.22-2.18.36t-2.3.32a8.51,8.51,0,0,0-2.08.58,3.78,3.78,0,0,0-1.5,1.14,3.17,3.17,0,0,0-.58,2,2.74,2.74,0,0,0,.34,1.42,2.83,2.83,0,0,0,.88.94,3.71,3.71,0,0,0,1.26.52,7,7,0,0,0,1.52.16,8.12,8.12,0,0,0,2.89-.46,6.07,6.07,0,0,0,2-1.16,4.57,4.57,0,0,0,1.12-1.52,3.82,3.82,0,0,0,.36-1.54Z"/><path class="cls-4" d="M1713.49,270.85v-3H1717v-3.09a4.86,4.86,0,0,1,1.46-3.83,6.23,6.23,0,0,1,4.27-1.3,8.76,8.76,0,0,1,1.1.08,5.93,5.93,0,0,1,1.1.24v3a4.25,4.25,0,0,0-1-.22,8.35,8.35,0,0,0-1-.06,3.3,3.3,0,0,0-1.92.48,2.12,2.12,0,0,0-.68,1.84v2.89h4v3h-4v17.71H1717V270.85Z"/><path class="cls-4" d="M1724.63,270.85v-3h3.49v-3.09a4.86,4.86,0,0,1,1.46-3.83,6.23,6.23,0,0,1,4.27-1.3,8.76,8.76,0,0,1,1.1.08,5.93,5.93,0,0,1,1.1.24v3a4.25,4.25,0,0,0-1-.22,8.35,8.35,0,0,0-1-.06,3.3,3.3,0,0,0-1.92.48,2.12,2.12,0,0,0-.68,1.84v2.89h4v3h-4v17.71h-3.41V270.85Z"/><path class="cls-4" d="M1738.78,264.12V260h3.41v4.17Zm3.41,3.73v20.72h-3.41V267.85Z"/><path class="cls-4" d="M1759.86,271.46a5.17,5.17,0,0,0-3.45-1.08,6.35,6.35,0,0,0-3.09.68,5.5,5.5,0,0,0-2,1.8,7.57,7.57,0,0,0-1.06,2.58,14.06,14.06,0,0,0-.32,3,11.5,11.5,0,0,0,.34,2.81,7.5,7.5,0,0,0,1.06,2.42,5.36,5.36,0,0,0,1.88,1.7,5.64,5.64,0,0,0,2.77.64,5.57,5.57,0,0,0,3.95-1.32,6,6,0,0,0,1.74-3.73h3.49a9.54,9.54,0,0,1-2.87,5.93,9,9,0,0,1-6.27,2.08,10.8,10.8,0,0,1-4.19-.76,8.11,8.11,0,0,1-3-2.16,9.34,9.34,0,0,1-1.84-3.35,14,14,0,0,1-.62-4.27,15.2,15.2,0,0,1,.6-4.35,10,10,0,0,1,1.82-3.53,8.56,8.56,0,0,1,3.07-2.36,10,10,0,0,1,4.29-.86,12.51,12.51,0,0,1,3.31.42,8.06,8.06,0,0,1,2.73,1.3,7.12,7.12,0,0,1,1.94,2.22,8.2,8.2,0,0,1,1,3.19h-3.53A5.2,5.2,0,0,0,1759.86,271.46Z"/><rect class="cls-5" x="1441.5" y="204.5" width="34" height="34"/><rect class="cls-6" x="1441.5" y="256.5" width="34" height="34"/><path class="cls-5" d="M1844.88,826.49l-22.31,143.45-23.91,105.2-12.75,6.38-14.35-19.13-27.1-148.23L1720.55,597l-22.31-271-15.94,35.07L1660,544.37l-14.35-17.53-14.35-60.57-12.75-23.91-11.16-4.78-9.56-25.5-14.35,6.38L1545.22,581l-33.47,392.1-15.94,63.76-11.16,3.19-22.31-57.38-9.56-70.13-20.72-200.83-17.53-169-15.94-89.26L1381,574.65l-22.31,106.79-27.1-17.53-22.31,6.38-9.56,19.13s-15.94,15.94-27.1,31.88-25.5,86.07-25.5,86.07l-8,71.73-28.69,186.49-11.16,11.16-27.1-27.1-15.94-51-46.22-288.5s-9.56-11.16-12.75-12.75-25.5,36.66-25.5,36.66l-14.35,1.59-9.56-17.53-12.75-3.19-38.25-36.66-12.75,9.56-12.75,33.47-11.16,14.35-14.35,43L934.75,918.94l-23.91,135.48-12.75,15.94-12.75-9.56-23.91-76.51L840.71,845.62,812,609.72l-11.16-27.1-17.53,15.94-12.75,27.1L761,616.09l-15.94-47.82-31.88-57.38-25.5-73.32-25.5,36.66L646.25,530,614.37,944.44l-17.53,44.63-9.56-12.75-14.35-54.19-14.35-41.44L539.46,742l-27.1-113.17-12.75-9.56-14.35,36.66-11.16,17.53-28.69,92.45-31.88,20.72L388,783.45l-12.75-15.94-12.75,9.56-12.75,27.1-38.25,224.74L302,1056l-14.35-3.19-14.35-25.5L262.12,867.93,251,947.63,211.11,796.21,200,778.67,176,834.46l-14.35-1.59L139.38,772.3,117.07,750v493.49h1732Z"/><path class="cls-6" d="M1848.07,896.62l-12.75,22.31-12.75,124.33L1805,998.63l-12.75,63.76-17.53,25.5-19.13-4.78-25.5-74.91-12.75-66.94-23.91-146.64-11.16-25.5L1660,856.78,1644,861.56l-20.72-57.38-25.5-15.94-17.53,3.19L1558,829.68l-22.31,68.54-15.94,100.42-15.94,54.19-19.13,25.5-28.16-121.67-19.66,45.16-12.75-44.63L1393.8,786.64l-11.16-25.5-25.5,84.48-9.56,15.94-22.31-35.07-17.53-4.78-23.91,9.56-23.91,66.94-11.16-8-6.38,3.19L1204.12,1064,1185,1087.89l-19.13-8-17.53-20.72-49.41-186.49L1083,858.37l-12.75,27.1-12.75,11.16-9.56-22.31-11.16-167.36-30.28,154.61-9.56,4.78-9.56-3.19L973,883.87l-12.75-9.56-19.13,25.5L896.5,1078.33l-14.35,14.35-8-1.59-30.28-46.22L816.8,946l-19.13-59-14.35-9.56-11.16,20.72-15.94,8-8-3.19-25.5-130.7-14.35,76.51-8-3.19-25.5,110-12.75-63.76-12.75,23.91-14.35,4.78-9.56,20.72-11.16,47.82-19.13,105.2-12.75,8-9.56,15.94-12.75-90.85-12.75,35.07-12.75-11.16L499.61,864.74,485.26,852l-23.91,55.79-9.56,6.38-25.5-47.82-17.53,14.35-8-9.56H386.44L372.1,860l-22.31,74.91L337,954l-12.75,105.2s-22.31,73.32-25.5,73.32-11.16,15.94-11.16,15.94l-23.91-3.19-14.35-14.35-30.28-111.57-20.72-87.67-11.16-9.56L176,938.06l-27.1,57.38L139.38,903s-8-12.75-14.35-15.94-8,51-8,51v304.16h1732Z"/></svg>