<svg id="Layer_1" data-name="Layer 1" xmlns="http://www.w3.org/2000/svg" viewBox="0 0 1857 859.16"><defs><style>.cls-1,.cls-5{fill:none;}.cls-1{stroke:#29abe2;stroke-width:0.5px;}.cls-1,.cls-3,.cls-5,.cls-8{stroke-miterlimit:10;}.cls-2{fill:#29abe2;}.cls-3{fill:#cdebf8;stroke:#0071bc;}.cls-3,.cls-8{fill-opacity:0.5;}.cls-4,.cls-6,.cls-8{fill:#93278f;}.cls-5,.cls-8{stroke:#1b1464;}.cls-6{opacity:0.5;}.cls-7{font-size:31.01px;fill:#0071bc;font-family:HelveticaNeue, Helvetica Neue;}</style></defs><title>Artboard 7 copy 2</title><rect class="cls-1" x="104.92" y="12" width="1740.28" height="748.01"/><line class="cls-1" x1="352.98" y1="12" x2="352.98" y2="760.01"/><line class="cls-1" x1="603.8" y1="12" x2="603.8" y2="760.01"/><line class="cls-1" x1="849.62" y1="12" x2="849.62" y2="760.01"/><line class="cls-1" x1="1095.44" y1="12" x2="1095.44" y2="760.01"/><line class="cls-1" x1="1346.25" y1="12" x2="1346.25" y2="760.01"/><line class="cls-1" x1="1597.06" y1="12" x2="1597.06" y2="760.01"/><line class="cls-1" x1="104.92" y1="262.86" x2="1845.2" y2="262.86"/><line class="cls-1" x1="104.92" y1="502.28" x2="1845.2" y2="502.28"/><path class="cls-2" d="M892.53,808H877.3v39.71H868V808h-15.3v-8.16h39.84Z"/><path class="cls-2" d="M897.59,807.47v-9h9v9Zm0,40.25V812.39h9v35.33Z"/><path class="cls-2" d="M969.53,847.72h-9V827.9q0-4.25-1.48-6.2a4.8,4.8,0,0,0-4-2,7.5,7.5,0,0,0-5,2.06,11.33,11.33,0,0,0-3.37,5.36v20.56h-9V827.9q0-4.25-1.45-6.2a4.72,4.72,0,0,0-4-2,7.69,7.69,0,0,0-5,2,11,11,0,0,0-3.41,5.33v20.63h-9V812.39h8.16v6.54a13.5,13.5,0,0,1,5.36-5.29,16,16,0,0,1,7.79-1.85q4.45,0,6.84,2.16a10.12,10.12,0,0,1,3.13,5.33,15.25,15.25,0,0,1,5.46-5.56,14.74,14.74,0,0,1,7.55-1.92,10.49,10.49,0,0,1,5.33,1.21,8.77,8.77,0,0,1,3.24,3.17,13.29,13.29,0,0,1,1.58,4.45,29.3,29.3,0,0,1,.44,5.06Z"/><path class="cls-2" d="M993.73,848.39a19.62,19.62,0,0,1-7.69-1.45,17.33,17.33,0,0,1-9.61-9.74,18.61,18.61,0,0,1-1.31-6.94,19.66,19.66,0,0,1,1.28-7.11,17.34,17.34,0,0,1,3.71-5.87,17.69,17.69,0,0,1,5.9-4,19.64,19.64,0,0,1,7.79-1.48,19.16,19.16,0,0,1,7.72,1.48,17.77,17.77,0,0,1,5.8,4A17,17,0,0,1,1011,823a19.32,19.32,0,0,1,1.25,6.88q0,.88,0,1.69A6.91,6.91,0,0,1,1012,833H984.7a10.51,10.51,0,0,0,1,3.71,9.09,9.09,0,0,0,5,4.52,9.52,9.52,0,0,0,3.37.61,10.41,10.41,0,0,0,5.09-1.31,7,7,0,0,0,3.27-3.47l7.75,2.16a15.76,15.76,0,0,1-6.24,6.64A19.32,19.32,0,0,1,993.73,848.39Zm9.17-21.3a9.4,9.4,0,0,0-2.93-6.37,9.21,9.21,0,0,0-12.51,0,9.27,9.27,0,0,0-2,2.77,9.74,9.74,0,0,0-.91,3.57Z"/><path class="cls-2" d="M74.83,528.48H27V507.31a13.6,13.6,0,0,1,1.38-6.1A15.82,15.82,0,0,1,32,496.39a17.22,17.22,0,0,1,5.12-3.17,15.43,15.43,0,0,1,5.76-1.15,15.91,15.91,0,0,1,8.46,2.33,13.35,13.35,0,0,1,5.5,6.3l18-11.26V500l-16,10v9.17h16Zm-24.2-9.3V507.51a4.92,4.92,0,0,0-.61-2.39,6.1,6.1,0,0,0-1.65-1.92,8.25,8.25,0,0,0-2.46-1.28,9.54,9.54,0,0,0-3-.47,8.67,8.67,0,0,0-3.1.54,8.11,8.11,0,0,0-2.46,1.45,6.57,6.57,0,0,0-1.62,2.09,5.44,5.44,0,0,0-.57,2.39v11.26Z"/><path class="cls-2" d="M75.5,467.53a19.61,19.61,0,0,1-1.45,7.69,17.33,17.33,0,0,1-9.74,9.61,18.62,18.62,0,0,1-6.94,1.32,19.69,19.69,0,0,1-7.11-1.28,17.33,17.33,0,0,1-5.87-3.71,17.69,17.69,0,0,1-4-5.9,19.66,19.66,0,0,1-1.48-7.79,19.18,19.18,0,0,1,1.48-7.72,17.79,17.79,0,0,1,4-5.8,16.92,16.92,0,0,1,5.8-3.64A19.3,19.3,0,0,1,57,449.06q.88,0,1.69,0a6.86,6.86,0,0,1,1.35.17v27.3a10.49,10.49,0,0,0,3.71-1,9.08,9.08,0,0,0,4.52-5,9.51,9.51,0,0,0,.61-3.37,10.41,10.41,0,0,0-1.32-5.09,7,7,0,0,0-3.47-3.27l2.16-7.75a15.76,15.76,0,0,1,6.64,6.24A19.32,19.32,0,0,1,75.5,467.53Zm-21.3-9.17a9.4,9.4,0,0,0-6.37,2.93,9.2,9.2,0,0,0,0,12.51,9.26,9.26,0,0,0,2.76,2,9.73,9.73,0,0,0,3.57.91Z"/><path class="cls-2" d="M75.5,430.18a13.42,13.42,0,0,1-1.45,6.2,15.32,15.32,0,0,1-3.94,4.89,18.51,18.51,0,0,1-5.83,3.2,21.93,21.93,0,0,1-7.18,1.15A20,20,0,0,1,50,444.37a18,18,0,0,1-5.76-3.47,16.34,16.34,0,0,1-3.88-5.26,15.27,15.27,0,0,1-1.42-6.54A13.66,13.66,0,0,1,40.75,422a15.28,15.28,0,0,1,4.89-5.06H39.5V409H78.33a3,3,0,0,0,2.06-.54,2.73,2.73,0,0,0,.64-1.89h7.69a25.4,25.4,0,0,1,.3,2.56q.1,1.42.1,2.43a6.56,6.56,0,0,1-1.72,4.58A5.7,5.7,0,0,1,83,418H68.63a13.14,13.14,0,0,1,5.16,5.06A14.35,14.35,0,0,1,75.5,430.18Zm-7.69-3.37a8.19,8.19,0,0,0-1.62-5.06A14.57,14.57,0,0,0,62,418H53.66a8.68,8.68,0,0,0-2.76,1.31,11.31,11.31,0,0,0-2.26,2.12,9.68,9.68,0,0,0-1.52,2.63,7.91,7.91,0,0,0-.54,2.83,8.27,8.27,0,0,0,.88,3.81,9.24,9.24,0,0,0,2.39,3,11.66,11.66,0,0,0,3.47,2,11.82,11.82,0,0,0,4,.71,11.64,11.64,0,0,0,4.11-.71,10.51,10.51,0,0,0,3.3-2,8.94,8.94,0,0,0,2.23-3A9.23,9.23,0,0,0,67.82,426.81Z"/><path class="cls-2" d="M75.5,390.13q0,5.46-3.51,8.29t-10.38,2.83H39.5v-9H59.66q8.16,0,8.16-5.87a9.38,9.38,0,0,0-1.58-5.16,11.38,11.38,0,0,0-4.82-4H39.5v-9H64.45a3,3,0,0,0,2-.54,2.62,2.62,0,0,0,.67-1.89h7.69q.27,1.42.37,2.49t.1,1.89a5.91,5.91,0,0,1-1.11,3.81,4.83,4.83,0,0,1-3.07,1.72l-2.9.2a15.59,15.59,0,0,1,5.46,6.1A18.2,18.2,0,0,1,75.5,390.13Z"/><path class="cls-2" d="M75.5,342.54a19.61,19.61,0,0,1-1.45,7.69,17.34,17.34,0,0,1-9.74,9.61,18.6,18.6,0,0,1-6.94,1.31,19.64,19.64,0,0,1-7.11-1.28,17.34,17.34,0,0,1-5.87-3.71,17.71,17.71,0,0,1-4-5.9,19.66,19.66,0,0,1-1.48-7.79,19.18,19.18,0,0,1,1.48-7.72,17.79,17.79,0,0,1,4-5.8,17,17,0,0,1,5.8-3.64A19.34,19.34,0,0,1,57,324.06q.88,0,1.69,0a7,7,0,0,1,1.35.17v27.31a10.49,10.49,0,0,0,3.71-1,9.18,9.18,0,0,0,2.76-2.09,9.09,9.09,0,0,0,1.75-2.9,9.5,9.5,0,0,0,.61-3.37,10.41,10.41,0,0,0-1.32-5.09,7,7,0,0,0-3.47-3.27l2.16-7.75a15.76,15.76,0,0,1,6.64,6.24A19.33,19.33,0,0,1,75.5,342.54Zm-21.3-9.17a9.4,9.4,0,0,0-6.37,2.93,9.2,9.2,0,0,0,0,12.51,9.26,9.26,0,0,0,2.76,2,9.73,9.73,0,0,0,3.57.91Z"/><path class="cls-2" d="M75.5,304.58a31.29,31.29,0,0,1-.34,4.48,38.28,38.28,0,0,1-.94,4.55,31.6,31.6,0,0,1-1.48,4.25,20.53,20.53,0,0,1-2,3.57l-6.14-3.64q4.38-6.74,4.38-13a8.36,8.36,0,0,0-1-4.45,3.22,3.22,0,0,0-2.9-1.62,3,3,0,0,0-2.8,1.92,36.41,36.41,0,0,0-2,6.44,53.81,53.81,0,0,1-1.69,5.87,14.36,14.36,0,0,1-2,3.91A7,7,0,0,1,54,319a8.4,8.4,0,0,1-3.51.67A10.52,10.52,0,0,1,42,315.6a13.85,13.85,0,0,1-2.33-4.52,18.83,18.83,0,0,1-.81-5.63A24.88,24.88,0,0,1,40,297.94a30.33,30.33,0,0,1,3.2-7l5.6,3.71a24.58,24.58,0,0,0-2.73,5.6,17.15,17.15,0,0,0-.84,5.26,8.12,8.12,0,0,0,.94,4.08,3.23,3.23,0,0,0,3,1.65,2.74,2.74,0,0,0,2.63-1.58A29.73,29.73,0,0,0,53.66,304q.94-3.77,1.89-6.44a18.11,18.11,0,0,1,2.16-4.38,7.5,7.5,0,0,1,2.8-2.5,8.6,8.6,0,0,1,3.81-.78A10.26,10.26,0,0,1,69,291a10.13,10.13,0,0,1,3.54,2.93,13.58,13.58,0,0,1,2.22,4.62A22.06,22.06,0,0,1,75.5,304.58Z"/><path class="cls-2" d="M73,263.25a39.47,39.47,0,0,1,1.62,4.48,19.06,19.06,0,0,1,.81,5.56,12.83,12.83,0,0,1-.47,3.54,7.76,7.76,0,0,1-1.52,2.9,7.39,7.39,0,0,1-2.7,2,9.74,9.74,0,0,1-4,.74H46.44V287H39.5v-4.58H28v-9H39.5v-7.48h6.94v7.48H63.7a3.15,3.15,0,0,0,2.66-1,3.87,3.87,0,0,0,.78-2.43,8.29,8.29,0,0,0-.47-2.76q-.47-1.35-.81-2.16Z"/><path class="cls-2" d="M75.5,244.78a31.27,31.27,0,0,1-.34,4.48,38.24,38.24,0,0,1-.94,4.55,31.5,31.5,0,0,1-1.48,4.25,20.58,20.58,0,0,1-2,3.57L64.65,258Q69,251.25,69,245a8.36,8.36,0,0,0-1-4.45,3.22,3.22,0,0,0-2.9-1.62,3,3,0,0,0-2.8,1.92,36.4,36.4,0,0,0-2,6.44,53.73,53.73,0,0,1-1.69,5.87,14.34,14.34,0,0,1-2,3.91A7,7,0,0,1,54,259.21a8.41,8.41,0,0,1-3.51.67A10.51,10.51,0,0,1,42,255.8a13.86,13.86,0,0,1-2.33-4.52,18.84,18.84,0,0,1-.81-5.63A24.88,24.88,0,0,1,40,238.14a30.31,30.31,0,0,1,3.2-7l5.6,3.71a24.56,24.56,0,0,0-2.73,5.6,17.15,17.15,0,0,0-.84,5.26,8.11,8.11,0,0,0,.94,4.08,3.23,3.23,0,0,0,3,1.65,2.74,2.74,0,0,0,2.63-1.58,29.75,29.75,0,0,0,1.82-5.63q.94-3.78,1.89-6.44a18.11,18.11,0,0,1,2.16-4.38,7.51,7.51,0,0,1,2.8-2.5,8.61,8.61,0,0,1,3.81-.78,10.27,10.27,0,0,1,4.65,1,10.13,10.13,0,0,1,3.54,2.93,13.57,13.57,0,0,1,2.22,4.62A22.07,22.07,0,0,1,75.5,244.78Z"/><path class="cls-3" d="M1844.67,596.21c-3.58-4.18-2.11-8.91-2.85-13.4-.18-1.12.59-2.6-2.18-2.7s-2.66,1.33-2.77,2.71c-.36,4.38-.76,8.75-1.18,13.61-2.07-1.47-2.9-2.63-3-4-2.38-2.51-2.75-5.51-3.74-8.36.11-1.58-.2-3.44-2.43-3.64-2.45-.22-2.64,1.91-3.35,3.23a11.14,11.14,0,0,0-1.63,5.09c0,1.74-1.24,2.7-3.43,2.46-4.95-.53-9.94-.62-14.91-1.4-3.12-.49-7-1.23-10.42-.08-5.22,1.75-10.34,1.31-14.1-1.61-1.58-1.23-2.62-1.42-3.88,0-1.7,1.94-3.78,1.67-6.11.7-2.05-.85-4.36-2.07-6.61-1.38a13.18,13.18,0,0,1-9.6-.78c-3.84-1.78-8.38-.33-12.43-2.36a16.5,16.5,0,0,0-9.89-1.31c-4.65,1.05-9.23,1.84-13.43-.88a2.1,2.1,0,0,0-1.87-.32c-3.3,1.65-6.14-.62-9-.51-3.91.15-7.12-4.66-11.33-.81-.18.16-.69-.43-.91-.73-1-1.33-2.46-.81-4-.75-1.72.07-3.19,1.27-4.83.78-3.64-1.08-4.86.54-5.85,2.59-2.4-1-4.73-1.42-7,.24a22.74,22.74,0,0,0-2.1,1.62c-1.36,1.27-2.59,2.61-4.18,4.15-1.85-2.43-3.68-1.6-6-.27-6,3.47-11.35,3.52-17.2.3a3.76,3.76,0,0,0-4.43.21c-1.48,1-3.27,1.56-5,.55s-2.66-1-5.14-.18c-3.8,1.2-8.83,0-13,1.69-.18.07-.56-.24-.76-.44-1.69-1.68-3.63-1-5.31-.13-3.46,1.84-6.81,1.44-10.47.33-3.13-1-6.41-2.29-9.67.2-1.09.84-4,1.36-4.65.86-3.33-2.43-5.81-.24-8.33.63-1.77.61-3.31.25-4.91.15-3-.18-6.2-2.7-9,.46-.19.22-.92-.2-1.4-.25-2.95-.31-6.32,1.95-8.91-.88-.33-.36-1.26.22-1.59.63-1.44,1.78-4,1-6,1.38-1.49.27-2.92-1.17-4.74-.31a7.15,7.15,0,0,1-7-.51c-.79-.47-2.05-1.22-2.66-.8-4.94,3.34-11,2.46-16.82,2.86-2.87.2-5.3,1.6-8.68,1a11,11,0,0,0-7.11,1.38c-3.7,2.39-8.07,2.94-12.68,2.49-6.53-.64-12.84,1.92-19.42.58-1.05-.21-2.18.56-3.12,1.1s-2.12,1.28-3.16,1c-2.84-.85-6,1.62-8.83-1-3.07-2.87-5.62,2.15-9,.82a8.73,8.73,0,0,0-2.78-.84c-2.64-.07-2.71-5.49-7.09-1.88-.11.09-.32-.59-.44-.92-.61-1.67-2-2.61-4.4-2.4a3.06,3.06,0,0,0-3.11,3c-.27,2.5-1.92,2.91-5,2.71-5.69-.37-11.19-1.38-16.75-2.2l-2.11-.08c-5.48-2.06-12.46-.13-17.44-3.6-.33-.23-1,.06-1.34.31-2.43,1.65-4.28.5-6.15-.68a22.71,22.71,0,0,0-4.8-2c-9-3-17.94-6.08-25.13-11.44-2.53-1.89-5.3-4.35-8.9-4.75-4.16-.46-6.2-2.41-8.94-4.22-6.21-4.12-10.74-9.29-16.47-13.68-1.19-.91-2.39-1.91-2.54-3.17-.4-3.37-3.58-5.45-6.26-7.75a11.1,11.1,0,0,1-2.31-2.42c-5.52-8.86-10.55-17.82-11.66-27.7a3.27,3.27,0,0,0-1.07-2.07l-.1-2.23c1.27-1.4.45-2.38-1.26-3a8.86,8.86,0,0,1-4.11-3.21c-3.8-5.27-6.49-10.9-9.59-16.39-3.49-6.17-5.2-12.77-7.94-19.13-3.13-7.3-2.12-15.12-2.73-22.7-.31-3.85-2.69-7.18-3.07-10.8-.61-5.71-.74-11.5-1.46-17.18-1-7.91,1.81-16.35-4.8-23.66a2.66,2.66,0,0,1-.51-1.44c-.84-5.46-2.89-10.78-3.42-16.27-.32-3.29-2-6.29-3-9.44-2.7-8.68-9.48-16.51-9.45-25.75,0-2.42-1.74-4.1-5.56-3.4-1.27.23-2.11,0-2.13-.92-.12-4.47-3.79-8.18-4.59-12.55-.76-4.14-.38-8.5-3.2-12.37l-.12-1.41c1.34-6.34.44-12.71.51-19.07,0-1.87-.77-3.57-4-3.53s-3.79,1.87-3.71,3.68c.22,5-1.32,9.83-1.19,13.67.16-3.51-.73-8.47-4.45-11.73-3.92-3.44-4.63-6.91-5.27-10.85a68.54,68.54,0,0,1-.54-8.23,6.82,6.82,0,0,0-1.52-4.68,3.62,3.62,0,0,0-5.87.44,9.76,9.76,0,0,0-1,3.29c-1.06,5.73-.26,11.49-.55,17.23-.07,1.47.43,3.12-1.45,4.54-4.08-8.46-5-8.88-10.42-4.56-.4-7.07-7.94-12.07-8.2-18.95,0-.48-.53-.92-.94-1.31-5.75-5.64-7.73-12.42-9.87-19-1.81-5.6-5.86-10.63-6.89-16.38a3.52,3.52,0,0,0-1.6-2.31c-5.18-3-4.62-7.48-5.25-11.6a36.48,36.48,0,0,0-1.43-6.28c-.75-2.2-1.5-4.4-5.39-4.75-2.14-.19-2-1.73-2.56-2.89-1.23-2.7-1-6-4-7.95-5.21-3.36-7.53-7.65-8.17-12.45-1.2-9.07-6.7-17.59-6.13-26.88a4.63,4.63,0,0,0-.5-1.83c-1.13-2.93-2.63-3.49-6.2-2-1.56.65-2.64,1.62-3.68-.37-.71-1.36-2.46-1.61-4.25-1.4a3.87,3.87,0,0,0-3.66,2.74c-.6,2.06-.74,4.19-1.48,6.37a13.3,13.3,0,0,1-2-8.06c.25-4.4-1.18-8.7-1.22-13.08,0-1.62-1-2.95-3.56-3-2.85-.09-3.77,1.27-4,3.08s-.16,3.88-.41,5.79c.47-5.1-2.17-9.89-2.79-14.88-.33-2.67-2.77-3.73-6.18-2.28-1.67-6.26.85-13.12-6.62-18-.91-.69-.31-1.44-.16-2.18-.33-4.6-.69-9.18-3.45-13.45a22.05,22.05,0,0,1-2.9-7.54c-1.26-5.81-.92-11.71-2.07-17.53-.33-1.66-.62-3.33-3.5-3.54-3-.23-4.1,1.3-4.75,3.11-1.16,3.26-.6,6.6-.92,10-.82-4.81-2.31-9.38-7.91-12.48-.68-.38-.69-1.11-1-1.7A43.44,43.44,0,0,1,1041.88,51c.13-3.77-.91-7.46-1.21-11.2-.14-1.77-1.07-3.24-3.92-3.18-3.16.07-4,1.77-3.7,3.64a10.42,10.42,0,0,1,.09,1.45,21.09,21.09,0,0,0-.63-3.44c-.35-1.33-1.28-2.32-3.35-2.33a3.93,3.93,0,0,0-3.81,2,7.07,7.07,0,0,0-.63,3.32c-.06,2.87-.15,5.75,0,8.62.35,7.44-3.54,13.5-10.71,18.5a7.35,7.35,0,0,0-3.34,5.68c-1.19,13.07-3,26.13-2.07,39.27,0,1.24.07,2.48.09,3.71,0,.86.24,1.89-1.45,2-3.71.21-4.72,2.67-6.79,4.81-.46-3.91.15-7.37-.39-10.78-.65-1.72-2.19-2.52-4.48-1.92s-3.16,1.75-1.66,3.45c.4.51.73,1,0,1.52-3.18.28-4.29,1.64-4.49,4-.56,6.58-1.28,13.14-1,19.74a15.1,15.1,0,0,1-.45,4.46c-.37,1.41-.23,2.73-3.36,2.75-2.58,0-5,1.36-5.55,3.7a2.28,2.28,0,0,1-2.41,2.05c-4,.16-4.23,2.26-4.39,4.5-.18,2.52.3,5.12-1.6,7.44l-4,.07c-3.11,3.18-2.38,6.89-2.56,10.47-.12,2.29.26,4.67-2,6.8-1.5-1.34-1-2.63-1-3.8-.06-7,0-14,0-21a18.18,18.18,0,0,0-.22-3.74c-.35-1.66-1.36-2.83-3.9-2.8s-3.43,1.29-3.76,2.92a14,14,0,0,0-.21,3.37c.64,15.5-1.63,31-1,46.47a12.87,12.87,0,0,1-.06,1.5,9.39,9.39,0,0,1-5.08,8.21c-2.2,1.24-3.55,2.84-3.92,4.5,0-7.17.07-14.81-.06-22.46,0-2.35.09-5.36-4.4-5.28s-3.61,3.14-3.58,5.23c.13,10.68-1.29,21.34-1.21,31.85-.11-1.6-.5-3.3-3.41-3.35s-4,1.54-4.33,3.43c-.39,2.24,0,4.51-.25,6.74-1,7.64-.73,15.4-5,22.72-1.72,2.95-4.29,5.83-4.81,9-1.58,9.59-5.84,18.76-7.74,28.27-1.09,5.44-4.23,10.13-8.18,14.63-1.6,1.82-3.05,3.67-1.14,5.87L897,319c-3.6,2.19-4.14,5.33-4.49,8.43a52.49,52.49,0,0,1-2.92,11c-1.36,4-4.4,7.7-5.14,11.58-1.4,7.3-4.56,14.34-5.26,21.71-.27,2.79-.76,5.62-5.9,5.84a4.06,4.06,0,0,0-3,1.82,2.76,2.76,0,0,1-2.84,1.19c-3-.53-3.7,1.06-4.52,2.63-1.37,2.62-1.57,5.53-3.54,8.8-.93-2.51-.3-4.44-1.28-6.15a3.9,3.9,0,0,0-3.7-2.17A3.13,3.13,0,0,0,851,386a13.5,13.5,0,0,0-1.06,5.55c.32,4.1-.45,7.87-4.12,11.25a11.86,11.86,0,0,0-3.59,6.15c-1.63,7.83-6,15.06-8.63,22.68-1.43,4.21-3.77,8.28-5.91,12.35-1.12,2.13-2.82,3.09-5.65,1.21-3.47-2.3-4.58-2-5.46,1.44a63,63,0,0,0-2.09,17.88,11.75,11.75,0,0,1-3.64,9.54c-6.71,6.36-8.5,14.29-12.18,21.57-2.26,4.48-2.37,9.51-6.49,13.61a5,5,0,0,0-1.57,5l-.1,2.23c-5.15,10.28-7.11,21-8.21,31.87-.41,4.06-.31,8.42-3.9,11.41-5,4.2-5.83,9.52-7.81,14.3-2.06,5-3.72,10.05-6.3,14.93-1.2,2.27-2.38,4.33-6.07,5a4.9,4.9,0,0,0-3.78,3.75c-1.58,5.11-4.29,10-5,15.29-.48,3.75-4.33,6.32-5.41,9.75-1,3.06-6.66,1.7-7.34,4.64-.73,3.13-3.9,4.87-6.56,6.91-4,3.06-9.68,4.42-13.58,7.68-.58-1.21-.3-2.34-.41-3.43-.2-2,0-4.44-3.57-4.67-3.75-.24-3.7,2.24-4.29,4.19-1.45,4.8-.49,9.73-1.72,14.55a7.54,7.54,0,0,1-3.6,4.7c-7.85,5.1-15.14,10.56-19.07,18-.76,1.42-2.44,2-4.07,2.64-3.23,1.33-7.1,2.14-9.37,4.33-3.77,3.62-9.11,4.7-14.5,5.37-13.42,1.65-26.61,4.44-40.31,4.71-7.64.15-14.85,2.48-22.33,2.71-9.16.27-18.46,1-27.58-.94a27.88,27.88,0,0,0-9-.34c-4.89.65-10.13-.69-14.71,1.46-1.57,1-3.39.59-5.16.52-4.3-1.31-8.73-3.13-13.35-1.63a33.34,33.34,0,0,1-8.16,1.47c-8.05.59-16.23-.22-24.09.28-14.43.93-28.94-1.32-43.26,1a31,31,0,0,1-9.53-.32c-2-.31-4-.74-5-2.24-1.36-2-3.76-2.29-6.41-2.16-8.58.42-17.15.32-25.72,0-5.54-.22-11.09-.66-16.63-.1A308.68,308.68,0,0,1,346,693.33c-7.47-.19-14.74,1.35-22.1,1.07-11.76-.45-23.48.41-35.24.21-10.22-.17-20.5.24-30.76.23-10.59,0-21.21-.91-31.75-.57-18.15.58-36.28.47-54.42.57-14.12.08-28.26-.6-42.35.61a43.56,43.56,0,0,1-6,.05,100,100,0,0,0-11.47.33c-1.68.46-3.55.47-5.11,1.2a3.22,3.22,0,0,0-.89,1.42h-.35v61H1844.39V598.07C1845.15,597.93,1845.1,596.72,1844.67,596.21ZM1032.8,45.53h0Zm.18.33c.28,0,.15.08,0,0Zm-.12-.84-.06.49a1.24,1.24,0,0,1,0-.28C1032.83,45.16,1032.84,45.09,1032.86,45Zm-99.1,188.12q0-.62,0-1.26c0,.41,0,.82.07,1.22Z"/><path class="cls-4" d="M831.4,695.2c0-.05,0,.06,0,0Z"/><path class="cls-5" d="M831.4,695.2c0-.05,0,.06,0,0Z"/><path class="cls-6" d="M1841.78,696.05c-3-.1-6-.07-9-.09a16.66,16.66,0,0,0-4.43-1c-2.5-.21-5-.76-7.52-.56A7.78,7.78,0,0,1,1814,692c-2.87-2.93-4.22-2.85-5.94.55-1.26,2.49-3.41,3.1-6.58,3.07-3.37,0-6.73-.23-10.1-.12-18.68.59-37.31-.29-55.95-1-4.55-.18-9.26-2-13.36-1.09-7.52,1.6-14.89,1.35-22.47,1.32s-15.13-.09-22.7.11c-7.74.2-15.55-.39-23.23.17-7.24.52-14.32-3.31-21.51-.17-.36.16-1-.05-1.49-.05-12.6,0-25.2.2-37.8.64-12.94.45-25.87,1.53-38.79,1.5-13.15,0-26.23.61-39.3,1.22-6.58.31-13.09-.27-19.65.19-20.44,1.44-40.94,2.12-61.48,1.52a9.7,9.7,0,0,0-3.95.39c-4.07,1.67-8.5,1.66-12.83,1.27a61.7,61.7,0,0,0-15.51.91c-.86.08-1.72.16-2.56.31-10.07.58-20.18.23-30.24.55-23.2.74-46.39,1.57-69.61,1.28-24.57-.3-49.12.15-73.69,0-14.47-.07-29,.28-43.4-.29q-25.71-1-51.44-.78c-20.36.16-40.63-1.28-61-1.1-15.82.14-31.52-2.11-47.37-1.58-11.91.4-23.7-1.75-35.63-.79a18.22,18.22,0,0,1-5-.44,29.84,29.84,0,0,0-10-.17c-1.55.16-3.07.65-4.67.28-.66-.1-1.33-.13-2-.23-8.15-1.17-16.8,1-24.69-2a3.54,3.54,0,0,0-2.38.41,20.16,20.16,0,0,1-6.41.79c-18.54.63-36.89-2.39-55.58-.93a163.77,163.77,0,0,1-31.56-.68c-2.76-.32-4.73-.83-6-2.76-.89-1.37-1.23-3.74-3.86-3.38-2.22.3-2.2,2.58-2.87,4.1l-.08.18a1.56,1.56,0,0,1,0,.19c-.74,2.88-3.49,4-7,3.87-7.2-.29-14.37.24-21.55.3-25.68.19-51.37-.6-77.06.26-3.95.13-9.14.81-11.08-3.46-.45-1-.67-2.53-2.52-2.44-1.67.08-2.05,1.53-2.51,2.56a5.77,5.77,0,0,1-6.23,3.58c-7-.53-14.13-.06-21.14-.55-10.57-.73-21.19-.29-31.71-.17q-27.22.32-54.42-.18c-19-.33-38-.14-56.95-1.14-5.94.89-11.82-.62-17.8-.14-4.4.36-8.91.76-13.35,0-3.55-.17-7.14.34-10.67-.31l-4.72,0c-3.18.9-6.57-.22-9.76.56l-4.83-.26c-3.79-.12-7.56.21-11.34.36l-1.57-.08a41.43,41.43,0,0,0-11.28,0c-7.63,1.88-15.23-.18-22.84-.13-1.16-.14-2.21-.59-3.41-.63-11.2-.35-22.42-.86-33.61-.87-12.85,0-25.69-.44-38.58-.08-10.11.28-20.33.25-30.51.29-4.91.3-9.81-.68-14.72,0-5.56-.83-11.13.56-16.69,0-1.71-.53-3.53,0-5.27-.33-3,0-5.94-.09-8.9.08-16.27.56-32.53.21-48.78-.35-2.19.68-4.61-.44-6.76.5l-11,.08c-3.11,0-6.22-.7-9.34,0l-6-.36c-2.1.35-4.32-.27-6.39.42-3.24,0-6.46.84-9.72.12a19,19,0,0,1-7.86-.09l-10.5-.18c-2.09.4-4.22-.6-6.3.1l-50.3.67a1.42,1.42,0,0,0-.5,1.18l-.44,0v58.12H1844.39V698.65a2.57,2.57,0,0,0,.59-1.34C1845.26,695.39,1843,696.1,1841.78,696.05Z"/><path class="cls-5" d="M1841.78,696.05c-3-.1-6-.07-9-.09a16.66,16.66,0,0,0-4.43-1c-2.5-.21-5-.76-7.52-.56A7.78,7.78,0,0,1,1814,692c-2.87-2.93-4.22-2.85-5.94.55-1.26,2.49-3.41,3.1-6.58,3.07-3.37,0-6.73-.23-10.1-.12-18.68.59-37.31-.29-55.95-1-4.55-.18-9.26-2-13.36-1.09-7.52,1.6-14.89,1.35-22.47,1.32s-15.13-.09-22.7.11c-7.74.2-15.55-.39-23.23.17-7.24.52-14.32-3.31-21.51-.17-.36.16-1-.05-1.49-.05-12.6,0-25.2.2-37.8.64-12.94.45-25.87,1.53-38.79,1.5-13.15,0-26.23.61-39.3,1.22-6.58.31-13.09-.27-19.65.19-20.44,1.44-40.94,2.12-61.48,1.52a9.7,9.7,0,0,0-3.95.39c-4.07,1.67-8.5,1.66-12.83,1.27a61.7,61.7,0,0,0-15.51.91c-.86.08-1.72.16-2.56.31-10.07.58-20.18.23-30.24.55-23.2.74-46.39,1.57-69.61,1.28-24.57-.3-49.12.15-73.69,0-14.47-.07-29,.28-43.4-.29q-25.71-1-51.44-.78c-20.36.16-40.63-1.28-61-1.1-15.82.14-31.52-2.11-47.37-1.58-11.91.4-23.7-1.75-35.63-.79a18.22,18.22,0,0,1-5-.44,29.84,29.84,0,0,0-10-.17c-1.55.16-3.07.65-4.67.28-.66-.1-1.33-.13-2-.23-8.15-1.17-16.8,1-24.69-2a3.54,3.54,0,0,0-2.38.41,20.16,20.16,0,0,1-6.41.79c-18.54.63-36.89-2.39-55.58-.93a163.77,163.77,0,0,1-31.56-.68c-2.76-.32-4.73-.83-6-2.76-.89-1.37-1.23-3.74-3.86-3.38-2.22.3-2.2,2.58-2.87,4.1l-.08.18a1.56,1.56,0,0,1,0,.19c-.74,2.88-3.49,4-7,3.87-7.2-.29-14.37.24-21.55.3-25.68.19-51.37-.6-77.06.26-3.95.13-9.14.81-11.08-3.46-.45-1-.67-2.53-2.52-2.44-1.67.08-2.05,1.53-2.51,2.56a5.77,5.77,0,0,1-6.23,3.58c-7-.53-14.13-.06-21.14-.55-10.57-.73-21.19-.29-31.71-.17q-27.22.32-54.42-.18c-19-.33-38-.14-56.95-1.14-5.94.89-11.82-.62-17.8-.14-4.4.36-8.91.76-13.35,0-3.55-.17-7.14.34-10.67-.31l-4.72,0c-3.18.9-6.57-.22-9.76.56l-4.83-.26c-3.79-.12-7.56.21-11.34.36l-1.57-.08a41.43,41.43,0,0,0-11.28,0c-7.63,1.88-15.23-.18-22.84-.13-1.16-.14-2.21-.59-3.41-.63-11.2-.35-22.42-.86-33.61-.87-12.85,0-25.69-.44-38.58-.08-10.11.28-20.33.25-30.51.29-4.91.3-9.81-.68-14.72,0-5.56-.83-11.13.56-16.69,0-1.71-.53-3.53,0-5.27-.33-3,0-5.94-.09-8.9.08-16.27.56-32.53.21-48.78-.35-2.19.68-4.61-.44-6.76.5l-11,.08c-3.11,0-6.22-.7-9.34,0l-6-.36c-2.1.35-4.32-.27-6.39.42-3.24,0-6.46.84-9.72.12a19,19,0,0,1-7.86-.09l-10.5-.18c-2.09.4-4.22-.6-6.3.1l-50.3.67a1.42,1.42,0,0,0-.5,1.18l-.44,0v58.12H1844.39V698.65a2.57,2.57,0,0,0,.59-1.34C1845.26,695.39,1843,696.1,1841.78,696.05Z"/><text class="cls-7" transform="translate(102.47 836.45)">9AM ET 11.08.2016</text><text class="cls-7" transform="translate(1554.75 829.71)">11AM ET 11.09.2016</text><text class="cls-7" transform="translate(1706.35 118.71)">Baseline</text><rect class="cls-8" x="1659.6" y="91.99" width="31.4" height="31.4"/><text class="cls-7" transform="translate(1706.35 62.71)">Election</text><rect class="cls-3" x="1659.6" y="35.99" width="31.4" height="31.4"/></svg>