<svg id="Layer_1" data-name="Layer 1" xmlns="http://www.w3.org/2000/svg" viewBox="0 0 1832 867.65"><defs><style>.cls-1{fill:none;stroke:#29abe2;stroke-width:0.5px;}.cls-1,.cls-3,.cls-4{stroke-miterlimit:10;}.cls-2{fill:#29abe2;}.cls-3{fill:#cdebf8;stroke:#0071bc;}.cls-3,.cls-4{fill-opacity:0.5;}.cls-4{fill:#93278f;stroke:#1b1464;}.cls-5{font-size:31.01px;fill:#0071bc;font-family:HelveticaNeue, Helvetica Neue;}</style></defs><title>Artboard 7 copy</title><rect class="cls-1" x="82.92" y="19.92" width="1740.28" height="748.01"/><line class="cls-1" x1="330.98" y1="19.93" x2="330.98" y2="767.93"/><line class="cls-1" x1="581.8" y1="19.93" x2="581.8" y2="767.93"/><line class="cls-1" x1="827.62" y1="19.93" x2="827.62" y2="767.93"/><line class="cls-1" x1="1073.44" y1="19.93" x2="1073.44" y2="767.93"/><line class="cls-1" x1="1324.25" y1="19.93" x2="1324.25" y2="767.93"/><line class="cls-1" x1="1575.06" y1="19.93" x2="1575.06" y2="767.93"/><line class="cls-1" x1="82.92" y1="270.79" x2="1823.2" y2="270.79"/><line class="cls-1" x1="82.92" y1="510.2" x2="1823.2" y2="510.2"/><path class="cls-2" d="M874.53,815.93H859.3v39.71H850V815.93h-15.3v-8.16h39.84Z"/><path class="cls-2" d="M879.59,815.4v-9h9v9Zm0,40.25V820.32h9v35.33Z"/><path class="cls-2" d="M951.53,855.65h-9V835.82q0-4.25-1.48-6.2a4.8,4.8,0,0,0-4-2,7.5,7.5,0,0,0-5,2.06,11.33,11.33,0,0,0-3.37,5.36v20.56h-9V835.82q0-4.25-1.45-6.2a4.72,4.72,0,0,0-4-2,7.69,7.69,0,0,0-5,2,11,11,0,0,0-3.41,5.33v20.63h-9V820.32h8.16v6.54a13.5,13.5,0,0,1,5.36-5.29,16,16,0,0,1,7.79-1.85q4.45,0,6.84,2.16a10.12,10.12,0,0,1,3.13,5.33,15.25,15.25,0,0,1,5.46-5.56,14.74,14.74,0,0,1,7.55-1.92,10.49,10.49,0,0,1,5.33,1.21,8.77,8.77,0,0,1,3.24,3.17,13.29,13.29,0,0,1,1.58,4.45,29.3,29.3,0,0,1,.44,5.06Z"/><path class="cls-2" d="M975.73,856.32a19.62,19.62,0,0,1-7.69-1.45,17.33,17.33,0,0,1-9.61-9.74,18.61,18.61,0,0,1-1.31-6.94,19.66,19.66,0,0,1,1.28-7.11,17.34,17.34,0,0,1,3.71-5.87,17.69,17.69,0,0,1,5.9-4,19.64,19.64,0,0,1,7.79-1.48,19.16,19.16,0,0,1,7.72,1.48,17.77,17.77,0,0,1,5.8,4A17,17,0,0,1,993,831a19.32,19.32,0,0,1,1.25,6.88q0,.88,0,1.69a6.91,6.91,0,0,1-.17,1.35H966.7a10.51,10.51,0,0,0,1,3.71,9.09,9.09,0,0,0,5,4.52,9.52,9.52,0,0,0,3.37.61,10.41,10.41,0,0,0,5.09-1.31,7,7,0,0,0,3.27-3.47l7.75,2.16a15.76,15.76,0,0,1-6.24,6.64A19.32,19.32,0,0,1,975.73,856.32ZM984.9,835a9.4,9.4,0,0,0-2.93-6.37,9.21,9.21,0,0,0-12.51,0,9.27,9.27,0,0,0-2,2.77,9.74,9.74,0,0,0-.91,3.57Z"/><path class="cls-2" d="M52.83,536.4H5V515.23a13.6,13.6,0,0,1,1.38-6.1A15.82,15.82,0,0,1,10,504.31a17.22,17.22,0,0,1,5.12-3.17A15.43,15.43,0,0,1,20.87,500a15.91,15.91,0,0,1,8.46,2.33,13.35,13.35,0,0,1,5.5,6.3l18-11.26v10.52l-16,10v9.17h16Zm-24.2-9.3V515.43A4.92,4.92,0,0,0,28,513a6.1,6.1,0,0,0-1.65-1.92,8.25,8.25,0,0,0-2.46-1.28,9.54,9.54,0,0,0-3-.47,8.67,8.67,0,0,0-3.1.54,8.11,8.11,0,0,0-2.46,1.45,6.57,6.57,0,0,0-1.62,2.09,5.44,5.44,0,0,0-.57,2.39V527.1Z"/><path class="cls-2" d="M53.5,475.46a19.61,19.61,0,0,1-1.45,7.69,17.33,17.33,0,0,1-9.74,9.61,18.62,18.62,0,0,1-6.94,1.32,19.69,19.69,0,0,1-7.11-1.28,17.33,17.33,0,0,1-5.87-3.71,17.69,17.69,0,0,1-4-5.9,19.66,19.66,0,0,1-1.48-7.79,19.18,19.18,0,0,1,1.48-7.72,17.79,17.79,0,0,1,4-5.8,16.92,16.92,0,0,1,5.8-3.64A19.3,19.3,0,0,1,35,457q.88,0,1.69,0a6.86,6.86,0,0,1,1.35.17v27.3a10.49,10.49,0,0,0,3.71-1,9.08,9.08,0,0,0,4.52-5,9.51,9.51,0,0,0,.61-3.37A10.41,10.41,0,0,0,45.58,470a7,7,0,0,0-3.47-3.27L44.27,459a15.76,15.76,0,0,1,6.64,6.24A19.32,19.32,0,0,1,53.5,475.46Zm-21.3-9.17a9.4,9.4,0,0,0-6.37,2.93,9.2,9.2,0,0,0,0,12.51,9.26,9.26,0,0,0,2.76,2,9.73,9.73,0,0,0,3.57.91Z"/><path class="cls-2" d="M53.5,438.1a13.42,13.42,0,0,1-1.45,6.2,15.32,15.32,0,0,1-3.94,4.89,18.51,18.51,0,0,1-5.83,3.2,21.93,21.93,0,0,1-7.18,1.15A20,20,0,0,1,28,452.3a18,18,0,0,1-5.76-3.47,16.34,16.34,0,0,1-3.88-5.26A15.27,15.27,0,0,1,16.89,437a13.66,13.66,0,0,1,1.85-7.15,15.28,15.28,0,0,1,4.89-5.06H17.5v-7.89H56.33a3,3,0,0,0,2.06-.54,2.73,2.73,0,0,0,.64-1.89h7.69a25.4,25.4,0,0,1,.3,2.56q.1,1.42.1,2.43a6.56,6.56,0,0,1-1.72,4.58A5.7,5.7,0,0,1,61,426H46.63A13.14,13.14,0,0,1,51.78,431,14.35,14.35,0,0,1,53.5,438.1Zm-7.69-3.37a8.19,8.19,0,0,0-1.62-5.06A14.57,14.57,0,0,0,40,426H31.66a8.68,8.68,0,0,0-2.76,1.31,11.31,11.31,0,0,0-2.26,2.12A9.68,9.68,0,0,0,25.12,432a7.91,7.91,0,0,0-.54,2.83,8.27,8.27,0,0,0,.88,3.81,9.24,9.24,0,0,0,2.39,3,11.66,11.66,0,0,0,3.47,2,11.82,11.82,0,0,0,4,.71,11.64,11.64,0,0,0,4.11-.71,10.51,10.51,0,0,0,3.3-2,8.94,8.94,0,0,0,2.23-3A9.23,9.23,0,0,0,45.82,434.73Z"/><path class="cls-2" d="M53.5,398.06q0,5.46-3.51,8.29t-10.38,2.83H17.5v-9H37.66q8.16,0,8.16-5.87a9.38,9.38,0,0,0-1.58-5.16,11.38,11.38,0,0,0-4.82-4H17.5v-9H42.45a3,3,0,0,0,2-.54,2.62,2.62,0,0,0,.67-1.89h7.69q.27,1.42.37,2.49t.1,1.89a5.91,5.91,0,0,1-1.11,3.81,4.83,4.83,0,0,1-3.07,1.72l-2.9.2a15.59,15.59,0,0,1,5.46,6.1A18.2,18.2,0,0,1,53.5,398.06Z"/><path class="cls-2" d="M53.5,350.46a19.61,19.61,0,0,1-1.45,7.69,17.34,17.34,0,0,1-9.74,9.61,18.6,18.6,0,0,1-6.94,1.31,19.64,19.64,0,0,1-7.11-1.28,17.34,17.34,0,0,1-5.87-3.71,17.71,17.71,0,0,1-4-5.9,19.66,19.66,0,0,1-1.48-7.79,19.18,19.18,0,0,1,1.48-7.72,17.79,17.79,0,0,1,4-5.8,17,17,0,0,1,5.8-3.64A19.34,19.34,0,0,1,35,332q.88,0,1.69,0a7,7,0,0,1,1.35.17v27.31a10.49,10.49,0,0,0,3.71-1,9.18,9.18,0,0,0,2.76-2.09,9.09,9.09,0,0,0,1.75-2.9,9.5,9.5,0,0,0,.61-3.37A10.41,10.41,0,0,0,45.58,345a7,7,0,0,0-3.47-3.27L44.27,334a15.76,15.76,0,0,1,6.64,6.24A19.33,19.33,0,0,1,53.5,350.46Zm-21.3-9.17a9.4,9.4,0,0,0-6.37,2.93,9.2,9.2,0,0,0,0,12.51,9.26,9.26,0,0,0,2.76,2,9.73,9.73,0,0,0,3.57.91Z"/><path class="cls-2" d="M53.5,312.5a31.29,31.29,0,0,1-.34,4.48,38.28,38.28,0,0,1-.94,4.55,31.6,31.6,0,0,1-1.48,4.25,20.53,20.53,0,0,1-2,3.57l-6.14-3.64Q47,319,47,312.71a8.36,8.36,0,0,0-1-4.45,3.22,3.22,0,0,0-2.9-1.62,3,3,0,0,0-2.8,1.92,36.41,36.41,0,0,0-2,6.44,53.81,53.81,0,0,1-1.69,5.87,14.36,14.36,0,0,1-2,3.91A7,7,0,0,1,32,326.93a8.4,8.4,0,0,1-3.51.67A10.52,10.52,0,0,1,20,323.53,13.85,13.85,0,0,1,17.63,319a18.83,18.83,0,0,1-.81-5.63A24.88,24.88,0,0,1,18,305.86a30.33,30.33,0,0,1,3.2-7l5.6,3.71a24.58,24.58,0,0,0-2.73,5.6,17.15,17.15,0,0,0-.84,5.26,8.12,8.12,0,0,0,.94,4.08,3.23,3.23,0,0,0,3,1.65,2.74,2.74,0,0,0,2.63-1.58A29.73,29.73,0,0,0,31.66,312q.94-3.77,1.89-6.44a18.11,18.11,0,0,1,2.16-4.38,7.5,7.5,0,0,1,2.8-2.5,8.6,8.6,0,0,1,3.81-.78,10.26,10.26,0,0,1,4.65,1,10.13,10.13,0,0,1,3.54,2.93,13.58,13.58,0,0,1,2.22,4.62A22.06,22.06,0,0,1,53.5,312.5Z"/><path class="cls-2" d="M51,271.17a39.47,39.47,0,0,1,1.62,4.48,19.06,19.06,0,0,1,.81,5.56,12.83,12.83,0,0,1-.47,3.54,7.76,7.76,0,0,1-1.52,2.9,7.39,7.39,0,0,1-2.7,2,9.74,9.74,0,0,1-4,.74H24.44V295H17.5v-4.58H6v-9H17.5v-7.48h6.94v7.48H41.7a3.15,3.15,0,0,0,2.66-1,3.87,3.87,0,0,0,.78-2.43,8.29,8.29,0,0,0-.47-2.76q-.47-1.35-.81-2.16Z"/><path class="cls-2" d="M53.5,252.7a31.27,31.27,0,0,1-.34,4.48,38.24,38.24,0,0,1-.94,4.55A31.5,31.5,0,0,1,50.74,266a20.58,20.58,0,0,1-2,3.57l-6.14-3.64q4.38-6.74,4.38-13a8.36,8.36,0,0,0-1-4.45,3.22,3.22,0,0,0-2.9-1.62,3,3,0,0,0-2.8,1.92,36.4,36.4,0,0,0-2,6.44,53.73,53.73,0,0,1-1.69,5.87,14.34,14.34,0,0,1-2,3.91A7,7,0,0,1,32,267.13a8.41,8.41,0,0,1-3.51.67A10.51,10.51,0,0,1,20,263.73a13.86,13.86,0,0,1-2.33-4.52,18.84,18.84,0,0,1-.81-5.63A24.88,24.88,0,0,1,18,246.06a30.31,30.31,0,0,1,3.2-7l5.6,3.71a24.56,24.56,0,0,0-2.73,5.6,17.15,17.15,0,0,0-.84,5.26,8.11,8.11,0,0,0,.94,4.08,3.23,3.23,0,0,0,3,1.65,2.74,2.74,0,0,0,2.63-1.58,29.75,29.75,0,0,0,1.82-5.63q.94-3.78,1.89-6.44a18.11,18.11,0,0,1,2.16-4.38,7.51,7.51,0,0,1,2.8-2.5,8.61,8.61,0,0,1,3.81-.78,10.27,10.27,0,0,1,4.65,1A10.13,10.13,0,0,1,50.5,242a13.57,13.57,0,0,1,2.22,4.62A22.07,22.07,0,0,1,53.5,252.7Z"/><path class="cls-3" d="M1822.17,423.07c-3.82-4.16-3.93-9-4.46-13.8-2.3-20.87-2.49-41.79-2.62-62.72a1.3,1.3,0,0,0,0-1.8c-1.08-2.78.82-5.85-1.26-8.54a4.11,4.11,0,0,0-2.74-.7c-5.12,2.17-2.44,6-3.07,9.15q0,1.17,0,2.34c-.27,8.84,0,17.69-.11,26.53,0,5.38.68,10.84-2.58,15.9,0,.49,0,1,0,1.48a27.87,27.87,0,0,1-.69,7.74c0-1.28.71-3.14.67-5.09,0-1.35,0-2.7,0-4.06.06-2.13.78-4.26,0-6.39-.61-1.62-2-2.29-4-2.21-1.82.07-3,.82-3.46,2.24a17.16,17.16,0,0,0-.4,4.7c-.29,7,.76,14-.87,21-.28,1.19.55,3-1.38,3.38a6.43,6.43,0,0,1-5.21-1.77,23,23,0,0,0-2-2c-3-2-7.06-1.42-8.28,1.42a3.43,3.43,0,0,1-3.15,2.21c-2.36.37-2.41-1.23-3.13-2.3-3.24-4.82-4.68-10.56-11.16-13.73-1.11-.54-1.13-1.73-1.5-2.68-1.47-3.75-1.8-3.82-5.54-1.6-2.1,1.24-3.65,4.19-7.21,1.27-.83-.68-1.35,1.12-1.89,1.66-.47-1.8.23-4.39-2.45-5.17-2.49-.72-5.25.34-7.46,1.67a5.11,5.11,0,0,0-2,2.52c-.85,1.95-2.92,3.25-4.12,4.91-2.89,4-10.46,5.43-9.14,12.24a4.19,4.19,0,0,1-1.16-3c-.23-4.28.54-8.6-.7-12.83-.53-1.81-1.1-3.83-4.24-3.7-2.9.12-3,2.05-3.42,3.74-1.36,5.09-1,10.25-1.06,15.39a20,20,0,0,1-1.65,8.61c-1.36-2.35-2.14-4.65-5-4.86-6.42-.46-10-8.62-18.14-4.24-.2.11-.69-.11-1-.26-2.29-1.2-4.31-.45-6.56.29a49.3,49.3,0,0,0-19.3,12,9.3,9.3,0,0,1-3.51,2.55c-4.36,1.55-6.84,4.84-10.28,7.25h0c1.5-6.39-1-13.17-.8-20,0-1.37-1.12-2.42-3-2.54a4.15,4.15,0,0,0-4.24,2.11,8.78,8.78,0,0,0-.7,4.22c-.08,4.15.19,8.3-.17,12.44-.16,1.84-.25,3.89-3.65,3.9s-4-1.84-4-4c.26-11.15-1.82-22.25-1.11-33.42a28.65,28.65,0,0,0-.09-4.72c-.2-2-.85-3.74-4-3.8s-3.93,1.57-4.16,3.62a19.89,19.89,0,0,0-.1,3c.51,13.43-.66,26.84-.92,40.27,0,.14,1.1,1.23-.43.68-2.75-1-2.88,1-3.71,2-1.05,1.3-1.85,2.73-4.36,3.57-.54-5.13-1.16-10-1.67-15-.22-2.08-.65-4.3-3.9-4.39-3.64-.09-4.1,2.3-4.27,4.52a51.78,51.78,0,0,0,0,9c.45,4.55-4.11,6.89-7.28,9-3.94,2.6-9.23,3.88-11,8.23a2.84,2.84,0,0,1-2.14-1.62c-.45-.78-.63-1.64-1.11-2.41a4.19,4.19,0,0,0-3.79-2c-1.37,0-2.72.38-3,1.43-.51,1.89-2,2.55-3.8,3.72A30.86,30.86,0,0,1,1556,453.9c-2.16.41-3.67,1.37-5.32,3.74.67-8.07-1.43-15-1-22,.12-2.11-.63-4.13-4.05-4.14s-4.16,2-4.06,4.12c.35,7.45-.84,14.84-1.25,22.26-.15,2.79,2.34,7.93-5.88,5.4-.75-.23-1.6.54-2.22,1.06a4.64,4.64,0,0,1-3.67,1.48c-2.65-.26-4.15.83-5.71,2.48-2.7,2.85-6.62,3.1-10.31,1.08-3.35-1.84-5.92-1-6.51,2.79-.77,5-5.72,7.07-10,7.6-4.72.57-6.17,1.69-6.29,5.07a2.87,2.87,0,0,1-2.95,3.1c-2.29,0-2.72-1.66-3.07-3-1-4-.44-8-.51-12a22.52,22.52,0,0,0-1.5-8.46,3.13,3.13,0,0,0-3.16-1.94,3.22,3.22,0,0,0-3.24,1.86,14.17,14.17,0,0,0-1.29,4.59,100.63,100.63,0,0,0-.16,15.44c.33,6.07-1.95,11.22-7,15.75,0,.05-.16.29-.16.29s-.08-.26-.08-.2c-.06-1.67,1-4.07-2.15-4.46a5.58,5.58,0,0,0-5.69,3.22c-.34.66-.56,1.35-.84,2-.19.47-.43,1.44-1.18.92-4.13-2.89-3.66,1.49-5.8,2.32-2.39-3.46-4.58-2.57-6.64.3-1.54,2.14-4.43,3.26-6.37,5.12-1.75-4.16-3.58-4.55-7.55-1.5a5.29,5.29,0,0,1-2.58,1.38,8.21,8.21,0,0,0-7.06,5.73,2.29,2.29,0,0,0,.56,2.52h0c-1.08-.63-.73-1.55-1.25-2.17-1-2.74-3-4.78-6.41-2.6-2.28,1.45-2.78,1-4.36-.35s-3.37-1.11-5.3,0c-3.24,1.92-7.87.73-9.26-2.36a3.68,3.68,0,0,0-3.73-2.51c-2,0-3.35.73-3.94,2.32-.23.62-.19,1.48-1.66,1.59-.86-1.33-2.55-2.22-3.62-3.54a4.28,4.28,0,0,1-.67-2.45c0-10.78-1.74-21.51-1.14-32.31.12-2.22.44-4.62-2.19-6.29-4.07-1.28-5.72.36-6.08,3.31a87,87,0,0,0-.18,9.43c-.12,8.66.27,17.33-.34,27a10,10,0,0,0-1.74-2.71c-1.72-1.87-3.48-4.05-6.9-3s-2.89,3.57-2.21,5.88a3.11,3.11,0,0,1,.4,1.8,3.48,3.48,0,0,0-.21-1.16c-1.76-4.83-7.26-7-11.48-10-1.53-1.1-3.86-1.71-5.36.48-.1.15-.12.22.14.31.66.22-.83.38-.47,0a11.61,11.61,0,0,0,.92-7.27,3.19,3.19,0,0,0-3-3.1,4.67,4.67,0,0,0-4.89,1.93c-.91,1.29-.91,3.67-3.31,3.44-2.63-.25-1.84-2.76-2.69-4.23-.22-.38-.27-.83-.48-1.23-2.41-4.54-3.77-2.53-5.09.48-.06.13.29-.7,0-.17a14.42,14.42,0,0,0,.26-4.7c-.08-1.77-.34-3.81-2.79-4.22-4.44-.75-7.21-3.21-10.68-5-5.69-3-8.79-6.33-10.16-11.28-.26-1-.32-2.2-1.72-2.47-2-.4-2.69,1.21-3.8,2.16a9.54,9.54,0,0,0-1.11-5.47c-2.25-4.46-4.73-8.86-5.37-13.75-.28-2.09-.54-4.52-3.87-5.08s-3.93,2-5.44,3.44a5.58,5.58,0,0,0-1.36,1.83,4.91,4.91,0,0,0,0,.55c0-2,.16-4.09.29-6.15-.08-5.56.14-11.12-.14-16.67-.17-3.35-.9-6.41-5.43-8.14a8.41,8.41,0,0,1-5.49-6.9c-.77-4.21-1.31-9-5.21-11.88s-4.74-6.07-5.46-9.73c-.58-3-.87-5.95-1.75-8.86-.66-2.19-1.51-4.39-5.24-3.48-2.56.63-1.64-1-1.83-1.66-2.31-8.1-2.71-16.35-2.93-24.6a9.56,9.56,0,0,0-.43-2.19c-1.37-3.7-2.8-7.36-2.6-11.32a51.54,51.54,0,0,0-.63-11.55c-2.12-12.15-3.8-24.34-5-36.59-.58-6.14-.64-12.27-.89-18.4-.16-3.76-.53-7.5-5.56-9.53-1.9-.77-1.84-2.33-1.88-3.77-.57-18.84-2.76-37.64-2.2-56.52.18-6-1.3-11.95-1.3-18,0-1.78-.87-3.48-3.69-3.5a4.08,4.08,0,0,0-4.35,3.17,19.15,19.15,0,0,0-.41,5.55c0,18.44,0,36.88,0,55.32,0,5.83-1.51,11.56-1.56,17.47-2-2-4.41-3.61-5.39-5.89-3.17-7.42-4.3-15.23-6.69-22.82-2.17-6.89-1.46-14.2-1.33-21.35a15.21,15.21,0,0,0-.49-5.12,4,4,0,0,0-3.71-2.69,4.28,4.28,0,0,0-4.29,2,8.56,8.56,0,0,0-1.25,5.42c.22,8.29-.85,16.57-.72,24.86-1-4.18-3.15-8.25-3.23-12.54,0-1.1-1-2.12-1.78-3.09-2.34-3-6-2-9.26-1.77-3.07.2-4,2.18-4.14,4.33-.26,3,0,6-.16,9-.08,1.65.78,4.24-1.39,4.61-2.65.45-2.21-2.31-3-3.73-.22-.39-.32-.82-.52-1.22-.79-1.56-2.33-2.09-4.3-1.94s-3.27,1.07-3.19,2.44c.37,6.06-3,11.78-2.39,18.09-4.29-4.64-4.84-10.38-8.74-15a16.42,16.42,0,0,1-3.69-12.24c.19-2-1.09-3.65-4.14-3.58s-3.75,1.84-4,3.82c-.24,2.43,0,4.86-.15,7.29-.08,1.58.48,3.31-1.28,5-2.47-5.2-2.71-10.75-7.78-14.67-1-.76-.69-2.18-.79-3.32-.38-4.29-1.92-8.43-2.55-12.7-.2-1.39-.66-3.1-2.65-3.44-2.18-.38-3.49,1.1-4.77,2.31-2.34,2.21-.89,4.9-1.14,6.25.29-2.19-3.3-4.65-3-7.93.24-2.39-1.33-4.07-4.25-4.87-2.45-.67-4.25-2.11-3.95-4.13,1.27-8.55-6.23-15.35-7.12-23.45-.15-1.39-1.28-2.33-3.14-2.53-2-.22-3.54.32-4.41,3,.57-4.23-1.4-7.12-4.59-7.5-4.37-.51-5.35,2-6.17,4.67-.28.91-.08,1.89-.77,3,.73-9.56-1-18.79-1.42-28.05-1-1.79-.21-4-2.16-5.54a4.87,4.87,0,0,0-4.61.22,3.74,3.74,0,0,0-1.08,2.18,76.44,76.44,0,0,0-.95,16.59c-.35-1.59-1.33-2.86-4-2.93-3.85-.1-3.33,2.64-3.83,4.58-2.24-6.23-2-13-6.53-18.8,0-.69,0-1.39,0-2.08.35-3.57-.53-7.05-1.35-10.53a3,3,0,0,0-3.15-2.45c-2.17-.09-3.29,1-3.64,2.5-.23,1-.39,2-.53,3a41.21,41.21,0,0,0-1.08-9.13c-.47-2.47-1.92-3.9-5.38-3-3.21,2.3-1.11,5.35-1.81,8-.09.35.11.46.36.31.56-.36-.37.61-.37.24-.35-1,.15-2.11-1.24-2.58-3.16-.77-4.58.52-5.27,2.79a28.68,28.68,0,0,0-1,10.09,8,8,0,0,1,.24,2.6c-.55-2.27-.21-5.18-1.48-7.8-2.4-6.34-7.24-12-7.81-18.87-.18-2.2-1.17-4.45-4.67-4.36s-4.07,2.39-4.5,4.56c-.36,1.84-.07,3.71-.3,5.56-.34,2.83-3.55,3.24-5.9,3.5s-1.94-2-2.3-3.27a19.18,19.18,0,0,1-.36-4.69c-.07-2.71.24-5.43-.31-8.12-.36-1.76-1.56-2.86-3.93-2.88s-3.56,1.07-4,2.82a13.69,13.69,0,0,0-.32,3.41c0,9.71-.1,19.41.05,29.11-.34,4.78.88,9.62-.84,14.34a100.09,100.09,0,0,0-3.63,23.24c0-1.18.06-2.36,0-3.54a22.33,22.33,0,0,0-.24-5.56,3.21,3.21,0,0,0-3.44-2.75,4.1,4.1,0,0,0-4.1,2.28c-.94,1.91-.74,3.94-.74,5.93q0,24.42,0,48.85a39.77,39.77,0,0,1-2.33,12.59c-.75-4.34-2.25-8.45-3.26-12.63a3.4,3.4,0,0,0-3.81-3,4.05,4.05,0,0,0-4.1,2.87,17.78,17.78,0,0,0-.48,5.54c-.06,2.95.14,5.91-.05,8.85.26-5.18-1.27-10.3-1.43-15.46,0-1.53-1.3-2.67-3.5-2.66a4.12,4.12,0,0,0-4,2.37,8.75,8.75,0,0,0-.64,3.8c-.07,3.86.13,7.72-.08,11.57-.31,5.81-1.93,11.31-6.71,15.94-4.13,2.21-4,6.07-5.56,9.26a8.51,8.51,0,0,0-.42,3c.14,2.39,0,4.19-4.22,3.48-2.56-.43-3.84,1.18-4.19,3.09a6.35,6.35,0,0,0,.65,5c-3-1.63-5.54-1.44-7.17,1.51a15.59,15.59,0,0,0-3.79-6.64c-.63-.63-2.07-1.59-2.53-.61-1.28,2.8-4.27,4.82-5.39,7,1.3-3.65-.7-8-.69-12.35,0-2.05-1.14-3.65-4.2-3.55s-3.72,1.86-3.92,3.84-.07,4-.1,6c0,1.14.19,2.48-1.61,2.86-3.4.72-3.54,2.83-3.78,5a42.6,42.6,0,0,0-.31,6.7,2.57,2.57,0,0,0-2-1.18c-2.09-.38-4.68-.09-5.24,1.35-1.71,4.36-6.52,4.51-10.72,5.74-1.63-1.75-1.12-3.81-1.24-5.75-.15-2.57.15-5.15-.23-7.71-.29-1.94-1.47-3.21-4.16-3.15-2.41.05-3.46,1.24-3.8,3-.28,1.42-.11,2.86-.25,4.28-.91,9-1.24,17.93-1.33,26.9-.1-2-.56-3.82-3.61-4.09a4.67,4.67,0,0,0-5.35,3.35c-.49,1.38-.6,2.82-1,4.21-.79,2.81-.2,5.84-1.75,9.09-1.69-2.55-.76-4.79-1.52-6.83a4.09,4.09,0,0,0-4.12-2.86c-2.52-.06-3.31,1.32-3.74,3s-.27,3.65-1.86,5.64c-1.09-3.41-.24-6.57-.9-9.62a4.6,4.6,0,0,0-4.74-4c-2.74-.08-3.37,1.82-3.95,3.48-1,3-1.2,5.94-3.9,8.89-2.87,3.12-4.05,7.58-4,12.46l-.08.06c-.66-3.15-.08-6.51-4.41-6.89-5.06-.44-4.07,3.54-5,5.89s-.84,2.44-3.88,2.35a4.63,4.63,0,0,0-3.2,1.42,15.63,15.63,0,0,0-5.08,7.89c-.87,3.32-1.67,6.75-4.74,9.49a34.42,34.42,0,0,1-.72-10.68c.33-7-.61-14-1.2-21-.16-1.86-.25-4-3.46-4.09s-3.4,2.07-3.91,3.87a27.65,27.65,0,0,0-1,7.66c0,8,0,16,0,24,0,.66,0,1.32-.05,2-3.6,7.19-5.26,14.71-6.89,22.27-.3,0-.88-.83-1.71-1.32-5.49-3.27-8-2.6-9.86,2.6a68.45,68.45,0,0,0-2.43,8.74c-.32,1.53-.5,3.35-2.52,4-5.62,1.92-5.78,5.67-5.47,9.67-.05.4.24.88-.39,1.09a4.05,4.05,0,0,1-.48-.69c-1.24-1.85-3.27-2.2-5.46-1.42-2.67,1-1.84,2.93-1.61,4,0-.36-1-.75-1.83-1.24-2-1.21-3.85-2.82-6.69-1.85-2.55.87-2.79,2.82-2.92,4.7a7.71,7.71,0,0,1-1.78,4.43c-1.72,2.12-1.61,4.39-.56,6.65-1.09-1.88-3-1.8-4.95-1.29a2,2,0,0,0-1.06.61c.06-5.82-.69-11.65-.64-17.47,0-2.45,1.41-6.32-3.76-6.32s-4.48,3.82-4.44,6.57c.22,13.58-.36,27.14-1.12,40.7-.14,2.48-.17,5.06-2.89,6.63-3.18,1.83-5.72,3.8-6.16,7.11a2.39,2.39,0,0,1-2.73,1.7c-3.49-.44-5.5,3.44-9.48,1.82-1.11-.45-2.3,1-2.95,2.11s0,2.31-1.94,3.07a8.4,8.4,0,0,0-6.92-4.76c-4.45-.49-4.24,3.75-7.34,4.77-2-2.86-1.63-5.75-1.83-8.58-.17-2.49.52-6-3.9-6.06-4.9-.12-4.26,3.5-4.36,6.11-.24,6.42-1.44,12.8-1.25,19.25.09,3.17-2.75,4.81-5.75,3.92-5.76-1.7-7.73-.9-9.46,3.72-.44,1.18-.14,2.58-1.41,3.57-1.57-.42-1.51-1.53-1.64-2.45-.31-2.28,0-4.57-.2-6.86s-.4-4.53-4.2-4.47-3.94,2.43-4,4.62c-.07,1.75-.09,3.49-.12,5.2,0-1.11-.46-2.12-2.44-2.66-3.8-1-6,.89-7.75,3.28-2.1,2.89-5,1.07-7.67.83s-2.68-1.95-2.75-3.53c-.27-5.56.61-11.16-.65-16.69-.5-2.19-.66-4.91-4.73-4.77s-3.83,2.82-4,5.08c-.42,5-1.43,9.93-1.17,15,.11,2.11-5.2,6.9-7.94,7.31-3.75.55-4-2.23-5.46-3.88-1.14-1.31-2.16-2.89-4.62-1.7-4,2-8.14-1.65-12.15.14-5.55-3.26-13.16-1-18.68-4.43-.77-.48-2.09-.1-3.15,0-7.39,1.07-11.45-1.34-11.54-7.17a86.21,86.21,0,0,0-1.34-11.52,3.2,3.2,0,0,0-3.62-3.06,4,4,0,0,0-4.12,2.84,18.24,18.24,0,0,0-.43,4.69c-.14,2.2.5,4.49-.88,7.18-1.84-2.21-4.33-3-6.36-4.23-3.34-2-4.25-.54-5.37,1.53-.74,1.36-.44,3.17-2.89,4.09-1.4-1.76-1.32-3.83-2-5.68-.57-1.46-1.39-2.68-3.59-2.69a4,4,0,0,0-4.21,2.75,5.16,5.16,0,0,0-.37,2.55c.42,2.71-1.31,4.28-4.16,5.33a16.78,16.78,0,0,1-3.72,2.14c-3.38,1-7,1.28-10.46,1.91-2.29.41-4.4.14-5.88-1.32-2.77-2.75-5.15-3.13-7.74.18s-7.51,1.29-11,3c-1.18.59-2.31-2.76-3.33-4.38a3.7,3.7,0,0,0-3.39-1.79A3.75,3.75,0,0,0,469,464c-.7,1.39-.49,3.1-2.83,3.86-8.12,2.64-16.65,3.75-25.24,4.84-4.34.55-9.2-3.51-13.07,1-.29.34-1.39-.13-1.79-.63-3.1-3.93-4.44-1.4-5.9,1a12.1,12.1,0,0,1-3,3c-2.07,1.6-4.06,2.49-6-.19-.44-.62-15-3.37-15.78-3-7.38,3.73-15,.44-22.36.14-3.46-.14-6.82-.55-9.78.71A35,35,0,0,1,351.34,477c-5.83.35-12-2.86-13.76-7.42-1-2.48-2.33-4.62-5.73-5.14-3.72-.57-6.2-1.86-6.6-5.13A2.33,2.33,0,0,0,323,457.2a3.27,3.27,0,0,0-2.85,1.72,15,15,0,0,0-3.24,9,9.38,9.38,0,0,1-1,5.05c-2,3.33-4.93,3.61-7.56.63-2.07-2.35-3.69-5.17-8-2a5,5,0,0,1-3.6.52c-2.76-.8-4.2.28-5.84,1.85-3.53,3.37-8.55,3.58-13.35,2.85-4.19-.64-9.84-.19-10.14-5.67-.07-1.25-1.65-1.78-3.22-1.83s-3.31.19-3.56,1.42c-1.09,5.33-7,6.43-11.56,8.72a5.77,5.77,0,0,1-4.57.26c-8.09-2.45-8.5-2.32-14.09,2.88a36.28,36.28,0,0,0-5,5.06c-3.17,4.41-10.11,5.76-16.87,3.12-3.44-1.34-7.38-2.11-10,.13-3.15,2.67-7,3.19-10.89,4.16-3.71.93-8.19.7-11.22,1.87-5.61,2.17-11.63,2.64-17.27,4.33-3.94,1.17-7.74,1.68-9.7-2.51-.63-1.34-2.72-2.38-3.61-.8-2,3.47-5.85,2.61-9.07,3.45-5.19,1.36-10.81,2-15.09,5.07-1,.72-2.09,1.19-3.13-.07-.91-1.11-1.24-3.14-3.48-2.63-2.07.47-2.22,2.43-2.77,3.92a9.41,9.41,0,0,1-.85,2,2.81,2.81,0,0,1-2.38,1.54c-1.48,0-1.39-1.08-1.65-1.87a16.32,16.32,0,0,1-.73-6.39c.5-6.46-.81-12.83-1.21-19.25-.11-1.71-.85-3.16-3.4-3.2A3.92,3.92,0,0,0,98,483.27a12,12,0,0,0-.36,3.84c0,7.15,0,14.31,0,21.46,0,8.54.46,10.2-12.49,14.6a7,7,0,0,0-1.33.64A4.86,4.86,0,0,0,82.4,526a2.4,2.4,0,0,0,.26,1.84,2.9,2.9,0,0,0,.91.8l-.39.23v242H1821.75v-345l-.16-.15C1822.5,425,1823.19,424.18,1822.17,423.07Z"/><path class="cls-4" d="M1821.95,517.91c.19-.24.36-.49.51-.73,1.68-2.7-2.55-1.7-3.7-2.83-3.25-3.2-2.26,2.94-4.88,1.54a7.32,7.32,0,0,0-4.25-1.62c-4.07-.36-7.94-4.16-12.27-.42-.28.24-1.17,0-1.41-.38-2-2.94-5.36-.95-8-1.51-4.91-1.07-3.94,2.93-6.53,4.19a68.05,68.05,0,0,1-1.82-13.62c0-1.91-.54-4-3.58-4.08s-4.43,1.79-4.34,4c.21,5.17-1.31,10.26-1.11,15.39.13,3.15-1.36,3.48-4.7,3.17a40.39,40.39,0,0,0-13.46.72c-4.92,1.24-9.72,2.81-15,2.53-7.86-.42-15.67.34-23.43,1-5.94.49-7.79.12-9.77-4.39-1-2.2-.84-4.51-.87-6.8,0-2.71.23-5.45-.72-8.11-.59-1.66-1-3.52-3.89-3.5s-3.23,1.88-3.76,3.56c-1.47,4.65-.78,9.4-.85,14.1,0,3.16.72,6.56-5.68,5.8-1.34-.16-2.51,1-3.79,1.5-4.91,1.88-8.43,1.22-11.45-2.34-1.88-2.21-3.35-1.41-4.08.39-.91,2.26-2.54,3-5.36,3.38-3,.36-5.67,1.72-8.51,2.6a22.45,22.45,0,0,1-9.46,1.14c-4-.5-8-3-11.88.4-.54.47-2.09.06-3.11-.22a18.82,18.82,0,0,0-10.53.56c-3,.91-6,1.67-9.16,2.29-3.76.75-7.85,1.23-8.79,5.23-.29,1.24-2.14,1.49-3.56,1.56a19.84,19.84,0,0,0-8.24,2.25c-1.46-1.33-1-2.68-1.15-3.93-.4-4.27-1.27-8.51-1.24-12.82,0-1.94-1.21-3.29-3.94-3.28s-3.72,1.38-3.95,3.31a16.49,16.49,0,0,0-.11,2.57,120.29,120.29,0,0,1-1.07,19.69c-.23,1.8-.37,3.51-3.16,3.89-4.17.56-7.59,2.76-12.07,3a11.77,11.77,0,0,0-9,4.87c-1,2-4.31,1.43-5.54,3.17-.2.23-.38.55-.67.66-4.88,1.82-9.52,4.38-14.19,6-5.49,1.84-9.08,4.66-12.82,7.75-1.88,1.56-3.74,4-6.19,3.78-7.22-.57-10.93,4.43-16.72,6.06-2.67.75-6.44.77-7.91,3.18-2.17,3.54-5.82,4.27-10.15,4.3-1.25,0-2.71-.07-3.6.64-6.11,4.89-14.62,6.51-21.59,10.2-2.41,1.27-4.22,2-7.08.23-3.09-1.93-5.65-.89-6.83,2.11-.32.82-.45,1.68-.74,2.5-.39,1.08-.56,2.5-2.34,2.54-2.12,0-1.65-1.55-1.93-2.56-.42-1.53-.69-3.09-1.09-4.63-.48-1.85-2-2.62-4.28-2.48s-3.12,1.21-3.41,2.79a53.8,53.8,0,0,0-.25,6c-.39,5.42-6.41,9.28-12.89,8-2.89-.59-4.82-.75-5.66,2-.59,1.88-2.21,2.44-4.52,2a10.3,10.3,0,0,0-4.35.28c.47-4-1.2-7.93-1-11.94.08-2-.67-3.78-3.78-3.86-3.42-.08-4.15,1.81-4.2,4a85.66,85.66,0,0,1-1,12.8c-1,5.64-.75,5.67-7.73,6.83a13.87,13.87,0,0,0-3.8.7c-1.61.9-3.11,2.21-5.1,2.27-4.65.14-8.45,2.07-12.61,3.29-3.92,1.15-7.91,3-12.34,1a2.69,2.69,0,0,0-2.86.75c-1.87,1.77-4.19,2-6.81,1.54a6.2,6.2,0,0,0-3.64.47,29.4,29.4,0,0,1-13.9,2.69c-4.85-.33-8.87-.21-12.85,1.93l-.18.11s-.07-.07-.33-.1a52.94,52.94,0,0,0-14.89,1c-4.7.85-8.29-.12-10.73-3.8-2-3-3.41-2.93-5.22.27-2,3.59-5,5-9.81,4.08a6.28,6.28,0,0,0-2.65.19c-6.78,1.59-13.84.86-20.71,1.16-8.79.38-17.56,1.58-26.6.47-6.81-.84-14,1-21.09.82-3.76-.07-6.44-.28-8.54-3.06-2-2.59-3.6-2.37-4.92.55-.84,1.84-1.43,4-4.48,3.28-7.6-1.76-15.8,1.06-23.2-2.09a5.41,5.41,0,0,0-4.62.38c-2.39,1.3-5.09,1.09-7.79,1.06-5.7-.05-10.74-3.67-16.82-1.92-.79.23-2-.58-3-.9a7.3,7.3,0,0,0-3.12-.5,80,80,0,0,1-21.53-.51l-23-5.33-30.57-7a7.69,7.69,0,0,1-1.13-1.16c-1.29-1.67-3-1.94-5.43-2s-4.88,0-7.3,0l-6.47-1.48-12-3.79a25.86,25.86,0,0,0-9.76-3.08l-8-2.51a7.07,7.07,0,0,1-1.43-2c-.75-1.6-2.33-3-4.16-.67a3.82,3.82,0,0,1-.74.71l-3.19-1-3.93-1.35a10.71,10.71,0,0,1-4.68-9.13c0-1.7-.94-3.08-3.43-3.23s-4.4.85-4.19,2.92-1.75,1.67-3,2.12c-2,.72-2.92-.28-3.65-1.57-.64-1.14-1.05-3.08-2.74-2.85-3.56.5-7-1-10.52.09-1.74-.6-2.31-1.91-2.93-3.18-1-1.5-1.68-3.26-4.62-2.74-3.9.69-6.83-.7-9.58-2.76-3.06-2.29-6.38-3.16-10.11.38-.43-3-2.61-3.79-5.52-4.28a35.36,35.36,0,0,1-9.13-2.41c-1.05-.49-2.41-1.2-3.51-.5-3.55,2.25-5.09.14-6.67-1.82-2.07-2.57-4.9-3.36-8.3-2.13a8.57,8.57,0,0,1-7.11-.69c-2.43-1.26-5.22-1.87-7.62-3.11-1-.52-2.39-1.39-3.27-.22-1.95,2.59-5,.62-7.29,1.36-3.95,1.27-4.94-1.1-6.34-3.06-.36-.5-1.1-1.25-1.5-1.13-5.32,1.65-10.78-.93-15.75.11-3.07.64-5.37.37-6.44-1.18-2.31-3.34-5.91-3.66-9.82-3.77a11.75,11.75,0,0,1-5.52-1.39c-1.57-.87-4-1.31-5-.39-2.53,2.21-6.39,3-8.75,5.3-.59-.43-.41-1.21-.62-1.88-.39-1.26-.67-2.71-2.5-3-2.18-.39-3.07,1.16-4.08,2.29a15.8,15.8,0,0,0-3.62,7.54c-.28,1.34-1.07,2.28-2.89,1.25-5.83-3.29-12.5-2.43-18-.62-6.07,2-12.92,1.53-18.66,4.07H750.8l-3.95-.75c-3.55-1.23-7.4-1.82-10.8-3.11-5.52-2.08-11.16-5-16.88-4.35-8.93,1-16.45-2.27-24.46-3.63-6.27-1.06-12.56-2-18.89-2.65-2.84-.3-4.66-1.09-5.69-3.2-.71-1.45-1.27-3.23-3.42-3.6-2.78-.48-1.84,2.45-3.75,3-1.85-.48-3.2-1.77-5.09-2.24-2.63-.65-4.88-2.91-8-1.59-3.36,1.44-4.92-.16-6.5-2-1.55-1.25-4.87.21-5.59-2.31-1-2.38-1.81-5-6.09-2.57a3.66,3.66,0,0,1-3.55-.29,11.3,11.3,0,0,0-7.1-1.35c-9.84.9-14.9-5.58-21.84-9.1-1.52-.77-2-2.65-2.13-4.27a18.21,18.21,0,0,0-.24-3c-.56-2.19-.53-5-4.4-5.06-3.52-.09-4.06,2.33-4.48,4.5-.45,2.33-1.46,2.59-3.78,1.06-3-2-5.55-6.34-10.53-2a.63.63,0,0,1-.51,0c-3.57-2.39-9.36-1.13-12.2-4.72-2.06-2.61-3.22-1.59-4.71.52-3,4.3-11.13,4.16-14.08-.21-1.27-1.88-2.8-3.54-5.55-3.54-4.23,0-7-2.09-9.53-4.14a25.77,25.77,0,0,0-9-4.48c-1.06-.48-1.9-1.36-3.34-1.08-5.34.08-10.74,1.14-15.93-.88a30.93,30.93,0,0,0-8.34-1.54,6.22,6.22,0,0,0-5.15,1.8c-3.62,3.47-6.63,3.16-9.28-.93a3.58,3.58,0,0,0-3.41-1.69c-6.28.31-12.34-1-18.21-2.26-3.76-.83-5.89-.36-7.58,2-1.54,2.15-3.8,2.7-6.36,2-6.71-1.85-12.13,1.26-17.19,3.43-8.86,3.8-9.5,4.08-13.7-2.84-.61-1-1.06-2.4-2.79-2.26-1.4.11-1.52,1.43-2,2.33-.59,1.18-.21,3-3.26,2.23-7.18-1.89-14.46-2.6-21.74-.16a26.4,26.4,0,0,1-3.15.45c-7.22,1.46-14.92,0-22,2.88-3.08,1.26-7.5,1-10-2.21a3.48,3.48,0,0,0-4.1-1.19,7.65,7.65,0,0,1-4.68-.44,43.05,43.05,0,0,0-18.87-1.56c-3.71.44-6.44,0-9.39-1.81-3.87-2.41-8.32-3.92-13.48-2.66-1.38.34-3,.85-4.14,0-3.27-2.44-5-.74-7.31,1.14-5,4.1-5.16,4-10.31-.11-.51-.4-.95-.86-1.44-1.28-2.39-2-5-1.8-7.74-.51-7.58,3.53-15.09,7.4-24.42,3.8a2.32,2.32,0,0,0-1.58-.08c-4.74,2.11-10.55,1.65-15.16,3.91a9,9,0,0,1-7.46.51c-5.41-1.71-10.9-3-17-1.36-2.78.76-5.83.94-8.57,2.11-2.36,1-4.79,1-6.71-1-.76-.78-2.14-1.61-3.14-.48-1.89,2.14-5.07,2.62-7.57,3.85a43.59,43.59,0,0,1-19.1,4.87c-5.34,0-10.86-2.32-15.65,1.62-.8.66-2.78.23-4.2.12a27.21,27.21,0,0,0-7,.19c-3,.53-5.66.37-7.91-1.53-.85-.72-2.25-1.65-3.21-.66-2.68,2.77-6,1.8-9.32,1.46-2.59-.27-5.22,0-7.11,1.37-3.78,2.81-8.34,3.73-13.21,4.16a3.89,3.89,0,0,0-2.5,1.48,8.22,8.22,0,0,0,.05,3.24,2.66,2.66,0,0,0,.71.84l.63,228.11H1821l2-255.36Z"/><text class="cls-5" transform="translate(80.47 844.37)">9AM ET 11.08.2016</text><text class="cls-5" transform="translate(1532.75 837.63)">11AM ET 11.09.2016</text><text class="cls-5" transform="translate(1674.75 128.63)">Baseline</text><rect class="cls-4" x="1628" y="101.91" width="31.4" height="31.4"/><text class="cls-5" transform="translate(1674.75 72.63)">Election</text><rect class="cls-3" x="1628" y="45.91" width="31.4" height="31.4"/></svg>