<?xml version="1.0" encoding="utf-8"?>
<svg version="1.1" id="Layer_1" xmlns="http://www.w3.org/2000/svg" xmlns:xlink="http://www.w3.org/1999/xlink" x="0px" y="0px"
	 viewBox="0 114 640 251.3" enable-background="new 0 114 640 251.3" xml:space="preserve">
<g>
	<polygon fill="#FFFFFF" points="432.2,146.5 432.2,304.2 479.6,304.2 479.6,280.1 463.9,280.1 463.9,122.5 432.2,122.5 	"/>
	<path fill="#FFFFFF" d="M20.9,280.1H37V204H20.9v-20.9l16.1-2.7v-21.2c0-25.7,5.6-36.8,38.3-36.8c7.1,0,15.4,1,22.8,2.4l-4.3,25.8
		c-5-0.8-7.4-0.9-10.6-0.9c-11.5,0-14.5,1.2-14.5,12.4v18.4h23.9V204H68.8v76.1h15.9v24.1H20.9L20.9,280.1z"/>
	<path fill="#FFFFFF" d="M416.1,272.5c-4.9,1-9.3,0.9-12.4,1c-13,0.3-11.9-4-11.9-16.3V204h24.8v-23.6h-24.9v-58H360v141.3
		c0,27.7,6.9,40.4,36.7,40.4c7.1,0,16.8-1.8,24.1-3.4L416.1,272.5z"/>
	<path fill="#FFFFFF" d="M613.1,280.2c6.7,0,12.1,5.3,12.1,12c0,6.7-5.4,11.9-12.1,11.9c-6.7,0-12-5.3-12-11.9
		S606.4,280.2,613.1,280.2 M613.1,302.3c5.5,0,10-4.5,10-10.1c0-5.5-4.5-10-10-10c-5.5,0-10,4.4-10,10
		C603.1,297.7,607.6,302.3,613.1,302.3 M615.3,298.1l-2.4-3.6h-1.7v3.6h-2.7v-11.8h4.9c2.9,0,4.7,1.5,4.7,4.1c0,1.9-1,3.2-2.5,3.7
		l2.9,4L615.3,298.1L615.3,298.1z M611.2,292.2h2.1c1.2,0,2.1-0.5,2.1-1.8c0-1.2-0.8-1.7-2-1.7h-2.2L611.2,292.2L611.2,292.2z"/>
	<path fill="#FFFFFF" d="M320.4,204v-4.2c-9.6-1.8-19.1-1.8-24.3-1.8c-14.8,0-16.6,7.8-16.6,12.1c0,6,2.1,9.2,18.1,12.7
		c23.4,5.2,46.8,10.7,46.8,39.7c0,27.5-14.2,41.7-43.9,41.7c-19.9,0-39.2-4.3-54-8v-23.7h24v4.2c10.3,2,21.2,1.8,26.8,1.8
		c15.7,0,18.3-8.5,18.3-13c0-6.3-4.5-9.2-19.3-12.2c-27.8-4.8-49.9-14.2-49.9-42.5c0-26.7,17.9-37.2,47.7-37.2
		c20.2,0,35.5,3.1,50.3,6.9v23.5L320.4,204L320.4,204z"/>
	<path fill="#FFFFFF" d="M174.5,224.8l-2.4-2.4l-12.2,10.7c-0.6-0.2-1.3-0.3-2-0.3c-3.3,0-6,2.8-6,6.1c0,3.4,2.7,6.1,6,6.1
		c3.3,0,6-2.8,6-6.1c0-0.6-0.1-1.3-0.3-1.8L174.5,224.8z"/>
	<path fill="#FFFFFF" d="M223,272.5l0-98.7h-31.7v9.2c-6.5-3.9-13.8-6.7-21.6-8.2h0.2v-10.9h3.9v-8.1h-31.9v8.1h3.9v10.9h0.2
		c-30.3,5.6-53.3,32.1-53.3,64.1c0,36,29.2,65.2,65.2,65.2c12.3,0,23.8-3.4,33.6-9.3l5.7,9.3h33.5v-31.7L223,272.5L223,272.5z
		 M159.7,272.4v-3.7h-3.8v3.7c-17-1-30.6-14.7-31.5-31.7h3.8v-3.8h-3.7c1-16.9,14.6-30.5,31.5-31.5v3.7h3.8v-3.7
		c16.7,0.9,30.1,14,31.6,30.5v1.1h-3.8v3.8h3.8v1C189.9,258.4,176.4,271.5,159.7,272.4z"/>
	<path fill="#FFFFFF" d="M559.9,180.5h65.4V204h-15.7l-40.1,98.7c-11.5,27.7-30.4,53.8-59.1,53.8c-7.1,0-16.5-0.8-23-2.4l2.9-28.8
		c4.2,0.8,9.7,1.3,12.5,1.3c13.3,0,28.4-8.3,33.1-22.7l-40.7-100h-15.7v-23.6H545V204h-15.6l23,56.7l0,0l23-56.7h-15.6V180.5z"/>
</g>
</svg>
