<svg id="Layer_1" data-name="Layer 1" xmlns="http://www.w3.org/2000/svg" viewBox="0 0 1809.18 849.08"><defs><style>.cls-1{fill:#cdebf8;fill-opacity:0.5;stroke:#0071bc;}.cls-1,.cls-2{stroke-miterlimit:10;}.cls-2{fill:none;stroke:#29abe2;stroke-width:0.5px;}.cls-3{font-size:31.01px;fill:#0071bc;font-family:HelveticaNeue, Helvetica Neue;}.cls-4{font-size:66.06px;fill:#29abe2;font-family:Raleway-Bold, Raleway;font-weight:700;}.cls-5{letter-spacing:0em;}</style></defs><title>Artboard 2</title><path class="cls-1" d="M87.87,743.4H523l21.18-21.18L563.41,81.11l17.33,181L615.39,497l5.78,52,13.48,48.13,25,65.46,40.43,30.8,13.48,3.85,19.25,19.25,32.73,3.85h27l34.65-11.55,36.58,13.48,25-5.78,48.13,7.7,27-1.93L985,712.6l13.48-19.25,23.1,15.4H1037l40.43,15.4,55.83,3.85,19.25-3.85,17.33-34.65,38.51,32.73,19.25-9.63,21.18-30.8L1268,724.15l32.73,7.7s17.33-3.85,23.1-3.85,34.65-3.85,34.65-3.85l23.1,7.7,34.65-1.93,23.1,1.93h34.65L1493.3,728l19.25-50.06,21.18,30.8,17.33,15.4,50.06,3.85,21.18-5.78,48.13,9.63h125.14v17.33H87.87Z"/><rect class="cls-2" x="88.32" y="19.29" width="1705.13" height="732.9"/><line class="cls-2" x1="331.38" y1="19.29" x2="331.38" y2="752.19"/><line class="cls-2" x1="577.12" y1="19.29" x2="577.12" y2="752.19"/><line class="cls-2" x1="817.98" y1="19.29" x2="817.98" y2="752.19"/><line class="cls-2" x1="1058.83" y1="19.29" x2="1058.83" y2="752.19"/><line class="cls-2" x1="1304.58" y1="19.29" x2="1304.58" y2="752.19"/><line class="cls-2" x1="1550.33" y1="19.29" x2="1550.33" y2="752.19"/><line class="cls-2" x1="88.32" y1="265.09" x2="1793.45" y2="265.09"/><line class="cls-2" x1="88.32" y1="499.67" x2="1793.45" y2="499.67"/><text class="cls-3" transform="translate(88.32 830.03)">SEPT 26 8:00PM ET</text><text class="cls-3" transform="translate(1500.92 823.29)">SEPT 26 11:00PM ET</text><text class="cls-4" transform="translate(845.54 838.13)">Time</text><text class="cls-4" transform="translate(58.84 530.22) rotate(-90)">Reque<tspan class="cls-5" x="206.63" y="0">s</tspan><tspan x="239.99" y="0">ts</tspan></text></svg>