<svg id="Layer_1" data-name="Layer 1" xmlns="http://www.w3.org/2000/svg" viewBox="0 0 1809.18 849.08">
  <defs>
    <style>.cls-1{fill:#cdebf8;fill-opacity:0.5;stroke:#0071bc;}.cls-1,.cls-2{stroke-miterlimit:10;}.cls-2{fill:none;stroke:#29abe2;stroke-width:0.5px;}.cls-3{font-size:31.01px;fill:#0071bc;font-family:HelveticaNeue, Helvetica Neue;}.cls-4{fill:#29abe2;}</style>
  </defs>
  <path class="cls-1" d="M87.87,743.4H523l21.18-21.18L563.41,81.11l17.33,181L615.39,497l5.78,52,13.48,48.13,25,65.46,40.43,30.8,13.48,3.85,19.25,19.25,32.73,3.85h27l34.65-11.55,36.58,13.48,25-5.78,48.13,7.7,27-1.93L985,712.6l13.48-19.25,23.1,15.4H1037l40.43,15.4,55.83,3.85,19.25-3.85,17.33-34.65,38.51,32.73,19.25-9.63,21.18-30.8L1268,724.15l32.73,7.7s17.33-3.85,23.1-3.85,34.65-3.85,34.65-3.85l23.1,7.7,34.65-1.93,23.1,1.93h34.65L1493.3,728l19.25-50.06,21.18,30.8,17.33,15.4,50.06,3.85,21.18-5.78,48.13,9.63h125.14v17.33H87.87Z"/>
  <rect class="cls-2" x="88.32" y="19.29" width="1705.13" height="732.9"/>
  <line class="cls-2" x1="331.38" y1="19.29" x2="331.38" y2="752.19"/>
  <line class="cls-2" x1="577.12" y1="19.29" x2="577.12" y2="752.19"/>
  <line class="cls-2" x1="817.98" y1="19.29" x2="817.98" y2="752.19"/>
  <line class="cls-2" x1="1058.83" y1="19.29" x2="1058.83" y2="752.19"/>
  <line class="cls-2" x1="1304.58" y1="19.29" x2="1304.58" y2="752.19"/>
  <line class="cls-2" x1="1550.33" y1="19.29" x2="1550.33" y2="752.19"/>
  <line class="cls-2" x1="88.32" y1="265.09" x2="1793.45" y2="265.09"/>
  <line class="cls-2" x1="88.32" y1="499.67" x2="1793.45" y2="499.67"/>
  <text class="cls-3" transform="translate(88.32 830.03)">SEPT 26 8:00PM ET</text>
  <text class="cls-3" transform="translate(1500.92 823.29)">SEPT 26 11:00PM ET</text>
  <path class="cls-4" d="M885.5,799.22H870.57v38.91h-9.12V799.22h-15v-8h39Z"/>
  <path class="cls-4" d="M890.46,798.69v-8.79h8.85v8.79Zm0,39.44V803.52h8.85v34.61Z"/>
  <path class="cls-4" d="M960.94,838.13h-8.85V818.71q0-4.16-1.45-6.08a4.71,4.71,0,0,0-4-1.92,7.35,7.35,0,0,0-4.89,2,11.1,11.1,0,0,0-3.3,5.25v20.15h-8.85V818.71q0-4.16-1.42-6.08a4.62,4.62,0,0,0-3.93-1.92,7.53,7.53,0,0,0-4.92,2,10.77,10.77,0,0,0-3.34,5.22v20.21h-8.85V803.52h8v6.41a13.22,13.22,0,0,1,5.25-5.19,15.69,15.69,0,0,1,7.63-1.82q4.36,0,6.71,2.11a9.92,9.92,0,0,1,3.07,5.22,14.94,14.94,0,0,1,5.35-5.45,14.44,14.44,0,0,1,7.4-1.88,10.29,10.29,0,0,1,5.22,1.19,8.61,8.61,0,0,1,3.17,3.1,13,13,0,0,1,1.55,4.36,28.69,28.69,0,0,1,.43,5Z"/>
  <path class="cls-4" d="M984.65,838.79a19.2,19.2,0,0,1-7.53-1.42,17,17,0,0,1-9.41-9.55,18.22,18.22,0,0,1-1.29-6.8,19.26,19.26,0,0,1,1.26-7,17,17,0,0,1,3.63-5.75,17.35,17.35,0,0,1,5.78-3.93,19.25,19.25,0,0,1,7.63-1.45,18.77,18.77,0,0,1,7.56,1.45,17.41,17.41,0,0,1,5.68,3.9,16.6,16.6,0,0,1,3.57,5.68,18.93,18.93,0,0,1,1.22,6.74q0,.86,0,1.65a6.7,6.7,0,0,1-.16,1.32H975.8a10.29,10.29,0,0,0,1,3.63,8.9,8.9,0,0,0,4.89,4.43,9.32,9.32,0,0,0,3.3.59,10.21,10.21,0,0,0,5-1.29,6.82,6.82,0,0,0,3.2-3.4l7.6,2.11a15.44,15.44,0,0,1-6.11,6.51A18.94,18.94,0,0,1,984.65,838.79Zm9-20.87a9.21,9.21,0,0,0-2.87-6.24,9.27,9.27,0,0,0-9.51-1.72,8.7,8.7,0,0,0-2.74,1.75,9.07,9.07,0,0,0-1.95,2.71,9.53,9.53,0,0,0-.89,3.5Z"/>
  <path class="cls-4" d="M58.84,525.34H11.94V504.59a13.34,13.34,0,0,1,1.35-6,15.49,15.49,0,0,1,3.57-4.72,16.86,16.86,0,0,1,5-3.1,15.12,15.12,0,0,1,5.65-1.12,15.6,15.6,0,0,1,8.29,2.28,13.07,13.07,0,0,1,5.38,6.18l17.64-11v10.31l-15.72,9.84v9H58.84Zm-23.71-9.12V504.79a4.82,4.82,0,0,0-.6-2.34,6,6,0,0,0-1.62-1.88,8.08,8.08,0,0,0-2.41-1.25,9.36,9.36,0,0,0-3-.46,8.48,8.48,0,0,0-3,.53,8,8,0,0,0-2.41,1.42,6.44,6.44,0,0,0-1.59,2,5.34,5.34,0,0,0-.56,2.35v11Z"/>
  <path class="cls-4" d="M59.5,465.62a19.21,19.21,0,0,1-1.42,7.53,17,17,0,0,1-9.55,9.41,18.23,18.23,0,0,1-6.8,1.29,19.26,19.26,0,0,1-7-1.26A17,17,0,0,1,29,479a17.35,17.35,0,0,1-3.93-5.78,19.24,19.24,0,0,1-1.45-7.63A18.77,18.77,0,0,1,25.08,458a17.41,17.41,0,0,1,3.9-5.68,16.61,16.61,0,0,1,5.68-3.57,18.93,18.93,0,0,1,6.74-1.22q.86,0,1.65,0a6.77,6.77,0,0,1,1.32.17v26.75a10.26,10.26,0,0,0,3.63-1,8.89,8.89,0,0,0,4.43-4.89,9.33,9.33,0,0,0,.59-3.3,10.21,10.21,0,0,0-1.29-5,6.82,6.82,0,0,0-3.4-3.2l2.11-7.6A15.45,15.45,0,0,1,57,455.61,18.94,18.94,0,0,1,59.5,465.62Zm-20.87-9a9.21,9.21,0,0,0-6.24,2.87,9,9,0,0,0,0,12.25,9.06,9.06,0,0,0,2.71,1.95,9.53,9.53,0,0,0,3.5.89Z"/>
  <path class="cls-4" d="M59.5,429a13.14,13.14,0,0,1-1.42,6.08,15,15,0,0,1-3.87,4.79A18.14,18.14,0,0,1,48.5,443a21.51,21.51,0,0,1-7,1.12,19.65,19.65,0,0,1-7-1.22,17.59,17.59,0,0,1-5.65-3.4,16,16,0,0,1-3.8-5.15A15,15,0,0,1,23.63,428a13.38,13.38,0,0,1,1.82-7,14.94,14.94,0,0,1,4.79-5h-6v-7.73h38a3,3,0,0,0,2-.53,2.67,2.67,0,0,0,.63-1.85h7.53a24.3,24.3,0,0,1,.3,2.51q.1,1.39.1,2.38a6.43,6.43,0,0,1-1.68,4.49,5.59,5.59,0,0,1-4.33,1.85H52.76a12.89,12.89,0,0,1,5.05,5A14.06,14.06,0,0,1,59.5,429ZM52,425.72a8,8,0,0,0-1.58-5,14.28,14.28,0,0,0-4.1-3.63H38.1a8.52,8.52,0,0,0-2.71,1.29,11.06,11.06,0,0,0-2.21,2.08,9.48,9.48,0,0,0-1.49,2.58,7.76,7.76,0,0,0-.53,2.77,8.1,8.1,0,0,0,.86,3.73,9,9,0,0,0,2.35,2.91,11.42,11.42,0,0,0,3.4,1.92,11.56,11.56,0,0,0,4,.69,11.38,11.38,0,0,0,4-.69A10.3,10.3,0,0,0,49,432.49a8.73,8.73,0,0,0,2.18-2.94A9,9,0,0,0,52,425.72Z"/>
  <path class="cls-4" d="M59.5,389.79q0,5.35-3.44,8.13t-10.17,2.77H24.22v-8.85H44q8,0,8-5.75A9.2,9.2,0,0,0,50.42,381a11.15,11.15,0,0,0-4.72-3.93H24.22v-8.85H48.66a3,3,0,0,0,2-.53,2.56,2.56,0,0,0,.66-1.85h7.53q.26,1.39.36,2.44t.1,1.85a5.79,5.79,0,0,1-1.09,3.73,4.73,4.73,0,0,1-3,1.68l-2.84.2a15.28,15.28,0,0,1,5.35,6A17.84,17.84,0,0,1,59.5,389.79Z"/>
  <path class="cls-4" d="M59.5,343.15a19.21,19.21,0,0,1-1.42,7.53,17,17,0,0,1-9.55,9.41,18.23,18.23,0,0,1-6.8,1.29,19.26,19.26,0,0,1-7-1.26A17,17,0,0,1,29,356.49a17.35,17.35,0,0,1-3.93-5.78,19.24,19.24,0,0,1-1.45-7.63,18.77,18.77,0,0,1,1.45-7.56,17.41,17.41,0,0,1,3.9-5.68,16.61,16.61,0,0,1,5.68-3.57A18.93,18.93,0,0,1,41.4,325q.86,0,1.65,0a6.77,6.77,0,0,1,1.32.17V352A10.26,10.26,0,0,0,48,351a8.89,8.89,0,0,0,4.43-4.89,9.33,9.33,0,0,0,.59-3.3,10.21,10.21,0,0,0-1.29-5,6.82,6.82,0,0,0-3.4-3.2l2.11-7.6A15.45,15.45,0,0,1,57,333.14,18.94,18.94,0,0,1,59.5,343.15Zm-20.87-9A9.21,9.21,0,0,0,32.38,337a9,9,0,0,0,0,12.25,9.06,9.06,0,0,0,2.71,1.95,9.53,9.53,0,0,0,3.5.89Z"/>
  <path class="cls-4" d="M59.5,306a30.7,30.7,0,0,1-.33,4.39,37.32,37.32,0,0,1-.93,4.46A30.69,30.69,0,0,1,56.79,319a20,20,0,0,1-1.92,3.5l-6-3.57q4.29-6.6,4.29-12.75a8.2,8.2,0,0,0-1-4.36,3.16,3.16,0,0,0-2.84-1.59,2.9,2.9,0,0,0-2.74,1.88,35.57,35.57,0,0,0-1.95,6.31A52.55,52.55,0,0,1,43,314.15,14,14,0,0,1,41,318a6.84,6.84,0,0,1-2.58,2.11,8.24,8.24,0,0,1-3.44.66,10.31,10.31,0,0,1-8.36-4,13.56,13.56,0,0,1-2.28-4.43,18.42,18.42,0,0,1-.79-5.52,24.38,24.38,0,0,1,1.16-7.37,29.71,29.71,0,0,1,3.14-6.84l5.48,3.63a24.06,24.06,0,0,0-2.67,5.48,16.79,16.79,0,0,0-.83,5.15,8,8,0,0,0,.92,4,3.17,3.17,0,0,0,3,1.62,2.69,2.69,0,0,0,2.58-1.55,29.22,29.22,0,0,0,1.78-5.52q.93-3.7,1.85-6.31a17.75,17.75,0,0,1,2.11-4.29,7.35,7.35,0,0,1,2.74-2.44,8.43,8.43,0,0,1,3.73-.76,10,10,0,0,1,4.56,1,9.93,9.93,0,0,1,3.47,2.87A13.3,13.3,0,0,1,58.74,300,21.63,21.63,0,0,1,59.5,306Z"/>
  <path class="cls-4" d="M57.05,265.46a38.51,38.51,0,0,1,1.58,4.39,18.62,18.62,0,0,1,.79,5.45,12.6,12.6,0,0,1-.46,3.47,7.61,7.61,0,0,1-1.49,2.84,7.25,7.25,0,0,1-2.64,1.95,9.55,9.55,0,0,1-3.93.73H31v4.49h-6.8v-4.49H13v-8.85H24.22v-7.33H31v7.33H47.94a3.09,3.09,0,0,0,2.61-1,3.79,3.79,0,0,0,.76-2.38,8.14,8.14,0,0,0-.46-2.71q-.46-1.32-.79-2.11Z"/>
  <path class="cls-4" d="M59.5,247.37a30.7,30.7,0,0,1-.33,4.39,37.32,37.32,0,0,1-.93,4.46,30.69,30.69,0,0,1-1.45,4.16,20,20,0,0,1-1.92,3.5l-6-3.57q4.29-6.6,4.29-12.75a8.2,8.2,0,0,0-1-4.36,3.16,3.16,0,0,0-2.84-1.59,2.9,2.9,0,0,0-2.74,1.88,35.57,35.57,0,0,0-1.95,6.31A52.55,52.55,0,0,1,43,255.56a14,14,0,0,1-2,3.83,6.84,6.84,0,0,1-2.58,2.11,8.24,8.24,0,0,1-3.44.66,10.31,10.31,0,0,1-8.36-4,13.56,13.56,0,0,1-2.28-4.43,18.42,18.42,0,0,1-.79-5.52,24.38,24.38,0,0,1,1.16-7.37A29.71,29.71,0,0,1,27.86,234l5.48,3.63a24.06,24.06,0,0,0-2.67,5.48,16.79,16.79,0,0,0-.83,5.15,8,8,0,0,0,.92,4,3.17,3.17,0,0,0,3,1.62,2.69,2.69,0,0,0,2.58-1.55,29.22,29.22,0,0,0,1.78-5.52q.93-3.7,1.85-6.31a17.75,17.75,0,0,1,2.11-4.29,7.35,7.35,0,0,1,2.74-2.44,8.43,8.43,0,0,1,3.73-.76,10,10,0,0,1,4.56,1,9.93,9.93,0,0,1,3.47,2.87,13.3,13.3,0,0,1,2.18,4.52A21.63,21.63,0,0,1,59.5,247.37Z"/>
</svg>
