<svg id="Layer_1" data-name="Layer 1" xmlns="http://www.w3.org/2000/svg" viewBox="0 0 1854.19 867.09">
  <defs>
    <style>.cls-1{fill:#cdebf8;fill-opacity:0.5;stroke:#0071bc;}.cls-1,.cls-2{stroke-miterlimit:10;}.cls-2{fill:none;stroke:#29abe2;stroke-width:0.5px;}.cls-3{fill:#29abe2;}.cls-4{font-size:31.01px;fill:#0071bc;font-family:HelveticaNeue, Helvetica Neue;}</style>
  </defs>
  <polygon class="cls-1" points="85.06 368.69 197.04 538.43 318.86 578.18 445.78 549.82 506.9 151.93 617.66 448.21 690.8 457.6 740.62 534.07 802.34 510.95 869.25 497.94 919.67 460.71 987.21 462.46 1048.84 489.37 1100.24 393.97 1165.53 421.82 1223.07 447.34 1285.29 496.37 1341.54 502.03 1400.25 419.49 1469.76 447.34 1521.63 435.61 1592.72 443.39 1636.89 478.68 1698.12 500.01 1768.72 504.68 1824.37 481.8 1824.37 763.5 84.37 763.5 85.06 368.69"/>
  <rect class="cls-2" x="84.29" y="18.06" width="1740.28" height="748.01"/>
  <line class="cls-2" x1="332.35" y1="18.06" x2="332.35" y2="766.07"/>
  <line class="cls-2" x1="583.17" y1="18.06" x2="583.17" y2="766.07"/>
  <line class="cls-2" x1="828.99" y1="18.06" x2="828.99" y2="766.07"/>
  <line class="cls-2" x1="1074.81" y1="18.06" x2="1074.81" y2="766.07"/>
  <line class="cls-2" x1="1325.62" y1="18.06" x2="1325.62" y2="766.07"/>
  <line class="cls-2" x1="1576.43" y1="18.06" x2="1576.43" y2="766.07"/>
  <line class="cls-2" x1="84.29" y1="268.93" x2="1824.57" y2="268.93"/>
  <line class="cls-2" x1="84.29" y1="508.34" x2="1824.57" y2="508.34"/>
  <path class="cls-3" d="M884.9,814.07H869.67v39.71h-9.3V814.07h-15.3v-8.16H884.9Z"/>
  <path class="cls-3" d="M890,813.53v-9h9v9Zm0,40.25V818.45h9v35.33Z"/>
  <path class="cls-3" d="M961.9,853.78h-9V834q0-4.25-1.48-6.2a4.8,4.8,0,0,0-4-2,7.5,7.5,0,0,0-5,2.06,11.33,11.33,0,0,0-3.37,5.36v20.56h-9V834q0-4.25-1.45-6.2a4.72,4.72,0,0,0-4-2,7.69,7.69,0,0,0-5,2,11,11,0,0,0-3.41,5.33v20.63h-9V818.45h8.16V825a13.5,13.5,0,0,1,5.36-5.29,16,16,0,0,1,7.79-1.85q4.45,0,6.84,2.16a10.12,10.12,0,0,1,3.13,5.33,15.25,15.25,0,0,1,5.46-5.56,14.74,14.74,0,0,1,7.55-1.92,10.49,10.49,0,0,1,5.33,1.21,8.77,8.77,0,0,1,3.24,3.17,13.29,13.29,0,0,1,1.58,4.45,29.3,29.3,0,0,1,.44,5.06Z"/>
  <path class="cls-3" d="M986.1,854.46a19.62,19.62,0,0,1-7.69-1.45,17.33,17.33,0,0,1-9.61-9.74,18.61,18.61,0,0,1-1.31-6.94,19.66,19.66,0,0,1,1.28-7.11,17.34,17.34,0,0,1,3.71-5.87,17.69,17.69,0,0,1,5.9-4,19.64,19.64,0,0,1,7.79-1.48,19.16,19.16,0,0,1,7.72,1.48,17.77,17.77,0,0,1,5.8,4,17,17,0,0,1,3.64,5.8,19.32,19.32,0,0,1,1.25,6.88q0,.88,0,1.69a6.91,6.91,0,0,1-.17,1.35H977.07a10.51,10.51,0,0,0,1,3.71,9.09,9.09,0,0,0,5,4.52,9.52,9.52,0,0,0,3.37.61,10.41,10.41,0,0,0,5.09-1.31,7,7,0,0,0,3.27-3.47l7.75,2.16a15.76,15.76,0,0,1-6.24,6.64A19.32,19.32,0,0,1,986.1,854.46Zm9.17-21.3a9.4,9.4,0,0,0-2.93-6.37,9.21,9.21,0,0,0-12.51,0,9.27,9.27,0,0,0-2,2.77,9.74,9.74,0,0,0-.91,3.57Z"/>
  <path class="cls-3" d="M54.2,534.54H6.33V513.37a13.6,13.6,0,0,1,1.38-6.1,15.82,15.82,0,0,1,3.64-4.82,17.22,17.22,0,0,1,5.12-3.17,15.43,15.43,0,0,1,5.76-1.15,15.91,15.91,0,0,1,8.46,2.33,13.35,13.35,0,0,1,5.5,6.3l18-11.26V506l-16,10v9.17h16ZM30,525.24V513.57a4.92,4.92,0,0,0-.61-2.39,6.1,6.1,0,0,0-1.65-1.92A8.25,8.25,0,0,0,25.28,508a9.54,9.54,0,0,0-3-.47,8.67,8.67,0,0,0-3.1.54,8.11,8.11,0,0,0-2.46,1.45,6.57,6.57,0,0,0-1.62,2.09,5.44,5.44,0,0,0-.57,2.39v11.26Z"/>
  <path class="cls-3" d="M54.87,473.59a19.61,19.61,0,0,1-1.45,7.69,17.33,17.33,0,0,1-9.74,9.61,18.62,18.62,0,0,1-6.94,1.32,19.69,19.69,0,0,1-7.11-1.28,17.33,17.33,0,0,1-5.87-3.71,17.69,17.69,0,0,1-4-5.9,19.66,19.66,0,0,1-1.48-7.79,19.18,19.18,0,0,1,1.48-7.72,17.79,17.79,0,0,1,4-5.8,16.92,16.92,0,0,1,5.8-3.64,19.3,19.3,0,0,1,6.88-1.25q.88,0,1.69,0a6.86,6.86,0,0,1,1.35.17v27.3a10.49,10.49,0,0,0,3.71-1,9.08,9.08,0,0,0,4.52-5,9.51,9.51,0,0,0,.61-3.37A10.41,10.41,0,0,0,47,468.17a7,7,0,0,0-3.47-3.27l2.16-7.75a15.76,15.76,0,0,1,6.64,6.24A19.32,19.32,0,0,1,54.87,473.59Zm-21.3-9.17a9.4,9.4,0,0,0-6.37,2.93,9.2,9.2,0,0,0,0,12.51,9.26,9.26,0,0,0,2.76,2,9.73,9.73,0,0,0,3.57.91Z"/>
  <path class="cls-3" d="M54.87,436.24a13.42,13.42,0,0,1-1.45,6.2,15.32,15.32,0,0,1-3.94,4.89,18.51,18.51,0,0,1-5.83,3.2,21.93,21.93,0,0,1-7.18,1.15,20,20,0,0,1-7.15-1.25A18,18,0,0,1,23.56,447a16.34,16.34,0,0,1-3.88-5.26,15.27,15.27,0,0,1-1.42-6.54A13.66,13.66,0,0,1,20.12,428,15.28,15.28,0,0,1,25,423H18.87v-7.89H57.7a3,3,0,0,0,2.06-.54,2.73,2.73,0,0,0,.64-1.89h7.69a25.4,25.4,0,0,1,.3,2.56q.1,1.42.1,2.43a6.56,6.56,0,0,1-1.72,4.58,5.7,5.7,0,0,1-4.42,1.89H48a13.14,13.14,0,0,1,5.16,5.06A14.35,14.35,0,0,1,54.87,436.24Zm-7.69-3.37a8.19,8.19,0,0,0-1.62-5.06,14.57,14.57,0,0,0-4.18-3.71H33a8.68,8.68,0,0,0-2.76,1.31A11.31,11.31,0,0,0,28,427.54a9.68,9.68,0,0,0-1.52,2.63,7.91,7.91,0,0,0-.54,2.83,8.27,8.27,0,0,0,.88,3.81,9.24,9.24,0,0,0,2.39,3,11.66,11.66,0,0,0,3.47,2,11.82,11.82,0,0,0,4,.71,11.64,11.64,0,0,0,4.11-.71,10.51,10.51,0,0,0,3.3-2,8.94,8.94,0,0,0,2.23-3A9.23,9.23,0,0,0,47.19,432.87Z"/>
  <path class="cls-3" d="M54.87,396.2q0,5.46-3.51,8.29T41,407.32H18.87v-9H39q8.16,0,8.16-5.87a9.38,9.38,0,0,0-1.58-5.16,11.38,11.38,0,0,0-4.82-4H18.87v-9H43.82a3,3,0,0,0,2-.54,2.62,2.62,0,0,0,.67-1.89H54.2q.27,1.42.37,2.49t.1,1.89A5.91,5.91,0,0,1,53.56,380a4.83,4.83,0,0,1-3.07,1.72l-2.9.2a15.59,15.59,0,0,1,5.46,6.1A18.2,18.2,0,0,1,54.87,396.2Z"/>
  <path class="cls-3" d="M54.87,348.6a19.61,19.61,0,0,1-1.45,7.69,17.34,17.34,0,0,1-9.74,9.61,18.6,18.6,0,0,1-6.94,1.31,19.64,19.64,0,0,1-7.11-1.28,17.34,17.34,0,0,1-5.87-3.71,17.71,17.71,0,0,1-4-5.9,19.66,19.66,0,0,1-1.48-7.79,19.18,19.18,0,0,1,1.48-7.72,17.79,17.79,0,0,1,4-5.8,17,17,0,0,1,5.8-3.64,19.34,19.34,0,0,1,6.88-1.25q.88,0,1.69,0a7,7,0,0,1,1.35.17v27.31a10.49,10.49,0,0,0,3.71-1,9.18,9.18,0,0,0,2.76-2.09,9.09,9.09,0,0,0,1.75-2.9,9.5,9.5,0,0,0,.61-3.37A10.41,10.41,0,0,0,47,343.17a7,7,0,0,0-3.47-3.27l2.16-7.75a15.76,15.76,0,0,1,6.64,6.24A19.33,19.33,0,0,1,54.87,348.6Zm-21.3-9.17a9.4,9.4,0,0,0-6.37,2.93,9.2,9.2,0,0,0,0,12.51,9.26,9.26,0,0,0,2.76,2,9.73,9.73,0,0,0,3.57.91Z"/>
  <path class="cls-3" d="M54.87,310.64a31.29,31.29,0,0,1-.34,4.48,38.28,38.28,0,0,1-.94,4.55,31.6,31.6,0,0,1-1.48,4.25,20.53,20.53,0,0,1-2,3.57L44,323.86q4.38-6.74,4.38-13a8.36,8.36,0,0,0-1-4.45,3.22,3.22,0,0,0-2.9-1.62,3,3,0,0,0-2.8,1.92,36.41,36.41,0,0,0-2,6.44A53.81,53.81,0,0,1,38,319a14.36,14.36,0,0,1-2,3.91,7,7,0,0,1-2.63,2.16,8.4,8.4,0,0,1-3.51.67,10.52,10.52,0,0,1-8.53-4.08A13.85,13.85,0,0,1,19,317.15a18.83,18.83,0,0,1-.81-5.63A24.88,24.88,0,0,1,19.38,304a30.33,30.33,0,0,1,3.2-7l5.6,3.71a24.58,24.58,0,0,0-2.73,5.6,17.15,17.15,0,0,0-.84,5.26,8.12,8.12,0,0,0,.94,4.08,3.23,3.23,0,0,0,3,1.65,2.74,2.74,0,0,0,2.63-1.58A29.73,29.73,0,0,0,33,310.1q.94-3.77,1.89-6.44a18.11,18.11,0,0,1,2.16-4.38,7.5,7.5,0,0,1,2.8-2.5,8.6,8.6,0,0,1,3.81-.78,10.26,10.26,0,0,1,4.65,1A10.13,10.13,0,0,1,51.87,300a13.58,13.58,0,0,1,2.22,4.62A22.06,22.06,0,0,1,54.87,310.64Z"/>
  <path class="cls-3" d="M52.38,269.31A39.47,39.47,0,0,1,54,273.79a19.06,19.06,0,0,1,.81,5.56,12.83,12.83,0,0,1-.47,3.54,7.76,7.76,0,0,1-1.52,2.9,7.39,7.39,0,0,1-2.7,2,9.74,9.74,0,0,1-4,.74H25.81v4.58H18.87v-4.58H7.41v-9H18.87V272h6.94v7.48H43.07a3.15,3.15,0,0,0,2.66-1,3.87,3.87,0,0,0,.78-2.43,8.29,8.29,0,0,0-.47-2.76q-.47-1.35-.81-2.16Z"/>
  <path class="cls-3" d="M54.87,250.84a31.27,31.27,0,0,1-.34,4.48,38.24,38.24,0,0,1-.94,4.55,31.5,31.5,0,0,1-1.48,4.25,20.58,20.58,0,0,1-2,3.57L44,264.05q4.38-6.74,4.38-13a8.36,8.36,0,0,0-1-4.45,3.22,3.22,0,0,0-2.9-1.62,3,3,0,0,0-2.8,1.92,36.4,36.4,0,0,0-2,6.44A53.73,53.73,0,0,1,38,259.2a14.34,14.34,0,0,1-2,3.91,7,7,0,0,1-2.63,2.16,8.41,8.41,0,0,1-3.51.67,10.51,10.51,0,0,1-8.53-4.08A13.86,13.86,0,0,1,19,257.35a18.84,18.84,0,0,1-.81-5.63,24.88,24.88,0,0,1,1.18-7.52,30.31,30.31,0,0,1,3.2-7l5.6,3.71a24.56,24.56,0,0,0-2.73,5.6,17.15,17.15,0,0,0-.84,5.26,8.11,8.11,0,0,0,.94,4.08,3.23,3.23,0,0,0,3,1.65,2.74,2.74,0,0,0,2.63-1.58A29.75,29.75,0,0,0,33,250.3q.94-3.78,1.89-6.44a18.11,18.11,0,0,1,2.16-4.38,7.51,7.51,0,0,1,2.8-2.5,8.61,8.61,0,0,1,3.81-.78,10.27,10.27,0,0,1,4.65,1,10.13,10.13,0,0,1,3.54,2.93,13.57,13.57,0,0,1,2.22,4.62A22.07,22.07,0,0,1,54.87,250.84Z"/>
  <text class="cls-4" transform="translate(84.73 830.76)">SEPT 26 8:00PM ET</text>
  <text class="cls-4" transform="translate(1518.77 824)">SEPT 26 11:00PM ET</text>
</svg>
