<svg id="Layer_1" data-name="Layer 1" xmlns="http://www.w3.org/2000/svg" viewBox="0 0 1920 1359"><defs><style>.cls-1{fill:none;stroke:#29abe2;stroke-width:0.5px;}.cls-1,.cls-5,.cls-6{stroke-miterlimit:10;}.cls-2{fill:#29abe2;}.cls-3{fill:#0071bc;}.cls-4,.cls-6{fill:#93278f;}.cls-5{fill:#cdebf8;stroke:#0071bc;}.cls-5,.cls-6{fill-opacity:0.5;}.cls-6{stroke:#1b1464;}</style></defs><title>Artboard 7 copy 5</title><rect class="cls-1" x="114.89" y="167.57" width="1737.77" height="1073.9"/><line class="cls-1" x1="548.37" y1="167.57" x2="548.37" y2="1241.47"/><line class="cls-1" x1="983.77" y1="167.57" x2="983.77" y2="1241.47"/><line class="cls-1" x1="1417.53" y1="167.57" x2="1417.53" y2="1241.47"/><line class="cls-1" x1="1851.84" y1="166.75" x2="1851.84" y2="1242.28"/><line class="cls-1" x1="114.89" y1="437.13" x2="1851.84" y2="437.13"/><line class="cls-1" x1="114.89" y1="704.52" x2="1851.84" y2="704.52"/><line class="cls-1" x1="114.89" y1="976.25" x2="1852.66" y2="976.25"/><path class="cls-2" d="M929.48,1279.89H914.24v39.71h-9.3v-39.71h-15.3v-8.16h39.84Z"/><path class="cls-2" d="M935.48,1319.6v-47.8h9.3v47.8Z"/><path class="cls-2" d="M993.8,1319.6v-31.69l-12.34,23.6H976.4l-12.34-23.6v31.69h-9.3v-47.87h10L978.9,1299l14.29-27.24h9.91v47.87Z"/><path class="cls-2" d="M1046.32,1311.44v8.16h-33.24v-47.87h32.63v8.16h-23.33v11.53h20.16V1299h-20.16v12.47Z"/><path class="cls-2" d="M80.35,846.05H32.48V824.88a13.6,13.6,0,0,1,1.38-6.1A15.82,15.82,0,0,1,37.5,814a17.2,17.2,0,0,1,5.12-3.17,15.43,15.43,0,0,1,5.76-1.15A15.92,15.92,0,0,1,56.85,812a13.35,13.35,0,0,1,5.5,6.3l18-11.26v10.52l-16,10v9.17h16Zm-24.2-9.3V825.09a4.93,4.93,0,0,0-.61-2.39,6.11,6.11,0,0,0-1.65-1.92,8.27,8.27,0,0,0-2.46-1.28,9.57,9.57,0,0,0-3-.47,8.65,8.65,0,0,0-3.1.54A8.13,8.13,0,0,0,42.83,821a6.59,6.59,0,0,0-1.62,2.09,5.44,5.44,0,0,0-.57,2.39v11.26Z"/><path class="cls-2" d="M72.19,767.38h8.16v33.24H32.48V768h8.16v23.33H52.17V771.15h7.55v20.16H72.19Z"/><path class="cls-2" d="M77.11,728a22.17,22.17,0,0,1,2.63,5.56,21.35,21.35,0,0,1,.94,6.44,20.36,20.36,0,0,1-2.09,9.24,23.65,23.65,0,0,1-5.46,7.18A24.1,24.1,0,0,1,65.38,761a25.71,25.71,0,0,1-9,1.62,25.22,25.22,0,0,1-16.92-6.51,23.14,23.14,0,0,1-5.36-7.25,20.92,20.92,0,0,1-2-9.1,20.1,20.1,0,0,1,2.12-9.24,23.22,23.22,0,0,1,5.56-7.15,25.26,25.26,0,0,1,7.82-4.58,25.52,25.52,0,0,1,8.9-1.62,25.22,25.22,0,0,1,8.73,1.52,24,24,0,0,1,7.45,4.35l7.62-6.81v8.83Zm-4.65,11.87a11.68,11.68,0,0,0-1.69-6.2l-8.16,7.21V732l3.37-3a19,19,0,0,0-9.57-2.5,19.28,19.28,0,0,0-6,.94,16.83,16.83,0,0,0-5.12,2.66,13.33,13.33,0,0,0-3.57,4.18,12.29,12.29,0,0,0,0,11.26,13.36,13.36,0,0,0,3.67,4.18,16.61,16.61,0,0,0,5.16,2.6,20,20,0,0,0,11.83,0,16.25,16.25,0,0,0,5.12-2.63,13.19,13.19,0,0,0,3.57-4.21A11.71,11.71,0,0,0,72.46,739.87Z"/><path class="cls-2" d="M72.46,689.71a10.68,10.68,0,0,0-1.35-5.56,10.88,10.88,0,0,0-3.51-3.64,14.5,14.5,0,0,0-5-2,28.65,28.65,0,0,0-5.76-.57H32.48v-9.24H56.88a34.91,34.91,0,0,1,9.24,1.18,21.19,21.19,0,0,1,7.55,3.71,17.77,17.77,0,0,1,5.12,6.51,22,22,0,0,1,1.89,9.51,21.76,21.76,0,0,1-2,9.74,18.15,18.15,0,0,1-5.26,6.51,21,21,0,0,1-7.58,3.61,35.75,35.75,0,0,1-9,1.11H32.48v-9.3H56.88a29,29,0,0,0,5.83-.57,14.47,14.47,0,0,0,5-2,10.14,10.14,0,0,0,4.79-9.07Z"/><path class="cls-2" d="M72.19,626.2h8.16v33.24H32.48V626.81h8.16v23.33H52.17V630h7.55v20.16H72.19Z"/><path class="cls-2" d="M45,590.74a11.69,11.69,0,0,0-1.28,1.72,21.11,21.11,0,0,0-1.58,3,26.3,26.3,0,0,0-1.31,3.88,16.94,16.94,0,0,0-.54,4.25q0,3.84,1.42,5.73a4.68,4.68,0,0,0,4,1.89,4.09,4.09,0,0,0,2.46-.71,6.11,6.11,0,0,0,1.72-2.06,17.28,17.28,0,0,0,1.35-3.4q.61-2.06,1.28-4.75.94-3.5,2-6.37a17.28,17.28,0,0,1,2.7-4.85A11.16,11.16,0,0,1,61.1,586a12.87,12.87,0,0,1,5.56-1.08,13.86,13.86,0,0,1,6.57,1.45,12.28,12.28,0,0,1,4.42,3.88,16.57,16.57,0,0,1,2.46,5.66,28.86,28.86,0,0,1,.78,6.74,36,36,0,0,1-1.62,10.65,32.84,32.84,0,0,1-4.58,9.44l-8-4.11a13,13,0,0,0,1.58-2.19,33.35,33.35,0,0,0,2-3.74,29,29,0,0,0,1.65-4.79,21.6,21.6,0,0,0,.67-5.39q0-7.69-4.92-7.69a4.14,4.14,0,0,0-2.7.88A7.46,7.46,0,0,0,63,598.22a24,24,0,0,0-1.48,3.91q-.67,2.29-1.42,5.12a43.54,43.54,0,0,1-2.06,6,16.21,16.21,0,0,1-2.6,4.21A9.46,9.46,0,0,1,52,620a12.39,12.39,0,0,1-4.79.84,14.87,14.87,0,0,1-6.47-1.35A13.07,13.07,0,0,1,36,615.72a17,17,0,0,1-2.87-5.56,23,23,0,0,1-1-6.81,26.43,26.43,0,0,1,1.58-9.3,34.67,34.67,0,0,1,3.74-7.42Z"/><path class="cls-2" d="M40.64,542.33v15.24H80.35v9.3H40.64v15.3H32.48V542.33Z"/><path class="cls-2" d="M45,508.21a11.69,11.69,0,0,0-1.28,1.72,21.11,21.11,0,0,0-1.58,3,26.3,26.3,0,0,0-1.31,3.88,16.94,16.94,0,0,0-.54,4.25q0,3.84,1.42,5.73a4.68,4.68,0,0,0,4,1.89,4.09,4.09,0,0,0,2.46-.71,6.11,6.11,0,0,0,1.72-2.06,17.28,17.28,0,0,0,1.35-3.4q.61-2.06,1.28-4.75.94-3.5,2-6.37a17.28,17.28,0,0,1,2.7-4.85,11.16,11.16,0,0,1,3.88-3.07,12.87,12.87,0,0,1,5.56-1.08,13.86,13.86,0,0,1,6.57,1.45,12.28,12.28,0,0,1,4.42,3.88,16.57,16.57,0,0,1,2.46,5.66,28.86,28.86,0,0,1,.78,6.74,36,36,0,0,1-1.62,10.65,32.84,32.84,0,0,1-4.58,9.44l-8-4.11a13,13,0,0,0,1.58-2.19,33.35,33.35,0,0,0,2-3.74,29,29,0,0,0,1.65-4.79,21.6,21.6,0,0,0,.67-5.39q0-7.69-4.92-7.69a4.14,4.14,0,0,0-2.7.88A7.46,7.46,0,0,0,63,515.7a24,24,0,0,0-1.48,3.91q-.67,2.29-1.42,5.12a43.54,43.54,0,0,1-2.06,6,16.21,16.21,0,0,1-2.6,4.21A9.46,9.46,0,0,1,52,537.44a12.39,12.39,0,0,1-4.79.84,14.87,14.87,0,0,1-6.47-1.35A13.07,13.07,0,0,1,36,533.19a17,17,0,0,1-2.87-5.56,23,23,0,0,1-1-6.81,26.43,26.43,0,0,1,1.58-9.3,34.67,34.67,0,0,1,3.74-7.42Z"/><path class="cls-3" d="M117.53,1304.33v-15.76h-5.71v-2.11a13.4,13.4,0,0,0,2.17-.17,5.9,5.9,0,0,0,1.91-.63,4.36,4.36,0,0,0,1.44-1.27,4.84,4.84,0,0,0,.81-2h2v22Z"/><path class="cls-3" d="M127.73,1291a17.07,17.07,0,0,1,.31-2.54,12.5,12.5,0,0,1,.71-2.36,6.24,6.24,0,0,1,1.27-2,5.77,5.77,0,0,1,2-1.33,8.9,8.9,0,0,1,5.86,0,5.78,5.78,0,0,1,2,1.33,6.24,6.24,0,0,1,1.27,2,12.57,12.57,0,0,1,.71,2.36,17.2,17.2,0,0,1,.31,2.54q.06,1.3.06,2.51t-.06,2.51a17.26,17.26,0,0,1-.31,2.54,12.14,12.14,0,0,1-.71,2.34,6.31,6.31,0,0,1-1.27,1.94,5.63,5.63,0,0,1-2,1.32,9.23,9.23,0,0,1-5.88,0,5.61,5.61,0,0,1-2-1.32,6.31,6.31,0,0,1-1.27-1.94,12.07,12.07,0,0,1-.71-2.34,17.13,17.13,0,0,1-.31-2.54q-.06-1.3-.06-2.51T127.73,1291Zm2.81,5.26a11.62,11.62,0,0,0,.5,2.88,5.44,5.44,0,0,0,1.35,2.28,4.11,4.11,0,0,0,5.21,0,5.44,5.44,0,0,0,1.35-2.28,11.66,11.66,0,0,0,.5-2.88c.05-1,.08-1.95.08-2.78q0-.81,0-1.78a15.66,15.66,0,0,0-.16-2,14.48,14.48,0,0,0-.4-1.91,5,5,0,0,0-.78-1.63,4,4,0,0,0-1.29-1.13,4.34,4.34,0,0,0-3.78,0,4,4,0,0,0-1.29,1.13,5,5,0,0,0-.78,1.63,14.48,14.48,0,0,0-.4,1.91,15.66,15.66,0,0,0-.16,2q0,1,0,1.78C130.46,1294.33,130.49,1295.26,130.54,1296.28Z"/><path class="cls-3" d="M155.74,1282.19a6.87,6.87,0,0,1,5.07,1.72,7.64,7.64,0,0,1,0,9.66,6.74,6.74,0,0,1-5.07,1.71H149v9.06H146v-22.14Zm-1,10.61a5.26,5.26,0,0,0,3.67-1,3.89,3.89,0,0,0,1.16-3,3.84,3.84,0,0,0-1.16-3,5.41,5.41,0,0,0-3.67-1H149v8.13Z"/><path class="cls-3" d="M170.22,1282.19l7,18.61,7-18.61h4v22.14h-2.79v-18.42h-.06l-6.92,18.42H176L169,1285.91H169v18.42h-2.79v-22.14Z"/><path class="cls-3" d="M217.05,1282.19v2.48H204.71v7h11.51v2.48H204.71v7.66h12.44v2.48H201.76v-22.14Z"/><path class="cls-3" d="M218.36,1284.67v-2.48h17.71v2.48h-7.38v19.66h-2.95v-19.66Z"/><path class="cls-3" d="M253.13,1304.33v-15.76h-5.71v-2.11a13.4,13.4,0,0,0,2.17-.17,5.9,5.9,0,0,0,1.91-.63,4.36,4.36,0,0,0,1.44-1.27,4.84,4.84,0,0,0,.81-2h2v22Z"/><path class="cls-3" d="M270.37,1304.33v-15.76h-5.71v-2.11a13.4,13.4,0,0,0,2.17-.17,5.9,5.9,0,0,0,1.91-.63,4.36,4.36,0,0,0,1.44-1.27,4.84,4.84,0,0,0,.81-2h2v22Z"/><path class="cls-3" d="M285.22,1300.89v3.44h-3.44v-3.44Z"/><path class="cls-3" d="M289.54,1287a6.59,6.59,0,0,1,1.35-2.46,6.35,6.35,0,0,1,2.28-1.63,7.75,7.75,0,0,1,3.1-.59,8.43,8.43,0,0,1,2.68.42,6.53,6.53,0,0,1,2.19,1.21,5.63,5.63,0,0,1,1.47,2,6.47,6.47,0,0,1,.54,2.73,6.85,6.85,0,0,1-.45,2.57,7.32,7.32,0,0,1-1.19,2,10,10,0,0,1-1.71,1.6c-.64.48-1.3.93-2,1.37l-2,1.22a16.05,16.05,0,0,0-1.88,1.29,8.51,8.51,0,0,0-1.46,1.47,4.17,4.17,0,0,0-.79,1.81h11.29v2.33H288.57a11.66,11.66,0,0,1,.7-3.33,8.88,8.88,0,0,1,1.38-2.4,10.3,10.3,0,0,1,1.89-1.8q1.05-.78,2.2-1.46,1.4-.87,2.45-1.6a10.81,10.81,0,0,0,1.75-1.47,5,5,0,0,0,1.41-3.63A3.78,3.78,0,0,0,300,1287a3.9,3.9,0,0,0-2.26-2.06,4.79,4.79,0,0,0-1.64-.28,3.84,3.84,0,0,0-2,.48,4.13,4.13,0,0,0-1.35,1.26,5.26,5.26,0,0,0-.76,1.75,7.51,7.51,0,0,0-.2,2h-2.64A8.9,8.9,0,0,1,289.54,1287Z"/><path class="cls-3" d="M306.78,1287a6.59,6.59,0,0,1,1.35-2.46,6.35,6.35,0,0,1,2.28-1.63,7.75,7.75,0,0,1,3.1-.59,8.43,8.43,0,0,1,2.68.42,6.53,6.53,0,0,1,2.19,1.21,5.63,5.63,0,0,1,1.47,2,6.47,6.47,0,0,1,.54,2.73,6.85,6.85,0,0,1-.45,2.57,7.32,7.32,0,0,1-1.19,2,10,10,0,0,1-1.71,1.6c-.64.48-1.3.93-2,1.37l-2,1.22a16.05,16.05,0,0,0-1.88,1.29,8.51,8.51,0,0,0-1.46,1.47,4.17,4.17,0,0,0-.79,1.81h11.29v2.33H305.82a11.66,11.66,0,0,1,.7-3.33,8.88,8.88,0,0,1,1.38-2.4,10.3,10.3,0,0,1,1.89-1.8q1.05-.78,2.2-1.46,1.4-.87,2.45-1.6a10.81,10.81,0,0,0,1.75-1.47,5,5,0,0,0,1.41-3.63,3.78,3.78,0,0,0-.34-1.63,3.9,3.9,0,0,0-2.26-2.06,4.79,4.79,0,0,0-1.64-.28,3.84,3.84,0,0,0-2,.48,4.13,4.13,0,0,0-1.35,1.26,5.26,5.26,0,0,0-.76,1.75,7.51,7.51,0,0,0-.2,2h-2.64A8.9,8.9,0,0,1,306.78,1287Z"/><path class="cls-3" d="M328.33,1300.89v3.44h-3.44v-3.44Z"/><path class="cls-3" d="M332.65,1287a6.59,6.59,0,0,1,1.35-2.46,6.35,6.35,0,0,1,2.28-1.63,7.75,7.75,0,0,1,3.1-.59,8.43,8.43,0,0,1,2.68.42,6.53,6.53,0,0,1,2.19,1.21,5.63,5.63,0,0,1,1.47,2,6.47,6.47,0,0,1,.54,2.73,6.85,6.85,0,0,1-.45,2.57,7.32,7.32,0,0,1-1.19,2,10,10,0,0,1-1.71,1.6c-.64.48-1.3.93-2,1.37l-2,1.22a16.05,16.05,0,0,0-1.88,1.29,8.51,8.51,0,0,0-1.46,1.47,4.17,4.17,0,0,0-.79,1.81H346v2.33H331.68a11.66,11.66,0,0,1,.7-3.33,8.88,8.88,0,0,1,1.38-2.4,10.3,10.3,0,0,1,1.89-1.8q1.05-.78,2.2-1.46,1.4-.87,2.45-1.6a10.81,10.81,0,0,0,1.75-1.47,5,5,0,0,0,1.41-3.63,3.78,3.78,0,0,0-.34-1.63,3.9,3.9,0,0,0-2.26-2.06,4.79,4.79,0,0,0-1.64-.28,3.84,3.84,0,0,0-2,.48,4.13,4.13,0,0,0-1.35,1.26,5.26,5.26,0,0,0-.76,1.75,7.51,7.51,0,0,0-.2,2H332.3A8.9,8.9,0,0,1,332.65,1287Z"/><path class="cls-3" d="M349.55,1291a17.07,17.07,0,0,1,.31-2.54,12.5,12.5,0,0,1,.71-2.36,6.24,6.24,0,0,1,1.27-2,5.77,5.77,0,0,1,2-1.33,8.9,8.9,0,0,1,5.86,0,5.78,5.78,0,0,1,2,1.33,6.24,6.24,0,0,1,1.27,2,12.57,12.57,0,0,1,.71,2.36,17.2,17.2,0,0,1,.31,2.54q.06,1.3.06,2.51t-.06,2.51a17.26,17.26,0,0,1-.31,2.54,12.14,12.14,0,0,1-.71,2.34,6.31,6.31,0,0,1-1.27,1.94,5.63,5.63,0,0,1-2,1.32,9.23,9.23,0,0,1-5.88,0,5.61,5.61,0,0,1-2-1.32,6.31,6.31,0,0,1-1.27-1.94,12.07,12.07,0,0,1-.71-2.34,17.13,17.13,0,0,1-.31-2.54q-.06-1.3-.06-2.51T349.55,1291Zm2.81,5.26a11.62,11.62,0,0,0,.5,2.88,5.44,5.44,0,0,0,1.35,2.28,4.11,4.11,0,0,0,5.21,0,5.44,5.44,0,0,0,1.35-2.28,11.66,11.66,0,0,0,.5-2.88c.05-1,.08-1.95.08-2.78q0-.81,0-1.78a15.66,15.66,0,0,0-.16-2,14.48,14.48,0,0,0-.4-1.91,5,5,0,0,0-.78-1.63,4,4,0,0,0-1.29-1.13,4.34,4.34,0,0,0-3.78,0,4,4,0,0,0-1.29,1.13,5,5,0,0,0-.78,1.63,14.48,14.48,0,0,0-.4,1.91,15.66,15.66,0,0,0-.16,2q0,1,0,1.78C352.28,1294.33,352.3,1295.26,352.36,1296.28Z"/><path class="cls-3" d="M373.83,1304.33v-15.76h-5.71v-2.11a13.4,13.4,0,0,0,2.17-.17,5.9,5.9,0,0,0,1.91-.63,4.36,4.36,0,0,0,1.44-1.27,4.84,4.84,0,0,0,.81-2h2v22Z"/><path class="cls-3" d="M394.37,1285.57a3.57,3.57,0,0,0-2.54-.9,4.19,4.19,0,0,0-2.7.82,5.63,5.63,0,0,0-1.6,2.08,10,10,0,0,0-.79,2.71,22.29,22.29,0,0,0-.25,2.73l.06.06a5.66,5.66,0,0,1,2.31-2.2,7.71,7.71,0,0,1,6-.14,5.91,5.91,0,0,1,2.11,1.5,6.85,6.85,0,0,1,1.32,2.26,8.36,8.36,0,0,1,.46,2.82,9.15,9.15,0,0,1-.37,2.51,6.77,6.77,0,0,1-1.23,2.37,6.57,6.57,0,0,1-2.26,1.77,7.84,7.84,0,0,1-3.49.7,7,7,0,0,1-3.94-1,6.78,6.78,0,0,1-2.3-2.54,10.54,10.54,0,0,1-1.07-3.41,25.64,25.64,0,0,1-.26-3.6,24.37,24.37,0,0,1,.39-4.39,11.91,11.91,0,0,1,1.32-3.77,7.41,7.41,0,0,1,2.48-2.64,7.12,7.12,0,0,1,3.91-1,6.28,6.28,0,0,1,4.34,1.44,6.09,6.09,0,0,1,1.86,4.17h-2.64A3.8,3.8,0,0,0,394.37,1285.57Zm-4.78,7.34a4.26,4.26,0,0,0-1.43,1.05,4.38,4.38,0,0,0-.88,1.58,6.31,6.31,0,0,0-.29,1.94,5.85,5.85,0,0,0,.31,1.92,4.54,4.54,0,0,0,.88,1.55,4.15,4.15,0,0,0,1.43,1,4.61,4.61,0,0,0,1.94.39,4.41,4.41,0,0,0,1.91-.39,3.92,3.92,0,0,0,1.38-1.07,4.89,4.89,0,0,0,.85-1.56,5.81,5.81,0,0,0,.29-1.85,7,7,0,0,0-.26-1.94,4.29,4.29,0,0,0-.82-1.58,4.12,4.12,0,0,0-1.4-1.07,4.45,4.45,0,0,0-2-.4A4.59,4.59,0,0,0,389.59,1292.9Z"/><path class="cls-3" d="M1569.33,1304.33v-15.76h-5.71v-2.11a13.4,13.4,0,0,0,2.17-.17,5.9,5.9,0,0,0,1.91-.63,4.36,4.36,0,0,0,1.44-1.27,4.84,4.84,0,0,0,.81-2h2v22Z"/><path class="cls-3" d="M1579.88,1287a6.59,6.59,0,0,1,1.35-2.46,6.35,6.35,0,0,1,2.28-1.63,7.75,7.75,0,0,1,3.1-.59,8.43,8.43,0,0,1,2.68.42,6.53,6.53,0,0,1,2.19,1.21,5.63,5.63,0,0,1,1.47,2,6.47,6.47,0,0,1,.54,2.73,6.85,6.85,0,0,1-.45,2.57,7.32,7.32,0,0,1-1.19,2,10,10,0,0,1-1.71,1.6c-.64.48-1.3.93-2,1.37l-2,1.22a16.05,16.05,0,0,0-1.88,1.29,8.51,8.51,0,0,0-1.46,1.47,4.17,4.17,0,0,0-.79,1.81h11.29v2.33h-14.36a11.66,11.66,0,0,1,.7-3.33,8.88,8.88,0,0,1,1.38-2.4,10.3,10.3,0,0,1,1.89-1.8q1.05-.78,2.2-1.46,1.4-.87,2.45-1.6a10.81,10.81,0,0,0,1.75-1.47,5,5,0,0,0,1.41-3.63,3.78,3.78,0,0,0-.34-1.63,3.9,3.9,0,0,0-2.26-2.06,4.79,4.79,0,0,0-1.64-.28,3.84,3.84,0,0,0-2,.48,4.13,4.13,0,0,0-1.35,1.26,5.26,5.26,0,0,0-.76,1.75,7.51,7.51,0,0,0-.2,2h-2.64A8.9,8.9,0,0,1,1579.88,1287Z"/><path class="cls-3" d="M1607.11,1282.19l8.65,22.14h-3.26l-2.42-6.67h-9.37l-2.48,6.67h-3l8.62-22.14Zm2,13-3.69-10.33h-.06l-3.75,10.33Z"/><path class="cls-3" d="M1622,1282.19l7,18.61,7-18.61h4v22.14h-2.79v-18.42h-.06l-6.92,18.42h-2.51l-6.92-18.42h-.06v18.42H1618v-22.14Z"/><path class="cls-3" d="M1668.86,1282.19v2.48h-12.34v7H1668v2.48h-11.51v7.66H1669v2.48h-15.38v-22.14Z"/><path class="cls-3" d="M1670.16,1284.67v-2.48h17.71v2.48h-7.38v19.66h-2.95v-19.66Z"/><path class="cls-3" d="M1704.93,1304.33v-15.76h-5.71v-2.11a13.4,13.4,0,0,0,2.17-.17,5.9,5.9,0,0,0,1.91-.63,4.36,4.36,0,0,0,1.44-1.27,4.84,4.84,0,0,0,.81-2h2v22Z"/><path class="cls-3" d="M1722.17,1304.33v-15.76h-5.71v-2.11a13.4,13.4,0,0,0,2.17-.17,5.9,5.9,0,0,0,1.91-.63,4.36,4.36,0,0,0,1.44-1.27,4.84,4.84,0,0,0,.81-2h2v22Z"/><path class="cls-3" d="M1737,1300.89v3.44h-3.44v-3.44Z"/><path class="cls-3" d="M1741.34,1287a6.59,6.59,0,0,1,1.35-2.46,6.35,6.35,0,0,1,2.28-1.63,7.75,7.75,0,0,1,3.1-.59,8.43,8.43,0,0,1,2.68.42,6.53,6.53,0,0,1,2.19,1.21,5.63,5.63,0,0,1,1.47,2,6.47,6.47,0,0,1,.54,2.73,6.85,6.85,0,0,1-.45,2.57,7.32,7.32,0,0,1-1.19,2,10,10,0,0,1-1.71,1.6c-.64.48-1.3.93-2,1.37l-2,1.22a16.05,16.05,0,0,0-1.88,1.29,8.51,8.51,0,0,0-1.46,1.47,4.17,4.17,0,0,0-.79,1.81h11.29v2.33h-14.36a11.66,11.66,0,0,1,.7-3.33,8.88,8.88,0,0,1,1.38-2.4,10.3,10.3,0,0,1,1.89-1.8q1.05-.78,2.2-1.46,1.4-.87,2.45-1.6a10.81,10.81,0,0,0,1.75-1.47,5,5,0,0,0,1.41-3.63,3.78,3.78,0,0,0-.34-1.63,3.9,3.9,0,0,0-2.26-2.06,4.79,4.79,0,0,0-1.64-.28,3.84,3.84,0,0,0-2,.48,4.13,4.13,0,0,0-1.35,1.26,5.26,5.26,0,0,0-.76,1.75,7.51,7.51,0,0,0-.2,2H1741A8.9,8.9,0,0,1,1741.34,1287Z"/><path class="cls-3" d="M1762.34,1301.51a4.39,4.39,0,0,0,2.73.87,3.93,3.93,0,0,0,3.63-2.09,14,14,0,0,0,1.33-6.4l-.06-.06a5.75,5.75,0,0,1-5.09,3,7.66,7.66,0,0,1-3-.54,6.11,6.11,0,0,1-2.19-1.5,6.3,6.3,0,0,1-1.33-2.33,9.46,9.46,0,0,1-.45-3,7.72,7.72,0,0,1,.53-2.9,6.53,6.53,0,0,1,1.49-2.26,6.78,6.78,0,0,1,2.29-1.47,7.86,7.86,0,0,1,2.92-.53,8.72,8.72,0,0,1,2.92.48,5.6,5.6,0,0,1,2.39,1.66,8.59,8.59,0,0,1,1.63,3.21,18.46,18.46,0,0,1,.6,5.16q0,5.71-1.81,8.76a6.25,6.25,0,0,1-5.82,3.05,7.34,7.34,0,0,1-4.59-1.4,5.66,5.66,0,0,1-2.08-4.25H1761A3.35,3.35,0,0,0,1762.34,1301.51Zm6.93-13.74a4.91,4.91,0,0,0-.87-1.6,4.14,4.14,0,0,0-1.41-1.1,4.47,4.47,0,0,0-2-.4,4.24,4.24,0,0,0-2,.43,3.73,3.73,0,0,0-1.33,1.16,4.94,4.94,0,0,0-.75,1.66,8.07,8.07,0,0,0-.23,2,4.74,4.74,0,0,0,.33,1.74,4.94,4.94,0,0,0,.9,1.49,4.34,4.34,0,0,0,1.36,1,3.93,3.93,0,0,0,1.75.39,4.39,4.39,0,0,0,1.86-.39,4.26,4.26,0,0,0,1.43-1.05,4.64,4.64,0,0,0,.9-1.55,5.56,5.56,0,0,0,.31-1.85A6.14,6.14,0,0,0,1769.27,1287.77Z"/><path class="cls-3" d="M1780.14,1300.89v3.44h-3.44v-3.44Z"/><path class="cls-3" d="M1784.45,1287a6.59,6.59,0,0,1,1.35-2.46,6.35,6.35,0,0,1,2.28-1.63,7.75,7.75,0,0,1,3.1-.59,8.43,8.43,0,0,1,2.68.42,6.53,6.53,0,0,1,2.19,1.21,5.63,5.63,0,0,1,1.47,2,6.47,6.47,0,0,1,.54,2.73,6.85,6.85,0,0,1-.45,2.57,7.32,7.32,0,0,1-1.19,2,10,10,0,0,1-1.71,1.6c-.64.48-1.3.93-2,1.37l-2,1.22a16.05,16.05,0,0,0-1.88,1.29,8.51,8.51,0,0,0-1.46,1.47,4.17,4.17,0,0,0-.79,1.81h11.29v2.33h-14.36a11.66,11.66,0,0,1,.7-3.33,8.88,8.88,0,0,1,1.38-2.4,10.3,10.3,0,0,1,1.89-1.8q1.05-.78,2.2-1.46,1.4-.87,2.45-1.6a10.81,10.81,0,0,0,1.75-1.47,5,5,0,0,0,1.41-3.63,3.78,3.78,0,0,0-.34-1.63,3.9,3.9,0,0,0-2.26-2.06,4.79,4.79,0,0,0-1.64-.28,3.84,3.84,0,0,0-2,.48,4.13,4.13,0,0,0-1.35,1.26,5.26,5.26,0,0,0-.76,1.75,7.51,7.51,0,0,0-.2,2h-2.64A8.9,8.9,0,0,1,1784.45,1287Z"/><path class="cls-3" d="M1801.35,1291a17.07,17.07,0,0,1,.31-2.54,12.5,12.5,0,0,1,.71-2.36,6.24,6.24,0,0,1,1.27-2,5.77,5.77,0,0,1,2-1.33,8.9,8.9,0,0,1,5.86,0,5.78,5.78,0,0,1,2,1.33,6.24,6.24,0,0,1,1.27,2,12.57,12.57,0,0,1,.71,2.36,17.2,17.2,0,0,1,.31,2.54q.06,1.3.06,2.51t-.06,2.51a17.26,17.26,0,0,1-.31,2.54,12.14,12.14,0,0,1-.71,2.34,6.31,6.31,0,0,1-1.27,1.94,5.63,5.63,0,0,1-2,1.32,9.23,9.23,0,0,1-5.88,0,5.61,5.61,0,0,1-2-1.32,6.31,6.31,0,0,1-1.27-1.94,12.07,12.07,0,0,1-.71-2.34,17.13,17.13,0,0,1-.31-2.54q-.06-1.3-.06-2.51T1801.35,1291Zm2.81,5.26a11.62,11.62,0,0,0,.5,2.88,5.44,5.44,0,0,0,1.35,2.28,4.11,4.11,0,0,0,5.21,0,5.44,5.44,0,0,0,1.35-2.28,11.66,11.66,0,0,0,.5-2.88c.05-1,.08-1.95.08-2.78q0-.81,0-1.78a15.66,15.66,0,0,0-.16-2,14.48,14.48,0,0,0-.4-1.91,5,5,0,0,0-.78-1.63,4,4,0,0,0-1.29-1.13,4.34,4.34,0,0,0-3.78,0,4,4,0,0,0-1.29,1.13,5,5,0,0,0-.78,1.63,14.48,14.48,0,0,0-.4,1.91,15.66,15.66,0,0,0-.16,2q0,1,0,1.78C1804.08,1294.33,1804.11,1295.26,1804.16,1296.28Z"/><path class="cls-3" d="M1825.64,1304.33v-15.76h-5.71v-2.11a13.4,13.4,0,0,0,2.17-.17,5.9,5.9,0,0,0,1.91-.63,4.36,4.36,0,0,0,1.44-1.27,4.84,4.84,0,0,0,.81-2h2v22Z"/><path class="cls-3" d="M1846.17,1285.57a3.57,3.57,0,0,0-2.54-.9,4.19,4.19,0,0,0-2.7.82,5.63,5.63,0,0,0-1.6,2.08,10,10,0,0,0-.79,2.71,22.29,22.29,0,0,0-.25,2.73l.06.06a5.66,5.66,0,0,1,2.31-2.2,7.71,7.71,0,0,1,6-.14,5.91,5.91,0,0,1,2.11,1.5,6.85,6.85,0,0,1,1.32,2.26,8.36,8.36,0,0,1,.46,2.82,9.15,9.15,0,0,1-.37,2.51,6.77,6.77,0,0,1-1.23,2.37,6.57,6.57,0,0,1-2.26,1.77,7.84,7.84,0,0,1-3.49.7,7,7,0,0,1-3.94-1,6.78,6.78,0,0,1-2.3-2.54,10.54,10.54,0,0,1-1.07-3.41,25.64,25.64,0,0,1-.26-3.6,24.37,24.37,0,0,1,.39-4.39,11.91,11.91,0,0,1,1.32-3.77,7.41,7.41,0,0,1,2.48-2.64,7.12,7.12,0,0,1,3.91-1,6.28,6.28,0,0,1,4.34,1.44A6.09,6.09,0,0,1,1850,1288h-2.64A3.8,3.8,0,0,0,1846.17,1285.57Zm-4.78,7.34A4.26,4.26,0,0,0,1840,1294a4.38,4.38,0,0,0-.88,1.58,6.31,6.31,0,0,0-.29,1.94,5.85,5.85,0,0,0,.31,1.92,4.54,4.54,0,0,0,.88,1.55,4.15,4.15,0,0,0,1.43,1,4.61,4.61,0,0,0,1.94.39,4.41,4.41,0,0,0,1.91-.39,3.92,3.92,0,0,0,1.38-1.07,4.89,4.89,0,0,0,.85-1.56,5.81,5.81,0,0,0,.29-1.85,7,7,0,0,0-.26-1.94,4.29,4.29,0,0,0-.82-1.58,4.12,4.12,0,0,0-1.4-1.07,4.45,4.45,0,0,0-2-.4A4.59,4.59,0,0,0,1841.39,1292.9Z"/><path class="cls-2" d="M924.12,107.61a17.22,17.22,0,0,1-12.74,5.73,19,19,0,0,1-8.63-2,23,23,0,0,1-7-5.43A25.85,25.85,0,0,1,891,98a25.4,25.4,0,0,1-1.72-9.24A25,25,0,0,1,891,79.53a23.82,23.82,0,0,1,4.79-7.62A23.11,23.11,0,0,1,903,66.72a22.85,22.85,0,0,1,20.19.91,18.19,18.19,0,0,1,7,7.62l-6.95,5.12a12.89,12.89,0,0,0-4.82-5.46A12.68,12.68,0,0,0,911.65,73a11.18,11.18,0,0,0-5.36,1.28,12.43,12.43,0,0,0-4.08,3.51,17.23,17.23,0,0,0-2.63,5.12,19.7,19.7,0,0,0-.94,6.13,19.22,19.22,0,0,0,1,6.3,15.75,15.75,0,0,0,2.83,5.09,13.56,13.56,0,0,0,4.28,3.4,11.8,11.8,0,0,0,5.43,1.25q6.61,0,11.93-6.54V95.21h-9.64V88.4H931.8V113h-7.69Z"/><path class="cls-2" d="M938.88,72.75v-9h9v9Zm0,40.25V77.68h9V113Z"/><path class="cls-2" d="M965.31,113l-13-35.33h9.3l9,28,9-28h8.49l-13,35.33Z"/><path class="cls-2" d="M992.55,72.75v-9h9v9Zm0,40.25V77.68h9V113Z"/><path class="cls-2" d="M1042.44,113h-9V93.18q0-4.25-1.48-6.2a4.88,4.88,0,0,0-4.11-2,7.75,7.75,0,0,0-2.76.54,10.2,10.2,0,0,0-2.66,1.52,12.32,12.32,0,0,0-2.26,2.33,9.21,9.21,0,0,0-1.48,3V113h-9V77.68h8.16v6.54a13.37,13.37,0,0,1,5.66-5.26,18.18,18.18,0,0,1,8.36-1.89,10.65,10.65,0,0,1,5.39,1.21,8.78,8.78,0,0,1,3.24,3.17A13.29,13.29,0,0,1,1042,85.9a29.09,29.09,0,0,1,.44,5.06Z"/><path class="cls-2" d="M1064,113.21a14.6,14.6,0,0,1-6.44-1.42,15.15,15.15,0,0,1-5-3.88,18,18,0,0,1-3.24-5.7,21.41,21.41,0,0,1,.07-14,18.51,18.51,0,0,1,3.37-5.8,15.23,15.23,0,0,1,11.8-5.33,13.94,13.94,0,0,1,7.28,1.85,15,15,0,0,1,5.05,5v-6.2h7.89v33.64a16.37,16.37,0,0,1-1.45,7,14.88,14.88,0,0,1-4.08,5.26,18.68,18.68,0,0,1-6.2,3.3,25.51,25.51,0,0,1-7.82,1.15,22.31,22.31,0,0,1-9.81-1.92,19.75,19.75,0,0,1-6.78-5.43l4.92-4.79a14,14,0,0,0,5.09,3.91,15.5,15.5,0,0,0,6.57,1.42,14,14,0,0,0,4-.57,9.36,9.36,0,0,0,3.37-1.79,8.48,8.48,0,0,0,2.29-3.1,10.84,10.84,0,0,0,.84-4.45v-4.45a11.94,11.94,0,0,1-4.92,4.69A14.52,14.52,0,0,1,1064,113.21Zm3.1-7.21a8.52,8.52,0,0,0,2.83-.47,9.51,9.51,0,0,0,2.46-1.28,10.49,10.49,0,0,0,2-1.89,8.59,8.59,0,0,0,1.35-2.29V91.63a11.07,11.07,0,0,0-3.78-5,9,9,0,0,0-5.39-1.89,8,8,0,0,0-3.81.91,9.27,9.27,0,0,0-2.93,2.43,11,11,0,0,0-1.85,3.47,12.89,12.89,0,0,0-.64,4,10.92,10.92,0,0,0,.74,4,10.38,10.38,0,0,0,2.05,3.3,9.59,9.59,0,0,0,3.1,2.23A9.3,9.3,0,0,0,1067.12,106Z"/><path class="cls-2" d="M1573.13,234.45a13.54,13.54,0,0,1-5,1,13.37,13.37,0,0,1-5.73-1.18,12.92,12.92,0,0,1-4.29-3.19,13.91,13.91,0,0,1-2.69-4.61,16.08,16.08,0,0,1-.92-5.41,20.29,20.29,0,0,1,.86-6,14.66,14.66,0,0,1,2.56-4.95,12.46,12.46,0,0,1,4.25-3.39,13.24,13.24,0,0,1,6-1.26,17.28,17.28,0,0,1,4.39.54,11.12,11.12,0,0,1,3.69,1.7,10.15,10.15,0,0,1,2.73,2.95,11.58,11.58,0,0,1,1.5,4.31h-3.81a7.51,7.51,0,0,0-1-2.83,6.72,6.72,0,0,0-1.88-1.94,8.33,8.33,0,0,0-2.54-1.14,11.66,11.66,0,0,0-3-.38,8.71,8.71,0,0,0-7.51,3.79,12,12,0,0,0-1.74,3.89,17.89,17.89,0,0,0-.56,4.47,14.43,14.43,0,0,0,.64,4.31,11.24,11.24,0,0,0,1.88,3.65,9.22,9.22,0,0,0,3.07,2.52,9.09,9.09,0,0,0,4.23.94,10.21,10.21,0,0,0,4-.72,8.17,8.17,0,0,0,4.69-4.95,9.75,9.75,0,0,0,.52-3.67h-9.14v-3.21h12.54v15.07h-2.4l-1-3.57A9.52,9.52,0,0,1,1573.13,234.45Z"/><path class="cls-2" d="M1585.95,210.34v-4.17h3.41v4.17Zm3.41,3.73v20.72h-3.41V214.07Z"/><path class="cls-2" d="M1600.33,234.79l-7.69-20.72h3.81l5.81,17.27h.08l5.65-17.27h3.57L1604,234.79Z"/><path class="cls-2" d="M1614.88,210.34v-4.17h3.41v4.17Zm3.41,3.73v20.72h-3.41V214.07Z"/><path class="cls-2" d="M1626.78,214.07v3.29h.08a7.17,7.17,0,0,1,6.73-3.77,9,9,0,0,1,3.41.56,5.61,5.61,0,0,1,2.2,1.56,5.81,5.81,0,0,1,1.18,2.38,12.85,12.85,0,0,1,.34,3.07v13.63h-3.41v-14a4.12,4.12,0,0,0-1.12-3,4.17,4.17,0,0,0-3.08-1.12,7,7,0,0,0-2.71.48,5.08,5.08,0,0,0-1.9,1.36,5.87,5.87,0,0,0-1.14,2.06,8.39,8.39,0,0,0-.38,2.58v11.7h-3.41V214.07Z"/><path class="cls-2" d="M1661.41,240.64q-2.32,2.52-7.29,2.52a14.08,14.08,0,0,1-2.95-.32,9,9,0,0,1-2.73-1,6.34,6.34,0,0,1-2-1.88,5.34,5.34,0,0,1-.88-2.85h3.41a2.52,2.52,0,0,0,.58,1.56,4.25,4.25,0,0,0,1.32,1,6.41,6.41,0,0,0,1.7.58,9.18,9.18,0,0,0,1.76.18,6.32,6.32,0,0,0,2.84-.58,5.34,5.34,0,0,0,1.92-1.6,6.6,6.6,0,0,0,1.1-2.46,13.75,13.75,0,0,0,.34-3.17v-1.36h-.08a5.73,5.73,0,0,1-2.67,2.83,8.28,8.28,0,0,1-3.79.9,9.12,9.12,0,0,1-4-.84,8.46,8.46,0,0,1-2.88-2.26,9.62,9.62,0,0,1-1.74-3.33,13.74,13.74,0,0,1-.58-4,15.76,15.76,0,0,1,.48-3.79,10.33,10.33,0,0,1,1.6-3.53,8.78,8.78,0,0,1,3-2.6,9.23,9.23,0,0,1,4.53-1,7.66,7.66,0,0,1,3.61.86,6.07,6.07,0,0,1,2.56,2.58h0v-3h3.21v19Q1663.73,238.11,1661.41,240.64Zm-4.35-9.32a5.6,5.6,0,0,0,1.9-1.84,8.39,8.39,0,0,0,1.06-2.58,12.55,12.55,0,0,0,.34-2.89,11.35,11.35,0,0,0-.32-2.69,7.49,7.49,0,0,0-1-2.38,5.31,5.31,0,0,0-1.82-1.7,5.42,5.42,0,0,0-2.73-.64,5.89,5.89,0,0,0-2.81.62,5.44,5.44,0,0,0-1.9,1.66,7,7,0,0,0-1.08,2.4,11.62,11.62,0,0,0-.34,2.85,14.23,14.23,0,0,0,.28,2.81,8,8,0,0,0,1,2.54,5.41,5.41,0,0,0,1.8,1.84,5.2,5.2,0,0,0,2.8.7A5.52,5.52,0,0,0,1657.06,231.32Z"/><path class="cls-2" d="M1688.86,214.07v3h-4.13v12.86a3.69,3.69,0,0,0,.1,1,1,1,0,0,0,.38.56,1.68,1.68,0,0,0,.78.26,11.25,11.25,0,0,0,1.3.06h1.56v3h-2.61a12.23,12.23,0,0,1-2.26-.18,3.32,3.32,0,0,1-1.52-.66,2.82,2.82,0,0,1-.86-1.36,7.85,7.85,0,0,1-.28-2.32V217.08h-3.53v-3h3.53v-6.21h3.41v6.21Z"/><path class="cls-2" d="M1695.71,214.07v4.37h.08a9.23,9.23,0,0,1,3-3.73,7.66,7.66,0,0,1,4.57-1.12v3.61a9.65,9.65,0,0,0-3.49.56,5.5,5.5,0,0,0-2.32,1.64,6.78,6.78,0,0,0-1.28,2.63,14.15,14.15,0,0,0-.4,3.55v9.22h-3.41V214.07Z"/><path class="cls-2" d="M1724.32,234.71a4.83,4.83,0,0,1-2.45.52,2.93,2.93,0,0,1-2.1-.74,3.22,3.22,0,0,1-.78-2.42,8.15,8.15,0,0,1-3.27,2.42,11.28,11.28,0,0,1-6.69.42,6.17,6.17,0,0,1-2.18-1,4.79,4.79,0,0,1-1.46-1.78,6,6,0,0,1-.54-2.67,6.08,6.08,0,0,1,.6-2.89,5.25,5.25,0,0,1,1.58-1.82,7.25,7.25,0,0,1,2.24-1.06q1.26-.36,2.58-.6t2.67-.42a14.81,14.81,0,0,0,2.22-.4,3.7,3.7,0,0,0,1.52-.76,1.86,1.86,0,0,0,.56-1.46,3.4,3.4,0,0,0-.42-1.8,2.89,2.89,0,0,0-1.08-1,4.4,4.4,0,0,0-1.48-.48,11.14,11.14,0,0,0-1.62-.12,7.21,7.21,0,0,0-3.61.82,3.49,3.49,0,0,0-1.56,3.11h-3.41a7.37,7.37,0,0,1,.8-3.25,6.08,6.08,0,0,1,1.92-2.14,8.07,8.07,0,0,1,2.75-1.18,14.48,14.48,0,0,1,3.31-.36,19.45,19.45,0,0,1,2.79.2,7.29,7.29,0,0,1,2.5.82,4.8,4.8,0,0,1,1.8,1.74,5.56,5.56,0,0,1,.68,2.92V229.9a7.92,7.92,0,0,0,.14,1.76q.14.56.94.56a4.14,4.14,0,0,0,1-.16Zm-5.53-10.62a4.25,4.25,0,0,1-1.68.7q-1,.22-2.18.36t-2.3.32a8.51,8.51,0,0,0-2.08.58,3.78,3.78,0,0,0-1.5,1.14,3.17,3.17,0,0,0-.58,2,2.74,2.74,0,0,0,.34,1.42,2.84,2.84,0,0,0,.88.94,3.72,3.72,0,0,0,1.26.52,7,7,0,0,0,1.52.16,8.12,8.12,0,0,0,2.89-.46,6.07,6.07,0,0,0,2-1.16,4.56,4.56,0,0,0,1.12-1.52,3.82,3.82,0,0,0,.36-1.54Z"/><path class="cls-2" d="M1725.4,217.08v-3h3.49V211a4.86,4.86,0,0,1,1.46-3.83,6.23,6.23,0,0,1,4.27-1.3,8.77,8.77,0,0,1,1.1.08,5.92,5.92,0,0,1,1.1.24v3a4.26,4.26,0,0,0-1-.22,8.36,8.36,0,0,0-1-.06,3.31,3.31,0,0,0-1.92.48,2.12,2.12,0,0,0-.68,1.84v2.89h4v3h-4v17.71h-3.41V217.08Z"/><path class="cls-2" d="M1736.54,217.08v-3H1740V211a4.86,4.86,0,0,1,1.46-3.83,6.23,6.23,0,0,1,4.27-1.3,8.77,8.77,0,0,1,1.1.08,5.92,5.92,0,0,1,1.1.24v3a4.26,4.26,0,0,0-1-.22,8.36,8.36,0,0,0-1-.06,3.31,3.31,0,0,0-1.92.48,2.12,2.12,0,0,0-.68,1.84v2.89h4v3h-4v17.71H1740V217.08Z"/><path class="cls-2" d="M1750.69,210.34v-4.17h3.41v4.17Zm3.41,3.73v20.72h-3.41V214.07Z"/><path class="cls-2" d="M1771.77,217.68a5.17,5.17,0,0,0-3.45-1.08,6.35,6.35,0,0,0-3.09.68,5.51,5.51,0,0,0-2,1.8,7.59,7.59,0,0,0-1.06,2.58,14.09,14.09,0,0,0-.32,3,11.45,11.45,0,0,0,.34,2.81,7.49,7.49,0,0,0,1.06,2.42,5.36,5.36,0,0,0,1.88,1.7,6.44,6.44,0,0,0,6.71-.68,6,6,0,0,0,1.74-3.73h3.49a9.54,9.54,0,0,1-2.87,5.93,9,9,0,0,1-6.27,2.08,10.79,10.79,0,0,1-4.19-.76,8.1,8.1,0,0,1-3-2.16,9.33,9.33,0,0,1-1.84-3.35,13.93,13.93,0,0,1-.62-4.27,15.19,15.19,0,0,1,.6-4.35,10,10,0,0,1,1.82-3.53,8.56,8.56,0,0,1,3.07-2.36,10,10,0,0,1,4.29-.86,12.52,12.52,0,0,1,3.31.42,8.07,8.07,0,0,1,2.72,1.3,7.13,7.13,0,0,1,1.94,2.22,8.19,8.19,0,0,1,1,3.19h-3.53A5.19,5.19,0,0,0,1771.77,217.68Z"/><path class="cls-4" d="M1566.27,259.45l2,0q1.06,0,2.1.12a16.09,16.09,0,0,1,1.94.3,4.93,4.93,0,0,1,1.54.6,7.45,7.45,0,0,1,2.38,2.32,6.46,6.46,0,0,1,1,3.65,7,7,0,0,1-1.1,3.95,6.5,6.5,0,0,1-3.15,2.46V273a6.59,6.59,0,0,1,4,2.4,7.19,7.19,0,0,1,1.4,4.49,8.54,8.54,0,0,1-.56,3,7.65,7.65,0,0,1-1.66,2.62,8.31,8.31,0,0,1-2.73,1.84,9.37,9.37,0,0,1-3.75.7h-13.83V259.45Zm1,12.3q3.25,0,4.67-1.14a4.13,4.13,0,0,0,1.42-3.43,5,5,0,0,0-.48-2.4,3.41,3.41,0,0,0-1.32-1.36,5.2,5.2,0,0,0-1.94-.62,18.63,18.63,0,0,0-2.34-.14h-7.62v9.1Zm1.92,13.1a5.47,5.47,0,0,0,3.95-1.36,5,5,0,0,0,1.42-3.77,4.67,4.67,0,0,0-.52-2.32,4,4,0,0,0-1.38-1.46,5.81,5.81,0,0,0-2-.76,12.07,12.07,0,0,0-2.32-.22h-8.7v9.9Z"/><path class="cls-4" d="M1601.14,288a4.83,4.83,0,0,1-2.45.52,2.93,2.93,0,0,1-2.1-.74,3.22,3.22,0,0,1-.78-2.42,8.15,8.15,0,0,1-3.27,2.42,11.28,11.28,0,0,1-6.69.42,6.19,6.19,0,0,1-2.18-1,4.8,4.8,0,0,1-1.46-1.78,6,6,0,0,1-.54-2.67,6.09,6.09,0,0,1,.6-2.89,5.24,5.24,0,0,1,1.58-1.82,7.25,7.25,0,0,1,2.24-1.06q1.26-.36,2.58-.6t2.66-.42a14.79,14.79,0,0,0,2.22-.4,3.71,3.71,0,0,0,1.52-.76,1.86,1.86,0,0,0,.56-1.46,3.4,3.4,0,0,0-.42-1.8,2.89,2.89,0,0,0-1.08-1,4.4,4.4,0,0,0-1.48-.48,11.12,11.12,0,0,0-1.62-.12,7.2,7.2,0,0,0-3.61.82,3.48,3.48,0,0,0-1.56,3.11h-3.41a7.37,7.37,0,0,1,.8-3.25,6.06,6.06,0,0,1,1.92-2.14,8.06,8.06,0,0,1,2.74-1.18,14.49,14.49,0,0,1,3.31-.36,19.44,19.44,0,0,1,2.79.2,7.29,7.29,0,0,1,2.5.82,4.81,4.81,0,0,1,1.8,1.74,5.57,5.57,0,0,1,.68,2.92v10.64a7.93,7.93,0,0,0,.14,1.76q.14.56.94.56a4.12,4.12,0,0,0,1-.16Zm-5.53-10.62a4.26,4.26,0,0,1-1.68.7q-1,.22-2.18.36t-2.3.32a8.49,8.49,0,0,0-2.08.58,3.78,3.78,0,0,0-1.5,1.14,3.18,3.18,0,0,0-.58,2,2.75,2.75,0,0,0,.34,1.42,2.83,2.83,0,0,0,.88.94,3.71,3.71,0,0,0,1.26.52,7,7,0,0,0,1.52.16,8.12,8.12,0,0,0,2.89-.46,6.08,6.08,0,0,0,2-1.16,4.57,4.57,0,0,0,1.12-1.52,3.82,3.82,0,0,0,.36-1.54Z"/><path class="cls-4" d="M1606.91,283.44a3.62,3.62,0,0,0,1.26,1.24,5.64,5.64,0,0,0,1.76.66,10,10,0,0,0,2,.2,12.48,12.48,0,0,0,1.68-.12,6.14,6.14,0,0,0,1.62-.44,3,3,0,0,0,1.22-.94,2.51,2.51,0,0,0,.48-1.58,2.27,2.27,0,0,0-1-2,8.56,8.56,0,0,0-2.5-1.1q-1.5-.42-3.27-.76a16.88,16.88,0,0,1-3.27-1,6.76,6.76,0,0,1-2.5-1.74,4.53,4.53,0,0,1-1-3.13,5,5,0,0,1,.7-2.69,5.73,5.73,0,0,1,1.8-1.82,8.29,8.29,0,0,1,2.48-1,11.44,11.44,0,0,1,2.74-.34,16.37,16.37,0,0,1,3.25.3,7.53,7.53,0,0,1,2.63,1,5.4,5.4,0,0,1,1.82,2,7.62,7.62,0,0,1,.8,3.15h-3.41a3.27,3.27,0,0,0-1.64-2.73,5.11,5.11,0,0,0-1.5-.58,7.7,7.7,0,0,0-1.66-.18,10.09,10.09,0,0,0-1.54.12,5.19,5.19,0,0,0-1.42.42,2.87,2.87,0,0,0-1,.8,2,2,0,0,0-.4,1.3,1.92,1.92,0,0,0,.62,1.46,5,5,0,0,0,1.58,1,13.89,13.89,0,0,0,2.16.64l2.41.54a25.68,25.68,0,0,1,2.5.68,8.18,8.18,0,0,1,2.16,1.06,5.2,5.2,0,0,1,1.52,1.66,4.89,4.89,0,0,1,.58,2.48,5.77,5.77,0,0,1-.78,3.13,6.11,6.11,0,0,1-2,2,8.54,8.54,0,0,1-2.84,1.06,16.82,16.82,0,0,1-3.15.3,14.56,14.56,0,0,1-3.29-.36,8,8,0,0,1-2.76-1.18,6,6,0,0,1-1.92-2.16,7.5,7.5,0,0,1-.8-3.27h3.41A3.83,3.83,0,0,0,1606.91,283.44Z"/><path class="cls-4" d="M1639,286.75a9.4,9.4,0,0,1-5.85,1.76,10.64,10.64,0,0,1-4.31-.8,8.48,8.48,0,0,1-3.07-2.24,9.53,9.53,0,0,1-1.86-3.45,16.62,16.62,0,0,1-.7-4.37,12.45,12.45,0,0,1,.72-4.33,10.34,10.34,0,0,1,2-3.41,9.19,9.19,0,0,1,3.08-2.24,9.42,9.42,0,0,1,3.91-.8,8.5,8.5,0,0,1,4.59,1.14,9.07,9.07,0,0,1,2.93,2.91,11.52,11.52,0,0,1,1.52,3.85,16.49,16.49,0,0,1,.34,4h-15.51a8.21,8.21,0,0,0,.32,2.58,5.83,5.83,0,0,0,1.16,2.16,5.72,5.72,0,0,0,2,1.5,7.05,7.05,0,0,0,2.93.56,5.9,5.9,0,0,0,3.55-1,4.84,4.84,0,0,0,1.82-3H1642A8.28,8.28,0,0,1,1639,286.75Zm-.82-13.3a5.8,5.8,0,0,0-5.43-3.57,5.94,5.94,0,0,0-2.38.46,5.52,5.52,0,0,0-1.82,1.26,6.05,6.05,0,0,0-1.2,1.86,7.07,7.07,0,0,0-.52,2.26h11.9A7,7,0,0,0,1638.18,273.44Z"/><path class="cls-4" d="M1649.46,259.45v28.61h-3.41V259.45Z"/><path class="cls-4" d="M1655,263.62v-4.17h3.41v4.17Zm3.41,3.73v20.72H1655V267.35Z"/><path class="cls-4" d="M1666.86,267.35v3.29h.08a7.17,7.17,0,0,1,6.73-3.77,9,9,0,0,1,3.41.56,5.61,5.61,0,0,1,2.2,1.56,5.8,5.8,0,0,1,1.18,2.38,12.85,12.85,0,0,1,.34,3.07v13.63h-3.41V274a4.12,4.12,0,0,0-1.12-3,4.17,4.17,0,0,0-3.09-1.12,7,7,0,0,0-2.71.48,5.08,5.08,0,0,0-1.9,1.36,5.87,5.87,0,0,0-1.14,2.06,8.39,8.39,0,0,0-.38,2.58v11.7h-3.41V267.35Z"/><path class="cls-4" d="M1700.6,286.75a9.41,9.41,0,0,1-5.85,1.76,10.65,10.65,0,0,1-4.31-.8,8.48,8.48,0,0,1-3.07-2.24,9.53,9.53,0,0,1-1.86-3.45,16.58,16.58,0,0,1-.7-4.37,12.45,12.45,0,0,1,.72-4.33,10.32,10.32,0,0,1,2-3.41,9.18,9.18,0,0,1,3.09-2.24,9.41,9.41,0,0,1,3.91-.8,8.5,8.5,0,0,1,4.59,1.14,9.08,9.08,0,0,1,2.93,2.91,11.49,11.49,0,0,1,1.52,3.85,16.45,16.45,0,0,1,.34,4h-15.51a8.21,8.21,0,0,0,.32,2.58,5.85,5.85,0,0,0,1.16,2.16,5.73,5.73,0,0,0,2,1.5,7,7,0,0,0,2.93.56,5.89,5.89,0,0,0,3.55-1,4.85,4.85,0,0,0,1.82-3h3.37A8.28,8.28,0,0,1,1700.6,286.75Zm-.82-13.3a5.85,5.85,0,0,0-1.24-1.86,5.92,5.92,0,0,0-1.84-1.24,5.84,5.84,0,0,0-2.34-.46,5.94,5.94,0,0,0-2.38.46,5.52,5.52,0,0,0-1.82,1.26,6,6,0,0,0-1.2,1.86,7,7,0,0,0-.52,2.26h11.9A7,7,0,0,0,1699.78,273.44Z"/><path class="cls-4" d="M1727.45,267.35v3h-4.13v12.86a3.74,3.74,0,0,0,.1,1,1,1,0,0,0,.38.56,1.68,1.68,0,0,0,.78.26,11.24,11.24,0,0,0,1.3.06h1.56v3h-2.6a12.25,12.25,0,0,1-2.26-.18,3.33,3.33,0,0,1-1.52-.66,2.83,2.83,0,0,1-.86-1.36,7.89,7.89,0,0,1-.28-2.32V270.35h-3.53v-3h3.53v-6.21h3.41v6.21Z"/><path class="cls-4" d="M1734.3,267.35v4.37h.08a9.23,9.23,0,0,1,3-3.73,7.65,7.65,0,0,1,4.57-1.12v3.61a9.64,9.64,0,0,0-3.49.56,5.5,5.5,0,0,0-2.32,1.64,6.81,6.81,0,0,0-1.28,2.63,14.19,14.19,0,0,0-.4,3.55v9.22h-3.41V267.35Z"/><path class="cls-4" d="M1762.91,288a4.82,4.82,0,0,1-2.44.52,2.93,2.93,0,0,1-2.1-.74,3.22,3.22,0,0,1-.78-2.42,8.15,8.15,0,0,1-3.27,2.42,11.28,11.28,0,0,1-6.69.42,6.2,6.2,0,0,1-2.18-1,4.8,4.8,0,0,1-1.46-1.78,6,6,0,0,1-.54-2.67,6.09,6.09,0,0,1,.6-2.89,5.23,5.23,0,0,1,1.58-1.82,7.25,7.25,0,0,1,2.24-1.06q1.26-.36,2.58-.6t2.67-.42a14.79,14.79,0,0,0,2.22-.4,3.71,3.71,0,0,0,1.52-.76,1.86,1.86,0,0,0,.56-1.46,3.41,3.41,0,0,0-.42-1.8,2.9,2.9,0,0,0-1.08-1,4.41,4.41,0,0,0-1.48-.48,11.14,11.14,0,0,0-1.62-.12,7.21,7.21,0,0,0-3.61.82,3.49,3.49,0,0,0-1.56,3.11h-3.41a7.35,7.35,0,0,1,.8-3.25,6.07,6.07,0,0,1,1.92-2.14,8.07,8.07,0,0,1,2.75-1.18,14.47,14.47,0,0,1,3.31-.36,19.43,19.43,0,0,1,2.79.2,7.29,7.29,0,0,1,2.5.82,4.81,4.81,0,0,1,1.8,1.74,5.57,5.57,0,0,1,.68,2.92v10.64a7.93,7.93,0,0,0,.14,1.76q.14.56.94.56a4.12,4.12,0,0,0,1-.16Zm-5.53-10.62a4.26,4.26,0,0,1-1.68.7q-1,.22-2.18.36t-2.3.32a8.51,8.51,0,0,0-2.08.58,3.78,3.78,0,0,0-1.5,1.14,3.17,3.17,0,0,0-.58,2,2.74,2.74,0,0,0,.34,1.42,2.82,2.82,0,0,0,.88.94,3.71,3.71,0,0,0,1.26.52,7,7,0,0,0,1.52.16,8.12,8.12,0,0,0,2.88-.46,6.07,6.07,0,0,0,2-1.16,4.58,4.58,0,0,0,1.12-1.52,3.82,3.82,0,0,0,.36-1.54Z"/><path class="cls-4" d="M1764,270.35v-3h3.49v-3.09a4.86,4.86,0,0,1,1.46-3.83,6.23,6.23,0,0,1,4.27-1.3,8.76,8.76,0,0,1,1.1.08,5.93,5.93,0,0,1,1.1.24v3a4.24,4.24,0,0,0-1-.22,8.34,8.34,0,0,0-1-.06,3.3,3.3,0,0,0-1.92.48,2.12,2.12,0,0,0-.68,1.84v2.89h4v3h-4v17.71h-3.41V270.35Z"/><path class="cls-4" d="M1775.13,270.35v-3h3.49v-3.09a4.86,4.86,0,0,1,1.46-3.83,6.23,6.23,0,0,1,4.27-1.3,8.76,8.76,0,0,1,1.1.08,5.93,5.93,0,0,1,1.1.24v3a4.24,4.24,0,0,0-1-.22,8.34,8.34,0,0,0-1-.06,3.3,3.3,0,0,0-1.92.48,2.12,2.12,0,0,0-.68,1.84v2.89h4v3h-4v17.71h-3.41V270.35Z"/><path class="cls-4" d="M1789.28,263.62v-4.17h3.41v4.17Zm3.41,3.73v20.72h-3.41V267.35Z"/><path class="cls-4" d="M1810.36,271a5.17,5.17,0,0,0-3.45-1.08,6.35,6.35,0,0,0-3.09.68,5.5,5.5,0,0,0-2,1.8,7.54,7.54,0,0,0-1.06,2.58,14,14,0,0,0-.32,3,11.55,11.55,0,0,0,.34,2.81,7.51,7.51,0,0,0,1.06,2.42,5.36,5.36,0,0,0,1.88,1.7,5.64,5.64,0,0,0,2.77.64,5.57,5.57,0,0,0,3.95-1.32,6,6,0,0,0,1.74-3.73h3.49a9.54,9.54,0,0,1-2.87,5.93,9,9,0,0,1-6.27,2.08,10.8,10.8,0,0,1-4.19-.76,8.11,8.11,0,0,1-3-2.16,9.35,9.35,0,0,1-1.84-3.35,14,14,0,0,1-.62-4.27,15.22,15.22,0,0,1,.6-4.35,10,10,0,0,1,1.82-3.53,8.57,8.57,0,0,1,3.07-2.36,10,10,0,0,1,4.29-.86,12.51,12.51,0,0,1,3.31.42,8,8,0,0,1,2.73,1.3,7.11,7.11,0,0,1,1.94,2.22,8.21,8.21,0,0,1,1,3.19H1812A5.2,5.2,0,0,0,1810.36,271Z"/><rect class="cls-5" x="1492" y="204" width="34" height="34"/><rect class="cls-6" x="1492" y="256" width="34" height="34"/><path class="cls-5" d="M1848.14,470.36l-18.59,215.93-11.44,266-10,88.66-22.88,68.64-14.3-20-10-30-41.47-273.13L1708,749.21l-10,1.43-8.58-14.3-12.87-18.59L1665.1,642l-24.31,130.13-11.44,2.86-8.58-18.59-10,31.46-24.31-25.74-11.44,50-10,178.75-20,111.54-21.45,24.31-12.87-11.44-11.44-22.88-8.58-45.76-11.44-42.9-10-75.79-24.31-91.52-21.45,44.33-12.87,44.33-10-18.59-10-54.34-10-5.72-14.3,87.23-10,14.3-8.58,32.89-34.32,51.48-28.6,113-12.87-1.43-14.3,11.44-21.45-31.46-14.3-55.77-17.16-50-11.44-11.44-8.58-28.6h-14.3l-21.45-7.15-8.58-11.44L1128.85,978l-11.44-30-12.87,1.43-8.58-20-11.44,20-8.58-7.15-11.44,61.49-11.44,21.45-35.75,133-10-4.29-11.44,1.43-14.3-25.74L953,1050.94,943,978l-10-20-14.3-44.33-10,28.6L887.18,968l-10-22.88-10,2.86-12.87-30-8.58,15.73-12.87-30-11.44,2.86-7.15-57.2-41.47,217.36L755.62,1101H742.75l-18.59,20-10-20L689.84,1018l-7.15-45.76s-10-4.29-12.87-5.72-10-30-10-30l-14.3-2.86-7.15,21.45-11.44,7.15-12.87-41.47-10,5.72L592.6,949.41l-7.15-8.58L564,887.92l-14.3-10-11.44,8.58-8.58,17.16-35.75,183-21.45,22.88-20-62.92-24.31-163-30-120.12-12.87-15.73-20-10L342.36,617.65l-11.44,27.17-21.45,84.37-14.3-20-2.86,24.31-17.16,5.72-42.9,321.75-20,34.32-25.74-62.92L137.87,687.72l-14.3-11.44L115,680.57v564H1850.37Z"/><path class="cls-6" d="M1851,732l-11.44-8.58-9.06.48-13.82,22.4-8.58,340.34-25.74,50-8.58,7.15-10-5.72-10-12.87-11.44-15.73-37.18-154.44s-7.15-20-10-20-10,22.88-10,22.88l-20-5.72-22.88-51.48-10,8.58-10-41.47-22.88,64.35-12.87-7.15-12.87,7.15-20,68.64-11.44,118.69-18.59,37.18L1507.8,1161l-15.73-25.74-15.73-11.44-27.17-117.26L1422,990.88l-11.44,4.29-20,37.18-11.44-12.87-5.72,12.87-15.73-2.86-8.58,17.16-15.73,5.72-5.72,18.59h-10l-12.87,15.73-20,67.21L1259,1176.78l-10-1.43-12.87-11.44-21.45-24.31-8.58-21.45-10-15.73-14.3-38.61-11.44,14.3h-5.72l-14.3,8.58-5.72-8.58-14.3-12.87-14.3-21.45-8.58,2.86-10-14.3h-22.88l-15.73-5.72-14.3,17.16-25.74,71.5-10-17.16-18.59,65.78L974.41,1161l-24.31-42.9-28.6-81.51-11.44,18.59-22.88-17.16-18.59-51.48-12.87,18.59-12.87,52.91-20-48.62-11.44-4.29-10.49-74.36-19.54,58.63-8.58,40-14.3,97.24L747,1149.61l-22.88,14.3-22.88-31.46-11.44-8.58-11.44-50-8.58-11.44-11.44-47.19h-10l-20-15.73-11.44,7.15-24.31-57.2-7.15-8.58L558.76,882.2l-19.07,21.45-12.87-5.72-11.44,20-7.15,57.2-11.44,128.7-15.73,42.9L461,1151l-11.44-15.73-8.58-5.72-42.9-148.72-14.3-71.5L375.25,988l-11.44,4.29-20-17.16-22.88-62.92-14.3-34.32-5.72-5.72-14.3,17.16H275.15l-10-10L258,920.81s-8.58,17.16-14.3,20-14.3,114.4-14.3,114.4l-28.6,60.06-34.32-55.77-20-77.22-12.87-55.77L125,910.8l-10-1.43v334H1850.37Z"/></svg>