<svg id="Layer_1" data-name="Layer 1" xmlns="http://www.w3.org/2000/svg" viewBox="0 0 1920 1359"><defs><style>.cls-1{fill:none;stroke:#29abe2;stroke-width:0.5px;}.cls-1,.cls-4,.cls-5{stroke-miterlimit:10;}.cls-2{fill:#29abe2;}.cls-3{fill:#0071bc;}.cls-4{fill:#cdebf8;stroke:#0071bc;}.cls-4,.cls-5{fill-opacity:0.5;}.cls-5,.cls-6{fill:#93278f;}.cls-5{stroke:#1b1464;}</style></defs><title>Artboard 7 copy 2</title><rect class="cls-1" x="114.89" y="167.57" width="1737.77" height="1073.9"/><line class="cls-1" x1="548.37" y1="167.57" x2="548.37" y2="1241.47"/><line class="cls-1" x1="983.77" y1="167.57" x2="983.77" y2="1241.47"/><line class="cls-1" x1="1417.53" y1="167.57" x2="1417.53" y2="1241.47"/><line class="cls-1" x1="1851.84" y1="166.75" x2="1851.84" y2="1242.28"/><line class="cls-1" x1="114.89" y1="437.13" x2="1851.84" y2="437.13"/><line class="cls-1" x1="114.89" y1="704.52" x2="1851.84" y2="704.52"/><line class="cls-1" x1="114.89" y1="976.25" x2="1852.66" y2="976.25"/><path class="cls-2" d="M959.48,1279.89H944.24v39.71h-9.3v-39.71h-15.3v-8.16h39.84Z"/><path class="cls-2" d="M965.48,1319.6v-47.8h9.3v47.8Z"/><path class="cls-2" d="M1023.8,1319.6v-31.69l-12.34,23.6h-5.06l-12.34-23.6v31.69h-9.3v-47.87h10L1008.9,1299l14.29-27.24h9.91v47.87Z"/><path class="cls-2" d="M1076.32,1311.44v8.16h-33.24v-47.87h32.63v8.16h-23.33v11.53h20.16V1299h-20.16v12.47Z"/><path class="cls-2" d="M80.35,846.05H32.48V824.88a13.6,13.6,0,0,1,1.38-6.1A15.82,15.82,0,0,1,37.5,814a17.2,17.2,0,0,1,5.12-3.17,15.43,15.43,0,0,1,5.76-1.15A15.92,15.92,0,0,1,56.85,812a13.35,13.35,0,0,1,5.5,6.3l18-11.26v10.52l-16,10v9.17h16Zm-24.2-9.3V825.09a4.93,4.93,0,0,0-.61-2.39,6.11,6.11,0,0,0-1.65-1.92,8.27,8.27,0,0,0-2.46-1.28,9.57,9.57,0,0,0-3-.47,8.65,8.65,0,0,0-3.1.54A8.13,8.13,0,0,0,42.83,821a6.59,6.59,0,0,0-1.62,2.09,5.44,5.44,0,0,0-.57,2.39v11.26Z"/><path class="cls-2" d="M72.19,767.38h8.16v33.24H32.48V768h8.16v23.33H52.17V771.15h7.55v20.16H72.19Z"/><path class="cls-2" d="M77.11,728a22.17,22.17,0,0,1,2.63,5.56,21.35,21.35,0,0,1,.94,6.44,20.36,20.36,0,0,1-2.09,9.24,23.65,23.65,0,0,1-5.46,7.18A24.1,24.1,0,0,1,65.38,761a25.71,25.71,0,0,1-9,1.62,25.22,25.22,0,0,1-16.92-6.51,23.14,23.14,0,0,1-5.36-7.25,20.92,20.92,0,0,1-2-9.1,20.1,20.1,0,0,1,2.12-9.24,23.22,23.22,0,0,1,5.56-7.15,25.26,25.26,0,0,1,7.82-4.58,25.52,25.52,0,0,1,8.9-1.62,25.22,25.22,0,0,1,8.73,1.52,24,24,0,0,1,7.45,4.35l7.62-6.81v8.83Zm-4.65,11.87a11.68,11.68,0,0,0-1.69-6.2l-8.16,7.21V732l3.37-3a19,19,0,0,0-9.57-2.5,19.28,19.28,0,0,0-6,.94,16.83,16.83,0,0,0-5.12,2.66,13.33,13.33,0,0,0-3.57,4.18,12.29,12.29,0,0,0,0,11.26,13.36,13.36,0,0,0,3.67,4.18,16.61,16.61,0,0,0,5.16,2.6,20,20,0,0,0,11.83,0,16.25,16.25,0,0,0,5.12-2.63,13.19,13.19,0,0,0,3.57-4.21A11.71,11.71,0,0,0,72.46,739.87Z"/><path class="cls-2" d="M72.46,689.71a10.68,10.68,0,0,0-1.35-5.56,10.88,10.88,0,0,0-3.51-3.64,14.5,14.5,0,0,0-5-2,28.65,28.65,0,0,0-5.76-.57H32.48v-9.24H56.88a34.91,34.91,0,0,1,9.24,1.18,21.19,21.19,0,0,1,7.55,3.71,17.77,17.77,0,0,1,5.12,6.51,22,22,0,0,1,1.89,9.51,21.76,21.76,0,0,1-2,9.74,18.15,18.15,0,0,1-5.26,6.51,21,21,0,0,1-7.58,3.61,35.75,35.75,0,0,1-9,1.11H32.48v-9.3H56.88a29,29,0,0,0,5.83-.57,14.47,14.47,0,0,0,5-2,10.14,10.14,0,0,0,4.79-9.07Z"/><path class="cls-2" d="M72.19,626.2h8.16v33.24H32.48V626.81h8.16v23.33H52.17V630h7.55v20.16H72.19Z"/><path class="cls-2" d="M45,590.74a11.69,11.69,0,0,0-1.28,1.72,21.11,21.11,0,0,0-1.58,3,26.3,26.3,0,0,0-1.31,3.88,16.94,16.94,0,0,0-.54,4.25q0,3.84,1.42,5.73a4.68,4.68,0,0,0,4,1.89,4.09,4.09,0,0,0,2.46-.71,6.11,6.11,0,0,0,1.72-2.06,17.28,17.28,0,0,0,1.35-3.4q.61-2.06,1.28-4.75.94-3.5,2-6.37a17.28,17.28,0,0,1,2.7-4.85A11.16,11.16,0,0,1,61.1,586a12.87,12.87,0,0,1,5.56-1.08,13.86,13.86,0,0,1,6.57,1.45,12.28,12.28,0,0,1,4.42,3.88,16.57,16.57,0,0,1,2.46,5.66,28.86,28.86,0,0,1,.78,6.74,36,36,0,0,1-1.62,10.65,32.84,32.84,0,0,1-4.58,9.44l-8-4.11a13,13,0,0,0,1.58-2.19,33.35,33.35,0,0,0,2-3.74,29,29,0,0,0,1.65-4.79,21.6,21.6,0,0,0,.67-5.39q0-7.69-4.92-7.69a4.14,4.14,0,0,0-2.7.88A7.46,7.46,0,0,0,63,598.22a24,24,0,0,0-1.48,3.91q-.67,2.29-1.42,5.12a43.54,43.54,0,0,1-2.06,6,16.21,16.21,0,0,1-2.6,4.21A9.46,9.46,0,0,1,52,620a12.39,12.39,0,0,1-4.79.84,14.87,14.87,0,0,1-6.47-1.35A13.07,13.07,0,0,1,36,615.72a17,17,0,0,1-2.87-5.56,23,23,0,0,1-1-6.81,26.43,26.43,0,0,1,1.58-9.3,34.67,34.67,0,0,1,3.74-7.42Z"/><path class="cls-2" d="M40.64,542.33v15.24H80.35v9.3H40.64v15.3H32.48V542.33Z"/><path class="cls-2" d="M45,508.21a11.69,11.69,0,0,0-1.28,1.72,21.11,21.11,0,0,0-1.58,3,26.3,26.3,0,0,0-1.31,3.88,16.94,16.94,0,0,0-.54,4.25q0,3.84,1.42,5.73a4.68,4.68,0,0,0,4,1.89,4.09,4.09,0,0,0,2.46-.71,6.11,6.11,0,0,0,1.72-2.06,17.28,17.28,0,0,0,1.35-3.4q.61-2.06,1.28-4.75.94-3.5,2-6.37a17.28,17.28,0,0,1,2.7-4.85,11.16,11.16,0,0,1,3.88-3.07,12.87,12.87,0,0,1,5.56-1.08,13.86,13.86,0,0,1,6.57,1.45,12.28,12.28,0,0,1,4.42,3.88,16.57,16.57,0,0,1,2.46,5.66,28.86,28.86,0,0,1,.78,6.74,36,36,0,0,1-1.62,10.65,32.84,32.84,0,0,1-4.58,9.44l-8-4.11a13,13,0,0,0,1.58-2.19,33.35,33.35,0,0,0,2-3.74,29,29,0,0,0,1.65-4.79,21.6,21.6,0,0,0,.67-5.39q0-7.69-4.92-7.69a4.14,4.14,0,0,0-2.7.88A7.46,7.46,0,0,0,63,515.7a24,24,0,0,0-1.48,3.91q-.67,2.29-1.42,5.12a43.54,43.54,0,0,1-2.06,6,16.21,16.21,0,0,1-2.6,4.21A9.46,9.46,0,0,1,52,537.44a12.39,12.39,0,0,1-4.79.84,14.87,14.87,0,0,1-6.47-1.35A13.07,13.07,0,0,1,36,533.19a17,17,0,0,1-2.87-5.56,23,23,0,0,1-1-6.81,26.43,26.43,0,0,1,1.58-9.3,34.67,34.67,0,0,1,3.74-7.42Z"/><path class="cls-3" d="M117.53,1304.33v-15.76h-5.71v-2.11a13.4,13.4,0,0,0,2.17-.17,5.9,5.9,0,0,0,1.91-.63,4.36,4.36,0,0,0,1.44-1.27,4.84,4.84,0,0,0,.81-2h2v22Z"/><path class="cls-3" d="M128.07,1287a6.59,6.59,0,0,1,1.35-2.46,6.35,6.35,0,0,1,2.28-1.63,7.75,7.75,0,0,1,3.1-.59,8.43,8.43,0,0,1,2.68.42,6.53,6.53,0,0,1,2.19,1.21,5.63,5.63,0,0,1,1.47,2,6.47,6.47,0,0,1,.54,2.73,6.85,6.85,0,0,1-.45,2.57,7.32,7.32,0,0,1-1.19,2,10,10,0,0,1-1.71,1.6c-.64.48-1.3.93-2,1.37l-2,1.22a16.05,16.05,0,0,0-1.88,1.29,8.51,8.51,0,0,0-1.46,1.47,4.17,4.17,0,0,0-.79,1.81h11.29v2.33H127.11a11.66,11.66,0,0,1,.7-3.33,8.88,8.88,0,0,1,1.38-2.4,10.3,10.3,0,0,1,1.89-1.8q1.05-.78,2.2-1.46,1.4-.87,2.45-1.6a10.81,10.81,0,0,0,1.75-1.47,5,5,0,0,0,1.41-3.63,3.78,3.78,0,0,0-.34-1.63,3.9,3.9,0,0,0-2.26-2.06,4.79,4.79,0,0,0-1.64-.28,3.84,3.84,0,0,0-2,.48,4.13,4.13,0,0,0-1.35,1.26,5.26,5.26,0,0,0-.76,1.75,7.51,7.51,0,0,0-.2,2h-2.64A8.9,8.9,0,0,1,128.07,1287Z"/><path class="cls-3" d="M155.74,1282.19a6.87,6.87,0,0,1,5.07,1.72,7.64,7.64,0,0,1,0,9.66,6.74,6.74,0,0,1-5.07,1.71H149v9.06H146v-22.14Zm-1,10.61a5.26,5.26,0,0,0,3.67-1,3.89,3.89,0,0,0,1.16-3,3.84,3.84,0,0,0-1.16-3,5.41,5.41,0,0,0-3.67-1H149v8.13Z"/><path class="cls-3" d="M170.22,1282.19l7,18.61,7-18.61h4v22.14h-2.79v-18.42h-.06l-6.92,18.42H176L169,1285.91H169v18.42h-2.79v-22.14Z"/><path class="cls-3" d="M217.05,1282.19v2.48H204.71v7h11.51v2.48H204.71v7.66h12.44v2.48H201.76v-22.14Z"/><path class="cls-3" d="M218.36,1284.67v-2.48h17.71v2.48h-7.38v19.66h-2.95v-19.66Z"/><path class="cls-3" d="M253.13,1304.33v-15.76h-5.71v-2.11a13.4,13.4,0,0,0,2.17-.17,5.9,5.9,0,0,0,1.91-.63,4.36,4.36,0,0,0,1.44-1.27,4.84,4.84,0,0,0,.81-2h2v22Z"/><path class="cls-3" d="M270.37,1304.33v-15.76h-5.71v-2.11a13.4,13.4,0,0,0,2.17-.17,5.9,5.9,0,0,0,1.91-.63,4.36,4.36,0,0,0,1.44-1.27,4.84,4.84,0,0,0,.81-2h2v22Z"/><path class="cls-3" d="M285.22,1300.89v3.44h-3.44v-3.44Z"/><path class="cls-3" d="M289.54,1287a6.59,6.59,0,0,1,1.35-2.46,6.35,6.35,0,0,1,2.28-1.63,7.75,7.75,0,0,1,3.1-.59,8.43,8.43,0,0,1,2.68.42,6.53,6.53,0,0,1,2.19,1.21,5.63,5.63,0,0,1,1.47,2,6.47,6.47,0,0,1,.54,2.73,6.85,6.85,0,0,1-.45,2.57,7.32,7.32,0,0,1-1.19,2,10,10,0,0,1-1.71,1.6c-.64.48-1.3.93-2,1.37l-2,1.22a16.05,16.05,0,0,0-1.88,1.29,8.51,8.51,0,0,0-1.46,1.47,4.17,4.17,0,0,0-.79,1.81h11.29v2.33H288.57a11.66,11.66,0,0,1,.7-3.33,8.88,8.88,0,0,1,1.38-2.4,10.3,10.3,0,0,1,1.89-1.8q1.05-.78,2.2-1.46,1.4-.87,2.45-1.6a10.81,10.81,0,0,0,1.75-1.47,5,5,0,0,0,1.41-3.63A3.78,3.78,0,0,0,300,1287a3.9,3.9,0,0,0-2.26-2.06,4.79,4.79,0,0,0-1.64-.28,3.84,3.84,0,0,0-2,.48,4.13,4.13,0,0,0-1.35,1.26,5.26,5.26,0,0,0-.76,1.75,7.51,7.51,0,0,0-.2,2h-2.64A8.9,8.9,0,0,1,289.54,1287Z"/><path class="cls-3" d="M312.11,1291.8H313a5.45,5.45,0,0,0,1.6-.23,4.08,4.08,0,0,0,1.33-.68,3.28,3.28,0,0,0,.92-1.13,3.44,3.44,0,0,0,.34-1.55,3.18,3.18,0,0,0-1.12-2.65,4.35,4.35,0,0,0-2.79-.88,4.15,4.15,0,0,0-1.84.39,3.72,3.72,0,0,0-1.3,1,4.38,4.38,0,0,0-.76,1.52,6.62,6.62,0,0,0-.25,1.83h-2.64a10,10,0,0,1,.51-2.88,6.45,6.45,0,0,1,1.29-2.23,5.76,5.76,0,0,1,2.09-1.46,7.44,7.44,0,0,1,2.9-.53,9.51,9.51,0,0,1,2.65.36,6.16,6.16,0,0,1,2.12,1.07,4.9,4.9,0,0,1,1.41,1.83,6.27,6.27,0,0,1,.51,2.64,4.25,4.25,0,0,1-.87,2.64,5.56,5.56,0,0,1-2.17,1.74v.06a4.58,4.58,0,0,1,3,1.89,6,6,0,0,1,1,3.44,6.61,6.61,0,0,1-.6,2.9,6,6,0,0,1-1.63,2.09,6.92,6.92,0,0,1-2.4,1.26,10.1,10.1,0,0,1-2.93.42,9.36,9.36,0,0,1-3-.46,6.25,6.25,0,0,1-2.33-1.38,6,6,0,0,1-1.47-2.25,8,8,0,0,1-.48-3h2.64a5.35,5.35,0,0,0,1.24,3.49,4.32,4.32,0,0,0,3.44,1.35,5.64,5.64,0,0,0,1.83-.29,4.71,4.71,0,0,0,1.52-.84,4,4,0,0,0,1.43-3.12,4.22,4.22,0,0,0-.37-1.81,3.92,3.92,0,0,0-2.47-2.14,6.22,6.22,0,0,0-1.85-.26,13.09,13.09,0,0,0-1.58.09v-2.23Z"/><path class="cls-3" d="M328.33,1300.89v3.44h-3.44v-3.44Z"/><path class="cls-3" d="M332.65,1287a6.59,6.59,0,0,1,1.35-2.46,6.35,6.35,0,0,1,2.28-1.63,7.75,7.75,0,0,1,3.1-.59,8.43,8.43,0,0,1,2.68.42,6.53,6.53,0,0,1,2.19,1.21,5.63,5.63,0,0,1,1.47,2,6.47,6.47,0,0,1,.54,2.73,6.85,6.85,0,0,1-.45,2.57,7.32,7.32,0,0,1-1.19,2,10,10,0,0,1-1.71,1.6c-.64.48-1.3.93-2,1.37l-2,1.22a16.05,16.05,0,0,0-1.88,1.29,8.51,8.51,0,0,0-1.46,1.47,4.17,4.17,0,0,0-.79,1.81H346v2.33H331.68a11.66,11.66,0,0,1,.7-3.33,8.88,8.88,0,0,1,1.38-2.4,10.3,10.3,0,0,1,1.89-1.8q1.05-.78,2.2-1.46,1.4-.87,2.45-1.6a10.81,10.81,0,0,0,1.75-1.47,5,5,0,0,0,1.41-3.63,3.78,3.78,0,0,0-.34-1.63,3.9,3.9,0,0,0-2.26-2.06,4.79,4.79,0,0,0-1.64-.28,3.84,3.84,0,0,0-2,.48,4.13,4.13,0,0,0-1.35,1.26,5.26,5.26,0,0,0-.76,1.75,7.51,7.51,0,0,0-.2,2H332.3A8.9,8.9,0,0,1,332.65,1287Z"/><path class="cls-3" d="M349.55,1291a17.07,17.07,0,0,1,.31-2.54,12.5,12.5,0,0,1,.71-2.36,6.24,6.24,0,0,1,1.27-2,5.77,5.77,0,0,1,2-1.33,8.9,8.9,0,0,1,5.86,0,5.78,5.78,0,0,1,2,1.33,6.24,6.24,0,0,1,1.27,2,12.57,12.57,0,0,1,.71,2.36,17.2,17.2,0,0,1,.31,2.54q.06,1.3.06,2.51t-.06,2.51a17.26,17.26,0,0,1-.31,2.54,12.14,12.14,0,0,1-.71,2.34,6.31,6.31,0,0,1-1.27,1.94,5.63,5.63,0,0,1-2,1.32,9.23,9.23,0,0,1-5.88,0,5.61,5.61,0,0,1-2-1.32,6.31,6.31,0,0,1-1.27-1.94,12.07,12.07,0,0,1-.71-2.34,17.13,17.13,0,0,1-.31-2.54q-.06-1.3-.06-2.51T349.55,1291Zm2.81,5.26a11.62,11.62,0,0,0,.5,2.88,5.44,5.44,0,0,0,1.35,2.28,4.11,4.11,0,0,0,5.21,0,5.44,5.44,0,0,0,1.35-2.28,11.66,11.66,0,0,0,.5-2.88c.05-1,.08-1.95.08-2.78q0-.81,0-1.78a15.66,15.66,0,0,0-.16-2,14.48,14.48,0,0,0-.4-1.91,5,5,0,0,0-.78-1.63,4,4,0,0,0-1.29-1.13,4.34,4.34,0,0,0-3.78,0,4,4,0,0,0-1.29,1.13,5,5,0,0,0-.78,1.63,14.48,14.48,0,0,0-.4,1.91,15.66,15.66,0,0,0-.16,2q0,1,0,1.78C352.28,1294.33,352.3,1295.26,352.36,1296.28Z"/><path class="cls-3" d="M373.83,1304.33v-15.76h-5.71v-2.11a13.4,13.4,0,0,0,2.17-.17,5.9,5.9,0,0,0,1.91-.63,4.36,4.36,0,0,0,1.44-1.27,4.84,4.84,0,0,0,.81-2h2v22Z"/><path class="cls-3" d="M394.37,1285.57a3.57,3.57,0,0,0-2.54-.9,4.19,4.19,0,0,0-2.7.82,5.63,5.63,0,0,0-1.6,2.08,10,10,0,0,0-.79,2.71,22.29,22.29,0,0,0-.25,2.73l.06.06a5.66,5.66,0,0,1,2.31-2.2,7.71,7.71,0,0,1,6-.14,5.91,5.91,0,0,1,2.11,1.5,6.85,6.85,0,0,1,1.32,2.26,8.36,8.36,0,0,1,.46,2.82,9.15,9.15,0,0,1-.37,2.51,6.77,6.77,0,0,1-1.23,2.37,6.57,6.57,0,0,1-2.26,1.77,7.84,7.84,0,0,1-3.49.7,7,7,0,0,1-3.94-1,6.78,6.78,0,0,1-2.3-2.54,10.54,10.54,0,0,1-1.07-3.41,25.64,25.64,0,0,1-.26-3.6,24.37,24.37,0,0,1,.39-4.39,11.91,11.91,0,0,1,1.32-3.77,7.41,7.41,0,0,1,2.48-2.64,7.12,7.12,0,0,1,3.91-1,6.28,6.28,0,0,1,4.34,1.44,6.09,6.09,0,0,1,1.86,4.17h-2.64A3.8,3.8,0,0,0,394.37,1285.57Zm-4.78,7.34a4.26,4.26,0,0,0-1.43,1.05,4.38,4.38,0,0,0-.88,1.58,6.31,6.31,0,0,0-.29,1.94,5.85,5.85,0,0,0,.31,1.92,4.54,4.54,0,0,0,.88,1.55,4.15,4.15,0,0,0,1.43,1,4.61,4.61,0,0,0,1.94.39,4.41,4.41,0,0,0,1.91-.39,3.92,3.92,0,0,0,1.38-1.07,4.89,4.89,0,0,0,.85-1.56,5.81,5.81,0,0,0,.29-1.85,7,7,0,0,0-.26-1.94,4.29,4.29,0,0,0-.82-1.58,4.12,4.12,0,0,0-1.4-1.07,4.45,4.45,0,0,0-2-.4A4.59,4.59,0,0,0,389.59,1292.9Z"/><path class="cls-3" d="M1569.33,1304.33v-15.76h-5.71v-2.11a13.4,13.4,0,0,0,2.17-.17,5.9,5.9,0,0,0,1.91-.63,4.36,4.36,0,0,0,1.44-1.27,4.84,4.84,0,0,0,.81-2h2v22Z"/><path class="cls-3" d="M1579.88,1287a6.59,6.59,0,0,1,1.35-2.46,6.35,6.35,0,0,1,2.28-1.63,7.75,7.75,0,0,1,3.1-.59,8.43,8.43,0,0,1,2.68.42,6.53,6.53,0,0,1,2.19,1.21,5.63,5.63,0,0,1,1.47,2,6.47,6.47,0,0,1,.54,2.73,6.85,6.85,0,0,1-.45,2.57,7.32,7.32,0,0,1-1.19,2,10,10,0,0,1-1.71,1.6c-.64.48-1.3.93-2,1.37l-2,1.22a16.05,16.05,0,0,0-1.88,1.29,8.51,8.51,0,0,0-1.46,1.47,4.17,4.17,0,0,0-.79,1.81h11.29v2.33h-14.36a11.66,11.66,0,0,1,.7-3.33,8.88,8.88,0,0,1,1.38-2.4,10.3,10.3,0,0,1,1.89-1.8q1.05-.78,2.2-1.46,1.4-.87,2.45-1.6a10.81,10.81,0,0,0,1.75-1.47,5,5,0,0,0,1.41-3.63,3.78,3.78,0,0,0-.34-1.63,3.9,3.9,0,0,0-2.26-2.06,4.79,4.79,0,0,0-1.64-.28,3.84,3.84,0,0,0-2,.48,4.13,4.13,0,0,0-1.35,1.26,5.26,5.26,0,0,0-.76,1.75,7.51,7.51,0,0,0-.2,2h-2.64A8.9,8.9,0,0,1,1579.88,1287Z"/><path class="cls-3" d="M1607.11,1282.19l8.65,22.14h-3.26l-2.42-6.67h-9.37l-2.48,6.67h-3l8.62-22.14Zm2,13-3.69-10.33h-.06l-3.75,10.33Z"/><path class="cls-3" d="M1622,1282.19l7,18.61,7-18.61h4v22.14h-2.79v-18.42h-.06l-6.92,18.42h-2.51l-6.92-18.42h-.06v18.42H1618v-22.14Z"/><path class="cls-3" d="M1668.86,1282.19v2.48h-12.34v7H1668v2.48h-11.51v7.66H1669v2.48h-15.38v-22.14Z"/><path class="cls-3" d="M1670.16,1284.67v-2.48h17.71v2.48h-7.38v19.66h-2.95v-19.66Z"/><path class="cls-3" d="M1704.93,1304.33v-15.76h-5.71v-2.11a13.4,13.4,0,0,0,2.17-.17,5.9,5.9,0,0,0,1.91-.63,4.36,4.36,0,0,0,1.44-1.27,4.84,4.84,0,0,0,.81-2h2v22Z"/><path class="cls-3" d="M1722.17,1304.33v-15.76h-5.71v-2.11a13.4,13.4,0,0,0,2.17-.17,5.9,5.9,0,0,0,1.91-.63,4.36,4.36,0,0,0,1.44-1.27,4.84,4.84,0,0,0,.81-2h2v22Z"/><path class="cls-3" d="M1737,1300.89v3.44h-3.44v-3.44Z"/><path class="cls-3" d="M1741.34,1287a6.59,6.59,0,0,1,1.35-2.46,6.35,6.35,0,0,1,2.28-1.63,7.75,7.75,0,0,1,3.1-.59,8.43,8.43,0,0,1,2.68.42,6.53,6.53,0,0,1,2.19,1.21,5.63,5.63,0,0,1,1.47,2,6.47,6.47,0,0,1,.54,2.73,6.85,6.85,0,0,1-.45,2.57,7.32,7.32,0,0,1-1.19,2,10,10,0,0,1-1.71,1.6c-.64.48-1.3.93-2,1.37l-2,1.22a16.05,16.05,0,0,0-1.88,1.29,8.51,8.51,0,0,0-1.46,1.47,4.17,4.17,0,0,0-.79,1.81h11.29v2.33h-14.36a11.66,11.66,0,0,1,.7-3.33,8.88,8.88,0,0,1,1.38-2.4,10.3,10.3,0,0,1,1.89-1.8q1.05-.78,2.2-1.46,1.4-.87,2.45-1.6a10.81,10.81,0,0,0,1.75-1.47,5,5,0,0,0,1.41-3.63,3.78,3.78,0,0,0-.34-1.63,3.9,3.9,0,0,0-2.26-2.06,4.79,4.79,0,0,0-1.64-.28,3.84,3.84,0,0,0-2,.48,4.13,4.13,0,0,0-1.35,1.26,5.26,5.26,0,0,0-.76,1.75,7.51,7.51,0,0,0-.2,2H1741A8.9,8.9,0,0,1,1741.34,1287Z"/><path class="cls-3" d="M1762.34,1301.51a4.39,4.39,0,0,0,2.73.87,3.93,3.93,0,0,0,3.63-2.09,14,14,0,0,0,1.33-6.4l-.06-.06a5.75,5.75,0,0,1-5.09,3,7.66,7.66,0,0,1-3-.54,6.11,6.11,0,0,1-2.19-1.5,6.3,6.3,0,0,1-1.33-2.33,9.46,9.46,0,0,1-.45-3,7.72,7.72,0,0,1,.53-2.9,6.53,6.53,0,0,1,1.49-2.26,6.78,6.78,0,0,1,2.29-1.47,7.86,7.86,0,0,1,2.92-.53,8.72,8.72,0,0,1,2.92.48,5.6,5.6,0,0,1,2.39,1.66,8.59,8.59,0,0,1,1.63,3.21,18.46,18.46,0,0,1,.6,5.16q0,5.71-1.81,8.76a6.25,6.25,0,0,1-5.82,3.05,7.34,7.34,0,0,1-4.59-1.4,5.66,5.66,0,0,1-2.08-4.25H1761A3.35,3.35,0,0,0,1762.34,1301.51Zm6.93-13.74a4.91,4.91,0,0,0-.87-1.6,4.14,4.14,0,0,0-1.41-1.1,4.47,4.47,0,0,0-2-.4,4.24,4.24,0,0,0-2,.43,3.73,3.73,0,0,0-1.33,1.16,4.94,4.94,0,0,0-.75,1.66,8.07,8.07,0,0,0-.23,2,4.74,4.74,0,0,0,.33,1.74,4.94,4.94,0,0,0,.9,1.49,4.34,4.34,0,0,0,1.36,1,3.93,3.93,0,0,0,1.75.39,4.39,4.39,0,0,0,1.86-.39,4.26,4.26,0,0,0,1.43-1.05,4.64,4.64,0,0,0,.9-1.55,5.56,5.56,0,0,0,.31-1.85A6.14,6.14,0,0,0,1769.27,1287.77Z"/><path class="cls-3" d="M1780.14,1300.89v3.44h-3.44v-3.44Z"/><path class="cls-3" d="M1784.45,1287a6.59,6.59,0,0,1,1.35-2.46,6.35,6.35,0,0,1,2.28-1.63,7.75,7.75,0,0,1,3.1-.59,8.43,8.43,0,0,1,2.68.42,6.53,6.53,0,0,1,2.19,1.21,5.63,5.63,0,0,1,1.47,2,6.47,6.47,0,0,1,.54,2.73,6.85,6.85,0,0,1-.45,2.57,7.32,7.32,0,0,1-1.19,2,10,10,0,0,1-1.71,1.6c-.64.48-1.3.93-2,1.37l-2,1.22a16.05,16.05,0,0,0-1.88,1.29,8.51,8.51,0,0,0-1.46,1.47,4.17,4.17,0,0,0-.79,1.81h11.29v2.33h-14.36a11.66,11.66,0,0,1,.7-3.33,8.88,8.88,0,0,1,1.38-2.4,10.3,10.3,0,0,1,1.89-1.8q1.05-.78,2.2-1.46,1.4-.87,2.45-1.6a10.81,10.81,0,0,0,1.75-1.47,5,5,0,0,0,1.41-3.63,3.78,3.78,0,0,0-.34-1.63,3.9,3.9,0,0,0-2.26-2.06,4.79,4.79,0,0,0-1.64-.28,3.84,3.84,0,0,0-2,.48,4.13,4.13,0,0,0-1.35,1.26,5.26,5.26,0,0,0-.76,1.75,7.51,7.51,0,0,0-.2,2h-2.64A8.9,8.9,0,0,1,1784.45,1287Z"/><path class="cls-3" d="M1801.35,1291a17.07,17.07,0,0,1,.31-2.54,12.5,12.5,0,0,1,.71-2.36,6.24,6.24,0,0,1,1.27-2,5.77,5.77,0,0,1,2-1.33,8.9,8.9,0,0,1,5.86,0,5.78,5.78,0,0,1,2,1.33,6.24,6.24,0,0,1,1.27,2,12.57,12.57,0,0,1,.71,2.36,17.2,17.2,0,0,1,.31,2.54q.06,1.3.06,2.51t-.06,2.51a17.26,17.26,0,0,1-.31,2.54,12.14,12.14,0,0,1-.71,2.34,6.31,6.31,0,0,1-1.27,1.94,5.63,5.63,0,0,1-2,1.32,9.23,9.23,0,0,1-5.88,0,5.61,5.61,0,0,1-2-1.32,6.31,6.31,0,0,1-1.27-1.94,12.07,12.07,0,0,1-.71-2.34,17.13,17.13,0,0,1-.31-2.54q-.06-1.3-.06-2.51T1801.35,1291Zm2.81,5.26a11.62,11.62,0,0,0,.5,2.88,5.44,5.44,0,0,0,1.35,2.28,4.11,4.11,0,0,0,5.21,0,5.44,5.44,0,0,0,1.35-2.28,11.66,11.66,0,0,0,.5-2.88c.05-1,.08-1.95.08-2.78q0-.81,0-1.78a15.66,15.66,0,0,0-.16-2,14.48,14.48,0,0,0-.4-1.91,5,5,0,0,0-.78-1.63,4,4,0,0,0-1.29-1.13,4.34,4.34,0,0,0-3.78,0,4,4,0,0,0-1.29,1.13,5,5,0,0,0-.78,1.63,14.48,14.48,0,0,0-.4,1.91,15.66,15.66,0,0,0-.16,2q0,1,0,1.78C1804.08,1294.33,1804.11,1295.26,1804.16,1296.28Z"/><path class="cls-3" d="M1825.64,1304.33v-15.76h-5.71v-2.11a13.4,13.4,0,0,0,2.17-.17,5.9,5.9,0,0,0,1.91-.63,4.36,4.36,0,0,0,1.44-1.27,4.84,4.84,0,0,0,.81-2h2v22Z"/><path class="cls-3" d="M1846.17,1285.57a3.57,3.57,0,0,0-2.54-.9,4.19,4.19,0,0,0-2.7.82,5.63,5.63,0,0,0-1.6,2.08,10,10,0,0,0-.79,2.71,22.29,22.29,0,0,0-.25,2.73l.06.06a5.66,5.66,0,0,1,2.31-2.2,7.71,7.71,0,0,1,6-.14,5.91,5.91,0,0,1,2.11,1.5,6.85,6.85,0,0,1,1.32,2.26,8.36,8.36,0,0,1,.46,2.82,9.15,9.15,0,0,1-.37,2.51,6.77,6.77,0,0,1-1.23,2.37,6.57,6.57,0,0,1-2.26,1.77,7.84,7.84,0,0,1-3.49.7,7,7,0,0,1-3.94-1,6.78,6.78,0,0,1-2.3-2.54,10.54,10.54,0,0,1-1.07-3.41,25.64,25.64,0,0,1-.26-3.6,24.37,24.37,0,0,1,.39-4.39,11.91,11.91,0,0,1,1.32-3.77,7.41,7.41,0,0,1,2.48-2.64,7.12,7.12,0,0,1,3.91-1,6.28,6.28,0,0,1,4.34,1.44A6.09,6.09,0,0,1,1850,1288h-2.64A3.8,3.8,0,0,0,1846.17,1285.57Zm-4.78,7.34A4.26,4.26,0,0,0,1840,1294a4.38,4.38,0,0,0-.88,1.58,6.31,6.31,0,0,0-.29,1.94,5.85,5.85,0,0,0,.31,1.92,4.54,4.54,0,0,0,.88,1.55,4.15,4.15,0,0,0,1.43,1,4.61,4.61,0,0,0,1.94.39,4.41,4.41,0,0,0,1.91-.39,3.92,3.92,0,0,0,1.38-1.07,4.89,4.89,0,0,0,.85-1.56,5.81,5.81,0,0,0,.29-1.85,7,7,0,0,0-.26-1.94,4.29,4.29,0,0,0-.82-1.58,4.12,4.12,0,0,0-1.4-1.07,4.45,4.45,0,0,0-2-.4A4.59,4.59,0,0,0,1841.39,1292.9Z"/><path class="cls-2" d="M893.61,77.68a11.69,11.69,0,0,0-1.72-1.28,21.11,21.11,0,0,0-3-1.58A26.3,26.3,0,0,0,885,73.5a16.94,16.94,0,0,0-4.25-.54q-3.84,0-5.73,1.42a4.68,4.68,0,0,0-1.89,4,4.09,4.09,0,0,0,.71,2.46,6.11,6.11,0,0,0,2.06,1.72,17.28,17.28,0,0,0,3.4,1.35q2.06.61,4.75,1.28,3.5.94,6.37,2a17.28,17.28,0,0,1,4.85,2.7,11.16,11.16,0,0,1,3.07,3.88,12.87,12.87,0,0,1,1.08,5.56,13.86,13.86,0,0,1-1.45,6.57,12.28,12.28,0,0,1-3.88,4.42,16.57,16.57,0,0,1-5.66,2.46,28.86,28.86,0,0,1-6.74.78A36,36,0,0,1,871,111.92a32.84,32.84,0,0,1-9.44-4.58l4.11-8a13,13,0,0,0,2.19,1.58,33.35,33.35,0,0,0,3.74,2,29,29,0,0,0,4.79,1.65,21.6,21.6,0,0,0,5.39.67q7.69,0,7.69-4.92a4.14,4.14,0,0,0-.88-2.7,7.46,7.46,0,0,0-2.49-1.89,24,24,0,0,0-3.91-1.48q-2.29-.67-5.12-1.42a43.54,43.54,0,0,1-6-2.06,16.21,16.21,0,0,1-4.21-2.6,9.46,9.46,0,0,1-2.53-3.51,12.39,12.39,0,0,1-.84-4.79,14.87,14.87,0,0,1,1.35-6.47,13.07,13.07,0,0,1,3.74-4.72,17,17,0,0,1,5.56-2.87,23,23,0,0,1,6.81-1,26.43,26.43,0,0,1,9.3,1.58,34.67,34.67,0,0,1,7.42,3.74Z"/><path class="cls-2" d="M938.18,113h-9V93.18q0-4.18-1.55-6.17a5.24,5.24,0,0,0-4.38-2,6.92,6.92,0,0,0-2.56.54,10,10,0,0,0-2.56,1.52,12.93,12.93,0,0,0-2.23,2.33,9.21,9.21,0,0,0-1.48,3V113h-9V63.79h9V84.22a13.62,13.62,0,0,1,5.29-5.29,15,15,0,0,1,7.38-1.85,11.62,11.62,0,0,1,5.6,1.18A8.92,8.92,0,0,1,936,81.38a12.94,12.94,0,0,1,1.69,4.45,27.61,27.61,0,0,1,.47,5.12Z"/><path class="cls-2" d="M962.31,113.68a19.42,19.42,0,0,1-7.75-1.48,17.41,17.41,0,0,1-5.83-4,17.69,17.69,0,0,1-3.67-5.83,19.64,19.64,0,0,1,0-14,17.71,17.71,0,0,1,3.67-5.83,17.42,17.42,0,0,1,5.83-4,19.42,19.42,0,0,1,7.75-1.48A19.18,19.18,0,0,1,970,78.55a17.52,17.52,0,0,1,5.8,4,17.74,17.74,0,0,1,3.67,5.83,19.64,19.64,0,0,1,0,14,18,18,0,0,1-3.64,5.83,17,17,0,0,1-5.8,4A19.42,19.42,0,0,1,962.31,113.68Zm-9.24-18.27a12.31,12.31,0,0,0,.71,4.28,10.45,10.45,0,0,0,2,3.34,8.71,8.71,0,0,0,2.93,2.19,8.93,8.93,0,0,0,7.28,0,8.73,8.73,0,0,0,2.93-2.19,10.37,10.37,0,0,0,2-3.37,12.59,12.59,0,0,0,.71-4.31,12.4,12.4,0,0,0-.71-4.25,10.38,10.38,0,0,0-2-3.37A8.75,8.75,0,0,0,966,85.53a8.61,8.61,0,0,0-3.64-.78,8.3,8.3,0,0,0-3.64.81,9.15,9.15,0,0,0-2.93,2.23,10.38,10.38,0,0,0-2,3.37A12.4,12.4,0,0,0,953.08,95.41Z"/><path class="cls-2" d="M1007.82,113.68a13.79,13.79,0,0,1-7.21-1.85,13.19,13.19,0,0,1-4.85-5v20.56h-9V77.68h7.89v6.07a14.41,14.41,0,0,1,5.06-4.89,14.06,14.06,0,0,1,7.15-1.79,15.13,15.13,0,0,1,6.61,1.45,16.38,16.38,0,0,1,5.23,3.91,18.24,18.24,0,0,1,3.44,5.8,20,20,0,0,1,1.25,7,22.27,22.27,0,0,1-1.15,7.21,18.47,18.47,0,0,1-3.2,5.87,14.82,14.82,0,0,1-4.92,3.91A13.89,13.89,0,0,1,1007.82,113.68Zm-3-7.69a8.12,8.12,0,0,0,3.74-.88,9.05,9.05,0,0,0,2.93-2.36,11,11,0,0,0,1.89-3.44,12.32,12.32,0,0,0,.67-4,11.42,11.42,0,0,0-.74-4.15,10.3,10.3,0,0,0-2.06-3.34,9.6,9.6,0,0,0-3.1-2.23,9.3,9.3,0,0,0-3.88-.81,8.48,8.48,0,0,0-2.63.44,9.29,9.29,0,0,0-2.5,1.25,10.89,10.89,0,0,0-2.06,1.89,7.85,7.85,0,0,0-1.38,2.36V99a12,12,0,0,0,3.71,5A8.47,8.47,0,0,0,1004.86,106Z"/><path class="cls-2" d="M1029.33,72.75v-9h9v9Zm0,40.25V77.68h9V113Z"/><path class="cls-2" d="M1048.68,113V88.73h-4.58V81.79h4.58V77.41q0-6.61,3.2-10.45a10.61,10.61,0,0,1,8.6-3.84,20.09,20.09,0,0,1,8.7,2.09L1067.35,72a11.34,11.34,0,0,0-2.39-.91,9.84,9.84,0,0,0-2.53-.37q-4.72,0-4.72,6.34v4.72h8.63v6.94h-8.63V113Z"/><path class="cls-2" d="M1072.54,119.88a16.69,16.69,0,0,0,2.22.47,13.51,13.51,0,0,0,1.75.13,3.75,3.75,0,0,0,1.55-.3,3.68,3.68,0,0,0,1.31-1.11,10.63,10.63,0,0,0,1.28-2.26,38.06,38.06,0,0,0,1.38-3.81l-14-35.33h9.3l9.64,27.51,8.5-27.51H1104L1089.06,120a12.39,12.39,0,0,1-4.52,6.24,12.19,12.19,0,0,1-7.21,2.19,16.32,16.32,0,0,1-4.79-.74Z"/><polygon class="cls-4" points="1851.92 503.69 1833.16 371.66 1821.05 333.58 1808.93 359.54 1795.08 432.24 1781.24 449.55 1741.42 357.81 1720.65 350.89 1701.61 343.97 1682.57 423.59 1666.99 523.98 1649.69 695.34 1637.57 825.16 1618.53 948.06 1606.41 975.75 1596.03 972.29 1585.64 948.06 1564.87 875.36 1549.29 712.65 1542.37 615.72 1526.79 636.49 1516.4 548.22 1502.56 527.44 1485.25 607.07 1461.02 653.8 1450.63 627.84 1435.05 620.91 1407.36 639.95 1371.01 716.12 1351.97 787.08 1305.23 1012.1 1291.38 1017.29 1251.57 979.22 1225.61 870.17 1199.64 745.54 1182.34 717.85 1158.1 729.96 1121.75 676.3 1104.44 665.92 1090.6 648.61 1049.06 662.46 1028.28 752.46 986.74 991.33 972.89 999.99 952.12 960.17 934.81 909.98 912.31 792.27 895 629.57 874.23 534.37 865.58 511.87 851.73 510.13 839.61 529.17 799.8 385.51 765.18 314.54 747.87 240.11 734.03 297.23 720.18 316.27 668.25 835.55 656.13 870.17 640.56 845.93 630.17 761.12 616.32 742.08 599.01 678.03 588.63 582.83 574.78 610.53 560.93 615.72 547.09 610.53 533.24 643.42 509.01 676.3 491.7 681.5 467.46 662.46 457.08 693.61 441.5 700.54 429.38 717.85 413.81 724.77 403.42 755.93 387.84 818.24 361.88 953.25 348.03 998.25 335.91 1015.57 318.6 1006.91 297.83 975.75 290.91 946.33 282.25 908.25 273.6 892.67 266.68 875.36 244.18 809.58 228.6 787.08 204.36 823.43 164.55 735.15 152.44 717.85 135.13 716.12 115.17 742.9 115.17 1242.46 1853.17 1242.46 1851.92 503.69"/><path class="cls-5" d="M1851.92,884.35l-30-153.52-12.12-19-19,57.12-13.85,13.85-6.92-3.46-13.85-36.35-15.58-8.65-65.78,58.85L1654,862.38l-36.35,110.78L1583,1019.89l-29.43-29.43-24.23-114.24-20.77-91.74-19-57.12L1474,781l-26,24.23-27.69-39.81-19,5.19-12.12,19-58.85,71-32.89,140.2L1280.13,1013s-13.85,1.73-17.31,3.46-24.23-31.16-24.23-31.16L1197,860.65l-29.43-36.35-12.12,29.43-19-8.65-20.77-27.69L1065.5,826l-8.65,8.65h-20.77l-26,69.24-32.89,114.24-17.31,17.31H944.33l-26-38.08-22.5-60.58-24.23-74.43-19-31.16-8.65,36.35-19,1.73-8.65-15.58L798.94,819.1,786.82,852,773,955.85l-13.85,26-13.85,8.65-10.39,32.89L722.78,860.65l-19,8.65-8.65,20.77L681.23,1014.7l-13.85,34.62-19,3.46-5.19,20.77-15.58,6.92-22.5-27.69-17.31-36.35-19-95.2-19-93.47L534.1,817.37l-3.46,13.85L515.06,846.8l-17.31,3.46-15.58-41.54-15.58-50.2-12.12,34.62-12.12,3.46L432,808.72l-24.23,26s-29.43,71-31.16,74.43-29.43,202.52-29.43,202.52l-26,29.43-22.5,1.73-12.12-13.85-17.31-38.08-38.08-117.7L203.5,987l-13.85-5.19-12.12,48.47L162,1047.59l-10.39-19L117,1108.17v134.29h1735Z"/><path class="cls-2" d="M1559.7,206.18v12.3h15.07v-12.3h3.81v28.61h-3.81v-13.1H1559.7v13.1h-3.81V206.18Z"/><path class="cls-2" d="M1583.78,220.18a9.65,9.65,0,0,1,1.92-3.45,9.06,9.06,0,0,1,3.17-2.3,11.6,11.6,0,0,1,8.68,0,9.11,9.11,0,0,1,3.15,2.3,9.67,9.67,0,0,1,1.92,3.45,13.82,13.82,0,0,1,.64,4.27,13.63,13.63,0,0,1-.64,4.25,9.69,9.69,0,0,1-1.92,3.43,8.88,8.88,0,0,1-3.15,2.28,11.86,11.86,0,0,1-8.68,0,8.83,8.83,0,0,1-3.17-2.28,9.67,9.67,0,0,1-1.92-3.43,13.6,13.6,0,0,1-.64-4.25A13.79,13.79,0,0,1,1583.78,220.18Zm3.47,7.61a7,7,0,0,0,1.38,2.44,6,6,0,0,0,2.06,1.5,6.29,6.29,0,0,0,5,0,6,6,0,0,0,2.06-1.5,7,7,0,0,0,1.38-2.44,11.43,11.43,0,0,0,0-6.69,7.23,7.23,0,0,0-1.38-2.46,5.9,5.9,0,0,0-2.06-1.52,6.28,6.28,0,0,0-5,0,5.9,5.9,0,0,0-2.06,1.52,7.22,7.22,0,0,0-1.38,2.46,11.43,11.43,0,0,0,0,6.69Z"/><path class="cls-2" d="M1610.87,206.18v28.61h-3.41V206.18Z"/><path class="cls-2" d="M1616.36,210.34v-4.17h3.41v4.17Zm3.41,3.73v20.72h-3.41V214.07Z"/><path class="cls-2" d="M1640.17,234.79V232h-.08a5,5,0,0,1-2.65,2.48,10.1,10.1,0,0,1-4,.76,9.35,9.35,0,0,1-4.19-.88,8.6,8.6,0,0,1-3-2.36,10.29,10.29,0,0,1-1.78-3.45,14.16,14.16,0,0,1-.6-4.17,14.61,14.61,0,0,1,.58-4.17,9.8,9.8,0,0,1,1.76-3.43,8.52,8.52,0,0,1,3-2.32,9.44,9.44,0,0,1,4.15-.86,10.14,10.14,0,0,1,1.72.16,8.78,8.78,0,0,1,1.84.54,7.89,7.89,0,0,1,1.74,1,5.51,5.51,0,0,1,1.38,1.54h.08V206.18h3.41v28.61Zm-12.24-7.35a7.62,7.62,0,0,0,1.16,2.46,5.68,5.68,0,0,0,2,1.72,6.08,6.08,0,0,0,2.87.64,5.62,5.62,0,0,0,4.89-2.46,7.46,7.46,0,0,0,1.1-2.5,12.13,12.13,0,0,0,0-5.79,7.29,7.29,0,0,0-1.14-2.5,5.83,5.83,0,0,0-2-1.74,6.32,6.32,0,0,0-3-.66,5.85,5.85,0,0,0-2.93.68,5.43,5.43,0,0,0-1.92,1.8,7.84,7.84,0,0,0-1,2.56,13.6,13.6,0,0,0-.32,3A10.57,10.57,0,0,0,1627.92,227.44Z"/><path class="cls-2" d="M1667.18,234.71a4.83,4.83,0,0,1-2.44.52,2.93,2.93,0,0,1-2.1-.74,3.22,3.22,0,0,1-.78-2.42,8.15,8.15,0,0,1-3.27,2.42,11.28,11.28,0,0,1-6.69.42,6.18,6.18,0,0,1-2.18-1,4.79,4.79,0,0,1-1.46-1.78,6,6,0,0,1-.54-2.67,6.09,6.09,0,0,1,.6-2.89,5.24,5.24,0,0,1,1.58-1.82,7.25,7.25,0,0,1,2.24-1.06q1.26-.36,2.58-.6t2.67-.42a14.8,14.8,0,0,0,2.22-.4,3.71,3.71,0,0,0,1.52-.76,1.86,1.86,0,0,0,.56-1.46,3.4,3.4,0,0,0-.42-1.8,2.89,2.89,0,0,0-1.08-1,4.41,4.41,0,0,0-1.48-.48,11.14,11.14,0,0,0-1.62-.12,7.21,7.21,0,0,0-3.61.82,3.49,3.49,0,0,0-1.56,3.11h-3.41a7.36,7.36,0,0,1,.8-3.25,6.08,6.08,0,0,1,1.92-2.14A8.07,8.07,0,0,1,1654,214a14.48,14.48,0,0,1,3.31-.36,19.44,19.44,0,0,1,2.79.2,7.29,7.29,0,0,1,2.5.82,4.81,4.81,0,0,1,1.8,1.74,5.56,5.56,0,0,1,.68,2.92V229.9a7.92,7.92,0,0,0,.14,1.76q.14.56.94.56a4.13,4.13,0,0,0,1-.16Zm-5.53-10.62a4.25,4.25,0,0,1-1.68.7q-1,.22-2.18.36t-2.3.32a8.51,8.51,0,0,0-2.08.58,3.78,3.78,0,0,0-1.5,1.14,3.17,3.17,0,0,0-.58,2,2.74,2.74,0,0,0,.34,1.42,2.83,2.83,0,0,0,.88.94,3.71,3.71,0,0,0,1.26.52,7,7,0,0,0,1.52.16,8.12,8.12,0,0,0,2.89-.46,6.07,6.07,0,0,0,2-1.16,4.57,4.57,0,0,0,1.12-1.52,3.82,3.82,0,0,0,.36-1.54Z"/><path class="cls-2" d="M1678.48,237.55a21.78,21.78,0,0,1-1.18,2.56,7,7,0,0,1-1.28,1.7,4.36,4.36,0,0,1-1.56,1,6,6,0,0,1-2,.3,9.13,9.13,0,0,1-1.2-.08,5.75,5.75,0,0,1-1.16-.28V239.6a5.76,5.76,0,0,0,1,.34,4.32,4.32,0,0,0,1,.14,2.93,2.93,0,0,0,1.74-.5,3.07,3.07,0,0,0,1.06-1.42l1.4-3.49-8.21-20.6h3.85l6.05,17h.08l5.81-17h3.61Z"/><path class="cls-2" d="M1710.38,214.07v3h-4.13v12.86a3.71,3.71,0,0,0,.1,1,1,1,0,0,0,.38.56,1.68,1.68,0,0,0,.78.26,11.25,11.25,0,0,0,1.3.06h1.56v3h-2.6a12.24,12.24,0,0,1-2.26-.18,3.33,3.33,0,0,1-1.52-.66,2.82,2.82,0,0,1-.86-1.36,7.87,7.87,0,0,1-.28-2.32V217.08h-3.53v-3h3.53v-6.21h3.41v6.21Z"/><path class="cls-2" d="M1717.23,214.07v4.37h.08a9.23,9.23,0,0,1,3-3.73,7.65,7.65,0,0,1,4.57-1.12v3.61a9.64,9.64,0,0,0-3.49.56,5.5,5.5,0,0,0-2.32,1.64,6.79,6.79,0,0,0-1.28,2.63,14.17,14.17,0,0,0-.4,3.55v9.22H1714V214.07Z"/><path class="cls-2" d="M1745.84,234.71a4.83,4.83,0,0,1-2.44.52,2.93,2.93,0,0,1-2.1-.74,3.22,3.22,0,0,1-.78-2.42,8.15,8.15,0,0,1-3.27,2.42,11.28,11.28,0,0,1-6.69.42,6.18,6.18,0,0,1-2.18-1,4.79,4.79,0,0,1-1.46-1.78,6,6,0,0,1-.54-2.67,6.09,6.09,0,0,1,.6-2.89,5.24,5.24,0,0,1,1.58-1.82,7.25,7.25,0,0,1,2.24-1.06q1.26-.36,2.58-.6t2.67-.42a14.8,14.8,0,0,0,2.22-.4,3.71,3.71,0,0,0,1.52-.76,1.86,1.86,0,0,0,.56-1.46,3.4,3.4,0,0,0-.42-1.8,2.89,2.89,0,0,0-1.08-1,4.41,4.41,0,0,0-1.48-.48,11.14,11.14,0,0,0-1.62-.12,7.21,7.21,0,0,0-3.61.82,3.49,3.49,0,0,0-1.56,3.11h-3.41a7.36,7.36,0,0,1,.8-3.25,6.08,6.08,0,0,1,1.92-2.14,8.07,8.07,0,0,1,2.75-1.18,14.48,14.48,0,0,1,3.31-.36,19.44,19.44,0,0,1,2.79.2,7.29,7.29,0,0,1,2.5.82,4.81,4.81,0,0,1,1.8,1.74,5.56,5.56,0,0,1,.68,2.92V229.9a7.92,7.92,0,0,0,.14,1.76q.14.56.94.56a4.13,4.13,0,0,0,1-.16Zm-5.53-10.62a4.25,4.25,0,0,1-1.68.7q-1,.22-2.18.36t-2.3.32a8.51,8.51,0,0,0-2.08.58,3.78,3.78,0,0,0-1.5,1.14,3.17,3.17,0,0,0-.58,2,2.74,2.74,0,0,0,.34,1.42,2.83,2.83,0,0,0,.88.94,3.71,3.71,0,0,0,1.26.52,7,7,0,0,0,1.52.16,8.12,8.12,0,0,0,2.89-.46,6.07,6.07,0,0,0,2-1.16,4.57,4.57,0,0,0,1.12-1.52,3.82,3.82,0,0,0,.36-1.54Z"/><path class="cls-2" d="M1746.92,217.08v-3h3.49V211a4.86,4.86,0,0,1,1.46-3.83,6.23,6.23,0,0,1,4.27-1.3,8.76,8.76,0,0,1,1.1.08,5.93,5.93,0,0,1,1.1.24v3a4.25,4.25,0,0,0-1-.22,8.35,8.35,0,0,0-1-.06,3.3,3.3,0,0,0-1.92.48,2.12,2.12,0,0,0-.68,1.84v2.89h4v3h-4v17.71h-3.41V217.08Z"/><path class="cls-2" d="M1758.06,217.08v-3h3.49V211a4.86,4.86,0,0,1,1.46-3.83,6.23,6.23,0,0,1,4.27-1.3,8.76,8.76,0,0,1,1.1.08,5.93,5.93,0,0,1,1.1.24v3a4.25,4.25,0,0,0-1-.22,8.35,8.35,0,0,0-1-.06,3.3,3.3,0,0,0-1.92.48,2.12,2.12,0,0,0-.68,1.84v2.89h4v3h-4v17.71h-3.41V217.08Z"/><path class="cls-2" d="M1772.21,210.34v-4.17h3.41v4.17Zm3.41,3.73v20.72h-3.41V214.07Z"/><path class="cls-2" d="M1793.29,217.68a5.17,5.17,0,0,0-3.45-1.08,6.35,6.35,0,0,0-3.09.68,5.5,5.5,0,0,0-2,1.8,7.57,7.57,0,0,0-1.06,2.58,14.06,14.06,0,0,0-.32,3,11.5,11.5,0,0,0,.34,2.81,7.5,7.5,0,0,0,1.06,2.42,5.36,5.36,0,0,0,1.88,1.7,5.64,5.64,0,0,0,2.77.64,5.57,5.57,0,0,0,3.95-1.32,6,6,0,0,0,1.74-3.73h3.49a9.54,9.54,0,0,1-2.87,5.93,9,9,0,0,1-6.27,2.08,10.8,10.8,0,0,1-4.19-.76,8.11,8.11,0,0,1-3-2.16,9.34,9.34,0,0,1-1.84-3.35,14,14,0,0,1-.62-4.27,15.2,15.2,0,0,1,.6-4.35,10,10,0,0,1,1.82-3.53,8.56,8.56,0,0,1,3.07-2.36,10,10,0,0,1,4.29-.86,12.51,12.51,0,0,1,3.31.42,8.06,8.06,0,0,1,2.73,1.3,7.12,7.12,0,0,1,1.94,2.22,8.2,8.2,0,0,1,1,3.19H1795A5.2,5.2,0,0,0,1793.29,217.68Z"/><path class="cls-6" d="M1566.27,259.45l2,0q1.06,0,2.1.12a16.14,16.14,0,0,1,1.94.3,4.93,4.93,0,0,1,1.54.6,7.47,7.47,0,0,1,2.38,2.32,6.46,6.46,0,0,1,1,3.65,7,7,0,0,1-1.1,3.95,6.5,6.5,0,0,1-3.15,2.46V273a6.59,6.59,0,0,1,4,2.4,7.2,7.2,0,0,1,1.4,4.49,8.54,8.54,0,0,1-.56,3,7.64,7.64,0,0,1-1.66,2.62,8.31,8.31,0,0,1-2.73,1.84,9.37,9.37,0,0,1-3.75.7h-13.83V259.45Zm1,12.3q3.25,0,4.67-1.14a4.13,4.13,0,0,0,1.42-3.43,5,5,0,0,0-.48-2.4,3.42,3.42,0,0,0-1.32-1.36,5.2,5.2,0,0,0-1.94-.62,18.64,18.64,0,0,0-2.34-.14h-7.61v9.1Zm1.92,13.1a5.47,5.47,0,0,0,3.95-1.36,5,5,0,0,0,1.42-3.77,4.68,4.68,0,0,0-.52-2.32,4,4,0,0,0-1.38-1.46,5.81,5.81,0,0,0-2-.76,12.07,12.07,0,0,0-2.32-.22h-8.7v9.9Z"/><path class="cls-6" d="M1601.14,288a4.83,4.83,0,0,1-2.44.52,2.93,2.93,0,0,1-2.1-.74,3.22,3.22,0,0,1-.78-2.42,8.15,8.15,0,0,1-3.27,2.42,11.28,11.28,0,0,1-6.69.42,6.18,6.18,0,0,1-2.18-1,4.79,4.79,0,0,1-1.46-1.78,6,6,0,0,1-.54-2.67,6.09,6.09,0,0,1,.6-2.89,5.24,5.24,0,0,1,1.58-1.82,7.25,7.25,0,0,1,2.24-1.06q1.26-.36,2.58-.6t2.67-.42a14.8,14.8,0,0,0,2.22-.4,3.71,3.71,0,0,0,1.52-.76,1.86,1.86,0,0,0,.56-1.46,3.4,3.4,0,0,0-.42-1.8,2.89,2.89,0,0,0-1.08-1,4.41,4.41,0,0,0-1.48-.48,11.14,11.14,0,0,0-1.62-.12,7.21,7.21,0,0,0-3.61.82,3.49,3.49,0,0,0-1.56,3.11h-3.41a7.36,7.36,0,0,1,.8-3.25,6.08,6.08,0,0,1,1.92-2.14,8.07,8.07,0,0,1,2.75-1.18,14.48,14.48,0,0,1,3.31-.36,19.44,19.44,0,0,1,2.79.2,7.29,7.29,0,0,1,2.5.82,4.81,4.81,0,0,1,1.8,1.74,5.56,5.56,0,0,1,.68,2.92v10.64a7.92,7.92,0,0,0,.14,1.76q.14.56.94.56a4.13,4.13,0,0,0,1-.16Zm-5.53-10.62a4.25,4.25,0,0,1-1.68.7q-1,.22-2.18.36t-2.3.32a8.51,8.51,0,0,0-2.08.58,3.78,3.78,0,0,0-1.5,1.14,3.17,3.17,0,0,0-.58,2,2.74,2.74,0,0,0,.34,1.42,2.83,2.83,0,0,0,.88.94,3.71,3.71,0,0,0,1.26.52,7,7,0,0,0,1.52.16,8.12,8.12,0,0,0,2.89-.46,6.07,6.07,0,0,0,2-1.16,4.57,4.57,0,0,0,1.12-1.52,3.82,3.82,0,0,0,.36-1.54Z"/><path class="cls-6" d="M1606.91,283.44a3.62,3.62,0,0,0,1.26,1.24,5.65,5.65,0,0,0,1.76.66,10,10,0,0,0,2,.2,12.49,12.49,0,0,0,1.68-.12,6.15,6.15,0,0,0,1.62-.44,3,3,0,0,0,1.22-.94,2.51,2.51,0,0,0,.48-1.58,2.27,2.27,0,0,0-1-2,8.55,8.55,0,0,0-2.5-1.1q-1.5-.42-3.27-.76a16.87,16.87,0,0,1-3.27-1,6.75,6.75,0,0,1-2.5-1.74,4.53,4.53,0,0,1-1-3.13,5,5,0,0,1,.7-2.69,5.73,5.73,0,0,1,1.8-1.82,8.29,8.29,0,0,1,2.48-1,11.44,11.44,0,0,1,2.75-.34,16.38,16.38,0,0,1,3.25.3,7.53,7.53,0,0,1,2.62,1,5.4,5.4,0,0,1,1.82,2,7.62,7.62,0,0,1,.8,3.15h-3.41a3.45,3.45,0,0,0-.52-1.66,3.42,3.42,0,0,0-1.12-1.06,5.11,5.11,0,0,0-1.5-.58,7.71,7.71,0,0,0-1.66-.18,10.08,10.08,0,0,0-1.54.12,5.2,5.2,0,0,0-1.42.42,2.87,2.87,0,0,0-1,.8,2,2,0,0,0-.4,1.3,1.92,1.92,0,0,0,.62,1.46,5,5,0,0,0,1.58,1,13.85,13.85,0,0,0,2.16.64l2.4.54a25.63,25.63,0,0,1,2.5.68,8.16,8.16,0,0,1,2.16,1.06,5.2,5.2,0,0,1,1.52,1.66,4.89,4.89,0,0,1,.58,2.48,5.77,5.77,0,0,1-.78,3.13,6.1,6.1,0,0,1-2,2,8.54,8.54,0,0,1-2.85,1.06,16.81,16.81,0,0,1-3.15.3,14.56,14.56,0,0,1-3.29-.36,8.06,8.06,0,0,1-2.77-1.18,6,6,0,0,1-1.92-2.16,7.49,7.49,0,0,1-.8-3.27h3.41A3.83,3.83,0,0,0,1606.91,283.44Z"/><path class="cls-6" d="M1639,286.75a9.4,9.4,0,0,1-5.85,1.76,10.64,10.64,0,0,1-4.31-.8,8.48,8.48,0,0,1-3.07-2.24,9.53,9.53,0,0,1-1.86-3.45,16.58,16.58,0,0,1-.7-4.37,12.47,12.47,0,0,1,.72-4.33,10.34,10.34,0,0,1,2-3.41,9.19,9.19,0,0,1,3.09-2.24,9.42,9.42,0,0,1,3.91-.8,8.5,8.5,0,0,1,4.59,1.14,9.08,9.08,0,0,1,2.93,2.91,11.49,11.49,0,0,1,1.52,3.85,16.5,16.5,0,0,1,.34,4h-15.51a8.21,8.21,0,0,0,.32,2.58,5.84,5.84,0,0,0,1.16,2.16,5.72,5.72,0,0,0,2,1.5,7,7,0,0,0,2.93.56,5.9,5.9,0,0,0,3.55-1,4.84,4.84,0,0,0,1.82-3H1642A8.28,8.28,0,0,1,1639,286.75Zm-.82-13.3a5.83,5.83,0,0,0-1.24-1.86,5.91,5.91,0,0,0-1.84-1.24,5.84,5.84,0,0,0-2.34-.46,5.94,5.94,0,0,0-2.38.46,5.52,5.52,0,0,0-1.82,1.26,6,6,0,0,0-1.2,1.86,7.07,7.07,0,0,0-.52,2.26h11.9A7,7,0,0,0,1638.18,273.44Z"/><path class="cls-6" d="M1649.46,259.45v28.61h-3.41V259.45Z"/><path class="cls-6" d="M1655,263.62v-4.17h3.41v4.17Zm3.41,3.73v20.72H1655V267.35Z"/><path class="cls-6" d="M1666.86,267.35v3.29h.08a7.17,7.17,0,0,1,6.73-3.77,9,9,0,0,1,3.41.56,5.61,5.61,0,0,1,2.2,1.56,5.81,5.81,0,0,1,1.18,2.38,12.85,12.85,0,0,1,.34,3.07v13.63h-3.41V274a4.12,4.12,0,0,0-1.12-3,4.17,4.17,0,0,0-3.09-1.12,7,7,0,0,0-2.71.48,5.08,5.08,0,0,0-1.9,1.36,5.87,5.87,0,0,0-1.14,2.06,8.39,8.39,0,0,0-.38,2.58v11.7h-3.41V267.35Z"/><path class="cls-6" d="M1700.6,286.75a9.4,9.4,0,0,1-5.85,1.76,10.64,10.64,0,0,1-4.31-.8,8.48,8.48,0,0,1-3.07-2.24,9.53,9.53,0,0,1-1.86-3.45,16.58,16.58,0,0,1-.7-4.37,12.47,12.47,0,0,1,.72-4.33,10.34,10.34,0,0,1,2-3.41,9.19,9.19,0,0,1,3.09-2.24,9.42,9.42,0,0,1,3.91-.8,8.5,8.5,0,0,1,4.59,1.14,9.08,9.08,0,0,1,2.93,2.91,11.49,11.49,0,0,1,1.52,3.85,16.5,16.5,0,0,1,.34,4h-15.51a8.21,8.21,0,0,0,.32,2.58,5.84,5.84,0,0,0,1.16,2.16,5.72,5.72,0,0,0,2,1.5,7,7,0,0,0,2.93.56,5.9,5.9,0,0,0,3.55-1,4.84,4.84,0,0,0,1.82-3h3.37A8.28,8.28,0,0,1,1700.6,286.75Zm-.82-13.3a5.83,5.83,0,0,0-1.24-1.86,5.91,5.91,0,0,0-1.84-1.24,5.84,5.84,0,0,0-2.34-.46,5.94,5.94,0,0,0-2.38.46,5.52,5.52,0,0,0-1.82,1.26,6,6,0,0,0-1.2,1.86,7.07,7.07,0,0,0-.52,2.26h11.9A7,7,0,0,0,1699.78,273.44Z"/><path class="cls-6" d="M1727.45,267.35v3h-4.13v12.86a3.71,3.71,0,0,0,.1,1,1,1,0,0,0,.38.56,1.68,1.68,0,0,0,.78.26,11.25,11.25,0,0,0,1.3.06h1.56v3h-2.6a12.24,12.24,0,0,1-2.26-.18,3.33,3.33,0,0,1-1.52-.66,2.82,2.82,0,0,1-.86-1.36,7.87,7.87,0,0,1-.28-2.32V270.35h-3.53v-3h3.53v-6.21h3.41v6.21Z"/><path class="cls-6" d="M1734.3,267.35v4.37h.08a9.23,9.23,0,0,1,3-3.73,7.65,7.65,0,0,1,4.57-1.12v3.61a9.64,9.64,0,0,0-3.49.56,5.5,5.5,0,0,0-2.32,1.64,6.79,6.79,0,0,0-1.28,2.63,14.17,14.17,0,0,0-.4,3.55v9.22h-3.41V267.35Z"/><path class="cls-6" d="M1762.91,288a4.83,4.83,0,0,1-2.44.52,2.93,2.93,0,0,1-2.1-.74,3.22,3.22,0,0,1-.78-2.42,8.15,8.15,0,0,1-3.27,2.42,11.28,11.28,0,0,1-6.69.42,6.18,6.18,0,0,1-2.18-1,4.79,4.79,0,0,1-1.46-1.78,6,6,0,0,1-.54-2.67,6.09,6.09,0,0,1,.6-2.89,5.24,5.24,0,0,1,1.58-1.82,7.25,7.25,0,0,1,2.24-1.06q1.26-.36,2.58-.6t2.67-.42a14.8,14.8,0,0,0,2.22-.4,3.71,3.71,0,0,0,1.52-.76,1.86,1.86,0,0,0,.56-1.46,3.4,3.4,0,0,0-.42-1.8,2.89,2.89,0,0,0-1.08-1,4.41,4.41,0,0,0-1.48-.48,11.14,11.14,0,0,0-1.62-.12,7.21,7.21,0,0,0-3.61.82,3.49,3.49,0,0,0-1.56,3.11h-3.41a7.36,7.36,0,0,1,.8-3.25,6.08,6.08,0,0,1,1.92-2.14,8.07,8.07,0,0,1,2.75-1.18,14.48,14.48,0,0,1,3.31-.36,19.44,19.44,0,0,1,2.79.2,7.29,7.29,0,0,1,2.5.82,4.81,4.81,0,0,1,1.8,1.74,5.56,5.56,0,0,1,.68,2.92v10.64a7.92,7.92,0,0,0,.14,1.76q.14.56.94.56a4.13,4.13,0,0,0,1-.16Zm-5.53-10.62a4.25,4.25,0,0,1-1.68.7q-1,.22-2.18.36t-2.3.32a8.51,8.51,0,0,0-2.08.58,3.78,3.78,0,0,0-1.5,1.14,3.17,3.17,0,0,0-.58,2,2.74,2.74,0,0,0,.34,1.42,2.83,2.83,0,0,0,.88.94,3.71,3.71,0,0,0,1.26.52,7,7,0,0,0,1.52.16,8.12,8.12,0,0,0,2.89-.46,6.07,6.07,0,0,0,2-1.16,4.57,4.57,0,0,0,1.12-1.52,3.82,3.82,0,0,0,.36-1.54Z"/><path class="cls-6" d="M1764,270.35v-3h3.49v-3.09a4.86,4.86,0,0,1,1.46-3.83,6.23,6.23,0,0,1,4.27-1.3,8.76,8.76,0,0,1,1.1.08,5.93,5.93,0,0,1,1.1.24v3a4.25,4.25,0,0,0-1-.22,8.35,8.35,0,0,0-1-.06,3.3,3.3,0,0,0-1.92.48,2.12,2.12,0,0,0-.68,1.84v2.89h4v3h-4v17.71h-3.41V270.35Z"/><path class="cls-6" d="M1775.13,270.35v-3h3.49v-3.09a4.86,4.86,0,0,1,1.46-3.83,6.23,6.23,0,0,1,4.27-1.3,8.76,8.76,0,0,1,1.1.08,5.93,5.93,0,0,1,1.1.24v3a4.25,4.25,0,0,0-1-.22,8.35,8.35,0,0,0-1-.06,3.3,3.3,0,0,0-1.92.48,2.12,2.12,0,0,0-.68,1.84v2.89h4v3h-4v17.71h-3.41V270.35Z"/><path class="cls-6" d="M1789.28,263.62v-4.17h3.41v4.17Zm3.41,3.73v20.72h-3.41V267.35Z"/><path class="cls-6" d="M1810.36,271a5.17,5.17,0,0,0-3.45-1.08,6.35,6.35,0,0,0-3.09.68,5.5,5.5,0,0,0-2,1.8,7.57,7.57,0,0,0-1.06,2.58,14.06,14.06,0,0,0-.32,3,11.5,11.5,0,0,0,.34,2.81,7.5,7.5,0,0,0,1.06,2.42,5.36,5.36,0,0,0,1.88,1.7,5.64,5.64,0,0,0,2.77.64,5.57,5.57,0,0,0,3.95-1.32,6,6,0,0,0,1.74-3.73h3.49a9.54,9.54,0,0,1-2.87,5.93,9,9,0,0,1-6.27,2.08,10.8,10.8,0,0,1-4.19-.76,8.11,8.11,0,0,1-3-2.16,9.34,9.34,0,0,1-1.84-3.35,14,14,0,0,1-.62-4.27,15.2,15.2,0,0,1,.6-4.35,10,10,0,0,1,1.82-3.53,8.56,8.56,0,0,1,3.07-2.36,10,10,0,0,1,4.29-.86,12.51,12.51,0,0,1,3.31.42,8.06,8.06,0,0,1,2.73,1.3,7.12,7.12,0,0,1,1.94,2.22,8.2,8.2,0,0,1,1,3.19H1812A5.2,5.2,0,0,0,1810.36,271Z"/><rect class="cls-4" x="1492" y="204" width="34" height="34"/><rect class="cls-5" x="1492" y="256" width="34" height="34"/></svg>