<svg id="Layer_1" data-name="Layer 1" xmlns="http://www.w3.org/2000/svg" viewBox="0 0 1809.18 849.08">
<defs>
<style>.cls-1{fill:none;stroke:#29abe2;stroke-width:0.5px;}.cls-1,.cls-4{stroke-miterlimit:10;}.cls-2{font-size:31.01px;fill:#0071bc;font-family:HelveticaNeue, Helvetica Neue;}.cls-3{fill:#29abe2;}.cls-4{fill:#cdebf8;fill-opacity:0.5;stroke:#0071bc;}</style>
</defs>
<rect class="cls-1" x="81.52" y="19.29" width="1705.13" height="732.9"/>
<line class="cls-1" x1="324.57" y1="19.29" x2="324.57" y2="752.19"/>
<line class="cls-1" x1="570.32" y1="19.29" x2="570.32" y2="752.19"/>
<line class="cls-1" x1="811.17" y1="19.29" x2="811.17" y2="752.19"/>
<line class="cls-1" x1="1052.03" y1="19.29" x2="1052.03" y2="752.19"/>
<line class="cls-1" x1="1297.77" y1="19.29" x2="1297.77" y2="752.19"/>
<line class="cls-1" x1="1543.52" y1="19.29" x2="1543.52" y2="752.19"/>
<line class="cls-1" x1="81.52" y1="265.09" x2="1786.65" y2="265.09"/>
<line class="cls-1" x1="81.52" y1="499.67" x2="1786.65" y2="499.67"/>
<text class="cls-2" transform="translate(81.52 830.03)">SEPT 22 8:00AM ET</text>
<text class="cls-2" transform="translate(1496.11 823.29)">SEPT 23 4:00AM ET</text>
<path class="cls-3" d="M878.7,799.22H863.77v38.91h-9.12V799.22h-15v-8h39Z"/>
<path class="cls-3" d="M883.65,798.69v-8.79h8.85v8.79Zm0,39.44V803.52h8.85v34.61Z"/>
<path class="cls-3" d="M954.14,838.13h-8.85V818.71q0-4.16-1.45-6.08a4.71,4.71,0,0,0-4-1.92,7.35,7.35,0,0,0-4.89,2,11.09,11.09,0,0,0-3.3,5.25v20.15h-8.85V818.71q0-4.16-1.42-6.08a4.62,4.62,0,0,0-3.93-1.92,7.54,7.54,0,0,0-4.92,2,10.78,10.78,0,0,0-3.34,5.22v20.21h-8.85V803.52h8v6.41a13.22,13.22,0,0,1,5.25-5.19,15.7,15.7,0,0,1,7.63-1.82q4.36,0,6.71,2.11a9.92,9.92,0,0,1,3.07,5.22,14.94,14.94,0,0,1,5.35-5.45,14.44,14.44,0,0,1,7.4-1.88,10.29,10.29,0,0,1,5.22,1.19,8.6,8.6,0,0,1,3.17,3.1,13,13,0,0,1,1.55,4.36,28.65,28.65,0,0,1,.43,5Z"/>
<path class="cls-3" d="M977.85,838.79a19.21,19.21,0,0,1-7.53-1.42,17,17,0,0,1-9.41-9.55,18.23,18.23,0,0,1-1.29-6.8,19.27,19.27,0,0,1,1.26-7,17,17,0,0,1,3.63-5.75,17.35,17.35,0,0,1,5.78-3.93,19.25,19.25,0,0,1,7.63-1.45,18.77,18.77,0,0,1,7.56,1.45,17.42,17.42,0,0,1,5.68,3.9,16.6,16.6,0,0,1,3.57,5.68,18.93,18.93,0,0,1,1.22,6.74q0,.86,0,1.65a6.76,6.76,0,0,1-.17,1.32H969a10.27,10.27,0,0,0,1,3.63,8.9,8.9,0,0,0,4.89,4.43,9.33,9.33,0,0,0,3.3.59,10.21,10.21,0,0,0,5-1.29,6.82,6.82,0,0,0,3.2-3.4l7.6,2.11a15.44,15.44,0,0,1-6.11,6.51A18.94,18.94,0,0,1,977.85,838.79Zm9-20.87a9.21,9.21,0,0,0-2.87-6.24,9,9,0,0,0-12.25,0,9.06,9.06,0,0,0-1.95,2.71,9.53,9.53,0,0,0-.89,3.5Z"/>
<path class="cls-3" d="M52,525.34H5.13V504.59a13.33,13.33,0,0,1,1.35-6,15.48,15.48,0,0,1,3.57-4.72,16.86,16.86,0,0,1,5-3.1,15.12,15.12,0,0,1,5.65-1.12A15.59,15.59,0,0,1,29,491.94a13.08,13.08,0,0,1,5.38,6.18l17.64-11v10.31l-15.72,9.84v9H52Zm-23.71-9.12V504.79a4.82,4.82,0,0,0-.59-2.34,6,6,0,0,0-1.62-1.88,8.08,8.08,0,0,0-2.41-1.25,9.36,9.36,0,0,0-3-.46,8.48,8.48,0,0,0-3,.53,8,8,0,0,0-2.41,1.42,6.44,6.44,0,0,0-1.59,2,5.32,5.32,0,0,0-.56,2.35v11Z"/>
<path class="cls-3" d="M52.69,465.62a19.21,19.21,0,0,1-1.42,7.53,17,17,0,0,1-9.55,9.41,18.23,18.23,0,0,1-6.8,1.29,19.27,19.27,0,0,1-7-1.26A17,17,0,0,1,22.21,479a17.35,17.35,0,0,1-3.93-5.78,19.25,19.25,0,0,1-1.45-7.63A18.77,18.77,0,0,1,18.28,458a17.42,17.42,0,0,1,3.9-5.68,16.6,16.6,0,0,1,5.68-3.57,18.93,18.93,0,0,1,6.74-1.22q.86,0,1.65,0a6.76,6.76,0,0,1,1.32.17v26.75a10.27,10.27,0,0,0,3.63-1,8.9,8.9,0,0,0,4.43-4.89,9.33,9.33,0,0,0,.59-3.3,10.21,10.21,0,0,0-1.29-5,6.82,6.82,0,0,0-3.4-3.2l2.11-7.6a15.44,15.44,0,0,1,6.51,6.11A18.94,18.94,0,0,1,52.69,465.62Zm-20.87-9a9.21,9.21,0,0,0-6.24,2.87,9,9,0,0,0,0,12.25,9.06,9.06,0,0,0,2.71,1.95,9.53,9.53,0,0,0,3.5.89Z"/>
<path class="cls-3" d="M52.69,429a13.14,13.14,0,0,1-1.42,6.08,15,15,0,0,1-3.86,4.79A18.14,18.14,0,0,1,41.7,443a21.51,21.51,0,0,1-7,1.12,19.65,19.65,0,0,1-7-1.22,17.6,17.6,0,0,1-5.65-3.4,16,16,0,0,1-3.8-5.15A15,15,0,0,1,16.82,428a13.39,13.39,0,0,1,1.82-7,15,15,0,0,1,4.79-5h-6v-7.73h38a3,3,0,0,0,2-.53,2.67,2.67,0,0,0,.63-1.85h7.53a24.56,24.56,0,0,1,.3,2.51q.1,1.39.1,2.38a6.43,6.43,0,0,1-1.68,4.49A5.59,5.59,0,0,1,60,417.13H46a12.89,12.89,0,0,1,5.05,5A14.06,14.06,0,0,1,52.69,429Zm-7.53-3.3a8,8,0,0,0-1.59-5,14.29,14.29,0,0,0-4.1-3.63H31.29a8.52,8.52,0,0,0-2.71,1.29,11.06,11.06,0,0,0-2.21,2.08,9.48,9.48,0,0,0-1.49,2.58,7.75,7.75,0,0,0-.53,2.77,8.11,8.11,0,0,0,.86,3.73,9.05,9.05,0,0,0,2.35,2.91,11.42,11.42,0,0,0,3.4,1.92,11.56,11.56,0,0,0,4,.69,11.38,11.38,0,0,0,4-.69,10.31,10.31,0,0,0,3.24-1.92,8.75,8.75,0,0,0,2.18-2.94A9,9,0,0,0,45.16,425.72Z"/>
<path class="cls-3" d="M52.69,389.79q0,5.35-3.44,8.13t-10.17,2.77H17.42v-8.85H37.17q8,0,8-5.75A9.2,9.2,0,0,0,43.61,381a11.16,11.16,0,0,0-4.72-3.93H17.42v-8.85H41.86a3,3,0,0,0,2-.53,2.57,2.57,0,0,0,.66-1.85H52q.26,1.39.36,2.44t.1,1.85a5.79,5.79,0,0,1-1.09,3.73,4.73,4.73,0,0,1-3,1.68l-2.84.2a15.28,15.28,0,0,1,5.35,6A17.84,17.84,0,0,1,52.69,389.79Z"/>
<path class="cls-3" d="M52.69,343.15a19.21,19.21,0,0,1-1.42,7.53,17,17,0,0,1-9.55,9.41,18.23,18.23,0,0,1-6.8,1.29,19.27,19.27,0,0,1-7-1.26,17,17,0,0,1-5.75-3.63,17.35,17.35,0,0,1-3.93-5.78,19.25,19.25,0,0,1-1.45-7.63,18.77,18.77,0,0,1,1.45-7.56,17.42,17.42,0,0,1,3.9-5.68,16.6,16.6,0,0,1,5.68-3.57A18.93,18.93,0,0,1,34.59,325q.86,0,1.65,0a6.76,6.76,0,0,1,1.32.17V352a10.27,10.27,0,0,0,3.63-1,8.9,8.9,0,0,0,4.43-4.89,9.33,9.33,0,0,0,.59-3.3,10.21,10.21,0,0,0-1.29-5,6.82,6.82,0,0,0-3.4-3.2l2.11-7.6a15.44,15.44,0,0,1,6.51,6.11A18.94,18.94,0,0,1,52.69,343.15Zm-20.87-9A9.21,9.21,0,0,0,25.58,337a9,9,0,0,0,0,12.25,9.06,9.06,0,0,0,2.71,1.95,9.53,9.53,0,0,0,3.5.89Z"/>
<path class="cls-3" d="M52.69,306a30.63,30.63,0,0,1-.33,4.39,37.32,37.32,0,0,1-.92,4.46A30.83,30.83,0,0,1,50,319a20,20,0,0,1-1.92,3.5l-6-3.57q4.29-6.6,4.29-12.75a8.2,8.2,0,0,0-1-4.36,3.16,3.16,0,0,0-2.84-1.59,2.9,2.9,0,0,0-2.74,1.88,35.62,35.62,0,0,0-1.95,6.31,52.66,52.66,0,0,1-1.65,5.75,14,14,0,0,1-2,3.83,6.83,6.83,0,0,1-2.58,2.11,8.24,8.24,0,0,1-3.44.66,10.31,10.31,0,0,1-8.36-4,13.59,13.59,0,0,1-2.28-4.43,18.45,18.45,0,0,1-.79-5.52,24.39,24.39,0,0,1,1.16-7.37,29.69,29.69,0,0,1,3.14-6.84l5.48,3.63a24.08,24.08,0,0,0-2.68,5.48,16.8,16.8,0,0,0-.83,5.15,8,8,0,0,0,.92,4,3.17,3.17,0,0,0,3,1.62,2.69,2.69,0,0,0,2.58-1.55,29.19,29.19,0,0,0,1.78-5.52q.93-3.7,1.85-6.31a17.76,17.76,0,0,1,2.11-4.29A7.34,7.34,0,0,1,38,292.38a8.43,8.43,0,0,1,3.73-.76,10.05,10.05,0,0,1,4.56,1,9.93,9.93,0,0,1,3.47,2.87A13.3,13.3,0,0,1,51.93,300,21.63,21.63,0,0,1,52.69,306Z"/>
<path class="cls-3" d="M50.25,265.46a38.59,38.59,0,0,1,1.59,4.39,18.66,18.66,0,0,1,.79,5.45,12.6,12.6,0,0,1-.46,3.47,7.6,7.6,0,0,1-1.49,2.84A7.24,7.24,0,0,1,48,283.56a9.55,9.55,0,0,1-3.93.73H24.22v4.49h-6.8v-4.49H6.19v-8.85H17.42v-7.33h6.8v7.33H41.13a3.09,3.09,0,0,0,2.61-1,3.79,3.79,0,0,0,.76-2.38,8.14,8.14,0,0,0-.46-2.71q-.46-1.32-.79-2.11Z"/>
<path class="cls-3" d="M52.69,247.37a30.63,30.63,0,0,1-.33,4.39,37.32,37.32,0,0,1-.92,4.46A30.83,30.83,0,0,1,50,260.38a20,20,0,0,1-1.92,3.5l-6-3.57q4.29-6.6,4.29-12.75a8.2,8.2,0,0,0-1-4.36,3.16,3.16,0,0,0-2.84-1.59,2.9,2.9,0,0,0-2.74,1.88,35.62,35.62,0,0,0-1.95,6.31,52.66,52.66,0,0,1-1.65,5.75,14,14,0,0,1-2,3.83,6.83,6.83,0,0,1-2.58,2.11,8.24,8.24,0,0,1-3.44.66,10.31,10.31,0,0,1-8.36-4,13.59,13.59,0,0,1-2.28-4.43,18.45,18.45,0,0,1-.79-5.52,24.39,24.39,0,0,1,1.16-7.37A29.69,29.69,0,0,1,21.05,234l5.48,3.63a24.08,24.08,0,0,0-2.68,5.48,16.8,16.8,0,0,0-.83,5.15,8,8,0,0,0,.92,4,3.17,3.17,0,0,0,3,1.62,2.69,2.69,0,0,0,2.58-1.55,29.19,29.19,0,0,0,1.78-5.52q.93-3.7,1.85-6.31a17.76,17.76,0,0,1,2.11-4.29A7.34,7.34,0,0,1,38,233.79a8.43,8.43,0,0,1,3.73-.76,10.05,10.05,0,0,1,4.56,1,9.93,9.93,0,0,1,3.47,2.87,13.3,13.3,0,0,1,2.18,4.52A21.63,21.63,0,0,1,52.69,247.37Z"/>
<path class="cls-4" d="M81.87,752.41V719s79.58-8,79.58-4.77S257.73,719,257.73,719L315,716.6,430.41,719l89.92,9.55H696.19l38.2-11.94,38.2-87.53,30.24-104.24,41.38-56.5L880,458.78l32.63,1.59,30.24,29.44L989,524l121.75,54.91h133.69l49.34,44.56,67.64,46.15,66.84,21.49,69.23,8.75,81.17-29.44,58.09-19.89,149.6,10.34v90.72Z"/>
</svg>
